<?xml version="1.0" standalone="yes"?>
<svg xmlns="http://www.w3.org/2000/svg" width="216" height="400">
<path style="fill:#010101; stroke:none;" d="M0 0L0 400L105 400C99.0973 360.62 39.5206 378.166 17.0903 355.907C4.39718 343.31 4 326.643 4 310C4 285.964 5 261.976 5 238C55.3626 238 105.684 239 156 239L196 239C200.212 239 207.943 237.534 211.566 240.028C217.422 244.058 213.749 262.918 213.17 269C210.712 294.822 219.754 327.063 203.945 350C188.466 372.459 162.6 368.721 139 373.665C124.619 376.678 110.688 384.391 108 400L216 400L216 0L0 0z"/>
<path style="fill:#f3eef3; stroke:none;" d="M99 1L99 2L107 2L99 1z"/>
<path style="fill:#f26774; stroke:none;" d="M107 1L107 2L116 2L107 1z"/>
<path style="fill:#f3eef3; stroke:none;" d="M116 1L116 2L124 2L116 1M93 2L93 3L97 3L93 2z"/>
<path style="fill:#f26774; stroke:none;" d="M97 2L97 3L100 3L97 2z"/>
<path style="fill:#090987; stroke:none;" d="M100 2.42517C86.1102 4.31586 72.9212 8.74701 61 16.2292C50.7955 22.6339 41.6352 31.1238 34.7215 41C-10.8784 106.139 47.9278 191.964 124 181.711C136.121 180.078 147.39 175.63 158 169.691C167.647 164.289 175.898 156.632 182.714 148C231.805 85.8232 178.976 -8.32516 100 2.42517z"/>
<path style="fill:#f26774; stroke:none;" d="M123 2L123 3L126 3L123 2z"/>
<path style="fill:#f3eef3; stroke:none;" d="M126 2L126 3L130 3L126 2M89 3L89 4L92 4L89 3z"/>
<path style="fill:#f26774; stroke:none;" d="M92 3L93 4L92 3M130.667 3.33334L131.333 3.66666L130.667 3.33334z"/>
<path style="fill:#f3eef3; stroke:none;" d="M132.667 3.33334L133.333 3.66666L132.667 3.33334M85.6667 4.33334L86.3333 4.66666L85.6667 4.33334z"/>
<path style="fill:#f26774; stroke:none;" d="M87.6667 4.33334L88.3333 4.66666L87.6667 4.33334M134.667 4.33334L135.333 4.66666L134.667 4.33334z"/>
<path style="fill:#f3eef3; stroke:none;" d="M136.667 4.33334L137.333 4.66666L136.667 4.33334M82.6667 5.33334L83.3333 5.66666L82.6667 5.33334z"/>
<path style="fill:#f26774; stroke:none;" d="M84 5L85 6L84 5M138 5L139 6L138 5z"/>
<path style="fill:#f3eef3; stroke:none;" d="M139.667 5.33334L140.333 5.66666L139.667 5.33334M79.6667 6.33334L80.3333 6.66666L79.6667 6.33334z"/>
<path style="fill:#f26774; stroke:none;" d="M81 6L82 7L81 6M141 6L142 7L141 6z"/>
<path style="fill:#f3eef3; stroke:none;" d="M142 6L143 7L142 6M77 7L78 8L77 7z"/>
<path style="fill:#f26774; stroke:none;" d="M78 7L79 8L78 7M144 7L145 8L144 7z"/>
<path style="fill:#f3eef3; stroke:none;" d="M145 7L146 8L145 7M74.6667 8.33334L75.3333 8.66666L74.6667 8.33334z"/>
<path style="fill:#f26774; stroke:none;" d="M76 8L77 9L76 8M146 8L147 9L146 8z"/>
<path style="fill:#f3eef3; stroke:none;" d="M147.667 8.33334L148.333 8.66666L147.667 8.33334M72 9L73 10L72 9z"/>
<path style="fill:#f26774; stroke:none;" d="M73 9L74 10L73 9M99 9L99 10L102 10L99 9z"/>
<path style="fill:#f3eef3; stroke:none;" d="M102 9.42825C86.9946 11.5769 73.5531 16.4491 61 25.0286C52.3796 30.9202 45.1275 38.3004 39.3557 47C-0.249493 106.696 54.0184 184.454 123 174.572C135.042 172.847 146.849 168.379 157 161.644C216.054 122.465 201.931 28.7767 132 11.375C122.434 8.99451 111.8 8.02505 102 9.42825z"/>
<path style="fill:#f26774; stroke:none;" d="M121.667 9.33334L122.333 9.66666L121.667 9.33334z"/>
<path style="fill:#f3eef3; stroke:none;" d="M149.667 9.33334L150.333 9.66666L149.667 9.33334M70 10L71 11L70 10z"/>
<path style="fill:#f26774; stroke:none;" d="M71 10L72 11L71 10M93 10L93 11L96 11L93 10M128.667 10.3333L129.333 10.6667L128.667 10.3333M151 10L152 11L151 10z"/>
<path style="fill:#f3eef3; stroke:none;" d="M152 10L153 11L152 10M68 11L69 12L68 11z"/>
<path style="fill:#f26774; stroke:none;" d="M69 11L70 12L69 11M89.6667 11.3333L90.3333 11.6667L89.6667 11.3333M132 11L133 12L132 11M153 11L154 12L153 11z"/>
<path style="fill:#f3eef3; stroke:none;" d="M154 11L155 12L154 11M66 12L67 13L66 12z"/>
<path style="fill:#f26774; stroke:none;" d="M67 12L68 13L67 12M86 12L87 13L86 12M136 12L137 13L136 12M155 12L156 13L155 12z"/>
<path style="fill:#f3eef3; stroke:none;" d="M156 12L157 13L156 12M64 13L65 14L64 13z"/>
<path style="fill:#f26774; stroke:none;" d="M65 13L66 14L65 13M83 13L84 14L83 13M139 13L140 14L139 13z"/>
<path style="fill:#f3eef3; stroke:none;" d="M157 13L158 14L157 13M63 14L64 15L63 14z"/>
<path style="fill:#f26774; stroke:none;" d="M80 14L81 15L80 14M141 14L142 15L141 14M158 14L159 15L158 14z"/>
<path style="fill:#f3eef3; stroke:none;" d="M159 14L160 15L159 14M61 15L62 16L61 15z"/>
<path style="fill:#f26774; stroke:none;" d="M62 15L63 16L62 15M78 15L79 16L78 15M144 15L145 16L144 15M160 15L161 16L160 15z"/>
<path style="fill:#f3eef3; stroke:none;" d="M59 16L60 17L59 16z"/>
<path style="fill:#f26774; stroke:none;" d="M60 16L61 17L60 16M146 16L147 17L146 16M161 16L162 17L161 16z"/>
<path style="fill:#f3eef3; stroke:none;" d="M162 16L163 17L162 16M58 17L59 18L58 17z"/>
<path style="fill:#f26774; stroke:none;" d="M148 17L149 18L148 17z"/>
<path style="fill:#f3eef3; stroke:none;" d="M163 17L164 18L163 17M56 18L55 20L56 18z"/>
<path style="fill:#f26774; stroke:none;" d="M57 18L58 19L57 18M71 18L72 19L71 18M104 18L104 19L119 19L104 18M150 18L151 19L150 18M164 18L165 19L164 18z"/>
<path style="fill:#f3eef3; stroke:none;" d="M165 18L166 19L165 18z"/>
<path style="fill:#f26774; stroke:none;" d="M56 19L57 20L56 19M96 19L96 20L100 20L96 19z"/>
<path style="fill:#ef071b; stroke:none;" d="M58 141C59.4736 150.544 72.7728 156.814 81 160.074C103.948 169.166 139.339 168.185 157.677 149.101C161.377 145.251 156.789 138.878 157.09 134C158.056 118.346 157.766 102.638 159 87C164.034 87 170.379 86.1149 174.786 89.0895C185.557 96.3589 174.89 117.628 171 126C167.072 124.582 155.312 125.93 161.608 132.397C171.676 142.739 181.299 115.742 182.961 110C190.024 85.6009 181.684 57.6862 163.996 40.0038C158.192 34.2015 148.864 25.1598 140 27C151.289 51.1842 144 84.647 144 111C144 121.935 146.293 136.62 142.258 146.996C139.835 153.227 132.738 155.13 127 157C136.33 141.488 134 122.584 134 105C134 96.0092 135.077 87.7619 126 83C138.012 72.2535 135 54.9141 135 40C135 33.6682 136.084 25.8398 129.945 21.8572C124.922 18.5988 117.717 19.0004 112 19C94.0372 18.9989 75.8928 24.2839 62 36.1698C41.7262 53.5149 31.8244 80.6404 37.2855 107C38.7769 114.199 43.4222 133.973 53.8912 132.377C57.0746 131.892 58.6526 128.012 56.9568 125.317C54.9888 122.19 50.3737 123.496 47.9699 120.682C42.5654 114.356 37.0677 88.0396 49.0046 86.1481C68.9812 82.9827 62 108.548 62 122C62 128.1 64.0128 137.487 58 141z"/>
<path style="fill:#f26774; stroke:none;" d="M122 19L122 20L126 20L122 19M152 19L153 20L152 19z"/>
<path style="fill:#f3eef3; stroke:none;" d="M166 19L167 20L166 19M54 20L55 21L54 20z"/>
<path style="fill:#f26774; stroke:none;" d="M68 20L69 21L68 20M92 20L92 21L95 21L92 20M127.667 20.3333L128.333 20.6667L127.667 20.3333M167 20L168 21L167 20M53 21L54 22L53 21M66 21L67 22L66 21M88 21L88 22L91 22L88 21M130 21L131 22L130 21M155 21L156 22L155 21M168 21L169 22L168 21z"/>
<path style="fill:#f3eef3; stroke:none;" d="M51 22L52 23L51 22z"/>
<path style="fill:#f26774; stroke:none;" d="M52 22L53 23L52 22M86 22L87 23L86 22M131 22L132 23L131 22M157 22L158 23L157 22M169 22L170 23L169 22z"/>
<path style="fill:#f3eef3; stroke:none;" d="M170 22L171 23L170 22M50 23L51 24L50 23z"/>
<path style="fill:#f26774; stroke:none;" d="M63 23L64 24L63 23M83.6667 23.3333L84.3333 23.6667L83.6667 23.3333M132 23L133 24L132 23M158 23L159 24L158 23z"/>
<path style="fill:#f3eef3; stroke:none;" d="M171 23L172 24L171 23M49 24L50 25L49 24z"/>
<path style="fill:#f26774; stroke:none;" d="M81 24L82 25L81 24M133 24L134 25L133 24z"/>
<path style="fill:#f3eef3; stroke:none;" d="M172 24L173 25L172 24z"/>
<path style="fill:#f26774; stroke:none;" d="M48 25L49 26L48 25M60 25L61 26L60 25M79 25L80 26L79 25M107 25L107 26L113 26L107 25M140 27L144 26L140 27M161 25L162 26L161 25z"/>
<path style="fill:#f3eef3; stroke:none;" d="M173 25L174 26L173 25M46 26L41 32L46 26z"/>
<path style="fill:#f26774; stroke:none;" d="M47 26L48 27L47 26M76.6667 26.3333L77.3333 26.6667L76.6667 26.3333M104 26L104 37L105 37L104 26z"/>
<path style="fill:#f3eef3; stroke:none;" d="M105 26L104 80C122.948 79.9456 119 59.8528 119 46C119 41.1853 120.648 32.4851 117.258 28.5725C114.35 25.2176 108.964 26.0004 105 26z"/>
<path style="fill:#f26774; stroke:none;" d="M115 26L116 27L115 26M134.333 26.6667L134.667 27.3333L134.333 26.6667M144.667 26.3333L145.333 26.6667L144.667 26.3333z"/>
<path style="fill:#f3eef3; stroke:none;" d="M174 26L175 27L174 26z"/>
<path style="fill:#f26774; stroke:none;" d="M46 27L47 28L46 27M57 27L58 28L57 27M74.6667 27.3333L75.3333 27.6667L74.6667 27.3333M116 27L117 28L116 27M147 27L148 28L147 27M175 27L176 28L175 27M45 28L46 29L45 28M56 28L57 29L56 28M72.6667 28.3333L73.3333 28.6667L72.6667 28.3333M140.333 28.6667L140.667 29.3333L140.333 28.6667M149 28L150 29L149 28M165 28L166 29L165 28M176 28L177 29L176 28M44 29L45 30L44 29M71 29L72 30L71 29M118 29L119 30L118 29M150 29L151 30L150 29M166 29L167 30L166 29z"/>
<path style="fill:#f3eef3; stroke:none;" d="M177 29L178 30L177 29z"/>
<path style="fill:#f26774; stroke:none;" d="M43 30L44 31L43 30M69 30L70 31L69 30M85 30L85 31L88 31L85 30M135 30L135 38L136 38L135 30M141 30L142 31L141 30M152 30L153 31L152 30M167 30L168 31L167 30z"/>
<path style="fill:#f3eef3; stroke:none;" d="M178 30L179 31L178 30z"/>
<path style="fill:#f26774; stroke:none;" d="M42 31L43 32L42 31M68 31L69 32L68 31M83 31L84 32L83 31z"/>
<path style="fill:#f3eef3; stroke:none;" d="M84 153C87.9548 139.62 86 121.009 86 107C86 81.6679 86.9146 56.2793 88 31C75.0938 32.4383 78.0898 47.3316 77.1698 57C74.9412 80.4179 76 105.478 76 129C76 138.437 73.5328 148.878 84 153z"/>
<path style="fill:#f26774; stroke:none;" d="M119 31L119 50L120 50L119 31M142 31L143 32L142 31M153 31L154 32L153 31z"/>
<path style="fill:#f3eef3; stroke:none;" d="M179 31L180 32L179 31z"/>
<path style="fill:#f26774; stroke:none;" d="M41 32L42 33L41 32M66 32L67 33L66 32M81 32L82 33L81 32M155 32L156 33L155 32z"/>
<path style="fill:#f3eef3; stroke:none;" d="M180 32L181 33L180 32z"/>
<path style="fill:#f26774; stroke:none;" d="M40 33L41 34L40 33M65 33L66 34L65 33M80 33L81 34L80 33M143 33L144 34L143 33M156 33L157 34L156 33z"/>
<path style="fill:#f3eef3; stroke:none;" d="M181 33L183 35L181 33M39 34L40 35L39 34z"/>
<path style="fill:#f26774; stroke:none;" d="M79 34L80 35L79 34M181 34L182 35L181 34z"/>
<path style="fill:#f3eef3; stroke:none;" d="M38 35L39 36L38 35z"/>
<path style="fill:#f26774; stroke:none;" d="M62 35L63 36L62 35M144.333 35.6667L144.667 36.3333L144.333 35.6667M159 35L160 36L159 35M182 35L183 36L182 35z"/>
<path style="fill:#f3eef3; stroke:none;" d="M37 36L36 38L37 36z"/>
<path style="fill:#f26774; stroke:none;" d="M61 36L62 37L61 36M78 36L79 37L78 36M87 36L87 60L88 60L87 36M160 36L161 37L160 36M173 36L174 37L173 36z"/>
<path style="fill:#f3eef3; stroke:none;" d="M183 36L184 37L183 36z"/>
<path style="fill:#f26774; stroke:none;" d="M37 37L38 38L37 37M60 37L61 38L60 37M161 37L162 38L161 37M174 37L175 38L174 37z"/>
<path style="fill:#f3eef3; stroke:none;" d="M184 37L185 38L184 37z"/>
<path style="fill:#f26774; stroke:none;" d="M36 38L37 39L36 38M59 38L60 39L59 38M77 38L77 55L78 55L77 38M162 38L163 39L162 38M175 38L176 39L175 38z"/>
<path style="fill:#f3eef3; stroke:none;" d="M35 39L36 40L35 39z"/>
<path style="fill:#f26774; stroke:none;" d="M58 39L59 40L58 39M163 39L164 40L163 39M176 39L177 40L176 39M185 39L186 40L185 39z"/>
<path style="fill:#f3eef3; stroke:none;" d="M34 40L33 43L34 43L34 40z"/>
<path style="fill:#f26774; stroke:none;" d="M57 40L58 41L57 40M164 40L165 41L164 40z"/>
<path style="fill:#f3eef3; stroke:none;" d="M186 40L187 41L186 40z"/>
<path style="fill:#f26774; stroke:none;" d="M34 41L35 42L34 41M43 41L44 42L43 41M135.333 41.6667L135.667 42.3333L135.333 41.6667M165 41L166 42L165 41z"/>
<path style="fill:#f3eef3; stroke:none;" d="M187 41L188 42L187 41z"/>
<path style="fill:#f26774; stroke:none;" d="M42 42L43 43L42 42M166 42L167 43L166 42M178 42L179 43L178 42M187 42L188 43L187 42z"/>
<path style="fill:#f3eef3; stroke:none;" d="M32 43L33 44L32 43z"/>
<path style="fill:#f26774; stroke:none;" d="M167 43L168 44L167 43M179 43L180 44L179 43z"/>
<path style="fill:#f3eef3; stroke:none;" d="M188 43L189 44L188 43z"/>
<path style="fill:#f26774; stroke:none;" d="M32 44L33 45L32 44M53 44L54 45L53 44M168 44L169 45L168 44z"/>
<path style="fill:#f3eef3; stroke:none;" d="M189 44L190 45L189 44M31 45L32 46L31 45z"/>
<path style="fill:#f26774; stroke:none;" d="M40 45L41 46L40 45M52 45L53 46L52 45M189 45L190 46L189 45z"/>
<path style="fill:#f3eef3; stroke:none;" d="M30 46L31 47L30 46z"/>
<path style="fill:#f26774; stroke:none;" d="M51 46L52 47L51 46M60 48L63 47L60 48M181 46L182 47L181 46z"/>
<path style="fill:#f3eef3; stroke:none;" d="M190 46L191 47L190 46z"/>
<path style="fill:#f26774; stroke:none;" d="M30 47L31 48L30 47M50 47L51 48L50 47z"/>
<path style="fill:#f3eef3; stroke:none;" d="M62 79L63 47C55.4799 50.6667 50.7527 60.4686 47.8117 68C46.8777 70.392 44.4627 74.8993 46.1211 77.3966C48.3365 80.7325 58.4631 79 62 79z"/>
<path style="fill:#f26774; stroke:none;" d="M159 47L159 64L160 64L159 47z"/>
<path style="fill:#f3eef3; stroke:none;" d="M160 47C160 54.2112 155.535 73.7238 160.028 79.3966C162.755 82.84 175.396 82.2908 175.678 76.9414C176.212 66.8156 166.895 53.5576 160 47z"/>
<path style="fill:#f26774; stroke:none;" d="M170 47L171 48L170 47M190 47L191 48L190 47z"/>
<path style="fill:#f3eef3; stroke:none;" d="M29 48L30 49L29 48z"/>
<path style="fill:#f26774; stroke:none;" d="M38 48L39 49L38 48M161 48L162 49L161 48M171 48L172 49L171 48z"/>
<path style="fill:#f3eef3; stroke:none;" d="M191 48L192 49L191 48z"/>
<path style="fill:#f26774; stroke:none;" d="M29 49L30 50L29 49M49 49L50 50L49 49M162 49L163 50L162 49M172 49L173 50L172 49M183 49L184 50L183 49z"/>
<path style="fill:#f3eef3; stroke:none;" d="M28 50L29 51L28 50z"/>
<path style="fill:#f26774; stroke:none;" d="M48 50L49 51L48 50M62 50L62 79L63 79L62 50M163 50L164 51L163 50z"/>
<path style="fill:#f3eef3; stroke:none;" d="M192 50L193 51L192 50z"/>
<path style="fill:#f26774; stroke:none;" d="M28 51L29 52L28 51M36 51L37 52L36 51M57 51L58 52L57 51M164 51L165 52L164 51M173 51L174 52L173 51M184 51L185 52L184 51z"/>
<path style="fill:#f3eef3; stroke:none;" d="M27 52L28 53L27 52z"/>
<path style="fill:#f26774; stroke:none;" d="M47 52L48 53L47 52M56 52L57 53L56 52M174.333 52.6667L174.667 53.3333L174.333 52.6667z"/>
<path style="fill:#f3eef3; stroke:none;" d="M193 52L194 53L193 52z"/>
<path style="fill:#f26774; stroke:none;" d="M27 53L28 54L27 53M35 53L36 54L35 53M46 53L47 54L46 53M55 53L56 54L55 53M165 53L166 54L165 53z"/>
<path style="fill:#f3eef3; stroke:none;" d="M26 54L27 55L26 54z"/>
<path style="fill:#f26774; stroke:none;" d="M166 54L167 55L166 54M175 54L176 55L175 54z"/>
<path style="fill:#f3eef3; stroke:none;" d="M194 54L195 55L194 54z"/>
<path style="fill:#f26774; stroke:none;" d="M26 55L27 56L26 55M34 55L35 56L34 55M45 55L46 56L45 55M54 55L55 56L54 55M103 55L103 80L104 80L103 55M194 55L195 56L194 55z"/>
<path style="fill:#f3eef3; stroke:none;" d="M25.3333 56.6667L25.6667 57.3333L25.3333 56.6667z"/>
<path style="fill:#f26774; stroke:none;" d="M44.3333 56.6667L44.6667 57.3333L44.3333 56.6667M53 56L54 57L53 56M167 56L168 57L167 56M176 56L177 57L176 56z"/>
<path style="fill:#f3eef3; stroke:none;" d="M195 56L196 57L195 56z"/>
<path style="fill:#f26774; stroke:none;" d="M33 57L34 58L33 57M168 57L169 58L168 57M187 57L188 58L187 57M195 57L196 58L195 57z"/>
<path style="fill:#f3eef3; stroke:none;" d="M24.3333 58.6667L24.6667 59.3333L24.3333 58.6667z"/>
<path style="fill:#f26774; stroke:none;" d="M43.3333 58.6667L43.6667 59.3333L43.3333 58.6667M52 58L53 59L52 58M177 58L178 59L177 58z"/>
<path style="fill:#f3eef3; stroke:none;" d="M196 58L197 62L198 62L196 58z"/>
<path style="fill:#f26774; stroke:none;" d="M32 59L33 60L32 59M51.3333 59.6667L51.6667 60.3333L51.3333 59.6667M169 59L170 60L169 59M188 59L189 60L188 59M24 60L25 61L24 60M42.3333 60.6667L42.6667 61.3333L42.3333 60.6667M170.333 60.6667L170.667 61.3333L170.333 60.6667M178 60L179 61L178 60M196 60L197 61L196 60z"/>
<path style="fill:#f3eef3; stroke:none;" d="M23.3333 61.6667L23.6667 62.3333L23.3333 61.6667z"/>
<path style="fill:#f26774; stroke:none;" d="M50 61L51 62L50 61M144 61L144 85L145 85L144 61M31 62L32 63L31 62M134.333 62.6667L134.667 63.3333L134.333 62.6667M171.333 62.6667L171.667 63.3333L171.333 62.6667M179 62L180 63L179 62M189 62L190 63L189 62M197 62L198 63L197 62M41 63L42 64L41 63M49 63L50 64L49 63z"/>
<path style="fill:#f3eef3; stroke:none;" d="M198.333 63.6667L198.667 64.3333L198.333 63.6667M22 64L23 65L22 64z"/>
<path style="fill:#f26774; stroke:none;" d="M30.3333 64.6667L30.6667 65.3333L30.3333 64.6667M172.333 64.6667L172.667 65.3333L172.333 64.6667M180.333 64.6667L180.667 65.3333L180.333 64.6667M190 64L191 65L190 64M22.3333 65.6667L22.6667 66.3333L22.3333 65.6667M40.3333 65.6667L40.6667 66.3333L40.3333 65.6667M48.3333 65.6667L48.6667 66.3333L48.3333 65.6667M159.333 65.6667L159.667 66.3333L159.333 65.6667M198.333 65.6667L198.667 66.3333L198.333 65.6667M134 66L134 73L135 73L134 66z"/>
<path style="fill:#f3eef3; stroke:none;" d="M199 66L199 69L200 69L199 66M21.3333 67.6667L21.6667 68.3333L21.3333 67.6667z"/>
<path style="fill:#f26774; stroke:none;" d="M29.3333 67.6667L29.6667 68.3333L29.3333 67.6667M39.3333 67.6667L39.6667 68.3333L39.3333 67.6667M173 67L174 68L173 67M181.333 67.6667L181.667 68.3333L181.333 67.6667M191 67L192 68L191 67M47 68L48 69L47 68M76 68L76 110L77 110C77 98.0427 80.6107 78.9878 76 68M21.3333 69.6667L21.6667 70.3333L21.3333 69.6667M118 69L118 73L119 73L118 69M174.333 69.6667L174.667 70.3333L174.333 69.6667M199 69L200 70L199 69M46.3333 70.6667L46.6667 71.3333L46.3333 70.6667M182.333 70.6667L182.667 71.3333L182.333 70.6667z"/>
<path style="fill:#f3eef3; stroke:none;" d="M20.3333 71.6667L20.6667 72.3333L20.3333 71.6667z"/>
<path style="fill:#f26774; stroke:none;" d="M28 71L29 72L28 71M38.3333 71.6667L38.6667 72.3333L38.3333 71.6667M192 71L193 72L192 71z"/>
<path style="fill:#f3eef3; stroke:none;" d="M200.333 71.6667L200.667 72.3333L200.333 71.6667z"/>
<path style="fill:#f26774; stroke:none;" d="M175 72L175 75L176 75L175 72M20.3333 73.6667L20.6667 74.3333L20.3333 73.6667M45.3333 73.6667L45.6667 74.3333L45.3333 73.6667M183.333 73.6667L183.667 74.3333L183.333 73.6667M200.333 73.6667L200.667 74.3333L200.333 73.6667M37 74L37 77L38 77L37 74M117 74L118 75L117 74M133 74L134 75L133 74z"/>
<path style="fill:#f3eef3; stroke:none;" d="M19 75L19 79L20 79L19 75z"/>
<path style="fill:#f26774; stroke:none;" d="M27.3333 75.6667L27.6667 76.3333L27.3333 75.6667M193 75L194 76L193 75z"/>
<path style="fill:#f3eef3; stroke:none;" d="M201 75L201 78L202 78L201 75z"/>
<path style="fill:#f26774; stroke:none;" d="M44.3333 76.6667L44.6667 77.3333L44.3333 76.6667M116 76L117 77L116 76M132 76L133 77L132 76M176 76L176 80L177 80L176 76M115 77L116 78L115 77M45 78L46 79L45 78M114 78L115 79L114 78M184 78L184 81L185 81L184 78M201 78L201 81L202 81L201 78M19 79L19 82L20 82L19 79M36 79L36 83L37 83L36 79M46 79L46 80L62 80L46 79M112 79L113 80L112 79z"/>
<path style="fill:#f3eef3; stroke:none;" d="M18 80L18 90L19 90L18 80z"/>
<path style="fill:#f26774; stroke:none;" d="M86 80L86 107L87 107L86 80M108.667 80.3333L109.333 80.6667L108.667 80.3333M128 80L129 81L128 80M159 80L160 81L159 80M175 80L176 81L175 80M194 80L194 84L195 84L194 80M26 81L26 84L27 84L26 81M127 81L128 82L127 81M126 82L127 83L126 82z"/>
<path style="fill:#f3eef3; stroke:none;" d="M202 82L202 100L203 100L202 82z"/>
<path style="fill:#f26774; stroke:none;" d="M127 83L128 84L127 83M129 84L130 85L129 84M185 84L185 99L186 99L185 84M130 85L131 86L130 85M35 86L35 98L36 98L35 86M45 86L45 87L62 87L45 86M104 86L104 87L110 87L104 86M131 86L132 87L131 86M144 86L144 89L145 89L144 86M44 87L45 88L44 87z"/>
<path style="fill:#f3eef3; stroke:none;" d="M103 87L102 158C122.526 156.194 118 125.143 118 110C118 104.459 119.587 95.8934 116.258 91.1088C113.132 86.6161 107.849 87.0032 103 87z"/>
<path style="fill:#f26774; stroke:none;" d="M112 87L113 88L112 87M132 87L133 88L132 87M159 87L159 88L172 88L159 87M43 88L44 89L43 88M62 88L62 91L63 91L62 88M114 88L115 89L114 88M174 88L175 89L174 88M115 89L116 90L115 89M133.333 89.6667L133.667 90.3333L133.333 89.6667M176 89L177 90L176 89M18 90L19 91L18 90M116 90L117 91L116 90z"/>
<path style="fill:#f3eef3; stroke:none;" d="M18 91L18 104L19 104L18 91z"/>
<path style="fill:#f26774; stroke:none;" d="M117.333 91.6667L117.667 92.3333L117.333 91.6667M158 91L158 116L159 116L158 91M177 91L178 92L177 91M42 92L42 101L43 101L42 92M62 93L63 94L62 93M134 93L134 109L135 109L134 93M178 93L178 104L179 104L178 93M118.333 95.6667L118.667 96.3333L118.333 95.6667M62 96L62 99L63 99L62 96M102 96L102 125L103 125L102 96M194 99L194 103L195 103L194 99M26 100L26 104L27 104L26 100M201 101L201 104L202 104L201 101M19 102L20 103L19 102M36 102L36 106L37 106L36 102M184 102L184 106L185 106L184 102M19.3333 104.667L19.6667 105.333L19.3333 104.667M43 104L43 109L44 109L43 104z"/>
<path style="fill:#f3eef3; stroke:none;" d="M201 104L201 107L202 107L201 104M19 106L19 110L20 110L19 106z"/>
<path style="fill:#f26774; stroke:none;" d="M193 106L193 109L194 109L193 106M177 107L177 110L178 110L177 107M27 108L28 109L27 108M37.3333 108.667L37.6667 109.333L37.3333 108.667M61 108L61 139L62 139L61 108M183.333 108.667L183.667 109.333L183.333 108.667M200.333 108.667L200.667 109.333L200.333 108.667M20 110L21 111L20 110M44 110L44 113L45 113L44 110M143 110L143 139L144 139L143 110z"/>
<path style="fill:#f3eef3; stroke:none;" d="M200.333 110.667L200.667 111.333L200.333 110.667M20 111L20 114L21 114L20 111z"/>
<path style="fill:#f26774; stroke:none;" d="M38 111L38 114L39 114L38 111M134 111L135 112L134 111M176 111L176 114L177 114L176 111M182.333 111.667L182.667 112.333L182.333 111.667M192.333 111.667L192.667 112.333L192.333 111.667M28 112L29 113L28 112M199 113L200 114L199 113M21.3333 114.667L21.6667 115.333L21.3333 114.667M45 114L45 117L46 117L45 114M181.333 114.667L181.667 115.333L181.333 114.667z"/>
<path style="fill:#f3eef3; stroke:none;" d="M199 114L199 117L200 117L199 114z"/>
<path style="fill:#f26774; stroke:none;" d="M29.3333 115.667L29.6667 116.333L29.3333 115.667M39.3333 115.667L39.6667 116.333L39.3333 115.667M175.333 115.667L175.667 116.333L175.333 115.667M191 115L192 116L191 115z"/>
<path style="fill:#f3eef3; stroke:none;" d="M21 116L22 117L21 116z"/>
<path style="fill:#f26774; stroke:none;" d="M198.333 116.667L198.667 117.333L198.333 116.667z"/>
<path style="fill:#f3eef3; stroke:none;" d="M6 117L7 118L6 117z"/>
<path style="fill:#f26774; stroke:none;" d="M7 117L6 150L7 150L9 119L7 117z"/>
<path style="fill:#f3eef3; stroke:none;" d="M8 117L9 118L8 117z"/>
<path style="fill:#f26774; stroke:none;" d="M180.333 117.667L180.667 118.333L180.333 117.667z"/>
<path style="fill:#ef071b; stroke:none;" d="M7 118L6 234L30 234L31 166C38.1099 171.461 44.3004 177.789 52 182.539C55.9994 185.007 63.4944 187.103 65.9722 191.225C72.7669 202.526 60.7562 220.799 66.6034 232.682C68.4957 236.528 87.4028 236.641 89.9722 233.397C91.9117 230.948 91 225.91 91 223C91 214.482 90.0181 205.324 92 197L127 198L127 235L152 235L152 205L153.028 192.213L167 183.547L189 166L188 236C193.002 236 208.669 238.567 211.972 234.397C216.237 229.012 213 210.786 213 204C213 175.942 214 148.032 214 120L213 120C205.263 137.368 197.739 153.18 183.83 166.715C147.311 202.25 89.1333 206.496 48 176.244C35.4824 167.038 24.1007 154.779 16.7816 141C13.0873 134.045 11.6739 123.938 7 118z"/>
<path style="fill:#f26774; stroke:none;" d="M22 118L23 119L22 118M40 118L41 119L40 118M46 118L47 119L46 118M174.333 118.667L174.667 119.333L174.333 118.667M190 118L191 119L190 118z"/>
<path style="fill:#f3eef3; stroke:none;" d="M198.333 118.667L198.667 119.333L198.333 118.667M9.33333 119.667L9.66667 120.333L9.33333 119.667M22 119L23 120L22 119z"/>
<path style="fill:#f26774; stroke:none;" d="M30 119L31 120L30 119z"/>
<path style="fill:#f3eef3; stroke:none;" d="M212 119L213 120L212 119z"/>
<path style="fill:#f26774; stroke:none;" d="M213 119L214 120L213 119z"/>
<path style="fill:#f3eef3; stroke:none;" d="M214 119L214 158L215 158C215 146.828 218.311 129.274 214 119z"/>
<path style="fill:#f26774; stroke:none;" d="M47 120L48 121L47 120M173.333 120.667L173.667 121.333L173.333 120.667M179 120L180 121L179 120M197 120L198 121L197 120M212 120L213 121L212 120M9 121L9 124L10 124L9 121M23 121L24 122L23 121M31 121L32 122L31 121M41 121L42 122L41 121M117 121L117 144L118 144L117 121M189 121L190 122L189 121z"/>
<path style="fill:#f3eef3; stroke:none;" d="M197.333 121.667L197.667 122.333L197.333 121.667M211 121L212 122L211 121M23 122L24 123L23 122z"/>
<path style="fill:#f26774; stroke:none;" d="M48 122L49 123L48 122M51 122L51 123L55 123L51 122M172 122L173 123L172 122M178.333 122.667L178.667 123.333L178.333 122.667M211.333 122.667L211.667 123.333L211.333 122.667M42 123L43 124L42 123M56 123L57 124L56 123M164.667 123.333L165.333 123.667L164.667 123.333M188 123L189 124L188 123M196 123L197 124L196 123z"/>
<path style="fill:#f3eef3; stroke:none;" d="M210.333 123.667L210.667 124.333L210.333 123.667M10.3333 124.667L10.6667 125.333L10.3333 124.667z"/>
<path style="fill:#f26774; stroke:none;" d="M24 124L25 125L24 124M32 124L33 125L32 124M43 124L44 125L43 124M57 124L58 125L57 124M162 124L163 125L162 124M167.667 124.333L168.333 124.667L167.667 124.333M171 124L172 125L171 124M177 124L178 125L177 124z"/>
<path style="fill:#f3eef3; stroke:none;" d="M196.333 124.667L196.667 125.333L196.333 124.667M24 125L25 126L24 125z"/>
<path style="fill:#f26774; stroke:none;" d="M161 125L162 126L161 125M169.667 125.333L170.333 125.667L169.667 125.333M210.333 125.667L210.667 126.333L210.333 125.667M10.3333 126.667L10.6667 127.333L10.3333 126.667M25 126L26 127L25 126M33 126L34 127L33 126M44 126L45 127L44 126M58 126L58 130L59 130L58 126M85 126L85 151L86 151L85 126M160 126L161 127L160 126M176 126L177 127L176 126M187 126L188 127L187 126M195 126L196 127L195 126z"/>
<path style="fill:#f3eef3; stroke:none;" d="M209.333 126.667L209.667 127.333L209.333 126.667M11.3333 127.667L11.6667 128.333L11.3333 127.667M25 127L26 131L27 131L25 127z"/>
<path style="fill:#f26774; stroke:none;" d="M45 127L46 128L45 127M175 127L176 128L175 127z"/>
<path style="fill:#f3eef3; stroke:none;" d="M195 127L196 128L195 127z"/>
<path style="fill:#f26774; stroke:none;" d="M26 128L27 129L26 128M34 128L35 129L34 128M159 128L159 131L160 131L159 128M186 128L187 129L186 128M194 128L195 129L194 128M209 128L210 129L209 128M11 129L12 130L11 129M46 129L47 130L46 129M174 129L175 130L174 129z"/>
<path style="fill:#f3eef3; stroke:none;" d="M194 129L195 130L194 129M208 129L209 130L208 129M12 130L13 131L12 130z"/>
<path style="fill:#f26774; stroke:none;" d="M35 130L36 131L35 130M47 130L48 131L47 130M57 130L58 131L57 130M157 130L157 142L158 142L157 130M173 130L174 131L173 130M185 130L186 131L185 130M193 130L194 131L193 130M208 130L209 131L208 130M12.3333 131.667L12.6667 132.333L12.3333 131.667M27 131L28 132L27 131M48 131L49 132L48 131M75 131L75 147L76 147L75 131M172 131L173 132L172 131z"/>
<path style="fill:#f3eef3; stroke:none;" d="M193 131L194 132L193 131M207 131L208 132L207 131M13 132L14 136L15 136L13 132M27 132L28 133L27 132z"/>
<path style="fill:#f26774; stroke:none;" d="M36 132L37 133L36 132M50.6667 132.333L51.3333 132.667L50.6667 132.333M55 132L56 133L55 132M160 132L161 133L160 132M171 132L172 133L171 132M184 132L185 133L184 132M192 132L193 133L192 132M207 132L208 133L207 132M28 133L29 134L28 133M161 133L162 134L161 133M169 133L170 134L169 133z"/>
<path style="fill:#f3eef3; stroke:none;" d="M192 133L193 134L192 133M206 133L207 134L206 133z"/>
<path style="fill:#f26774; stroke:none;" d="M13 134L14 135L13 134z"/>
<path style="fill:#f3eef3; stroke:none;" d="M28 134L29 135L28 134z"/>
<path style="fill:#f26774; stroke:none;" d="M37 134L38 135L37 134M162 134L162 135L169 135L162 134M191 134L192 135L191 134M206 134L205 138L206 138L206 134z"/>
<path style="fill:#f3eef3; stroke:none;" d="M29 135L30 136L29 135z"/>
<path style="fill:#f26774; stroke:none;" d="M133 135L133 144L134 144L133 135M182 135L183 136L182 135z"/>
<path style="fill:#f3eef3; stroke:none;" d="M191 135L192 136L191 135M205 135L206 136L205 135z"/>
<path style="fill:#f26774; stroke:none;" d="M14 136L15 137L14 136M190 136L191 137L190 136z"/>
<path style="fill:#f3eef3; stroke:none;" d="M15 137L16 138L15 137M30 137L31 138L30 137z"/>
<path style="fill:#f26774; stroke:none;" d="M39 137L40 138L39 137M181 137L182 138L181 137z"/>
<path style="fill:#f3eef3; stroke:none;" d="M190 137L191 138L190 137z"/>
<path style="fill:#f26774; stroke:none;" d="M15 138L16 139L15 138M31 138L32 139L31 138z"/>
<path style="fill:#f3eef3; stroke:none;" d="M189 138L188 141L189 138M204 138L205 139L204 138M16 139L17 140L16 139M31 139L32 140L31 139z"/>
<path style="fill:#f26774; stroke:none;" d="M188 139L189 140L188 139M204 139L205 140L204 139M16 140L17 141L16 140M32 140L33 141L32 140M41 140L42 141L41 140M59.6667 140.333L60.3333 140.667L59.6667 140.333M203 140L202 143L203 140z"/>
<path style="fill:#f3eef3; stroke:none;" d="M17 141L18 142L17 141z"/>
<path style="fill:#f26774; stroke:none;" d="M178 141L179 142L178 141M187 141L188 142L187 141z"/>
<path style="fill:#f3eef3; stroke:none;" d="M202 141L203 142L202 141z"/>
<path style="fill:#f26774; stroke:none;" d="M17 142L18 143L17 142z"/>
<path style="fill:#f3eef3; stroke:none;" d="M33 142L34 143L33 142z"/>
<path style="fill:#f26774; stroke:none;" d="M57.3333 142.667L57.6667 143.333L57.3333 142.667M158 142L159 143L158 142M186 142L187 143L186 142z"/>
<path style="fill:#f3eef3; stroke:none;" d="M18 143L20 145L18 143z"/>
<path style="fill:#f26774; stroke:none;" d="M34 143L35 144L34 143M159 143L160 144L159 143z"/>
<path style="fill:#f3eef3; stroke:none;" d="M186 143L187 144L186 143M201 143L202 144L201 143z"/>
<path style="fill:#f26774; stroke:none;" d="M18 144L19 145L18 144M35 144L36 145L35 144M44 144L45 145L44 144M160 144L160 147L161 147L160 144z"/>
<path style="fill:#f3eef3; stroke:none;" d="M185 144L186 145L185 144z"/>
<path style="fill:#f26774; stroke:none;" d="M201 144L202 145L201 144M19 145L20 146L19 145z"/>
<path style="fill:#f3eef3; stroke:none;" d="M35 145L36 146L35 145z"/>
<path style="fill:#f26774; stroke:none;" d="M45 145L46 146L45 145M58 145L59 146L58 145M175 145L176 146L175 145M184 145L185 146L184 145z"/>
<path style="fill:#f3eef3; stroke:none;" d="M200 145L199 147L200 145M20 146L22 148L20 146M36 146L37 147L36 146z"/>
<path style="fill:#f26774; stroke:none;" d="M46 146L47 147L46 146M59 146L60 147L59 146M132.333 146.667L132.667 147.333L132.333 146.667M174 146L175 147L174 146z"/>
<path style="fill:#f3eef3; stroke:none;" d="M184 146L185 147L184 146z"/>
<path style="fill:#f26774; stroke:none;" d="M200 146L201 147L200 146M20 147L21 148L20 147M37 147L38 148L37 147M60 147L61 148L60 147M116.333 147.667L116.667 148.333L116.333 147.667M142 147L143 148L142 147M173 147L174 148L173 147z"/>
<path style="fill:#f3eef3; stroke:none;" d="M183 147L184 148L183 147z"/>
<path style="fill:#f26774; stroke:none;" d="M199 147L200 148L199 147M21 148L22 149L21 148M38 148L39 149L38 148M61 148L62 149L61 148M76 148L77 149L76 148M158 148L159 149L158 148M172 148L173 149L172 148z"/>
<path style="fill:#f3eef3; stroke:none;" d="M182 148L183 149L182 148M198 148L197 150L198 148M5 149L5 216L6 216L6 170L5 149M22 149L23 150L22 149M38 149L39 150L38 149z"/>
<path style="fill:#f26774; stroke:none;" d="M77 149L78 150L77 149M131 149L132 150L131 149M141 149L142 150L141 149M157 149L158 150L157 149M181 149L182 150L181 149M198 149L199 150L198 149M22 150L23 151L22 150z"/>
<path style="fill:#f3eef3; stroke:none;" d="M39 150L40 151L39 150z"/>
<path style="fill:#f26774; stroke:none;" d="M64 150L65 151L64 150M78 150L79 151L78 150M115 150L116 151L115 150M140 150L141 151L140 150M156 150L157 151L156 150M170 150L171 151L170 150M180 150L179 152L180 150M197 150L198 151L197 150M23 151L24 152L23 151z"/>
<path style="fill:#f3eef3; stroke:none;" d="M40 151L41 152L40 151z"/>
<path style="fill:#f26774; stroke:none;" d="M65 151L66 152L65 151M130 151L131 152L130 151M139 151L140 152L139 151M154 151L155 152L154 151M169 151L170 152L169 151z"/>
<path style="fill:#f3eef3; stroke:none;" d="M180 151L181 152L180 151M196 151L195 153L196 151z"/>
<path style="fill:#f26774; stroke:none;" d="M24 152L25 153L24 152z"/>
<path style="fill:#f3eef3; stroke:none;" d="M41 152L42 153L41 152z"/>
<path style="fill:#f26774; stroke:none;" d="M67 152L68 153L67 152M81.6667 152.333L82.3333 152.667L81.6667 152.333M84 152L85 153L84 152M114 152L115 153L114 152M138 152L139 153L138 152M153 152L154 153L153 152M168 152L169 153L168 152z"/>
<path style="fill:#f3eef3; stroke:none;" d="M179 152L180 153L179 152z"/>
<path style="fill:#f26774; stroke:none;" d="M196 152L197 153L196 152z"/>
<path style="fill:#f3eef3; stroke:none;" d="M25 153L26 154L25 153M42 153L43 154L42 153z"/>
<path style="fill:#f26774; stroke:none;" d="M53 153L54 154L53 153M68 153L69 154L68 153M101 153L101 158L102 158L101 153M113 153L114 154L113 153M129 153L130 154L129 153M136 153L137 154L136 153M151 153L152 154L151 153M167 153L168 154L167 153z"/>
<path style="fill:#f3eef3; stroke:none;" d="M178 153L179 154L178 153z"/>
<path style="fill:#f26774; stroke:none;" d="M195 153L196 154L195 153M213 153L213 231L214 231L214 177L213 153M25 154L26 155L25 154z"/>
<path style="fill:#f3eef3; stroke:none;" d="M43 154L44 155L43 154z"/>
<path style="fill:#f26774; stroke:none;" d="M54 154L55 155L54 154M70 154L71 155L70 154M112 154L113 155L112 154M128 154L129 155L128 154M133.667 154.333L134.333 154.667L133.667 154.333M150 154L151 155L150 154M166 154L167 155L166 154z"/>
<path style="fill:#f3eef3; stroke:none;" d="M177 154L178 155L177 154z"/>
<path style="fill:#f26774; stroke:none;" d="M194 154L195 155L194 154M26 155L27 156L26 155z"/>
<path style="fill:#f3eef3; stroke:none;" d="M44 155L45 156L44 155z"/>
<path style="fill:#f26774; stroke:none;" d="M55 155L56 156L55 155M71 155L72 156L71 155M111 155L112 156L111 155M127 155L127 157L129 157L127 155M130.667 155.333L131.333 155.667L130.667 155.333M148 155L149 156L148 155z"/>
<path style="fill:#f3eef3; stroke:none;" d="M176 155L177 156L176 155M193 155L194 156L193 155z"/>
<path style="fill:#f26774; stroke:none;" d="M27 156L28 157L27 156z"/>
<path style="fill:#f3eef3; stroke:none;" d="M45 156L46 157L45 156z"/>
<path style="fill:#f26774; stroke:none;" d="M73 156L74 157L73 156M109 156L110 157L109 156M146.667 156.333L147.333 156.667L146.667 156.333z"/>
<path style="fill:#f3eef3; stroke:none;" d="M175 156L176 157L175 156M192 156L190 159L192 156M28 157L29 158L28 157M46 157L47 158L46 157z"/>
<path style="fill:#f26774; stroke:none;" d="M75 157L76 158L75 157M106.667 157.333L107.333 157.667L106.667 157.333M144.667 157.333L145.333 157.667L144.667 157.333M162 157L163 158L162 157z"/>
<path style="fill:#f3eef3; stroke:none;" d="M174 157L175 158L174 157z"/>
<path style="fill:#f26774; stroke:none;" d="M192 157L193 158L192 157z"/>
<path style="fill:#f3eef3; stroke:none;" d="M29 158L32 161L29 158M47 158L48 159L47 158z"/>
<path style="fill:#f26774; stroke:none;" d="M59 158L60 159L59 158M77 158L78 159L77 158M142.667 158.333L143.333 158.667L142.667 158.333M161 158L162 159L161 158z"/>
<path style="fill:#f3eef3; stroke:none;" d="M173 158L174 159L173 158z"/>
<path style="fill:#f26774; stroke:none;" d="M191 158L192 159L191 158M29 159L30 160L29 159z"/>
<path style="fill:#f3eef3; stroke:none;" d="M48 159L49 160L48 159z"/>
<path style="fill:#f26774; stroke:none;" d="M79 159L80 160L79 159M140.667 159.333L141.333 159.667L140.667 159.333z"/>
<path style="fill:#f3eef3; stroke:none;" d="M172 159L173 160L172 159z"/>
<path style="fill:#f26774; stroke:none;" d="M190 159L191 160L190 159M30 160L31 161L30 160z"/>
<path style="fill:#f3eef3; stroke:none;" d="M49 160L50 161L49 160z"/>
<path style="fill:#f26774; stroke:none;" d="M62 160L63 161L62 160M81 160L82 161L81 160M138 160L139 161L138 160M158 160L159 161L158 160M170 160L171 161L170 160z"/>
<path style="fill:#f3eef3; stroke:none;" d="M171 160L172 161L171 160M189 160L190 161L189 160M214.333 160.667L214.667 161.333L214.333 160.667z"/>
<path style="fill:#f26774; stroke:none;" d="M31 161L32 162L31 161z"/>
<path style="fill:#f3eef3; stroke:none;" d="M50 161L51 162L50 161z"/>
<path style="fill:#f26774; stroke:none;" d="M51 161L52 162L51 161M63 161L64 162L63 161M84.6667 161.333L85.3333 161.667L84.6667 161.333M135.667 161.333L136.333 161.667L135.667 161.333M157 161L158 162L157 161M169 161L170 162L169 161z"/>
<path style="fill:#f3eef3; stroke:none;" d="M188 161L189 162L188 161z"/>
<path style="fill:#f26774; stroke:none;" d="M32 162L33 163L32 162M52 162L53 163L52 162M65 162L66 163L65 162M86 162L86 163L89 163L86 162M132.667 162.333L133.333 162.667L132.667 162.333M155 162L156 163L155 162M168 162L169 163L168 162z"/>
<path style="fill:#f3eef3; stroke:none;" d="M187 162L188 163L187 162z"/>
<path style="fill:#f26774; stroke:none;" d="M33 163L34 164L33 163z"/>
<path style="fill:#f3eef3; stroke:none;" d="M53 163L54 164L53 163z"/>
<path style="fill:#f26774; stroke:none;" d="M90.6667 163.333L91.3333 163.667L90.6667 163.333M128 163L128 164L131 164L128 163z"/>
<path style="fill:#f3eef3; stroke:none;" d="M167 163L168 164L167 163M186 163L187 164L186 163z"/>
<path style="fill:#f26774; stroke:none;" d="M34 164L35 165L34 164z"/>
<path style="fill:#f3eef3; stroke:none;" d="M54 164L56 166L54 164z"/>
<path style="fill:#f26774; stroke:none;" d="M55 164L56 165L55 164M68 164L69 165L68 164M94 164L94 165L97 165L94 164M123 164L123 165L127 165L123 164M152 164L153 165L152 164M165 164L164 166L165 164z"/>
<path style="fill:#f3eef3; stroke:none;" d="M166 164L167 165L166 164M185 164L182 168L185 164z"/>
<path style="fill:#f26774; stroke:none;" d="M35 165L36 166L35 165M56 165L57 166L56 165M70 165L71 166L70 165M99 165L99 166L108 166L99 165M114 165L114 166L121 166L114 165M150 165L151 166L150 165z"/>
<path style="fill:#f3eef3; stroke:none;" d="M165 165L166 166L165 165z"/>
<path style="fill:#f26774; stroke:none;" d="M185 165L186 166L185 165M31.6667 166.333L32.3333 166.667L31.6667 166.333M36 166L37 167L36 166z"/>
<path style="fill:#f3eef3; stroke:none;" d="M57 166L58 167L57 166z"/>
<path style="fill:#f26774; stroke:none;" d="M72 166L73 167L72 166M148 166L149 167L148 166z"/>
<path style="fill:#f3eef3; stroke:none;" d="M163 166L164 167L163 166z"/>
<path style="fill:#f26774; stroke:none;" d="M184 166L185 167L184 166M188 166L184 171L188 168L188 190L189 190L188 166z"/>
<path style="fill:#f3eef3; stroke:none;" d="M31 167L31 216C39.3491 213.716 44.553 209.475 47 201L49 201C51.6903 210.317 61.1715 211.57 64.2577 219.055C66.0022 223.286 62.7632 231.931 66.6034 234.972C69.6879 237.415 88.4696 237.556 90.9722 234.397C92.9107 231.949 92 226.927 92 224L91 224L91 235L66 235L66 205L65.3966 191.39L55 184.396L31 167z"/>
<path style="fill:#f26774; stroke:none;" d="M37 167L41 171L37 167z"/>
<path style="fill:#f3eef3; stroke:none;" d="M38 167L39 168L38 167M58 167L59 168L58 167z"/>
<path style="fill:#f26774; stroke:none;" d="M59 167L60 168L59 167M74 167L75 168L74 167M146 167L147 168L146 167M161 167L162 168L161 167z"/>
<path style="fill:#f3eef3; stroke:none;" d="M162 167L163 168L162 167z"/>
<path style="fill:#f26774; stroke:none;" d="M183 167L184 168L183 167M31 168L31 173L32 173L31 168z"/>
<path style="fill:#f3eef3; stroke:none;" d="M39 168L40 169L39 168M60 168L61 169L60 168z"/>
<path style="fill:#f26774; stroke:none;" d="M61 168L62 169L61 168M76 168L77 169L76 168M144 168L145 169L144 168z"/>
<path style="fill:#f3eef3; stroke:none;" d="M160 168L161 169L160 168M181 168L182 169L181 168M187 168L167 183.55L154.028 191.418L153 205L152 235L153 235L154.179 219.133L169 202L171 202C173.392 210.364 177.585 214.68 186 217L184 219L184 220C189.153 217.929 188 212.835 188 208C188 196.58 191.408 178.504 187 168z"/>
<path style="fill:#f26774; stroke:none;" d="M35 169L36 170L35 169z"/>
<path style="fill:#f3eef3; stroke:none;" d="M40 169L41 170L40 169M62 169L63 170L62 169z"/>
<path style="fill:#f26774; stroke:none;" d="M79 169L80 170L79 169M141 169L142 170L141 169M158 169L159 170L158 169z"/>
<path style="fill:#f3eef3; stroke:none;" d="M180 169L181 170L180 169z"/>
<path style="fill:#f26774; stroke:none;" d="M36 170L37 171L36 170z"/>
<path style="fill:#f3eef3; stroke:none;" d="M41 170L42 171L41 170M63 170L64 171L63 170z"/>
<path style="fill:#f26774; stroke:none;" d="M64 170L65 171L64 170M81.6667 170.333L82.3333 170.667L81.6667 170.333M139 170L140 171L139 170M156 170L157 171L156 170z"/>
<path style="fill:#f3eef3; stroke:none;" d="M157 170L158 171L157 170z"/>
<path style="fill:#f26774; stroke:none;" d="M179 170L180 171L179 170M37 171L38 172L37 171z"/>
<path style="fill:#f3eef3; stroke:none;" d="M42 171L43 172L42 171M65 171L66 172L65 171z"/>
<path style="fill:#f26774; stroke:none;" d="M66 171L67 172L66 171M84 171L85 172L84 171M136 171L137 172L136 171M154 171L155 172L154 171z"/>
<path style="fill:#f3eef3; stroke:none;" d="M155 171L156 172L155 171M177 171L175 174L177 171z"/>
<path style="fill:#f26774; stroke:none;" d="M178 171L179 172L178 171M38 172L39 173L38 172z"/>
<path style="fill:#f3eef3; stroke:none;" d="M43 172L44 173L43 172M67 172L68 173L67 172z"/>
<path style="fill:#f26774; stroke:none;" d="M68 172L69 173L68 172M87.6667 172.333L88.3333 172.667L87.6667 172.333M133 172L134 173L133 172M152 172L153 173L152 172z"/>
<path style="fill:#f3eef3; stroke:none;" d="M153 172L154 173L153 172z"/>
<path style="fill:#f26774; stroke:none;" d="M177 172L178 173L177 172M39 173L40 174L39 173M44 173L45 174L44 173z"/>
<path style="fill:#f3eef3; stroke:none;" d="M69 173L70 174L69 173z"/>
<path style="fill:#f26774; stroke:none;" d="M70 173L71 174L70 173M91.6667 173.333L92.3333 173.667L91.6667 173.333M129 173L130 174L129 173z"/>
<path style="fill:#f3eef3; stroke:none;" d="M151.667 173.333L152.333 173.667L151.667 173.333z"/>
<path style="fill:#f26774; stroke:none;" d="M176 173L177 174L176 173M180 173L181 174L180 173M40 174L41 175L40 174M45 174L47 176L45 174z"/>
<path style="fill:#f3eef3; stroke:none;" d="M46 174L47 175L46 174M71 174L72 175L71 174z"/>
<path style="fill:#f26774; stroke:none;" d="M72 174L73 175L72 174M96.6667 174.333L97.3333 174.667L96.6667 174.333M123.667 174.333L124.333 174.667L123.667 174.333M148 174L149 175L148 174z"/>
<path style="fill:#f3eef3; stroke:none;" d="M149.667 174.333L150.333 174.667L149.667 174.333M174 174L175 175L174 174z"/>
<path style="fill:#f26774; stroke:none;" d="M179 174L180 175L179 174z"/>
<path style="fill:#f3eef3; stroke:none;" d="M47 175L48 176L47 175M73 175L74 176L73 175z"/>
<path style="fill:#f26774; stroke:none;" d="M74 175L75 176L74 175M103 175L103 176L118 176L103 175M146 175L147 176L146 175z"/>
<path style="fill:#f3eef3; stroke:none;" d="M147 175L148 176L147 175M172 175L171 177L172 175z"/>
<path style="fill:#f26774; stroke:none;" d="M173 175L174 176L173 175M178 175L179 176L178 175M31 176L32 177L31 176M43 176L44 177L43 176M48 176L49 177L48 176z"/>
<path style="fill:#f3eef3; stroke:none;" d="M75.6667 176.333L76.3333 176.667L75.6667 176.333z"/>
<path style="fill:#f26774; stroke:none;" d="M144 176L145 177L144 176z"/>
<path style="fill:#f3eef3; stroke:none;" d="M145 176L146 177L145 176z"/>
<path style="fill:#f26774; stroke:none;" d="M172 176L173 177L172 176M177 176L178 177L177 176M44 177L45 178L44 177M49 177L50 178L49 177z"/>
<path style="fill:#f3eef3; stroke:none;" d="M50 177L51 178L50 177M78 177L79 178L78 177z"/>
<path style="fill:#f26774; stroke:none;" d="M79 177L80 178L79 177M141 177L142 178L141 177z"/>
<path style="fill:#f3eef3; stroke:none;" d="M142 177L143 178L142 177M170 177L171 178L170 177z"/>
<path style="fill:#f26774; stroke:none;" d="M175 177L176 178L175 177M46 178L47 179L46 178M51 178L53 180L51 178z"/>
<path style="fill:#f3eef3; stroke:none;" d="M52 178L53 179L52 178M81 178L82 179L81 178z"/>
<path style="fill:#f26774; stroke:none;" d="M82.6667 178.333L83.3333 178.667L82.6667 178.333M138 178L139 179L138 178z"/>
<path style="fill:#f3eef3; stroke:none;" d="M139 178L140 179L139 178M168 178L169 179L168 178z"/>
<path style="fill:#f26774; stroke:none;" d="M169 178L170 179L169 178M174 178L175 179L174 178M47 179L48 180L47 179z"/>
<path style="fill:#f3eef3; stroke:none;" d="M53 179L54 180L53 179M84.6667 179.333L85.3333 179.667L84.6667 179.333z"/>
<path style="fill:#f26774; stroke:none;" d="M86 179L87 180L86 179M134.667 179.333L135.333 179.667L134.667 179.333z"/>
<path style="fill:#f3eef3; stroke:none;" d="M136.667 179.333L137.333 179.667L136.667 179.333z"/>
<path style="fill:#f26774; stroke:none;" d="M167 179L168 180L167 179M173 179L174 180L173 179M48 180L49 181L48 180M54 180L56 182L54 180z"/>
<path style="fill:#f3eef3; stroke:none;" d="M55 180L56 181L55 180M87.6667 180.333L88.3333 180.667L87.6667 180.333z"/>
<path style="fill:#f26774; stroke:none;" d="M89.6667 180.333L90.3333 180.667L89.6667 180.333M130.667 180.333L131.333 180.667L130.667 180.333z"/>
<path style="fill:#f3eef3; stroke:none;" d="M132 180L132 181L135 181L132 180M165 180L166 181L165 180z"/>
<path style="fill:#f26774; stroke:none;" d="M166 180L167 181L166 180M171 180L172 181L171 180M50 181L51 182L50 181z"/>
<path style="fill:#f3eef3; stroke:none;" d="M56 181L57 182L56 181M91 181L91 182L94 182L91 181z"/>
<path style="fill:#f26774; stroke:none;" d="M94.6667 181.333L95.3333 181.667L94.6667 181.333M125 181L125 182L128 182L125 181z"/>
<path style="fill:#f3eef3; stroke:none;" d="M128.667 181.333L129.333 181.667L128.667 181.333M163 181L164 182L163 181z"/>
<path style="fill:#f26774; stroke:none;" d="M164 181L165 182L164 181M170 181L171 182L170 181M51 182L52 183L51 182M57 182L58 183L57 182z"/>
<path style="fill:#f3eef3; stroke:none;" d="M58 182L59 183L58 182M96 182L96 183L101 183L96 182z"/>
<path style="fill:#f26774; stroke:none;" d="M101 182L101 183L104 183L101 182M116 182L116 183L120 183L116 182z"/>
<path style="fill:#f3eef3; stroke:none;" d="M120 182L120 183L125 183L120 182z"/>
<path style="fill:#f26774; stroke:none;" d="M162.667 182.333L163.333 182.667L162.667 182.333M168 182L169 183L168 182M53 183L54 184L53 183M59 183L60 184L59 183z"/>
<path style="fill:#f3eef3; stroke:none;" d="M60 183L61 184L60 183M103 183L103 184L117 184L103 183M160 183L161 184L160 183z"/>
<path style="fill:#f26774; stroke:none;" d="M161 183L162 184L161 183M167 183L168 184L167 183M55 184L56 185L55 184M61 184L62 185L61 184z"/>
<path style="fill:#f3eef3; stroke:none;" d="M62 184L63 185L62 184M158 184L159 185L158 184z"/>
<path style="fill:#f26774; stroke:none;" d="M159 184L160 185L159 184M165 184L166 185L165 184M56.6667 185.333L57.3333 185.667L56.6667 185.333M63 185L64 186L63 185z"/>
<path style="fill:#f3eef3; stroke:none;" d="M64 185L65 186L64 185M156 185L157 186L156 185z"/>
<path style="fill:#f26774; stroke:none;" d="M157 185L158 186L157 185M163 185L164 186L163 185M58 186L59 187L58 186M65 186L66 187L65 186z"/>
<path style="fill:#f3eef3; stroke:none;" d="M66 186L67 187L66 186M151 187L151 188L155 187L151 187z"/>
<path style="fill:#f26774; stroke:none;" d="M155 186L156 187L155 186M161 186L162 187L161 186M60 187L61 188L60 187M67 187L68 188L67 187z"/>
<path style="fill:#f3eef3; stroke:none;" d="M68.6667 187.333L69.3333 187.667L68.6667 187.333z"/>
<path style="fill:#f26774; stroke:none;" d="M153 187L154 188L153 187M159.667 187.333L160.333 187.667L159.667 187.333M62.6667 188.333L63.3333 188.667L62.6667 188.333M69.6667 188.333L70.3333 188.667L69.6667 188.333z"/>
<path style="fill:#f3eef3; stroke:none;" d="M71 188L72 189L71 188M149 188L150 189L149 188z"/>
<path style="fill:#f26774; stroke:none;" d="M150.667 188.333L151.333 188.667L150.667 188.333M157.667 188.333L158.333 188.667L157.667 188.333M64.6667 189.333L65.3333 189.667L64.6667 189.333M72.6667 189.333L73.3333 189.667L72.6667 189.333z"/>
<path style="fill:#f3eef3; stroke:none;" d="M74 189L75 190L74 189M146 189L147 190L146 189z"/>
<path style="fill:#f26774; stroke:none;" d="M147.667 189.333L148.333 189.667L147.667 189.333M155 189L156 190L155 189M30 190L30 234L7 234L7 235L30 235L33 218L30 190M66 190L66 209L67 209L66 190M75.6667 190.333L76.3333 190.667L75.6667 190.333z"/>
<path style="fill:#f3eef3; stroke:none;" d="M77 190L78 191L77 190M143 190L144 191L143 190z"/>
<path style="fill:#f26774; stroke:none;" d="M144.667 190.333L145.333 190.667L144.667 190.333M153 190L154 191L153 190M78.6667 191.333L79.3333 191.667L78.6667 191.333z"/>
<path style="fill:#f3eef3; stroke:none;" d="M80 191L81 192L80 191M140.667 191.333L141.333 191.667L140.667 191.333z"/>
<path style="fill:#f26774; stroke:none;" d="M142 191L143 192L142 191M152 191L152 214L153 214L152 191M81.6667 192.333L82.3333 192.667L81.6667 192.333z"/>
<path style="fill:#f3eef3; stroke:none;" d="M83.6667 192.333L84.3333 192.667L83.6667 192.333M136.667 192.333L137.333 192.667L136.667 192.333z"/>
<path style="fill:#f26774; stroke:none;" d="M138.667 192.333L139.333 192.667L138.667 192.333M85.6667 193.333L86.3333 193.667L85.6667 193.333z"/>
<path style="fill:#f3eef3; stroke:none;" d="M87 193L87 194L90 194L87 193M132.667 193.333L133.333 193.667L132.667 193.333z"/>
<path style="fill:#f26774; stroke:none;" d="M134 193L134 194L137 194L134 193M89 194L89 195L92 195L89 194z"/>
<path style="fill:#f3eef3; stroke:none;" d="M92 194L92 195L95 195L92 194M126 194L126 195L129 195L126 194z"/>
<path style="fill:#f26774; stroke:none;" d="M129 194L129 195L133 195L129 194M94 195L94 196L98 196L94 195z"/>
<path style="fill:#f3eef3; stroke:none;" d="M98 195L98 196L104 196L98 195M117 195L117 196L123 196L117 195z"/>
<path style="fill:#f26774; stroke:none;" d="M123 195L123 196L127 196L123 195M103 196L103 197L119 197L103 196M92 197L91 217L92 217L92 197z"/>
<path style="fill:#f3eef3; stroke:none;" d="M92 198L91 222L92 222L108 201L110 201C112.172 210.139 117.369 214.061 126 217L127 198L92 198z"/>
<path style="fill:#f26774; stroke:none;" d="M96 198L96 199L101 199L96 198M120 198L120 199L125 199L120 198M107.667 199.333L108.333 199.667L107.667 199.333z"/>
<path style="fill:#090987; stroke:none;" d="M47 201C44.4038 209.991 38.5387 211.582 32 217C39.763 220.701 44.1786 224.73 47 233L48 233C51.4697 224.072 55.8508 221.345 64 217L53.3904 209.815L47 201z"/>
<path style="fill:#f26774; stroke:none;" d="M108.667 201.333L109.333 201.667L108.667 201.333z"/>
<path style="fill:#090987; stroke:none;" d="M108 202C105.119 210.243 99.7442 212.462 93 217C100.322 221.927 104.642 224.36 108 233L109 233C112.78 223.968 117.812 222.44 125 217C117.756 213.118 113.275 209.812 110 202L108 202M169 202C166.394 211.024 160.601 212.646 154 218C161.691 222.217 165.766 225.678 169 234L170 234C173.215 224.577 178.386 223.056 186 218L169 202z"/>
<path style="fill:#f26774; stroke:none;" d="M46 203L47 204L46 203M49 203L50 204L49 203M107 203L108 204L107 203M110 203L111 204L110 203M168 204L169 205L168 204M171 204L172 205L171 204M45 205L46 206L45 205M47.6667 205.333L48.3333 205.667L47.6667 205.333M50 205L51 206L50 205z"/>
<path style="fill:#f3eef3; stroke:none;" d="M47 206C45.1341 211.473 41.47 214.375 36 216L36 217C41.8509 219.046 45.2083 221.972 47 228L48 228C50.5537 222.198 54.0388 219.083 60 217L60 216L47 206z"/>
<path style="fill:#f26774; stroke:none;" d="M106 206L107 207L106 206z"/>
<path style="fill:#f3eef3; stroke:none;" d="M108 206L98 217L108 228L109 228L120 217L108 206z"/>
<path style="fill:#f26774; stroke:none;" d="M109 206L110 207L109 206M167 206L168 207L167 206M169 206L171 208L169 206M172 206L173 207L172 206M44 207L45 208L44 207M51 207L52 208L51 207z"/>
<path style="fill:#f3eef3; stroke:none;" d="M169 207C167.134 212.473 163.47 215.375 158 217L158 218C163.723 220.406 166.594 223.277 169 229L170 229L181 218L169 207z"/>
<path style="fill:#f26774; stroke:none;" d="M46 208L47 209L46 208M49 208L50 209L49 208M105 208L106 209L105 208M107 208L108 209L107 208M166 208L167 209L166 208M173 208L174 209L173 208M43 209L44 210L43 209M52 209L53 210L52 209M168 209L169 210L168 209M171 209L172 210L171 209M42 210L43 211L42 210M45 210L46 211L45 210M50 210L51 211L50 210M53 210L54 211L53 210M165 210L166 211L165 210M41 211L42 212L41 211M44 211L45 212L44 211M54 211L55 212L54 211M164 211L165 212L164 211M167 211L168 212L167 211M172 211L173 212L172 211M101 212L102 213L101 212M105 212L106 213L105 212M112 212L113 213L112 212M163 212L164 213L163 212M166 212L167 213L166 212M42 213L43 214L42 213M53 213L54 214L53 213M57 213L58 214L57 213M113 213L114 214L113 213M117 213L118 214L117 213M177 213L178 214L177 213M35 214L36 215L35 214M40 214L41 215L40 214M59 214L60 215L59 214M97 214L98 215L97 214M102 214L103 215L102 214M119 214L120 215L119 214M126 214C125.543 218.279 123.977 232.1 127.603 234.972C132.166 238.586 146.301 236 152 236L152 235L127 235L126 214M160 214L161 215L160 214M164 214L165 215L164 214M33 215L34 216L33 215M38 215L39 216L38 215M57 215L58 216L57 215M62 215L63 216L62 215M95 215L96 216L95 215M100 215L101 216L100 215M162 215L163 216L162 215M176 215L177 216L176 215M181 215L182 216L181 215M5 216L5 234L6 234L5 216M97.3333 216.667L97.6667 217.333L97.3333 216.667M119 216L120 217L119 216M124 216L125 217L124 216M155 216L156 217L155 216M160 216L161 217L160 216M178 216L179 217L178 216M183 216L184 217L183 216z"/>
<path style="fill:#f3eef3; stroke:none;" d="M31 217L32 218L31 217z"/>
<path style="fill:#f26774; stroke:none;" d="M37 217L38 218L37 217M58.6667 217.333L59.3333 217.667L58.6667 217.333M63 217L64 218L63 217M120 217L121 218L120 217M181.333 217.667L181.667 218.333L181.333 217.667M185 217L186 218L185 217z"/>
<path style="fill:#f3eef3; stroke:none;" d="M34 218L35 219L34 218z"/>
<path style="fill:#f26774; stroke:none;" d="M35 218L36 219L35 218M40 218L41 219L40 218M55.6667 218.333L56.3333 218.667L55.6667 218.333M61 218L62 219L61 218z"/>
<path style="fill:#f3eef3; stroke:none;" d="M62 218L63 219L62 218M94 218L95 219L94 218z"/>
<path style="fill:#f26774; stroke:none;" d="M95 218L96 219L95 218M100 218L101 219L100 218M118 218L119 219L118 218M123 218L124 219L123 218z"/>
<path style="fill:#f3eef3; stroke:none;" d="M124.667 218.333L125.333 218.667L124.667 218.333z"/>
<path style="fill:#f26774; stroke:none;" d="M154 218L155 219L154 218M159 218L160 219L159 218z"/>
<path style="fill:#f3eef3; stroke:none;" d="M36 219L37 220L36 219z"/>
<path style="fill:#f26774; stroke:none;" d="M37 219L38 220L37 219M42 219L43 220L42 219M53 219L54 220L53 219M58 219L59 220L58 219z"/>
<path style="fill:#f3eef3; stroke:none;" d="M59 219L60 220L59 219M96 219L97 220L96 219z"/>
<path style="fill:#f26774; stroke:none;" d="M97 219L98 220L97 219M102 219L103 220L102 219M115 219L116 220L115 219M120 219L121 220L120 219z"/>
<path style="fill:#f3eef3; stroke:none;" d="M121.667 219.333L122.333 219.667L121.667 219.333M155.667 219.333L156.333 219.667L155.667 219.333z"/>
<path style="fill:#f26774; stroke:none;" d="M178 219L179 220L178 219M183 219L184 220L183 219M187 219L187 236L188 236L187 219z"/>
<path style="fill:#f3eef3; stroke:none;" d="M38 220L39 221L38 220z"/>
<path style="fill:#f26774; stroke:none;" d="M39 220L40 221L39 220M43 220L44 221L43 220M56 220L57 221L56 220z"/>
<path style="fill:#f3eef3; stroke:none;" d="M57 220L58 221L57 220M98 220L99 221L98 220z"/>
<path style="fill:#f26774; stroke:none;" d="M99 220L100 221L99 220M113 220L114 221L113 220M118 220L119 221L118 220z"/>
<path style="fill:#f3eef3; stroke:none;" d="M119 220L120 221L119 220M158 220L161 222L161 221L158 220z"/>
<path style="fill:#f26774; stroke:none;" d="M159 220L160 221L159 220M175 220L176 221L175 220M181 220L182 221L181 220z"/>
<path style="fill:#f3eef3; stroke:none;" d="M182 220L183 221L182 220M40 221L41 222L40 221z"/>
<path style="fill:#f26774; stroke:none;" d="M44 221L45 222L44 221M54 221L55 222L54 221z"/>
<path style="fill:#f3eef3; stroke:none;" d="M55 221L56 222L55 221M100 221L101 222L100 221z"/>
<path style="fill:#f26774; stroke:none;" d="M101 221L102 222L101 221M112 221L113 222L112 221M116 221L117 222L116 221z"/>
<path style="fill:#f3eef3; stroke:none;" d="M117 221L118 222L117 221z"/>
<path style="fill:#f26774; stroke:none;" d="M165 221L166 222L165 221M178 221L179 222L178 221z"/>
<path style="fill:#f3eef3; stroke:none;" d="M179.667 221.333L180.333 221.667L179.667 221.333M41 222L42 223L41 222z"/>
<path style="fill:#f26774; stroke:none;" d="M50 222L51 223L50 222z"/>
<path style="fill:#f3eef3; stroke:none;" d="M53 222L54 223L53 222z"/>
<path style="fill:#f26774; stroke:none;" d="M91.3333 222.667L91.6667 223.333L91.3333 222.667M102 222L103 223L102 222M111 222L112 223L111 222M114 222L115 223L114 222z"/>
<path style="fill:#f3eef3; stroke:none;" d="M115 222L116 223L115 222M161 222L162 223L161 222z"/>
<path style="fill:#f26774; stroke:none;" d="M162 222L163 223L162 222M176 222L177 223L176 222z"/>
<path style="fill:#f3eef3; stroke:none;" d="M177 222L178 223L177 222M42 223L43 224L42 223z"/>
<path style="fill:#f26774; stroke:none;" d="M45 223L46 224L45 223M52 223L51 225L52 223M103 223L104 224L103 223M106 223L107 224L106 223z"/>
<path style="fill:#f3eef3; stroke:none;" d="M114 223L115 224L114 223M163 223L164 224L163 223z"/>
<path style="fill:#f26774; stroke:none;" d="M172 223L173 224L172 223M175 223L176 224L175 223M43 224L44 225L43 224M49 224L50 225L49 224z"/>
<path style="fill:#f3eef3; stroke:none;" d="M52 224L53 225L52 224z"/>
<path style="fill:#f26774; stroke:none;" d="M104 224L105 225L104 224M110 224L111 225L110 224z"/>
<path style="fill:#f3eef3; stroke:none;" d="M113 224L114 225L113 224M164 224L165 225L164 224z"/>
<path style="fill:#f26774; stroke:none;" d="M174 224L173 226L174 224z"/>
<path style="fill:#f3eef3; stroke:none;" d="M43 225L44 226L43 225z"/>
<path style="fill:#f26774; stroke:none;" d="M46 225L47 226L46 225z"/>
<path style="fill:#f3eef3; stroke:none;" d="M51 225L52 226L51 225M104 225L105 226L104 225z"/>
<path style="fill:#f26774; stroke:none;" d="M112 225L113 226L112 225M165 225L166 226L165 225M167 225L168 226L167 225z"/>
<path style="fill:#f3eef3; stroke:none;" d="M174 225L175 226L174 225z"/>
<path style="fill:#f26774; stroke:none;" d="M44 226L45 227L44 226M48 226L49 227L48 226M50 226L51 227L50 226M105 226L106 227L105 226M107 226L108 227L107 226M109.333 226.667L109.667 227.333L109.333 226.667z"/>
<path style="fill:#f3eef3; stroke:none;" d="M112 226L113 227L112 226M165 226L166 227L165 226M173 226L174 227L173 226M44 227L45 228L44 227M50 227L51 228L50 227M105.333 227.667L105.667 228.333L105.333 227.667M111.333 227.667L111.667 228.333L111.333 227.667z"/>
<path style="fill:#f26774; stroke:none;" d="M166 227L167 228L166 227M168 227L169 228L168 227M170 227L171 228L170 227M172 227L173 228L172 227M45 228L46 229L45 228M108 228L109 229L108 228z"/>
<path style="fill:#f3eef3; stroke:none;" d="M166 228L167 229L166 228M172 228L173 229L172 228M45 229L46 230L45 229M49.3333 229.667L49.6667 230.333L49.3333 229.667M106.333 229.667L106.667 230.333L106.333 229.667z"/>
<path style="fill:#f26774; stroke:none;" d="M110 229L111 230L110 229M171 229L172 230L171 229z"/>
<path style="fill:#f3eef3; stroke:none;" d="M110.333 230.667L110.667 231.333L110.333 230.667z"/>
<path style="fill:#f26774; stroke:none;" d="M167 230L168 231L167 230z"/>
<path style="fill:#f3eef3; stroke:none;" d="M171.333 230.667L171.667 231.333L171.333 230.667z"/>
<path style="fill:#f26774; stroke:none;" d="M46 231L47 232L46 231M48 231L49 232L48 231M107 231L108 232L107 231M109.333 231.667L109.667 232.333L109.333 231.667z"/>
<path style="fill:#f3eef3; stroke:none;" d="M167 231L168 232L167 231M213 231L213 236L187 236L187 237C192.438 237 216.515 240.251 213 231M46 232L47 233L46 232M48 232L49 233L48 232M107 232L110 234L110 233L107 232z"/>
<path style="fill:#f26774; stroke:none;" d="M168 232L169 233L168 232M170 232L171 233L170 232z"/>
<path style="fill:#f3eef3; stroke:none;" d="M47 233L48 234L47 233M168 233L169 234L168 233M170 233L171 234L170 233M5.66667 234.333L6.33333 234.667L5.66667 234.333M30 234L31 235L30 234z"/>
<path style="fill:#f26774; stroke:none;" d="M66 234L67 235L66 234M90 234L91 235L90 234z"/>
<path style="fill:#f3eef3; stroke:none;" d="M169 234L170 235L169 234M126 235L127 236L126 235z"/>
<path style="fill:#f26774; stroke:none;" d="M212 235L213 236L212 235z"/>
<path style="fill:#f3eef3; stroke:none;" d="M5 238L5 247L6 247L5 238z"/>
<path style="fill:#f26774; stroke:none;" d="M6 238L6 239L50 239C38.5366 234.19 18.4804 238 6 238z"/>
<path style="fill:#f3eef3; stroke:none;" d="M50 238L50 239L116 239L95 238L50 238M117.667 238.333L118.333 238.667L117.667 238.333z"/>
<path style="fill:#090987; stroke:none;" d="M6 239C6 263.627 5 288.306 5 313C5 328.666 5.62065 345.226 18.0903 356.699C42.7221 379.363 94.4577 359.01 106 399L107 399C122.626 358.781 168.089 381.804 195 359.671C210.577 346.858 212 326.696 212 308L212 240L6 239z"/>
<path style="fill:#f26774; stroke:none;" d="M129 239L130 240L129 239M131 239L132 240L131 239M134 239L134 240L188 240L170 239L134 239z"/>
<path style="fill:#f3eef3; stroke:none;" d="M188 239L188 240L191 240L188 239z"/>
<path style="fill:#f26774; stroke:none;" d="M191 239L191 240L194 240L191 239z"/>
<path style="fill:#f3eef3; stroke:none;" d="M194.667 239.333L195.333 239.667L194.667 239.333z"/>
<path style="fill:#f26774; stroke:none;" d="M196 239L197 240L196 239z"/>
<path style="fill:#f3eef3; stroke:none;" d="M197 239L197 240L213 240L197 239z"/>
<path style="fill:#f26774; stroke:none;" d="M212 240L212 276L213 276C213 265.613 216.011 249.56 212 240z"/>
<path style="fill:#f3eef3; stroke:none;" d="M213 241L213 267L214 267L213 241z"/>
<path style="fill:#f26774; stroke:none;" d="M5 247L6 248L5 247z"/>
<path style="fill:#f3eef3; stroke:none;" d="M5 248L6 249L5 248z"/>
<path style="fill:#f26774; stroke:none;" d="M5 249L5 256L6 256L5 249z"/>
<path style="fill:#f3eef3; stroke:none;" d="M4 256L4 331L5 331L5 279L4 256z"/>
<path style="fill:#f26774; stroke:none;" d="M26 257L27 258L26 257z"/>
<path style="fill:#f3eef3; stroke:none;" d="M17 288C20.3139 285.914 20.2503 281.944 23.2785 279.608C29.3223 274.946 32.0953 283.689 33 288L38 288L30 257C22.3317 259.483 18.2846 280.535 17 288M46 257L42 288C46.6379 284.993 45.773 274.288 46 269L54 288L64 269L66 288L71 288L69 258L66 257L57 278L48 257L46 257z"/>
<path style="fill:#f26774; stroke:none;" d="M48 257L49 258L48 257M67 257L68 258L67 257M76 257L76 258L89 258L87 260L87 261L90 260L90 258L76 257M94.3333 257.667L94.6667 258.333L94.3333 257.667z"/>
<path style="fill:#f3eef3; stroke:none;" d="M94 288L99 288L99 276C104.41 280.941 103.874 287.463 112 289C110.716 284.544 106.601 279.612 106.554 275C106.504 270.048 111.671 266.61 109.257 261.214C107.433 257.136 97.1428 254.488 94.8611 259.317C91.5472 266.331 94 280.28 94 288z"/>
<path style="fill:#f26774; stroke:none;" d="M105 257L106 258L105 257M137.667 257.333L138.333 257.667L137.667 257.333z"/>
<path style="fill:#f3eef3; stroke:none;" d="M147 285C126.184 292.907 127.167 253.371 147 262C144.139 253.372 130.978 258.637 128.228 265.015C125.729 270.815 125.958 281.053 130.279 285.891C134.645 290.781 144.675 292.362 147 285z"/>
<path style="fill:#f26774; stroke:none;" d="M140 257L140 258L144 258L140 257M30 258L31 259L30 258M45 258L45 261L46 261L45 258z"/>
<path style="fill:#f3eef3; stroke:none;" d="M76 258L76 289L89 289L89 285C78.9997 284.674 78.6041 272.402 89 274L89 270L81 270C81.0229 263.527 81.9643 260.229 89 260L89 258L76 258z"/>
<path style="fill:#f26774; stroke:none;" d="M107 258L108 259L107 258z"/>
<path style="fill:#f3eef3; stroke:none;" d="M117 258L116 288L122 289L122 258L117 258z"/>
<path style="fill:#f26774; stroke:none;" d="M134 258L135 259L134 258M146 258L147 259L146 258M159 259L159 260L164 259L159 259M176 280L177 280L177 259L182 261C173.891 252.959 176 275.748 176 280M49 259L50 260L49 259M68 259L69 260L68 259M99 259L100 260L99 259z"/>
<path style="fill:#090987; stroke:none;" d="M100 271C111.371 267.408 97.9773 252.514 99.179 266.955C99.2943 268.341 99.6796 269.654 100 271z"/>
<path style="fill:#f26774; stroke:none;" d="M122 259L122 264L123 264L122 259M132 259L133 260L132 259M138 259L139 260L138 259M142 259L143 260L142 259z"/>
<path style="fill:#f3eef3; stroke:none;" d="M150 289C155.163 287.49 153.396 279.655 160 280.106C167.328 280.608 163.736 291.337 172 289L164 259C155.897 260.348 151.998 281.679 150 289M177 259L176 290L179 290L179 270L197 290L197 259L194 260L194 278C188.958 272.172 184.633 261.245 177 259z"/>
<path style="fill:#f26774; stroke:none;" d="M194 259L195 260L194 259M25 260L26 261L25 260M64 260L65 261L64 260M94.3333 260.667L94.6667 261.333L94.3333 260.667M109 260L110 261L109 260M136 260L137 261L136 260M144 260L145 261L144 260M164.333 260.667L164.667 261.333L164.333 260.667M31.3333 261.667L31.6667 262.333L31.3333 261.667M81 261L81 266L82 266L81 261M104 261L105 262L104 261M135 261L136 262L135 261M194 261L194 266L195 266L194 261M50 262L51 263L50 262M63 262L64 263L63 262M129 262L130 263L129 262M134 262L135 263L134 262M146 262L147 263L146 262M158.333 262.667L158.667 263.333L158.333 262.667M182 262L183 263L182 262M24 263L25 264L24 263M110 263L111 264L110 263M51.3333 264.667L51.6667 265.333L51.3333 264.667M133 264L134 265L133 264M165.333 264.667L165.667 265.333L165.333 264.667z"/>
<path style="fill:#090987; stroke:none;" d="M26 265L23 275L29 275L26 265z"/>
<path style="fill:#f26774; stroke:none;" d="M32.3333 265.667L32.6667 266.333L32.3333 265.667M44 265L44 269L45 269L44 265M62 265L63 266L62 265M94 265L95 266L94 265M157.333 265.667L157.667 266.333L157.333 265.667M184 265L185 266L184 265M23 266L24 267L23 266M25 266L26 267L25 266M27 266L28 267L27 266M127 266L128 267L127 266z"/>
<path style="fill:#090987; stroke:none;" d="M159 266C158.011 270.795 155.572 277.692 163 276L159 266z"/>
<path style="fill:#f26774; stroke:none;" d="M160 266L161 267L160 266M52 267L53 268L52 267M61 267L62 268L61 267M69 267L69 273L70 273L69 267M81 267L82 268L81 267M94 267L94 270L95 270L94 267M132 267L133 268L132 267M194 267L194 275L195 275L194 267M104 268L105 269L104 268M109 268L110 269L109 268M158 268L159 269L158 268M161.333 268.667L161.667 269.333L161.333 268.667M186 268L187 269L186 268M22 269L23 270L22 269M24 269L25 270L24 269M28.3333 269.667L28.6667 270.333L28.3333 269.667M33 269L34 270L33 269M47 269L48 270L47 269M63 269L64 270L63 269M81 269L82 270L81 269M99.3333 269.667L99.6667 270.333L99.3333 269.667M126 269L126 279L127 279L126 269M156 269L157 270L156 269M166 269L167 270L166 269M53 270L54 271L53 270M60 270L61 271L60 270M64 270L65 271L64 270M108 270L109 271L108 270M48 271L49 272L48 271M100.667 271.333L101.333 271.667L100.667 271.333M181 271L182 272L181 271M188 271L189 272L188 271M21 272L22 273L21 272M59 272L60 273L59 272M131 272L131 275L132 275L131 272M155 272L156 273L155 272M157 272L158 273L157 272M167.333 272.667L167.667 273.333L167.333 272.667M182 272L183 273L182 272M189 272L190 273L189 272M23 273L24 274L23 273M29.3333 273.667L29.6667 274.333L29.3333 273.667M34 273L35 274L34 273M43 273L43 276L44 276L43 273M54 273L55 274L54 273M61 273L62 274L61 273M82 273L82 274L87 274L82 273M105.333 273.667L105.667 274.333L105.333 273.667M162 273L163 274L162 273M45 274L45 279L46 279L45 274M49 274L50 275L49 274M81 274L82 275L81 274M20 275L21 276L20 275M24 275L24 276L29 276L24 275M55 275L56 276L55 275M60.3333 275.667L60.6667 276.333L60.3333 275.667M154 275L155 276L154 275M156 275L157 276L156 275M184 275L185 276L184 275M191 275L192 276L191 275M35.3333 276.667L35.6667 277.333L35.3333 276.667M50.3333 276.667L50.6667 277.333L50.3333 276.667M81 276L81 284L82 284L81 276M106 276L107 277L106 276M157 276L158 277L157 276M162 276L163 277L162 276M168 276L169 277L168 276z"/>
<path style="fill:#f3eef3; stroke:none;" d="M212.333 276.667L212.667 277.333L212.333 276.667z"/>
<path style="fill:#f26774; stroke:none;" d="M56 277L57 278L56 277M101 277L102 278L101 277M193 277L194 278L193 277M19.3333 278.667L19.6667 279.333L19.3333 278.667M23 278L23 279L30 279L23 278M59 278L60 279L59 278M70 278L70 282L71 282L70 278M107 278L108 279L107 278M153 278L154 279L153 278M186 278L187 279L186 278M212.333 278.667L212.667 279.333L212.333 278.667M51 279L52 280L51 279M65 279L65 288L66 288L65 279M132.333 279.667L132.667 280.333L132.333 279.667M169.333 279.667L169.667 280.333L169.333 279.667M36 280L37 281L36 280M42 280L42 283L43 283L42 280M102 280L103 281L102 280M108 280L109 281L108 280M155 280L156 281L155 280M187 280L188 281L187 280z"/>
<path style="fill:#f3eef3; stroke:none;" d="M212 280L212 323L213 323C213 310.781 216.71 291.226 212 280z"/>
<path style="fill:#f26774; stroke:none;" d="M18.3333 281.667L18.6667 282.333L18.3333 281.667M31.3333 281.667L31.6667 282.333L31.3333 281.667M58 281L59 282L58 281M75 281L75 289L76 289L75 281M127 281L128 282L127 281M152 281L153 282L152 281M164 281L165 282L164 281M52 282L53 283L52 282M103 282L104 283L103 282M109 282L110 283L109 282M116 282L116 287L117 287L116 282M133 282L134 283L133 282M154 282L155 283L154 282M20 283L21 284L20 283M37.3333 283.667L37.6667 284.333L37.3333 283.667M170 283L171 284L170 283M189 283L190 284L189 283M17 284L18 285L17 284M57 284L58 285L57 284M104 284L105 285L104 284M110 284L111 285L110 284M122 284L122 289L123 289L122 284M134 284L135 285L134 284M146 284L147 285L146 284M151 284L152 285L151 284M32.3333 285.667L32.6667 286.333L32.3333 285.667M53 285L54 286L53 285M89 285L89 289L90 289L89 285M129 285L130 286L129 285M135 285L136 286L135 285M145 285L146 286L145 285M165.333 285.667L165.667 286.333L165.333 285.667M56 286L57 287L56 286M71.3333 286.667L71.6667 287.333L71.3333 286.667M111 286L112 287L111 286M130 286L131 287L130 286M143 286L144 287L143 286M150 286L151 287L150 286M153.333 286.667L153.667 287.333L153.333 286.667M171.333 286.667L171.667 287.333L171.333 286.667M191 286L192 287L191 286M16 287L17 288L16 287M19 287L20 288L19 287M38 287L39 288L38 287M44 287L45 288L44 287M93 287L94 288L93 287M105 287L106 288L105 287M131 287L132 288L131 287M140 287L141 288L140 287M33 288L33 289L38 289L33 288M55 288L56 289L55 288M66 288L66 289L71 289L66 288M82 288L83 289L82 288M94 288L94 289L99 289L94 288M106 288L107 289L106 288M108 288L108 289L111 289L108 288M116 288L117 289L116 288M132 288L133 289L132 288M192 288L193 289L192 288M134 289L135 290L134 289M144 289L145 290L144 289M150 289L150 290L153 290L150 289M166 289L167 290L166 289M171 289L172 290L171 289M193 289L194 290L193 289M137 290L137 291L142 291L137 290M30 319L31 319L31 303L39 305L40 303C28.1698 298.038 30 311.487 30 319M52 304L55 303L52 304M69 302L69 303L74 303L69 302M81 302L82 303L81 302z"/>
<path style="fill:#f3eef3; stroke:none;" d="M31 303L30 320C36.1487 321.817 49.0246 317.531 39 312L39 310C43.3206 307.588 42.5469 304.385 38 303C38.6307 306.843 37.9739 308.501 35 311L35 303L31 303z"/>
<path style="fill:#090987; stroke:none;" d="M35 303L35 310C39.441 308.432 38.7169 305.068 35 303z"/>
<path style="fill:#f26774; stroke:none;" d="M41 303L42 304L41 303z"/>
<path style="fill:#f3eef3; stroke:none;" d="M45 321L52.0363 315.466L62 321L56 303C49.5566 305.016 47.0213 315.064 45 321z"/>
<path style="fill:#f26774; stroke:none;" d="M67 303L68 304L67 303z"/>
<path style="fill:#f3eef3; stroke:none;" d="M65 318C66.5765 323.389 74.8954 322.331 76.287 316.977C77.9538 310.564 67.585 310.375 70 303C59.813 306.9 70.8024 311.87 72.3881 316.763C73.9538 321.595 66.5428 318.765 65 318M73 303L76 305L73 303z"/>
<path style="fill:#f26774; stroke:none;" d="M75 303L76 304L75 303z"/>
<path style="fill:#f3eef3; stroke:none;" d="M80 303L80 321L84 321L84 314L94 321C90.5914 312.894 88.0105 311.169 93 303L84 310L84 303L80 303z"/>
<path style="fill:#f26774; stroke:none;" d="M93 303L94 304L93 303z"/>
<path style="fill:#f3eef3; stroke:none;" d="M98 303L98 321L109 321L109 320L102 320C102.154 315.275 103.077 312.785 108 312L108 311L102 311C102.335 306.606 103.556 304.709 108 304L98 303z"/>
<path style="fill:#f26774; stroke:none;" d="M108 303L109 304L108 303z"/>
<path style="fill:#f3eef3; stroke:none;" d="M111 303L111 304L116 304L116 321L120 321L121 304L125 305L111 303z"/>
<path style="fill:#f26774; stroke:none;" d="M124 303L125 304L124 303M127 303L127 319L128 319L127 303z"/>
<path style="fill:#f3eef3; stroke:none;" d="M128 303L127 321C135.37 323.469 142.892 319.183 136 311C141.253 307.539 138.016 304.025 133 303L133 304C136.138 307.203 135.12 309.153 132 312L132 303L128 303z"/>
<path style="fill:#f26774; stroke:none;" d="M129 303L130 304L129 303M132 303L133 304L132 303M136 303L137 304L136 303M150.667 303.333L151.333 303.667L150.667 303.333M163.667 303.333L164.333 303.667L163.667 303.333M42 304L43 305L42 304M56 304L57 305L56 304M92 304L93 305L92 304M105 304L105 305L108 305L105 304M111 304L111 305L116 305L111 304M121.667 304.333L122.333 304.667L121.667 304.333z"/>
<path style="fill:#090987; stroke:none;" d="M132 304L132 311C135.868 308.84 135.868 306.16 132 304z"/>
<path style="fill:#f26774; stroke:none;" d="M134 304L135 305L134 304M138 304L139 305L138 304z"/>
<path style="fill:#f3eef3; stroke:none;" d="M142 322C151.041 315.513 148.509 318.975 158 322L153 304C146.215 305.167 143.692 316.082 142 322M162 304L162 322L172 322L172 321L166 321L166 304L162 304z"/>
<path style="fill:#f26774; stroke:none;" d="M175 304L175 317L176 317L175 304z"/>
<path style="fill:#f3eef3; stroke:none;" d="M176 304L175 322L185 322L185 321L179 321L179 304L176 304z"/>
<path style="fill:#f26774; stroke:none;" d="M34 305L34 310L35 310L34 305M51 305L52 306L51 305M65 305L66 306L65 305M68 305L69 306L68 305M89 305L90 306L89 305M91 305L92 306L91 305M131 305L131 311L132 311L131 305M135 305L136 306L135 305M148 305L149 306L148 305M88 306L89 307L88 306M90 306L91 307L90 306M153 306L154 307L153 306M50 307L51 308L50 307z"/>
<path style="fill:#090987; stroke:none;" d="M52 307L50 314L55 314L52 307z"/>
<path style="fill:#f26774; stroke:none;" d="M53 307L54 308L53 307M57.3333 307.667L57.6667 308.333L57.3333 307.667M68 307L69 308L68 307M87 307L88 308L87 307M38 308L39 309L38 308M51 308L52 309L51 308M69 308L70 309L69 308M139 308L140 309L139 308z"/>
<path style="fill:#090987; stroke:none;" d="M149 308L147 314L152 314L149 308z"/>
<path style="fill:#f26774; stroke:none;" d="M65 309L66 310L65 309M70 309L71 310L70 309M135 309L136 310L135 309M148 309L149 310L148 309M150 309L151 310L150 309M154 309L155 310L154 309M35.6667 310.333L36.3333 310.667L35.6667 310.333M39.3333 310.667L39.6667 311.333L39.3333 310.667M49 310L50 311L49 310M54 310L55 311L54 310M72 310L73 311L72 310M102 310L103 311L102 310M134 310L135 311L134 310M137 310L138 311L137 310M146 310L147 311L146 310M50 311L51 312L50 311M58 311L59 312L58 311M66 311L67 312L66 311M74 311L75 312L74 311M88 311L89 312L88 311M108 311L109 312L108 311M132 311L133 312L132 311M136 311L137 312L136 311z"/>
<path style="fill:#090987; stroke:none;" d="M35 312L35 320C39.1969 317.687 39.7461 313.91 35 312z"/>
<path style="fill:#f26774; stroke:none;" d="M37 312L38 313L37 312M41 312L42 313L41 312M48 312L49 313L48 312M75 312L76 313L75 312M103 312L104 313L103 312M105 312L105 313L108 313L105 312M145 312L146 313L145 312M151 312L152 313L151 312M155.333 312.667L155.667 313.333L155.333 312.667M34 313L34 319L35 319L34 313M42 313L43 314L42 313M59.3333 313.667L59.6667 314.333L59.3333 313.667M69 313L70 314L69 313M76 313L77 314L76 313M89 313L90 314L89 313M131 313L131 320L132 320L131 313z"/>
<path style="fill:#090987; stroke:none;" d="M132 313L132 321C135.508 318.842 135.82 316.95 135 313L132 313z"/>
<path style="fill:#f26774; stroke:none;" d="M138 313L139 314L138 313M47 314L48 315L47 314M71 314L72 315L71 314M84.6667 314.333L85.3333 314.667L84.6667 314.333M135 314L136 315L135 314M139 314L140 315L139 314M147 314L148 315L147 314M151 314L152 315L151 314M43.3333 315.667L43.6667 316.333L43.3333 315.667M49 315L49 316L56 316L49 315M144 315L145 316L144 315M156 315L157 316L156 315M48 316L49 317L48 316M56 316L57 317L56 316M60 316L61 317L60 316M91 316L92 317L91 316M140 316L141 317L140 316M146 316L147 317L146 316M148 316L148 317L152 317L148 316M73 317L74 318L73 317M76 317L77 318L76 317M87 317L88 318L87 317M92 317L93 318L92 317M143 317L144 318L143 317M145 317L146 318L145 317M38 318L39 319L38 318M66 318L67 319L66 318M153 318L154 319L153 318M157 318L158 319L157 318M37 319L38 320L37 319M45 319L46 320L45 319M47 319L48 320L47 319M57 319L58 320L57 319M61 319L62 320L61 319M67 319L68 320L67 319M72 319L73 320L72 319M75 319L76 320L75 319M102 319L103 320L102 319M139 319L140 320L139 319M142 319L143 320L142 319M144 319L145 320L144 319M30 320L31 321L30 320M40 320L41 321L40 320M69 320L70 321L69 320M74 320L75 321L74 320M89 320L90 321L89 320M94 320L90 321L90 322L94 320M133 320L134 321L133 320M138 320L139 321L138 320M166 320L167 321L166 320M179 320L180 321L179 320M58 321L58 322L62 322L58 321M66.6667 321.333L67.3333 321.667L66.6667 321.333M71.6667 321.333L72.3333 321.667L71.6667 321.333M98 321L98 322L109 322L98 321M116 321L116 322L120 322L116 321M127 321L128 322L127 321M136 321L137 322L136 321M154 321L155 322L154 321M158 321L159 322L158 321M172 321L173 322L172 321M185 321L186 322L185 321M162.667 322.333L163.333 322.667L162.667 322.333M169 322L169 323L172 323L169 322M176 322L176 323L185 323L176 322M211 323L211 326L212 326L211 323z"/>
<path style="fill:#f3eef3; stroke:none;" d="M211 326L211 331L212 331L211 326z"/>
<path style="fill:#f26774; stroke:none;" d="M37 330L37 331L40 332L37 330M47 333L53 331L47 333z"/>
<path style="fill:#f3eef3; stroke:none;" d="M53 330L56 332L53 330z"/>
<path style="fill:#f26774; stroke:none;" d="M55 330L56 331L55 330M62 330L62 331L68 331L62 330M77 330L77 331L84 331L77 330M98.6667 330.333L99.3333 330.667L98.6667 330.333M102 330L104 332L104 330L102 330M5.33333 331.667L5.66667 332.333L5.33333 331.667z"/>
<path style="fill:#f3eef3; stroke:none;" d="M36 331L35 335L39 340L34 338L33 338L30 346C37.4365 340.76 36.1159 343.37 44 346C42.7969 340.923 41.3597 332.761 36 331M49 331C46.1864 336.598 57.8768 346.788 47 344C49.6187 347.659 57.3092 346.619 56.1682 341.025C55.4525 337.515 50.6931 334.434 49 331z"/>
<path style="fill:#f26774; stroke:none;" d="M60 331L59 333L60 331z"/>
<path style="fill:#f3eef3; stroke:none;" d="M59 344C61.4897 347.509 68.0406 347.313 68.4537 341.999C68.7887 337.69 63.1986 335.625 63 331C55.2436 335.317 71.2669 347.571 59 344M67 331L68 332L67 331M79 347L79 346C74.6761 341.873 73.7253 336.562 78 332C67.9534 329.959 71.6099 344.465 79 347z"/>
<path style="fill:#090987; stroke:none;" d="M79.0934 331.851C73.1155 333.737 74.1291 346.899 80.9568 345.248C87.1315 343.755 86.1869 329.614 79.0934 331.851z"/>
<path style="fill:#f3eef3; stroke:none;" d="M83 331C85.9978 336.972 86.5683 341.472 81 346L81 347C89.1461 344.527 92.3961 334.379 83 331z"/>
<path style="fill:#f26774; stroke:none;" d="M85 331L86 332L85 331M95 331L92 335L95 331z"/>
<path style="fill:#f3eef3; stroke:none;" d="M101 347L101 346C94.6589 342.872 93.6746 336.7 99 332C89.4478 330.075 90.9349 345.876 101 347M104 331L105 332L104 331z"/>
<path style="fill:#f26774; stroke:none;" d="M105.333 331.667L105.667 332.333L105.333 331.667M109 331C109 336.262 106.977 345.001 113 347L113 346L110 346L109 331z"/>
<path style="fill:#f3eef3; stroke:none;" d="M110 331L110 346L113 346L113 331L110 331z"/>
<path style="fill:#f26774; stroke:none;" d="M122 331L123 332L122 331z"/>
<path style="fill:#f3eef3; stroke:none;" d="M123 331L121 335L125 340L119 339L116 346L126 342L130 347L125 331L123 331z"/>
<path style="fill:#f26774; stroke:none;" d="M130 331L131 332L130 331z"/>
<path style="fill:#f3eef3; stroke:none;" d="M131 331L131 332C136.65 335.118 134.046 341.484 134 347L137 347L139 332L131 331z"/>
<path style="fill:#f26774; stroke:none;" d="M137 331L137 332L142 331L137 331z"/>
<path style="fill:#f3eef3; stroke:none;" d="M140 331L141 332L140 331z"/>
<path style="fill:#f26774; stroke:none;" d="M144 331L144 344L145 344L144 331z"/>
<path style="fill:#f3eef3; stroke:none;" d="M145 331L144 347L148 347L147 331L145 331z"/>
<path style="fill:#f26774; stroke:none;" d="M147 331L148 332L147 331M156 331L156 332L163 332L163 331L156 331z"/>
<path style="fill:#f3eef3; stroke:none;" d="M157 331L158 332L157 331z"/>
<path style="fill:#f26774; stroke:none;" d="M172 331L171 343L172 343L172 331M35 332L36 333L35 332M55 332L56 333L55 332M73 332L74 333L73 332M76 332L77 333L76 332M97 332L98 333L97 332M113 332L114 333L113 332M125 332L126 333L125 332M133 332L134 333L133 332M154 332L155 333L154 332z"/>
<path style="fill:#f3eef3; stroke:none;" d="M159 348L159 347C153.261 342.45 153.952 338.066 157 332C147.95 335.255 150.279 346.224 159 348z"/>
<path style="fill:#090987; stroke:none;" d="M158.224 332.801C152.442 334.91 153.667 348.438 160.871 346.149C167.261 344.119 165.412 330.179 158.224 332.801z"/>
<path style="fill:#f3eef3; stroke:none;" d="M162 332L162 333C166.514 337.819 164.84 343.163 160 347L160 348C168.864 346.205 171.894 334.862 162 332M172 332L171 347L173 347L173 337L185 348L185 332L184 332L184 342L172 332z"/>
<path style="fill:#f26774; stroke:none;" d="M174 332L175 333L174 332M185 332L185 342L186 342L185 332M210.333 332.667L210.667 333.333L210.333 332.667z"/>
<path style="fill:#f3eef3; stroke:none;" d="M5.33333 333.667L5.66667 334.333L5.33333 333.667z"/>
<path style="fill:#f26774; stroke:none;" d="M49 333L50 334L49 333M72 333L73 334L72 333M84 333L85 334L84 333M96 333L97 334L96 333M121 333L122 334L121 333M134 333L134 340L135 340L134 333M163 333L164 334L163 333M166 333L167 334L166 333M175 333L176 334L175 333z"/>
<path style="fill:#090987; stroke:none;" d="M36 334L34 339L38 340L36 334z"/>
<path style="fill:#f26774; stroke:none;" d="M40.3333 334.667L40.6667 335.333L40.3333 334.667M75 334L76 335L75 334M88 334L89 335L88 334M155 334L156 335L155 334M167 334L168 335L167 334z"/>
<path style="fill:#f3eef3; stroke:none;" d="M210 334L211 335L210 334z"/>
<path style="fill:#f26774; stroke:none;" d="M6.33333 335.667L6.66667 336.333L6.33333 335.667M34.6667 335.333L35.3333 335.667L34.6667 335.333M37 335L38 336L37 335M50 335L51 336L50 335M85 335L85 341L86 341L85 335M95 335L96 336L95 335M120 335L120 337L122 337L122 335L120 335z"/>
<path style="fill:#090987; stroke:none;" d="M122 335L120 340L125 340L122 335z"/>
<path style="fill:#f26774; stroke:none;" d="M123.333 335.667L123.667 336.333L123.333 335.667M126 335L127 336L126 335M151 335L152 336L151 335M164 335L165 336L164 335z"/>
<path style="fill:#f3eef3; stroke:none;" d="M34 336L35 337L34 336z"/>
<path style="fill:#f26774; stroke:none;" d="M59 336L60 337L59 336M64 336L65 337L64 336M154 336L154 339L155 339L154 336M168.333 336.667L168.667 337.333L168.333 336.667M209 336L210 337L209 336z"/>
<path style="fill:#f3eef3; stroke:none;" d="M6 337L7 338L6 337z"/>
<path style="fill:#f26774; stroke:none;" d="M33.6667 337.333L34.3333 337.667L33.6667 337.333M41.3333 337.667L41.6667 338.333L41.3333 337.667M66 337L67 338L66 337M91 337L91 341L92 341L91 337z"/>
<path style="fill:#f3eef3; stroke:none;" d="M120 337L121 338L120 337z"/>
<path style="fill:#f26774; stroke:none;" d="M137 337L137 347L138 347L137 337M173.667 337.333L174.333 337.667L173.667 337.333z"/>
<path style="fill:#f3eef3; stroke:none;" d="M209 337L210 338L209 337z"/>
<path style="fill:#f26774; stroke:none;" d="M38.3333 338.667L38.6667 339.333L38.3333 338.667M55 338L56 339L55 338M61 338L62 339L61 338M89 338L90 339L89 338M119.667 338.333L120.333 338.667L119.667 338.333M124 338L125 339L124 338M127 338L128 339L127 338M150 338L150 341L151 341L150 338M175 338L176 339L175 338M179 338L180 339L179 338M7 339L8 340L7 339M34 339L35 340L34 339M50 339L51 340L50 339M56 339L57 340L56 339M68 339L69 340L68 339M180 339L181 340L180 339M208 339L209 340L208 339z"/>
<path style="fill:#f3eef3; stroke:none;" d="M7.33333 340.667L7.66667 341.333L7.33333 340.667z"/>
<path style="fill:#f26774; stroke:none;" d="M32 340L33 341L32 340M42 340L43 341L42 340M52 340L53 341L52 340M64 340L65 341L64 340M118 340L119 341L118 340M121 340L121 341L124 341L121 340M168.333 340.667L168.667 341.333L168.333 340.667M181 340L182 341L181 340z"/>
<path style="fill:#f3eef3; stroke:none;" d="M208 340L209 341L208 340z"/>
<path style="fill:#f26774; stroke:none;" d="M33 341L33 342L39 342L33 341M53 341L54 342L53 341M71 341L72 342L71 341M95 341L96 342L95 341M128 341L129 342L128 341M154.333 341.667L154.667 342.333L154.333 341.667M182.667 341.333L183.333 341.667L182.667 341.333M8 342L9 343L8 342M31 342L32 343L31 342M66.3333 342.667L66.6667 343.333L66.3333 342.667M75 342L76 343L75 342M92 342L93 343L92 342M125 342L126 343L125 342M164 342L165 343L164 342M207 342L208 343L207 342z"/>
<path style="fill:#f3eef3; stroke:none;" d="M8 343L9 344L8 343z"/>
<path style="fill:#f26774; stroke:none;" d="M32 343L33 344L32 343M43 343L44 344L43 343M56 343L57 344L56 343M72 343L73 344L72 343M84 343L85 344L84 343M87 343L88 344L87 343M96 343L97 344L96 343M118.333 343.667L118.667 344.333L118.333 343.667M129 343L130 344L129 343M151 343L152 344L151 343M179 343L180 344L179 343M185 343L185 347L186 347L185 343z"/>
<path style="fill:#f3eef3; stroke:none;" d="M207 343L208 344L207 343z"/>
<path style="fill:#f26774; stroke:none;" d="M9 344L10 345L9 344M30 344L31 345L30 344M40 344L41 345L40 344M48 344L49 345L48 344M53 344L54 345L53 344M60 344L61 345L60 344M73 344L74 345L73 344M76 344L77 345L76 344M83 344L84 345L83 344M93 344L94 345L93 344M180 344L181 345L180 344M206 344L207 345L206 344z"/>
<path style="fill:#f3eef3; stroke:none;" d="M9 345L10 346L9 345z"/>
<path style="fill:#f26774; stroke:none;" d="M44 345L45 346L44 345M50.6667 345.333L51.3333 345.667L50.6667 345.333M62 345L63 346L62 345M64 345L65 346L64 345M67 345L68 346L67 345M74 345L75 346L74 345M82 345L83 346L82 345M85 345L86 346L85 345M94 345L95 346L94 345M98 345L99 346L98 345M104 345L104 347L106 345L104 345M126 345L127 346L126 345M152 345L153 346L152 345z"/>
<path style="fill:#f3eef3; stroke:none;" d="M206 345L205 348L206 345z"/>
<path style="fill:#f26774; stroke:none;" d="M10 346L11 347L10 346M41 346L41 347L44 347L41 346M48 346L49 347L48 346M52.6667 346.333L53.3333 346.667L52.6667 346.333M60 346L61 347L60 346M65 346L66 347L65 346M76 346L77 347L76 346M79.6667 346.333L80.3333 346.667L79.6667 346.333M83 346L84 347L83 346M96 346L97 347L96 346M101 346L100 348L102 348L101 346z"/>
<path style="fill:#f3eef3; stroke:none;" d="M102.667 346.333L103.333 346.667L102.667 346.333z"/>
<path style="fill:#f26774; stroke:none;" d="M116.667 346.333L117.333 346.667L116.667 346.333M157 346L158 347L157 346M161 346L162 347L161 346M205 346L206 347L205 346z"/>
<path style="fill:#f3eef3; stroke:none;" d="M10 347L11 348L10 347z"/>
<path style="fill:#f26774; stroke:none;" d="M155 347L156 348L155 347M159 347L160 348L159 347M163 347L164 348L163 347M171.667 347.333L172.333 347.667L171.667 347.333M11 348L12 349L11 348M204 348L205 349L204 348z"/>
<path style="fill:#f3eef3; stroke:none;" d="M11 349L12 350L11 349M204 349L205 350L204 349M12 350L13 351L12 350z"/>
<path style="fill:#f26774; stroke:none;" d="M203 350L204 351L203 350M13 351L14 352L13 351M14 352L15 353L14 352z"/>
<path style="fill:#f3eef3; stroke:none;" d="M202 352L203 353L202 352M14 353L15 354L14 353M201 353L202 354L201 353M15 354L16 355L15 354z"/>
<path style="fill:#f26774; stroke:none;" d="M200 354L201 355L200 354z"/>
<path style="fill:#f3eef3; stroke:none;" d="M16 355L17 356L16 355z"/>
<path style="fill:#f26774; stroke:none;" d="M199 355L200 356L199 355z"/>
<path style="fill:#f3eef3; stroke:none;" d="M17 356L18 357L17 356z"/>
<path style="fill:#f26774; stroke:none;" d="M198 356L199 357L198 356z"/>
<path style="fill:#f3eef3; stroke:none;" d="M18 357L19 358L18 357z"/>
<path style="fill:#f26774; stroke:none;" d="M197 357L198 358L197 357z"/>
<path style="fill:#f3eef3; stroke:none;" d="M19 358L20 359L19 358z"/>
<path style="fill:#f26774; stroke:none;" d="M20 358L21 359L20 358M196 358L197 359L196 358M21 359L22 360L21 359z"/>
<path style="fill:#f3eef3; stroke:none;" d="M195 359L196 360L195 359M22 360L23 361L22 360M194 360L195 361L194 360z"/>
<path style="fill:#f26774; stroke:none;" d="M24 361L25 362L24 361M192 361L193 362L192 361z"/>
<path style="fill:#f3eef3; stroke:none;" d="M193 361L194 362L193 361M25 362L26 363L25 362z"/>
<path style="fill:#f26774; stroke:none;" d="M26 362L27 363L26 362z"/>
<path style="fill:#f3eef3; stroke:none;" d="M191 362L192 363L191 362M27 363L28 364L27 363z"/>
<path style="fill:#f26774; stroke:none;" d="M28 363L29 364L28 363z"/>
<path style="fill:#f3eef3; stroke:none;" d="M189.667 363.333L190.333 363.667L189.667 363.333M29 364L30 365L29 364z"/>
<path style="fill:#f26774; stroke:none;" d="M30 364L31 365L30 364M186 364L187 365L186 364z"/>
<path style="fill:#f3eef3; stroke:none;" d="M187.667 364.333L188.333 364.667L187.667 364.333M31.6667 365.333L32.3333 365.667L31.6667 365.333z"/>
<path style="fill:#f26774; stroke:none;" d="M33.6667 365.333L34.3333 365.667L33.6667 365.333M184 365L185 366L184 365z"/>
<path style="fill:#f3eef3; stroke:none;" d="M185.667 365.333L186.333 365.667L185.667 365.333M34 366L34 367L37 367L34 366z"/>
<path style="fill:#f26774; stroke:none;" d="M37.6667 366.333L38.3333 366.667L37.6667 366.333M181 366L182 367L181 366z"/>
<path style="fill:#f3eef3; stroke:none;" d="M182.667 366.333L183.333 366.667L182.667 366.333M38 367L38 368L41 368L38 367z"/>
<path style="fill:#f26774; stroke:none;" d="M41.6667 367.333L42.3333 367.667L41.6667 367.333M177 367L178 368L177 367z"/>
<path style="fill:#f3eef3; stroke:none;" d="M178 367L178 368L181 368L178 367M43 368L43 369L46 369L43 368z"/>
<path style="fill:#f26774; stroke:none;" d="M46 368L46 369L49 369L46 368M171.667 368.333L172.333 368.667L171.667 368.333z"/>
<path style="fill:#f3eef3; stroke:none;" d="M173 368L173 369L176 369L173 368M49 369L49 370L53 370L49 369z"/>
<path style="fill:#f26774; stroke:none;" d="M53.6667 369.333L54.3333 369.667L53.6667 369.333M163 369L163 370L167 370L163 369z"/>
<path style="fill:#f3eef3; stroke:none;" d="M167 369L167 370L170 370L167 369M56 370L56 371L59 371L56 370z"/>
<path style="fill:#f26774; stroke:none;" d="M59 370L59 371L63 371L59 370M155 370L155 371L159 371L155 370z"/>
<path style="fill:#f3eef3; stroke:none;" d="M159 370L159 371L163 371L159 370M63 371L63 372L67 372L63 371z"/>
<path style="fill:#f26774; stroke:none;" d="M67 371L67 372L70 372L67 371M147 371L147 372L151 372L147 371z"/>
<path style="fill:#f3eef3; stroke:none;" d="M151 371L151 372L155 372L151 371M70 372L70 373L73 373L70 372z"/>
<path style="fill:#f26774; stroke:none;" d="M73.6667 372.333L74.3333 372.667L73.6667 372.333M140 372L140 373L143 373L140 372z"/>
<path style="fill:#f3eef3; stroke:none;" d="M143 372L143 373L147 373L143 372M75.6667 373.333L76.3333 373.667L75.6667 373.333z"/>
<path style="fill:#f26774; stroke:none;" d="M77.6667 373.333L78.3333 373.667L77.6667 373.333M136 373L137 374L136 373z"/>
<path style="fill:#f3eef3; stroke:none;" d="M137 373L137 374L140 374L137 373M79 374L79 375L82 375L79 374z"/>
<path style="fill:#f26774; stroke:none;" d="M82 374L83 375L82 374M132 374L133 375L132 374z"/>
<path style="fill:#f3eef3; stroke:none;" d="M133 374L133 375L136 375L133 374M83.6667 375.333L84.3333 375.667L83.6667 375.333M130.667 375.333L131.333 375.667L130.667 375.333M85.6667 376.333L86.3333 376.667L85.6667 376.333z"/>
<path style="fill:#f26774; stroke:none;" d="M127 376L128 377L127 376z"/>
<path style="fill:#f3eef3; stroke:none;" d="M128 376L129 377L128 376M87 377L88 378L87 377z"/>
<path style="fill:#f26774; stroke:none;" d="M88 377L89 378L88 377M125 377L126 378L125 377z"/>
<path style="fill:#f3eef3; stroke:none;" d="M126 377L127 378L126 377M89 378L90 379L89 378z"/>
<path style="fill:#f26774; stroke:none;" d="M90 378L91 379L90 378M123 378L124 379L123 378z"/>
<path style="fill:#f3eef3; stroke:none;" d="M124 378L125 379L124 378M91 379L92 380L91 379z"/>
<path style="fill:#f26774; stroke:none;" d="M121 379L122 380L121 379z"/>
<path style="fill:#f3eef3; stroke:none;" d="M122 379L123 380L122 379M92 380L94 382L92 380z"/>
<path style="fill:#f26774; stroke:none;" d="M93 380L94 381L93 380z"/>
<path style="fill:#f3eef3; stroke:none;" d="M120.667 380.333L121.333 380.667L120.667 380.333z"/>
<path style="fill:#f26774; stroke:none;" d="M94 381L95 382L94 381M118 381L117 383L118 381z"/>
<path style="fill:#f3eef3; stroke:none;" d="M119 381L120 382L119 381z"/>
<path style="fill:#f26774; stroke:none;" d="M95 382L96 383L95 382z"/>
<path style="fill:#f3eef3; stroke:none;" d="M118 382L119 383L118 382z"/>
<path style="fill:#f26774; stroke:none;" d="M96 383L97 384L96 383M116 383L117 384L116 383M97 384L98 385L97 384M115 384L116 385L115 384z"/>
<path style="fill:#f3eef3; stroke:none;" d="M98 385L99 386L98 385z"/>
<path style="fill:#f26774; stroke:none;" d="M114 385L115 386L114 385M99 386L100 387L99 386M113 386L114 387L113 386M100 387L101 388L100 387M112 387L113 388L112 387z"/>
<path style="fill:#f3eef3; stroke:none;" d="M100 388L101 389L100 388M112 388L113 389L112 388M101 389L102 390L101 389M111 389L112 390L111 389z"/>
<path style="fill:#f26774; stroke:none;" d="M102 390L103 391L102 390M110 390L111 391L110 390z"/>
<path style="fill:#f3eef3; stroke:none;" d="M102 391L103 392L102 391M110 391L111 392L110 391z"/>
<path style="fill:#f26774; stroke:none;" d="M103 392L104 393L103 392M109 392L110 393L109 392z"/>
<path style="fill:#f3eef3; stroke:none;" d="M103 393L104 394L103 393M109.333 393.667L109.667 394.333L109.333 393.667z"/>
<path style="fill:#f26774; stroke:none;" d="M104 394L105 395L104 394z"/>
<path style="fill:#f3eef3; stroke:none;" d="M104 395L105 400L106 400L104 395z"/>
<path style="fill:#f26774; stroke:none;" d="M108 395L109 396L108 395M105 396L106 397L105 396z"/>
<path style="fill:#f3eef3; stroke:none;" d="M108 396L109 397L108 396z"/>
<path style="fill:#f26774; stroke:none;" d="M107 397L108 398L107 397z"/>
<path style="fill:#f3eef3; stroke:none;" d="M107.333 398.667L107.667 399.333L107.333 398.667z"/>
<path style="fill:#f26774; stroke:none;" d="M106 399L107 400L106 399z"/>
</svg>
