<svg xmlns="http://www.w3.org/2000/svg" width="216" height="400" xmlns:v="https://vecta.io/nano"><style><![CDATA[.B{fill:#f26774}.C{fill:#f3eef3}.D{fill:#090987}]]></style><path d="M0 0v400h105c-5.903-39.38-65.479-21.834-87.91-44.093C4.397 343.31 4 326.643 4 310l1-72 151 1h40c4.212 0 11.943-1.466 15.566 1.028 5.856 4.03 2.183 22.89 1.604 28.972-2.458 25.822 6.584 58.063-9.225 81-15.479 22.459-41.345 18.721-64.945 23.665-14.381 3.013-28.312 10.726-31 26.335h108V0H0z" fill="#010101"/><path d="M99 1v1h8l-8-1z" class="C"/><path d="M107 1v1h9l-9-1z" class="B"/><path d="M116 1v1h8l-8-1M93 2v1h4l-4-1z" class="C"/><path d="M97 2v1h3l-3-1z" class="B"/><path d="M100 2.425C86.11 4.316 72.921 8.747 61 16.229 50.796 22.634 41.635 31.124 34.722 41-10.878 106.139 47.928 191.964 124 181.711c12.121-1.633 23.39-6.081 34-12.02 9.647-5.402 17.898-13.059 24.714-21.691C231.805 85.823 178.976-8.325 100 2.425z" class="D"/><path d="M123 2v1h3l-3-1z" class="B"/><path d="M126 2v1h4l-4-1M89 3v1h3l-3-1z" class="C"/><path d="M92 3l1 1-1-1m38.667.333l.666.333-.666-.333z" class="B"/><path d="M132.667 3.333l.666.333-.666-.333m-47 1l.667.333-.667-.333z" class="C"/><path d="M87.667 4.333l.667.333-.667-.333m47 0l.666.333-.666-.333z" class="B"/><path d="M136.667 4.333l.666.333-.666-.333m-54 1l.667.333-.667-.333z" class="C"/><path d="M84 5l1 1-1-1m54 0l1 1-1-1z" class="B"/><path d="M139.667 5.333l.666.333-.666-.333m-60 1l.667.333-.667-.333z" class="C"/><path d="M81 6l1 1-1-1m60 0l1 1-1-1z" class="B"/><path d="M142 6l1 1-1-1M77 7l1 1-1-1z" class="C"/><path d="M78 7l1 1-1-1m66 0l1 1-1-1z" class="B"/><path d="M145 7l1 1-1-1M74.667 8.333l.667.333-.667-.333z" class="C"/><path d="M76 8l1 1-1-1m70 0l1 1-1-1z" class="B"/><path d="M147.667 8.333l.666.333-.666-.333M72 9l1 1-1-1z" class="C"/><path d="M73 9l1 1-1-1m26 0v1h3l-3-1z" class="B"/><path d="M102 9.428c-15.005 2.149-28.447 7.021-41 15.6C52.38 30.92 45.128 38.3 39.356 47-.249 106.696 54.018 184.454 123 174.572c12.042-1.725 23.849-6.193 34-12.928 59.054-39.179 44.931-132.867-25-150.269-9.566-2.38-20.2-3.35-30-1.947z" class="C"/><path d="M121.667 9.333l.666.333-.666-.333z" class="B"/><path d="M149.667 9.333l.666.333-.666-.333M70 10l1 1-1-1z" class="C"/><path d="M71 10l1 1-1-1m22 0v1h3l-3-1m35.667.333l.666.333-.666-.333M151 10l1 1-1-1z" class="B"/><path d="M152 10l1 1-1-1m-84 1l1 1-1-1z" class="C"/><path d="M69 11l1 1-1-1m20.667.333l.667.333-.667-.333M132 11l1 1-1-1m21 0l1 1-1-1z" class="B"/><path d="M154 11l1 1-1-1m-88 1l1 1-1-1z" class="C"/><path d="M67 12l1 1-1-1m19 0l1 1-1-1m50 0l1 1-1-1m19 0l1 1-1-1z" class="B"/><path d="M156 12l1 1-1-1m-92 1l1 1-1-1z" class="C"/><path d="M65 13l1 1-1-1m18 0l1 1-1-1m56 0l1 1-1-1z" class="B"/><path d="M157 13l1 1-1-1m-94 1l1 1-1-1z" class="C"/><path d="M80 14l1 1-1-1m61 0l1 1-1-1m17 0l1 1-1-1z" class="B"/><path d="M159 14l1 1-1-1m-98 1l1 1-1-1z" class="C"/><path d="M62 15l1 1-1-1m16 0l1 1-1-1m66 0l1 1-1-1m16 0l1 1-1-1z" class="B"/><path d="M59 16l1 1-1-1z" class="C"/><path d="M60 16l1 1-1-1m86 0l1 1-1-1m15 0l1 1-1-1z" class="B"/><path d="M162 16l1 1-1-1M58 17l1 1-1-1z" class="C"/><path d="M148 17l1 1-1-1z" class="B"/><path d="M163 17l1 1-1-1M56 18l-1 2 1-2z" class="C"/><path d="M57 18l1 1-1-1m14 0l1 1-1-1m33 0v1h15l-15-1m46 0l1 1-1-1m14 0l1 1-1-1z" class="B"/><path d="M165 18l1 1-1-1z" class="C"/><path d="M56 19l1 1-1-1m40 0v1h4l-4-1z" class="B"/><path d="M58 141c1.474 9.544 14.773 15.814 23 19.074 22.948 9.092 58.339 8.111 76.677-10.973 3.7-3.85-.888-10.223-.587-15.101.966-15.654.676-31.362 1.91-47 5.034 0 11.379-.885 15.786 2.09 10.771 7.269.104 28.539-3.786 36.911-3.928-1.418-15.688-.07-9.392 6.397 10.068 10.342 19.691-16.655 21.353-22.397 7.063-24.399-1.277-52.314-18.965-69.996C158.192 34.202 148.864 25.16 140 27c11.289 24.184 4 57.647 4 84 0 10.935 2.293 25.62-1.742 35.996-2.423 6.231-9.52 8.134-15.258 10.004 9.33-15.512 7-34.416 7-52 0-8.991 1.077-17.238-8-22 12.012-10.746 9-28.086 9-43 0-6.332 1.084-14.16-5.055-18.143C124.922 18.599 117.717 19 112 19c-17.963-.001-36.107 5.284-50 17.17C41.726 53.515 31.824 80.64 37.286 107c1.491 7.199 6.137 26.973 16.606 25.377 3.183-.485 4.761-4.365 3.066-7.06-1.968-3.127-6.583-1.821-8.987-4.635-5.405-6.326-10.902-32.642 1.035-34.534C68.981 82.983 62 108.548 62 122c0 6.1 2.013 15.487-4 19z" fill="#ef071b"/><path d="M122 19v1h4l-4-1m30 0l1 1-1-1z" class="B"/><path d="M166 19l1 1-1-1M54 20l1 1-1-1z" class="C"/><path d="M68 20l1 1-1-1m24 0v1h3l-3-1m35.667.333l.666.333-.666-.333M167 20l1 1-1-1M53 21l1 1-1-1m13 0l1 1-1-1m22 0v1h3l-3-1m42 0l1 1-1-1m25 0l1 1-1-1m13 0l1 1-1-1z" class="B"/><path d="M51 22l1 1-1-1z" class="C"/><path d="M52 22l1 1-1-1m34 0l1 1-1-1m45 0l1 1-1-1m26 0l1 1-1-1m12 0l1 1-1-1z" class="B"/><path d="M170 22l1 1-1-1M50 23l1 1-1-1z" class="C"/><path d="M63 23l1 1-1-1m20.667.333l.667.333-.667-.333M132 23l1 1-1-1m26 0l1 1-1-1z" class="B"/><path d="M171 23l1 1-1-1M49 24l1 1-1-1z" class="C"/><path d="M81 24l1 1-1-1m52 0l1 1-1-1z" class="B"/><path d="M172 24l1 1-1-1z" class="C"/><path d="M48 25l1 1-1-1m12 0l1 1-1-1m19 0l1 1-1-1m28 0v1h6l-6-1m33 2l4-1-4 1m21-2l1 1-1-1z" class="B"/><path d="M173 25l1 1-1-1M46 26l-5 6 5-6z" class="C"/><path d="M47 26l1 1-1-1m29.667.333l.667.333-.667-.333M104 26v11h1l-1-11z" class="B"/><path d="M105 26l-1 54c18.948-.054 15-20.147 15-34 0-4.815 1.648-13.515-1.742-17.427C114.35 25.218 108.964 26 105 26z" class="C"/><path d="M115 26l1 1-1-1m19.333.667l.334.667-.334-.667m10.334-.333l.666.333-.666-.333z" class="B"/><path d="M174 26l1 1-1-1z" class="C"/><path d="M46 27l1 1-1-1m11 0l1 1-1-1m17.667.333l.667.333-.667-.333M116 27l1 1-1-1m31 0l1 1-1-1m28 0l1 1-1-1M45 28l1 1-1-1m11 0l1 1-1-1m16.667.333l.667.333-.667-.333m67.666.333l.334.667-.334-.667M149 28l1 1-1-1m16 0l1 1-1-1m11 0l1 1-1-1M44 29l1 1-1-1m27 0l1 1-1-1m47 0l1 1-1-1m32 0l1 1-1-1m16 0l1 1-1-1z" class="B"/><path d="M177 29l1 1-1-1z" class="C"/><path d="M43 30l1 1-1-1m26 0l1 1-1-1m16 0v1h3l-3-1m50 0v8h1l-1-8m6 0l1 1-1-1m11 0l1 1-1-1m15 0l1 1-1-1z" class="B"/><path d="M178 30l1 1-1-1z" class="C"/><path d="M42 31l1 1-1-1m26 0l1 1-1-1m15 0l1 1-1-1z" class="B"/><path d="M84 153c3.955-13.38 2-31.991 2-46 0-25.332.915-50.721 2-76-12.906 1.438-9.91 16.332-10.83 26C74.941 80.418 76 105.478 76 129c0 9.437-2.467 19.878 8 24z" class="C"/><path d="M119 31v19h1l-1-19m23 0l1 1-1-1m11 0l1 1-1-1z" class="B"/><path d="M179 31l1 1-1-1z" class="C"/><path d="M41 32l1 1-1-1m25 0l1 1-1-1m15 0l1 1-1-1m74 0l1 1-1-1z" class="B"/><path d="M180 32l1 1-1-1z" class="C"/><path d="M40 33l1 1-1-1m25 0l1 1-1-1m15 0l1 1-1-1m63 0l1 1-1-1m13 0l1 1-1-1z" class="B"/><path d="M181 33l2 2-2-2M39 34l1 1-1-1z" class="C"/><path d="M79 34l1 1-1-1m102 0l1 1-1-1z" class="B"/><path d="M38 35l1 1-1-1z" class="C"/><path d="M62 35l1 1-1-1m82.333.667l.334.667-.334-.667M159 35l1 1-1-1m23 0l1 1-1-1z" class="B"/><path d="M37 36l-1 2 1-2z" class="C"/><path d="M61 36l1 1-1-1m17 0l1 1-1-1m9 0v24h1l-1-24m73 0l1 1-1-1m13 0l1 1-1-1z" class="B"/><path d="M183 36l1 1-1-1z" class="C"/><path d="M37 37l1 1-1-1m23 0l1 1-1-1m101 0l1 1-1-1m13 0l1 1-1-1z" class="B"/><path d="M184 37l1 1-1-1z" class="C"/><path d="M36 38l1 1-1-1m23 0l1 1-1-1m18 0v17h1l-1-17m85 0l1 1-1-1m13 0l1 1-1-1z" class="B"/><path d="M35 39l1 1-1-1z" class="C"/><path d="M58 39l1 1-1-1m105 0l1 1-1-1m13 0l1 1-1-1m9 0l1 1-1-1z" class="B"/><path d="M34 40l-1 3h1v-3z" class="C"/><path d="M57 40l1 1-1-1m107 0l1 1-1-1z" class="B"/><path d="M186 40l1 1-1-1z" class="C"/><path d="M34 41l1 1-1-1m9 0l1 1-1-1m92.333.667l.334.667-.334-.667M165 41l1 1-1-1z" class="B"/><path d="M187 41l1 1-1-1z" class="C"/><path d="M42 42l1 1-1-1m124 0l1 1-1-1m12 0l1 1-1-1m9 0l1 1-1-1z" class="B"/><path d="M32 43l1 1-1-1z" class="C"/><path d="M167 43l1 1-1-1m12 0l1 1-1-1z" class="B"/><path d="M188 43l1 1-1-1z" class="C"/><path d="M32 44l1 1-1-1m21 0l1 1-1-1m115 0l1 1-1-1z" class="B"/><path d="M189 44l1 1-1-1M31 45l1 1-1-1z" class="C"/><path d="M40 45l1 1-1-1m12 0l1 1-1-1m137 0l1 1-1-1z" class="B"/><path d="M30 46l1 1-1-1z" class="C"/><path d="M51 46l1 1-1-1m9 2l3-1-3 1m121-2l1 1-1-1z" class="B"/><path d="M190 46l1 1-1-1z" class="C"/><path d="M30 47l1 1-1-1m20 0l1 1-1-1z" class="B"/><path d="M62 79l1-32c-7.52 3.667-12.247 13.469-15.188 21-.934 2.392-3.349 6.899-1.691 9.397C48.337 80.733 58.463 79 62 79z" class="C"/><path d="M159 47v17h1l-1-17z" class="B"/><path d="M160 47c0 7.211-4.465 26.724.028 32.397 2.727 3.443 15.368 2.894 15.65-2.455C176.212 66.816 166.895 53.558 160 47z" class="C"/><path d="M170 47l1 1-1-1m20 0l1 1-1-1z" class="B"/><path d="M29 48l1 1-1-1z" class="C"/><path d="M38 48l1 1-1-1m123 0l1 1-1-1m10 0l1 1-1-1z" class="B"/><path d="M191 48l1 1-1-1z" class="C"/><path d="M29 49l1 1-1-1m20 0l1 1-1-1m113 0l1 1-1-1m10 0l1 1-1-1m11 0l1 1-1-1z" class="B"/><path d="M28 50l1 1-1-1z" class="C"/><path d="M48 50l1 1-1-1m14 0v29h1l-1-29m101 0l1 1-1-1z" class="B"/><path d="M192 50l1 1-1-1z" class="C"/><path d="M28 51l1 1-1-1m8 0l1 1-1-1m21 0l1 1-1-1m107 0l1 1-1-1m9 0l1 1-1-1m11 0l1 1-1-1z" class="B"/><path d="M27 52l1 1-1-1z" class="C"/><path d="M47 52l1 1-1-1m9 0l1 1-1-1m118.333.667l.334.667-.334-.667z" class="B"/><path d="M193 52l1 1-1-1z" class="C"/><path d="M27 53l1 1-1-1m8 0l1 1-1-1m11 0l1 1-1-1m9 0l1 1-1-1m110 0l1 1-1-1z" class="B"/><path d="M26 54l1 1-1-1z" class="C"/><path d="M166 54l1 1-1-1m9 0l1 1-1-1z" class="B"/><path d="M194 54l1 1-1-1z" class="C"/><path d="M26 55l1 1-1-1m8 0l1 1-1-1m11 0l1 1-1-1m9 0l1 1-1-1m49 0v25h1l-1-25m91 0l1 1-1-1z" class="B"/><path d="M25.333 56.667l.333.667-.333-.667z" class="C"/><path d="M44.333 56.667l.333.667-.333-.667M53 56l1 1-1-1m114 0l1 1-1-1m9 0l1 1-1-1z" class="B"/><path d="M195 56l1 1-1-1z" class="C"/><path d="M33 57l1 1-1-1m135 0l1 1-1-1m19 0l1 1-1-1m8 0l1 1-1-1z" class="B"/><path d="M24.333 58.667l.333.667-.333-.667z" class="C"/><path d="M43.333 58.667l.333.667-.333-.667M52 58l1 1-1-1m125 0l1 1-1-1z" class="B"/><path d="M196 58l1 4h1l-2-4z" class="C"/><path d="M32 59l1 1-1-1m19.333.667l.333.667-.333-.667M169 59l1 1-1-1m19 0l1 1-1-1M24 60l1 1-1-1m18.333.667l.333.667-.333-.667m128 0l.334.667-.334-.667M178 60l1 1-1-1m18 0l1 1-1-1z" class="B"/><path d="M23.333 61.667l.333.667-.333-.667z" class="C"/><path d="M50 61l1 1-1-1m94 0v24h1l-1-24M31 62l1 1-1-1m103.333.667l.334.667-.334-.667m37 0l.334.667-.334-.667M179 62l1 1-1-1m10 0l1 1-1-1m8 0l1 1-1-1M41 63l1 1-1-1m8 0l1 1-1-1z" class="B"/><path d="M198.333 63.667l.334.667-.334-.667M22 64l1 1-1-1z" class="C"/><path d="M30.333 64.667l.333.667-.333-.667m142 0l.334.667-.334-.667m8 0l.334.667-.334-.667M190 64l1 1-1-1M22.333 65.667l.333.667-.333-.667m18 0l.333.667-.333-.667m8 0l.333.667-.333-.667m111 0l.334.667-.334-.667m39 0l.334.667-.334-.667M134 66v7h1l-1-7z" class="B"/><path d="M199 66v3h1l-1-3M21.333 67.667l.333.667-.333-.667z" class="C"/><path d="M29.333 67.667l.333.667-.333-.667m10 0l.333.667-.333-.667M173 67l1 1-1-1m8.333.667l.334.667-.334-.667M191 67l1 1-1-1M47 68l1 1-1-1m29 0v42h1c0-11.957 3.611-31.012-1-42m-54.667 1.667l.333.667-.333-.667M118 69v4h1l-1-4m56.333.667l.334.667-.334-.667M199 69l1 1-1-1M46.333 70.667l.333.667-.333-.667m136 0l.334.667-.334-.667z" class="B"/><path d="M20.333 71.667l.333.667-.333-.667z" class="C"/><path d="M28 71l1 1-1-1m10.333.667l.333.667-.333-.667M192 71l1 1-1-1z" class="B"/><path d="M200.333 71.667l.334.667-.334-.667z" class="C"/><path d="M175 72v3h1l-1-3M20.333 73.667l.333.667-.333-.667m25 0l.333.667-.333-.667m138 0l.334.667-.334-.667m17 0l.334.667-.334-.667M37 74v3h1l-1-3m80 0l1 1-1-1m16 0l1 1-1-1z" class="B"/><path d="M19 75v4h1l-1-4z" class="C"/><path d="M27.333 75.667l.333.667-.333-.667M193 75l1 1-1-1z" class="B"/><path d="M201 75v3h1l-1-3z" class="C"/><path d="M44.333 76.667l.333.667-.333-.667M116 76l1 1-1-1m16 0l1 1-1-1m44 0v4h1l-1-4m-61 1l1 1-1-1m-70 1l1 1-1-1m69 0l1 1-1-1m70 0v3h1l-1-3m17 0v3h1l-1-3M19 79v3h1l-1-3m17 0v4h1l-1-4m10 0v1h16l-16-1m66 0l1 1-1-1z" class="B"/><path d="M18 80v10h1l-1-10z" class="C"/><path d="M86 80v27h1l-1-27m22.667.333l.666.333-.666-.333M128 80l1 1-1-1m31 0l1 1-1-1m16 0l1 1-1-1m19 0v4h1l-1-4M26 81v3h1l-1-3m101 0l1 1-1-1m-1 1l1 1-1-1z" class="B"/><path d="M202 82v18h1l-1-18z" class="C"/><path d="M127 83l1 1-1-1m2 1l1 1-1-1m56 0v15h1l-1-15m-55 1l1 1-1-1m-95 1v12h1l-1-12m10 0v1h17l-17-1m59 0v1h6l-6-1m27 0l1 1-1-1m13 0v3h1l-1-3M44 87l1 1-1-1z" class="B"/><path d="M103 87l-1 71c20.526-1.806 16-32.857 16-48 0-5.541 1.587-14.107-1.742-18.891-3.126-4.493-8.409-4.106-13.258-4.109z" class="C"/><path d="M112 87l1 1-1-1m20 0l1 1-1-1m27 0v1h13l-13-1M43 88l1 1-1-1m19 0v3h1l-1-3m52 0l1 1-1-1m60 0l1 1-1-1m-59 1l1 1-1-1m18.333.667l.334.667-.334-.667M176 89l1 1-1-1M18 90l1 1-1-1m98 0l1 1-1-1z" class="B"/><path d="M18 91v13h1l-1-13z" class="C"/><path d="M117.333 91.667l.334.667-.334-.667M158 91v25h1l-1-25m19 0l1 1-1-1M42 92v9h1l-1-9m20 1l1 1-1-1m72 0v16h1l-1-16m44 0v11h1l-1-11m-59.667 2.667l.334.667-.334-.667M62 96v3h1l-1-3m40 0v29h1l-1-29m92 3v4h1l-1-4m-168 1v4h1l-1-4m175 1v3h1l-1-3m-182 1l1 1-1-1m17 0v4h1l-1-4m148 0v4h1l-1-4m-164.667 2.667l.333.666-.333-.666M43 104v5h1l-1-5z" class="B"/><path d="M201 104v3h1l-1-3m-182 2v4h1l-1-4z" class="C"/><path d="M193 106v3h1l-1-3m-16 1v3h1l-1-3m-150 1l1 1-1-1m10.333.667l.333.666-.333-.666M61 108v31h1l-1-31m122.333.667l.334.666-.334-.666m17 0l.334.666-.334-.666M20 110l1 1-1-1m24 0v3h1l-1-3m99 0v29h1l-1-29z" class="B"/><path d="M200.333 110.667l.334.666-.334-.666M20 111v3h1l-1-3z" class="C"/><path d="M38 111v3h1l-1-3m96 0l1 1-1-1m42 0v3h1l-1-3m6.333.667l.334.666-.334-.666m10 0l.334.666-.334-.666M28 112l1 1-1-1m171 1l1 1-1-1m-177.667 1.667l.333.666-.333-.666M45 114v3h1l-1-3m136.333.667l.334.666-.334-.666z" class="B"/><path d="M199 114v3h1l-1-3z" class="C"/><path d="M29.333 115.667l.333.666-.333-.666m10 0l.333.666-.333-.666m136 0l.334.666-.334-.666M191 115l1 1-1-1z" class="B"/><path d="M21 116l1 1-1-1z" class="C"/><path d="M198.333 116.667l.334.666-.334-.666z" class="B"/><path d="M6 117l1 1-1-1z" class="C"/><path d="M7 117l-1 33h1l2-31-2-2z" class="B"/><path d="M8 117l1 1-1-1z" class="C"/><path d="M180.333 117.667l.334.666-.334-.666z" class="B"/><path d="M7 118L6 234h24l1-68c7.11 5.461 13.3 11.789 21 16.539 3.999 2.468 11.494 4.564 13.972 8.686 6.795 11.301-5.216 29.574.631 41.457 1.892 3.846 20.799 3.959 23.369.715C91.912 230.948 91 225.91 91 223c0-8.518-.982-17.676 1-26l35 1v37h25v-30l1.028-12.787L167 183.547 189 166l-1 70c5.002 0 20.669 2.567 23.972-1.603C216.237 229.012 213 210.786 213 204l1-84h-1c-7.737 17.368-15.261 33.18-29.17 46.715-36.519 35.535-94.697 39.781-135.83 9.529-12.518-9.206-23.899-21.465-31.218-35.244-3.694-6.955-5.108-17.062-9.782-23z" fill="#ef071b"/><path d="M22 118l1 1-1-1m18 0l1 1-1-1m6 0l1 1-1-1m128.333.667l.334.666-.334-.666M190 118l1 1-1-1z" class="B"/><path d="M198.333 118.667l.334.666-.334-.666m-189 1l.333.666-.333-.666M22 119l1 1-1-1z" class="C"/><path d="M30 119l1 1-1-1z" class="B"/><path d="M212 119l1 1-1-1z" class="C"/><path d="M213 119l1 1-1-1z" class="B"/><path d="M214 119v39h1c0-11.172 3.311-28.726-1-39z" class="C"/><path d="M47 120l1 1-1-1m126.333.667l.334.666-.334-.666M179 120l1 1-1-1m18 0l1 1-1-1m15 0l1 1-1-1M9 121v3h1l-1-3m14 0l1 1-1-1m8 0l1 1-1-1m10 0l1 1-1-1m76 0v23h1l-1-23m72 0l1 1-1-1z" class="B"/><path d="M197.333 121.667l.334.666-.334-.666M211 121l1 1-1-1m-188 1l1 1-1-1z" class="C"/><path d="M48 122l1 1-1-1m3 0v1h4l-4-1m121 0l1 1-1-1m6.333.667l.334.666-.334-.666m33 0l.334.666-.334-.666M42 123l1 1-1-1m14 0l1 1-1-1m108.667.333l.666.334-.666-.334M188 123l1 1-1-1m8 0l1 1-1-1z" class="B"/><path d="M210.333 123.667l.334.666-.334-.666m-200 1l.333.666-.333-.666z" class="C"/><path d="M24 124l1 1-1-1m8 0l1 1-1-1m11 0l1 1-1-1m14 0l1 1-1-1m105 0l1 1-1-1m5.667.333l.666.334-.666-.334M171 124l1 1-1-1m6 0l1 1-1-1z" class="B"/><path d="M196.333 124.667l.334.666-.334-.666M24 125l1 1-1-1z" class="C"/><path d="M161 125l1 1-1-1m8.667.333l.666.334-.666-.334m40.666.334l.334.666-.334-.666m-200 1l.333.666-.333-.666M25 126l1 1-1-1m8 0l1 1-1-1m11 0l1 1-1-1m14 0v4h1l-1-4m27 0v25h1l-1-25m75 0l1 1-1-1m16 0l1 1-1-1m11 0l1 1-1-1m8 0l1 1-1-1z" class="B"/><path d="M209.333 126.667l.334.666-.334-.666m-198 1l.333.666-.333-.666M25 127l1 4h1l-2-4z" class="C"/><path d="M45 127l1 1-1-1m130 0l1 1-1-1z" class="B"/><path d="M195 127l1 1-1-1z" class="C"/><path d="M26 128l1 1-1-1m8 0l1 1-1-1m125 0v3h1l-1-3m27 0l1 1-1-1m8 0l1 1-1-1m15 0l1 1-1-1m-198 1l1 1-1-1m35 0l1 1-1-1m128 0l1 1-1-1z" class="B"/><path d="M194 129l1 1-1-1m14 0l1 1-1-1m-196 1l1 1-1-1z" class="C"/><path d="M35 130l1 1-1-1m12 0l1 1-1-1m10 0l1 1-1-1m100 0v12h1l-1-12m16 0l1 1-1-1m12 0l1 1-1-1m8 0l1 1-1-1m15 0l1 1-1-1m-195.667 1.667l.333.666-.333-.666M27 131l1 1-1-1m21 0l1 1-1-1m27 0v16h1l-1-16m97 0l1 1-1-1z" class="B"/><path d="M193 131l1 1-1-1m14 0l1 1-1-1m-194 1l1 4h1l-2-4m14 0l1 1-1-1z" class="C"/><path d="M36 132l1 1-1-1m14.667.333l.667.334-.667-.334M55 132l1 1-1-1m105 0l1 1-1-1m11 0l1 1-1-1m13 0l1 1-1-1m8 0l1 1-1-1m15 0l1 1-1-1m-179 1l1 1-1-1m133 0l1 1-1-1m8 0l1 1-1-1z" class="B"/><path d="M192 133l1 1-1-1m14 0l1 1-1-1z" class="C"/><path d="M13 134l1 1-1-1z" class="B"/><path d="M28 134l1 1-1-1z" class="C"/><path d="M37 134l1 1-1-1m125 0v1h7l-7-1m29 0l1 1-1-1m15 0l-1 4h1v-4z" class="B"/><path d="M29 135l1 1-1-1z" class="C"/><path d="M133 135v9h1l-1-9m49 0l1 1-1-1z" class="B"/><path d="M191 135l1 1-1-1m14 0l1 1-1-1z" class="C"/><path d="M14 136l1 1-1-1m176 0l1 1-1-1z" class="B"/><path d="M15 137l1 1-1-1m15 0l1 1-1-1z" class="C"/><path d="M39 137l1 1-1-1m142 0l1 1-1-1z" class="B"/><path d="M190 137l1 1-1-1z" class="C"/><path d="M15 138l1 1-1-1m16 0l1 1-1-1z" class="B"/><path d="M189 138l-1 3 1-3m15 0l1 1-1-1m-188 1l1 1-1-1m15 0l1 1-1-1z" class="C"/><path d="M188 139l1 1-1-1m16 0l1 1-1-1m-188 1l1 1-1-1m16 0l1 1-1-1m9 0l1 1-1-1m18.667.333l.667.334-.667-.334M203 140l-1 3 1-3z" class="B"/><path d="M17 141l1 1-1-1z" class="C"/><path d="M178 141l1 1-1-1m9 0l1 1-1-1z" class="B"/><path d="M202 141l1 1-1-1z" class="C"/><path d="M17 142l1 1-1-1z" class="B"/><path d="M33 142l1 1-1-1z" class="C"/><path d="M57.333 142.667l.333.666-.333-.666M158 142l1 1-1-1m28 0l1 1-1-1z" class="B"/><path d="M18 143l2 2-2-2z" class="C"/><path d="M34 143l1 1-1-1m125 0l1 1-1-1z" class="B"/><path d="M186 143l1 1-1-1m15 0l1 1-1-1z" class="C"/><path d="M18 144l1 1-1-1m17 0l1 1-1-1m9 0l1 1-1-1m116 0v3h1l-1-3z" class="B"/><path d="M185 144l1 1-1-1z" class="C"/><path d="M201 144l1 1-1-1m-182 1l1 1-1-1z" class="B"/><path d="M35 145l1 1-1-1z" class="C"/><path d="M45 145l1 1-1-1m13 0l1 1-1-1m117 0l1 1-1-1m9 0l1 1-1-1z" class="B"/><path d="M200 145l-1 2 1-2m-180 1l2 2-2-2m16 0l1 1-1-1z" class="C"/><path d="M46 146l1 1-1-1m13 0l1 1-1-1m73.333.667l.334.666-.334-.666M174 146l1 1-1-1z" class="B"/><path d="M184 146l1 1-1-1z" class="C"/><path d="M200 146l1 1-1-1m-180 1l1 1-1-1m17 0l1 1-1-1m23 0l1 1-1-1m56.333.667l.334.666-.334-.666M142 147l1 1-1-1m31 0l1 1-1-1z" class="B"/><path d="M183 147l1 1-1-1z" class="C"/><path d="M199 147l1 1-1-1m-178 1l1 1-1-1m17 0l1 1-1-1m23 0l1 1-1-1m15 0l1 1-1-1m82 0l1 1-1-1m14 0l1 1-1-1z" class="B"/><path d="M182 148l1 1-1-1m16 0l-1 2 1-2M5 149v67h1v-46l-1-21m17 0l1 1-1-1m16 0l1 1-1-1z" class="C"/><path d="M77 149l1 1-1-1m54 0l1 1-1-1m10 0l1 1-1-1m16 0l1 1-1-1m24 0l1 1-1-1m17 0l1 1-1-1m-176 1l1 1-1-1z" class="B"/><path d="M39 150l1 1-1-1z" class="C"/><path d="M64 150l1 1-1-1m14 0l1 1-1-1m37 0l1 1-1-1m25 0l1 1-1-1m16 0l1 1-1-1m14 0l1 1-1-1m10 0l-1 2 1-2m17 0l1 1-1-1m-174 1l1 1-1-1z" class="B"/><path d="M40 151l1 1-1-1z" class="C"/><path d="M65 151l1 1-1-1m65 0l1 1-1-1m9 0l1 1-1-1m15 0l1 1-1-1m15 0l1 1-1-1z" class="B"/><path d="M180 151l1 1-1-1m16 0l-1 2 1-2z" class="C"/><path d="M24 152l1 1-1-1z" class="B"/><path d="M41 152l1 1-1-1z" class="C"/><path d="M67 152l1 1-1-1m14.667.333l.667.334-.667-.334M84 152l1 1-1-1m30 0l1 1-1-1m24 0l1 1-1-1m15 0l1 1-1-1m15 0l1 1-1-1z" class="B"/><path d="M179 152l1 1-1-1z" class="C"/><path d="M196 152l1 1-1-1z" class="B"/><path d="M25 153l1 1-1-1m17 0l1 1-1-1z" class="C"/><path d="M53 153l1 1-1-1m15 0l1 1-1-1m33 0v5h1l-1-5m12 0l1 1-1-1m16 0l1 1-1-1m7 0l1 1-1-1m15 0l1 1-1-1m16 0l1 1-1-1z" class="B"/><path d="M178 153l1 1-1-1z" class="C"/><path d="M195 153l1 1-1-1m18 0v78h1v-54l-1-24m-188 1l1 1-1-1z" class="B"/><path d="M43 154l1 1-1-1z" class="C"/><path d="M54 154l1 1-1-1m16 0l1 1-1-1m42 0l1 1-1-1m16 0l1 1-1-1m5.667.333l.666.334-.666-.334M150 154l1 1-1-1m16 0l1 1-1-1z" class="B"/><path d="M177 154l1 1-1-1z" class="C"/><path d="M194 154l1 1-1-1m-168 1l1 1-1-1z" class="B"/><path d="M44 155l1 1-1-1z" class="C"/><path d="M55 155l1 1-1-1m16 0l1 1-1-1m40 0l1 1-1-1m16 0v2h2l-2-2m3.667.333l.666.334-.666-.334M148 155l1 1-1-1z" class="B"/><path d="M176 155l1 1-1-1m17 0l1 1-1-1z" class="C"/><path d="M27 156l1 1-1-1z" class="B"/><path d="M45 156l1 1-1-1z" class="C"/><path d="M73 156l1 1-1-1m36 0l1 1-1-1m37.667.333l.666.334-.666-.334z" class="B"/><path d="M175 156l1 1-1-1m17 0l-2 3 2-3m-164 1l1 1-1-1m18 0l1 1-1-1z" class="C"/><path d="M75 157l1 1-1-1m31.667.333l.666.334-.666-.334m38 0l.666.334-.666-.334M162 157l1 1-1-1z" class="B"/><path d="M174 157l1 1-1-1z" class="C"/><path d="M192 157l1 1-1-1z" class="B"/><path d="M29 158l3 3-3-3m18 0l1 1-1-1z" class="C"/><path d="M59 158l1 1-1-1m18 0l1 1-1-1m65.667.333l.666.334-.666-.334M161 158l1 1-1-1z" class="B"/><path d="M173 158l1 1-1-1z" class="C"/><path d="M191 158l1 1-1-1m-162 1l1 1-1-1z" class="B"/><path d="M48 159l1 1-1-1z" class="C"/><path d="M79 159l1 1-1-1m61.667.333l.666.334-.666-.334z" class="B"/><path d="M172 159l1 1-1-1z" class="C"/><path d="M190 159l1 1-1-1m-160 1l1 1-1-1z" class="B"/><path d="M49 160l1 1-1-1z" class="C"/><path d="M62 160l1 1-1-1m19 0l1 1-1-1m57 0l1 1-1-1m20 0l1 1-1-1m12 0l1 1-1-1z" class="B"/><path d="M171 160l1 1-1-1m18 0l1 1-1-1m25.333.667l.334.666-.334-.666z" class="C"/><path d="M31 161l1 1-1-1z" class="B"/><path d="M50 161l1 1-1-1z" class="C"/><path d="M51 161l1 1-1-1m12 0l1 1-1-1m21.667.333l.667.334-.667-.334m51 0l.666.334-.666-.334M157 161l1 1-1-1m12 0l1 1-1-1z" class="B"/><path d="M188 161l1 1-1-1z" class="C"/><path d="M32 162l1 1-1-1m20 0l1 1-1-1m13 0l1 1-1-1m21 0v1h3l-3-1m46.667.333l.666.334-.666-.334M155 162l1 1-1-1m13 0l1 1-1-1z" class="B"/><path d="M187 162l1 1-1-1z" class="C"/><path d="M33 163l1 1-1-1z" class="B"/><path d="M53 163l1 1-1-1z" class="C"/><path d="M90.667 163.333l.667.334-.667-.334M128 163v1h3l-3-1z" class="B"/><path d="M167 163l1 1-1-1m19 0l1 1-1-1z" class="C"/><path d="M34 164l1 1-1-1z" class="B"/><path d="M54 164l2 2-2-2z" class="C"/><path d="M55 164l1 1-1-1m13 0l1 1-1-1m26 0v1h3l-3-1m29 0v1h4l-4-1m29 0l1 1-1-1m13 0l-1 2 1-2z" class="B"/><path d="M166 164l1 1-1-1m19 0l-3 4 3-4z" class="C"/><path d="M35 165l1 1-1-1m21 0l1 1-1-1m14 0l1 1-1-1m29 0v1h9l-9-1m15 0v1h7l-7-1m36 0l1 1-1-1z" class="B"/><path d="M165 165l1 1-1-1z" class="C"/><path d="M185 165l1 1-1-1m-153.333 1.333l.667.334-.667-.334M36 166l1 1-1-1z" class="B"/><path d="M57 166l1 1-1-1z" class="C"/><path d="M72 166l1 1-1-1m76 0l1 1-1-1z" class="B"/><path d="M163 166l1 1-1-1z" class="C"/><path d="M184 166l1 1-1-1m4 0l-4 5 4-3v22h1l-1-24z" class="B"/><path d="M31 167v49c8.349-2.284 13.553-6.525 16-15h2c2.69 9.317 12.172 10.57 15.258 18.055 1.745 4.231-1.495 12.876 2.346 15.917 3.085 2.443 21.866 2.584 24.369-.575C92.911 231.949 92 226.927 92 224h-1v11H66v-30l-.603-13.61L55 184.396 31 167z" class="C"/><path d="M37 167l4 4-4-4z" class="B"/><path d="M38 167l1 1-1-1m20 0l1 1-1-1z" class="C"/><path d="M59 167l1 1-1-1m15 0l1 1-1-1m72 0l1 1-1-1m15 0l1 1-1-1z" class="B"/><path d="M162 167l1 1-1-1z" class="C"/><path d="M183 167l1 1-1-1m-152 1v5h1l-1-5z" class="B"/><path d="M39 168l1 1-1-1m21 0l1 1-1-1z" class="C"/><path d="M61 168l1 1-1-1m15 0l1 1-1-1m68 0l1 1-1-1z" class="B"/><path d="M160 168l1 1-1-1m21 0l1 1-1-1m6 0l-20 15.55-12.972 7.868L153 205l-1 30h1l1.179-15.867L169 202h2c2.392 8.364 6.585 12.68 15 15l-2 2v1c5.153-2.071 4-7.165 4-12 0-11.42 3.408-29.496-1-40z" class="C"/><path d="M35 169l1 1-1-1z" class="B"/><path d="M40 169l1 1-1-1m22 0l1 1-1-1z" class="C"/><path d="M79 169l1 1-1-1m62 0l1 1-1-1m17 0l1 1-1-1z" class="B"/><path d="M180 169l1 1-1-1z" class="C"/><path d="M36 170l1 1-1-1z" class="B"/><path d="M41 170l1 1-1-1m22 0l1 1-1-1z" class="C"/><path d="M64 170l1 1-1-1m17.667.333l.667.334-.667-.334M139 170l1 1-1-1m17 0l1 1-1-1z" class="B"/><path d="M157 170l1 1-1-1z" class="C"/><path d="M179 170l1 1-1-1m-142 1l1 1-1-1z" class="B"/><path d="M42 171l1 1-1-1m23 0l1 1-1-1z" class="C"/><path d="M66 171l1 1-1-1m18 0l1 1-1-1m52 0l1 1-1-1m18 0l1 1-1-1z" class="B"/><path d="M155 171l1 1-1-1m22 0l-2 3 2-3z" class="C"/><path d="M178 171l1 1-1-1m-140 1l1 1-1-1z" class="B"/><path d="M43 172l1 1-1-1m24 0l1 1-1-1z" class="C"/><path d="M68 172l1 1-1-1m19.667.333l.667.334-.667-.334M133 172l1 1-1-1m19 0l1 1-1-1z" class="B"/><path d="M153 172l1 1-1-1z" class="C"/><path d="M177 172l1 1-1-1m-138 1l1 1-1-1m5 0l1 1-1-1z" class="B"/><path d="M69 173l1 1-1-1z" class="C"/><path d="M70 173l1 1-1-1m21.667.333l.667.334-.667-.334M129 173l1 1-1-1z" class="B"/><path d="M151.667 173.333l.666.334-.666-.334z" class="C"/><path d="M176 173l1 1-1-1m4 0l1 1-1-1m-140 1l1 1-1-1m5 0l2 2-2-2z" class="B"/><path d="M46 174l1 1-1-1m25 0l1 1-1-1z" class="C"/><path d="M72 174l1 1-1-1m24.667.333l.667.334-.667-.334m27 0l.666.334-.666-.334M148 174l1 1-1-1z" class="B"/><path d="M149.667 174.333l.666.334-.666-.334M174 174l1 1-1-1z" class="C"/><path d="M179 174l1 1-1-1z" class="B"/><path d="M47 175l1 1-1-1m26 0l1 1-1-1z" class="C"/><path d="M74 175l1 1-1-1m29 0v1h15l-15-1m43 0l1 1-1-1z" class="B"/><path d="M147 175l1 1-1-1m25 0l-1 2 1-2z" class="C"/><path d="M173 175l1 1-1-1m5 0l1 1-1-1m-147 1l1 1-1-1m12 0l1 1-1-1m5 0l1 1-1-1z" class="B"/><path d="M75.667 176.333l.667.334-.667-.334z" class="C"/><path d="M144 176l1 1-1-1z" class="B"/><path d="M145 176l1 1-1-1z" class="C"/><path d="M172 176l1 1-1-1m5 0l1 1-1-1m-133 1l1 1-1-1m5 0l1 1-1-1z" class="B"/><path d="M50 177l1 1-1-1m28 0l1 1-1-1z" class="C"/><path d="M79 177l1 1-1-1m62 0l1 1-1-1z" class="B"/><path d="M142 177l1 1-1-1m28 0l1 1-1-1z" class="C"/><path d="M175 177l1 1-1-1m-129 1l1 1-1-1m5 0l2 2-2-2z" class="B"/><path d="M52 178l1 1-1-1m29 0l1 1-1-1z" class="C"/><path d="M82.667 178.333l.667.334-.667-.334M138 178l1 1-1-1z" class="B"/><path d="M139 178l1 1-1-1m29 0l1 1-1-1z" class="C"/><path d="M169 178l1 1-1-1m5 0l1 1-1-1m-127 1l1 1-1-1z" class="B"/><path d="M53 179l1 1-1-1m31.667.333l.667.334-.667-.334z" class="C"/><path d="M86 179l1 1-1-1m48.667.333l.666.334-.666-.334z" class="B"/><path d="M136.667 179.333l.666.334-.666-.334z" class="C"/><path d="M167 179l1 1-1-1m6 0l1 1-1-1m-125 1l1 1-1-1m6 0l2 2-2-2z" class="B"/><path d="M55 180l1 1-1-1m32.667.333l.667.334-.667-.334z" class="C"/><path d="M89.667 180.333l.667.334-.667-.334m41 0l.666.334-.666-.334z" class="B"/><path d="M132 180v1h3l-3-1m33 0l1 1-1-1z" class="C"/><path d="M166 180l1 1-1-1m5 0l1 1-1-1m-121 1l1 1-1-1z" class="B"/><path d="M56 181l1 1-1-1m35 0v1h3l-3-1z" class="C"/><path d="M94.667 181.333l.667.334-.667-.334M125 181v1h3l-3-1z" class="B"/><path d="M128.667 181.333l.666.334-.666-.334M163 181l1 1-1-1z" class="C"/><path d="M164 181l1 1-1-1m6 0l1 1-1-1m-119 1l1 1-1-1m6 0l1 1-1-1z" class="B"/><path d="M58 182l1 1-1-1m38 0v1h5l-5-1z" class="C"/><path d="M101 182v1h3l-3-1m15 0v1h4l-4-1z" class="B"/><path d="M120 182v1h5l-5-1z" class="C"/><path d="M162.667 182.333l.666.334-.666-.334M168 182l1 1-1-1m-115 1l1 1-1-1m6 0l1 1-1-1z" class="B"/><path d="M60 183l1 1-1-1m43 0v1h14l-14-1m57 0l1 1-1-1z" class="C"/><path d="M161 183l1 1-1-1m6 0l1 1-1-1m-112 1l1 1-1-1m6 0l1 1-1-1z" class="B"/><path d="M62 184l1 1-1-1m96 0l1 1-1-1z" class="C"/><path d="M159 184l1 1-1-1m6 0l1 1-1-1m-108.333 1.333l.667.334-.667-.334M63 185l1 1-1-1z" class="B"/><path d="M64 185l1 1-1-1m92 0l1 1-1-1z" class="C"/><path d="M157 185l1 1-1-1m6 0l1 1-1-1m-105 1l1 1-1-1m7 0l1 1-1-1z" class="B"/><path d="M66 186l1 1-1-1m85 1v1l4-1h-4z" class="C"/><path d="M155 186l1 1-1-1m6 0l1 1-1-1m-101 1l1 1-1-1m7 0l1 1-1-1z" class="B"/><path d="M68.667 187.333l.667.334-.667-.334z" class="C"/><path d="M153 187l1 1-1-1m6.667.333l.666.334-.666-.334m-97 1l.667.334-.667-.334m7 0l.667.334-.667-.334z" class="B"/><path d="M71 188l1 1-1-1m78 0l1 1-1-1z" class="C"/><path d="M150.667 188.333l.666.334-.666-.334m7 0l.666.334-.666-.334m-93 1l.667.334-.667-.334m8 0l.667.334-.667-.334z" class="B"/><path d="M74 189l1 1-1-1m72 0l1 1-1-1z" class="C"/><path d="M147.667 189.333l.666.334-.666-.334M155 189l1 1-1-1m-125 1v44H7v1h23l3-17-3-28m36 0v19h1l-1-19m9.667.333l.667.334-.667-.334z" class="B"/><path d="M77 190l1 1-1-1m66 0l1 1-1-1z" class="C"/><path d="M144.667 190.333l.666.334-.666-.334M153 190l1 1-1-1m-74.333 1.333l.667.334-.667-.334z" class="B"/><path d="M80 191l1 1-1-1m60.667.333l.666.334-.666-.334z" class="C"/><path d="M142 191l1 1-1-1m10 0v23h1l-1-23m-70.333 1.333l.667.334-.667-.334z" class="B"/><path d="M83.667 192.333l.667.334-.667-.334m53 0l.666.334-.666-.334z" class="C"/><path d="M138.667 192.333l.666.334-.666-.334m-53 1l.667.334-.667-.334z" class="B"/><path d="M87 193v1h3l-3-1m45.667.333l.666.334-.666-.334z" class="C"/><path d="M134 193v1h3l-3-1m-45 1v1h3l-3-1z" class="B"/><path d="M92 194v1h3l-3-1m34 0v1h3l-3-1z" class="C"/><path d="M129 194v1h4l-4-1m-35 1v1h4l-4-1z" class="B"/><path d="M98 195v1h6l-6-1m19 0v1h6l-6-1z" class="C"/><path d="M123 195v1h4l-4-1m-20 1v1h16l-16-1m-11 1l-1 20h1v-20z" class="B"/><path d="M92 198l-1 24h1l16-21h2c2.172 9.139 7.369 13.061 16 16l1-19H92z" class="C"/><path d="M96 198v1h5l-5-1m24 0v1h5l-5-1m-12.333 1.333l.666.334-.666-.334z" class="B"/><path d="M47 201c-2.596 8.991-8.461 10.582-15 16 7.763 3.701 12.179 7.73 15 16h1c3.47-8.928 7.851-11.655 16-16l-10.61-7.185L47 201z" class="D"/><path d="M108.667 201.333l.666.334-.666-.334z" class="B"/><path d="M108 202c-2.881 8.243-8.256 10.462-15 15 7.322 4.927 11.642 7.36 15 16h1c3.78-9.032 8.812-10.56 16-16-7.244-3.882-11.725-7.188-15-15h-2m61 0c-2.606 9.024-8.399 10.646-15 16 7.691 4.217 11.766 7.678 15 16h1c3.215-9.423 8.386-10.944 16-16l-17-16z" class="D"/><path d="M46 203l1 1-1-1m3 0l1 1-1-1m58 0l1 1-1-1m3 0l1 1-1-1m58 1l1 1-1-1m3 0l1 1-1-1m-126 1l1 1-1-1m2.667.333l.667.334-.667-.334M50 205l1 1-1-1z" class="B"/><path d="M47 206c-1.866 5.473-5.53 8.375-11 10v1c5.851 2.046 9.208 4.972 11 11h1c2.554-5.802 6.039-8.917 12-11v-1l-13-10z" class="C"/><path d="M106 206l1 1-1-1z" class="B"/><path d="M108 206l-10 11 10 11h1l11-11-12-11z" class="C"/><path d="M109 206l1 1-1-1m58 0l1 1-1-1m2 0l2 2-2-2m3 0l1 1-1-1m-128 1l1 1-1-1m7 0l1 1-1-1z" class="B"/><path d="M169 207c-1.866 5.473-5.53 8.375-11 10v1c5.723 2.406 8.594 5.277 11 11h1l11-11-12-11z" class="C"/><path d="M46 208l1 1-1-1m3 0l1 1-1-1m56 0l1 1-1-1m2 0l1 1-1-1m59 0l1 1-1-1m7 0l1 1-1-1m-130 1l1 1-1-1m9 0l1 1-1-1m116 0l1 1-1-1m3 0l1 1-1-1m-129 1l1 1-1-1m3 0l1 1-1-1m5 0l1 1-1-1m3 0l1 1-1-1m112 0l1 1-1-1m-124 1l1 1-1-1m3 0l1 1-1-1m10 0l1 1-1-1m110 0l1 1-1-1m3 0l1 1-1-1m5 0l1 1-1-1m-71 1l1 1-1-1m4 0l1 1-1-1m7 0l1 1-1-1m51 0l1 1-1-1m3 0l1 1-1-1m-124 1l1 1-1-1m11 0l1 1-1-1m4 0l1 1-1-1m56 0l1 1-1-1m4 0l1 1-1-1m60 0l1 1-1-1m-142 1l1 1-1-1m5 0l1 1-1-1m19 0l1 1-1-1m38 0l1 1-1-1m5 0l1 1-1-1m17 0l1 1-1-1m7 0c-.457 4.279-2.023 18.1 1.603 20.972C132.166 238.586 146.301 236 152 236v-1h-25l-1-21m34 0l1 1-1-1m4 0l1 1-1-1m-131 1l1 1-1-1m5 0l1 1-1-1m19 0l1 1-1-1m5 0l1 1-1-1m33 0l1 1-1-1m5 0l1 1-1-1m62 0l1 1-1-1m14 0l1 1-1-1m5 0l1 1-1-1M5 216v18h1l-1-18m92.333.667l.333.666-.333-.666M119 216l1 1-1-1m5 0l1 1-1-1m31 0l1 1-1-1m5 0l1 1-1-1m18 0l1 1-1-1m5 0l1 1-1-1z" class="B"/><path d="M31 217l1 1-1-1z" class="C"/><path d="M37 217l1 1-1-1m21.667.333l.667.334-.667-.334M63 217l1 1-1-1m57 0l1 1-1-1m61.333.667l.334.666-.334-.666M185 217l1 1-1-1z" class="B"/><path d="M34 218l1 1-1-1z" class="C"/><path d="M35 218l1 1-1-1m5 0l1 1-1-1m15.667.333l.667.334-.667-.334M61 218l1 1-1-1z" class="B"/><path d="M62 218l1 1-1-1m32 0l1 1-1-1z" class="C"/><path d="M95 218l1 1-1-1m5 0l1 1-1-1m18 0l1 1-1-1m5 0l1 1-1-1z" class="B"/><path d="M124.667 218.333l.666.334-.666-.334z" class="C"/><path d="M154 218l1 1-1-1m5 0l1 1-1-1z" class="B"/><path d="M36 219l1 1-1-1z" class="C"/><path d="M37 219l1 1-1-1m5 0l1 1-1-1m11 0l1 1-1-1m5 0l1 1-1-1z" class="B"/><path d="M59 219l1 1-1-1m37 0l1 1-1-1z" class="C"/><path d="M97 219l1 1-1-1m5 0l1 1-1-1m13 0l1 1-1-1m5 0l1 1-1-1z" class="B"/><path d="M121.667 219.333l.666.334-.666-.334m34 0l.666.334-.666-.334z" class="C"/><path d="M178 219l1 1-1-1m5 0l1 1-1-1m4 0v17h1l-1-17z" class="B"/><path d="M38 220l1 1-1-1z" class="C"/><path d="M39 220l1 1-1-1m4 0l1 1-1-1m13 0l1 1-1-1z" class="B"/><path d="M57 220l1 1-1-1m41 0l1 1-1-1z" class="C"/><path d="M99 220l1 1-1-1m14 0l1 1-1-1m5 0l1 1-1-1z" class="B"/><path d="M119 220l1 1-1-1m39 0l3 2v-1l-3-1z" class="C"/><path d="M159 220l1 1-1-1m16 0l1 1-1-1m6 0l1 1-1-1z" class="B"/><path d="M182 220l1 1-1-1m-142 1l1 1-1-1z" class="C"/><path d="M44 221l1 1-1-1m10 0l1 1-1-1z" class="B"/><path d="M55 221l1 1-1-1m45 0l1 1-1-1z" class="C"/><path d="M101 221l1 1-1-1m11 0l1 1-1-1m4 0l1 1-1-1z" class="B"/><path d="M117 221l1 1-1-1z" class="C"/><path d="M165 221l1 1-1-1m13 0l1 1-1-1z" class="B"/><path d="M179.667 221.333l.666.334-.666-.334M41 222l1 1-1-1z" class="C"/><path d="M50 222l1 1-1-1z" class="B"/><path d="M53 222l1 1-1-1z" class="C"/><path d="M91.333 222.667l.333.666-.333-.666M102 222l1 1-1-1m9 0l1 1-1-1m3 0l1 1-1-1z" class="B"/><path d="M115 222l1 1-1-1m46 0l1 1-1-1z" class="C"/><path d="M162 222l1 1-1-1m14 0l1 1-1-1z" class="B"/><path d="M177 222l1 1-1-1m-135 1l1 1-1-1z" class="C"/><path d="M45 223l1 1-1-1m7 0l-1 2 1-2m51 0l1 1-1-1m3 0l1 1-1-1z" class="B"/><path d="M114 223l1 1-1-1m49 0l1 1-1-1z" class="C"/><path d="M172 223l1 1-1-1m3 0l1 1-1-1m-132 1l1 1-1-1m6 0l1 1-1-1z" class="B"/><path d="M52 224l1 1-1-1z" class="C"/><path d="M104 224l1 1-1-1m6 0l1 1-1-1z" class="B"/><path d="M113 224l1 1-1-1m51 0l1 1-1-1z" class="C"/><path d="M174 224l-1 2 1-2z" class="B"/><path d="M43 225l1 1-1-1z" class="C"/><path d="M46 225l1 1-1-1z" class="B"/><path d="M51 225l1 1-1-1m53 0l1 1-1-1z" class="C"/><path d="M112 225l1 1-1-1m53 0l1 1-1-1m2 0l1 1-1-1z" class="B"/><path d="M174 225l1 1-1-1z" class="C"/><path d="M44 226l1 1-1-1m4 0l1 1-1-1m2 0l1 1-1-1m55 0l1 1-1-1m2 0l1 1-1-1m2.333.667l.334.666-.334-.666z" class="B"/><path d="M112 226l1 1-1-1m53 0l1 1-1-1m8 0l1 1-1-1m-129 1l1 1-1-1m6 0l1 1-1-1m55.333.667l.334.666-.334-.666m6 0l.334.666-.334-.666z" class="C"/><path d="M166 227l1 1-1-1m2 0l1 1-1-1m2 0l1 1-1-1m2 0l1 1-1-1m-127 1l1 1-1-1m63 0l1 1-1-1z" class="B"/><path d="M166 228l1 1-1-1m6 0l1 1-1-1m-127 1l1 1-1-1m4.333.667l.333.666-.333-.666m57 0l.334.666-.334-.666z" class="C"/><path d="M110 229l1 1-1-1m61 0l1 1-1-1z" class="B"/><path d="M110.333 230.667l.334.666-.334-.666z" class="C"/><path d="M167 230l1 1-1-1z" class="B"/><path d="M171.333 230.667l.334.666-.334-.666z" class="C"/><path d="M46 231l1 1-1-1m2 0l1 1-1-1m59 0l1 1-1-1m2.333.667l.334.666-.334-.666z" class="B"/><path d="M167 231l1 1-1-1m46 0v5h-26v1c5.438 0 29.515 3.251 26-6m-167 1l1 1-1-1m2 0l1 1-1-1m59 0l3 2v-1l-3-1z" class="C"/><path d="M168 232l1 1-1-1m2 0l1 1-1-1z" class="B"/><path d="M47 233l1 1-1-1m121 0l1 1-1-1m2 0l1 1-1-1M5.667 234.333l.667.334-.667-.334M30 234l1 1-1-1z" class="C"/><path d="M66 234l1 1-1-1m24 0l1 1-1-1z" class="B"/><path d="M169 234l1 1-1-1m-43 1l1 1-1-1z" class="C"/><path d="M212 235l1 1-1-1z" class="B"/><path d="M5 238v9h1l-1-9z" class="C"/><path d="M6 238v1h44c-11.463-4.81-31.52-1-44-1z" class="B"/><path d="M50 238v1h66l-21-1H50m67.667.333l.666.334-.666-.334z" class="C"/><path d="M6 239l-1 74c0 15.666.621 32.226 13.09 43.699C42.722 379.363 94.458 359.01 106 399h1c15.626-40.219 61.089-17.196 88-39.329 15.577-12.813 17-32.975 17-51.671v-68L6 239z" class="D"/><path d="M129 239l1 1-1-1m2 0l1 1-1-1m3 0v1h54l-18-1h-36z" class="B"/><path d="M188 239v1h3l-3-1z" class="C"/><path d="M191 239v1h3l-3-1z" class="B"/><path d="M194.667 239.333l.666.334-.666-.334z" class="C"/><path d="M196 239l1 1-1-1z" class="B"/><path d="M197 239v1h16l-16-1z" class="C"/><path d="M212 240v36h1c0-10.387 3.011-26.44-1-36z" class="B"/><path d="M213 241v26h1l-1-26z" class="C"/><path d="M5 247l1 1-1-1z" class="B"/><path d="M5 248l1 1-1-1z" class="C"/><path d="M5 249v7h1l-1-7z" class="B"/><path d="M4 256v75h1v-52l-1-23z" class="C"/><path d="M26 257l1 1-1-1z" class="B"/><path d="M17 288c3.314-2.086 3.25-6.056 6.279-8.392 6.044-4.662 8.817 4.081 9.721 8.392h5l-8-31c-7.668 2.483-11.715 23.535-13 31m29-31l-4 31c4.638-3.007 3.773-13.712 4-19l8 19 10-19 2 19h5l-2-30-3-1-9 21-9-21h-2z" class="C"/><path d="M48 257l1 1-1-1m19 0l1 1-1-1m9 0v1h13l-2 2v1l3-1v-2l-14-1m18.333.667l.333.666-.333-.666z" class="B"/><path d="M94 288h5v-12c5.41 4.941 4.874 11.463 13 13-1.284-4.456-5.399-9.388-5.446-14-.05-4.952 5.117-8.39 2.703-13.786-1.824-4.078-12.114-6.726-14.396-1.897C91.547 266.331 94 280.28 94 288z" class="C"/><path d="M105 257l1 1-1-1m32.667.333l.666.334-.666-.334z" class="B"/><path d="M147 285c-20.816 7.907-19.833-31.629 0-23-2.861-8.628-16.022-3.363-18.772 3.015-2.499 5.8-2.27 16.038 2.051 20.876 4.366 4.89 14.396 6.471 16.721-.891z" class="C"/><path d="M140 257v1h4l-4-1m-110 1l1 1-1-1m15 0v3h1l-1-3z" class="B"/><path d="M76 258v31h13v-4c-10-.326-10.396-12.598 0-11v-4h-8c.023-6.473.964-9.771 8-10v-2H76z" class="C"/><path d="M107 258l1 1-1-1z" class="B"/><path d="M117 258l-1 30 6 1v-31h-5z" class="C"/><path d="M134 258l1 1-1-1m12 0l1 1-1-1m13 1v1l5-1h-5m17 21h1v-21l5 2c-8.109-8.041-6 14.748-6 19M49 259l1 1-1-1m19 0l1 1-1-1m31 0l1 1-1-1z" class="B"/><path d="M100 271c11.371-3.592-2.023-18.486-.821-4.045.115 1.386.501 2.699.821 4.045z" class="D"/><path d="M122 259v5h1l-1-5m10 0l1 1-1-1m6 0l1 1-1-1m4 0l1 1-1-1z" class="B"/><path d="M150 289c5.163-1.51 3.396-9.345 10-8.894 7.328.502 3.736 11.231 12 8.894l-8-30c-8.103 1.348-12.002 22.679-14 30m27-30l-1 31h3v-20l18 20v-31l-3 1v18c-5.042-5.828-9.367-16.755-17-19z" class="C"/><path d="M194 259l1 1-1-1m-169 1l1 1-1-1m39 0l1 1-1-1m30.333.667l.333.666-.333-.666M109 260l1 1-1-1m27 0l1 1-1-1m8 0l1 1-1-1m20.333.667l.334.666-.334-.666m-133 1l.333.666-.333-.666M81 261v5h1l-1-5m23 0l1 1-1-1m31 0l1 1-1-1m59 0v5h1l-1-5m-144 1l1 1-1-1m13 0l1 1-1-1m66 0l1 1-1-1m5 0l1 1-1-1m12 0l1 1-1-1m12.333.667l.334.666-.334-.666M182 262l1 1-1-1m-158 1l1 1-1-1m86 0l1 1-1-1m-58.667 1.667l.333.666-.333-.666M133 264l1 1-1-1m32.333.667l.334.666-.334-.666z" class="B"/><path d="M26 265l-3 10h6l-3-10z" class="D"/><path d="M32.333 265.667l.333.666-.333-.666M44 265v4h1l-1-4m18 0l1 1-1-1m32 0l1 1-1-1m63.333.667l.334.666-.334-.666M184 265l1 1-1-1m-161 1l1 1-1-1m2 0l1 1-1-1m2 0l1 1-1-1m100 0l1 1-1-1z" class="B"/><path d="M159 266c-.989 4.795-3.428 11.692 4 10l-4-10z" class="D"/><path d="M160 266l1 1-1-1m-108 1l1 1-1-1m9 0l1 1-1-1m8 0v6h1l-1-6m12 0l1 1-1-1m13 0v3h1l-1-3m38 0l1 1-1-1m62 0v8h1l-1-8m-90 1l1 1-1-1m5 0l1 1-1-1m49 0l1 1-1-1m3.333.667l.334.666-.334-.666M186 268l1 1-1-1m-164 1l1 1-1-1m2 0l1 1-1-1m4.333.667l.333.666-.333-.666M33 269l1 1-1-1m14 0l1 1-1-1m16 0l1 1-1-1m18 0l1 1-1-1m18.333.667l.333.666-.333-.666M126 269v10h1l-1-10m30 0l1 1-1-1m10 0l1 1-1-1m-113 1l1 1-1-1m7 0l1 1-1-1m4 0l1 1-1-1m44 0l1 1-1-1m-60 1l1 1-1-1m52.667.333l.666.334-.666-.334M181 271l1 1-1-1m7 0l1 1-1-1m-167 1l1 1-1-1m38 0l1 1-1-1m72 0v3h1l-1-3m24 0l1 1-1-1m2 0l1 1-1-1m10.333.667l.334.666-.334-.666M182 272l1 1-1-1m7 0l1 1-1-1m-166 1l1 1-1-1m6.333.667l.333.666-.333-.666M34 273l1 1-1-1m9 0v3h1l-1-3m11 0l1 1-1-1m7 0l1 1-1-1m21 0v1h5l-5-1m23.333.667l.334.666-.334-.666M162 273l1 1-1-1m-117 1v5h1l-1-5m4 0l1 1-1-1m32 0l1 1-1-1m-61 1l1 1-1-1m4 0v1h5l-5-1m31 0l1 1-1-1m5.333.667l.333.666-.333-.666M154 275l1 1-1-1m2 0l1 1-1-1m28 0l1 1-1-1m7 0l1 1-1-1m-155.667 1.667l.333.666-.333-.666m15 0l.333.666-.333-.666M81 276v8h1l-1-8m25 0l1 1-1-1m51 0l1 1-1-1m5 0l1 1-1-1m6 0l1 1-1-1z" class="B"/><path d="M212.333 276.667l.334.666-.334-.666z" class="C"/><path d="M56 277l1 1-1-1m45 0l1 1-1-1m92 0l1 1-1-1m-173.667 1.667l.333.666-.333-.666M23 278v1h7l-7-1m36 0l1 1-1-1m11 0v4h1l-1-4m37 0l1 1-1-1m46 0l1 1-1-1m33 0l1 1-1-1m26.333.667l.334.666-.334-.666M51 279l1 1-1-1m14 0v9h1l-1-9m67.333.667l.334.666-.334-.666m37 0l.334.666-.334-.666M36 280l1 1-1-1m6 0v3h1l-1-3m60 0l1 1-1-1m6 0l1 1-1-1m47 0l1 1-1-1m32 0l1 1-1-1z" class="B"/><path d="M212 280v43h1c0-12.219 3.71-31.774-1-43z" class="C"/><path d="M18.333 281.667l.333.666-.333-.666m13 0l.333.666-.333-.666M58 281l1 1-1-1m17 0v8h1l-1-8m52 0l1 1-1-1m25 0l1 1-1-1m12 0l1 1-1-1m-112 1l1 1-1-1m51 0l1 1-1-1m6 0l1 1-1-1m7 0v5h1l-1-5m17 0l1 1-1-1m21 0l1 1-1-1m-134 1l1 1-1-1m17.333.667l.333.666-.333-.666M170 283l1 1-1-1m19 0l1 1-1-1m-172 1l1 1-1-1m40 0l1 1-1-1m47 0l1 1-1-1m6 0l1 1-1-1m12 0v5h1l-1-5m12 0l1 1-1-1m12 0l1 1-1-1m5 0l1 1-1-1m-118.667 1.667l.333.666-.333-.666M53 285l1 1-1-1m36 0v4h1l-1-4m40 0l1 1-1-1m6 0l1 1-1-1m10 0l1 1-1-1m20.333.667l.334.666-.334-.666M56 286l1 1-1-1m15.333.667l.333.666-.333-.666M111 286l1 1-1-1m19 0l1 1-1-1m13 0l1 1-1-1m7 0l1 1-1-1m3.333.667l.334.666-.334-.666m18 0l.334.666-.334-.666M191 286l1 1-1-1m-175 1l1 1-1-1m3 0l1 1-1-1m19 0l1 1-1-1m6 0l1 1-1-1m49 0l1 1-1-1m12 0l1 1-1-1m26 0l1 1-1-1m9 0l1 1-1-1m-107 1v1h5l-5-1m22 0l1 1-1-1m11 0v1h5l-5-1m16 0l1 1-1-1m12 0v1h5l-5-1m12 0l1 1-1-1m2 0v1h3l-3-1m8 0l1 1-1-1m16 0l1 1-1-1m60 0l1 1-1-1m-58 1l1 1-1-1m10 0l1 1-1-1m6 0v1h3l-3-1m16 0l1 1-1-1m5 0l1 1-1-1m22 0l1 1-1-1m-56 1v1h5l-5-1M30 319h1v-16l8 2 1-2c-11.83-4.962-10 8.487-10 16m22-15l3-1-3 1m17-2v1h5l-5-1m12 0l1 1-1-1z" class="B"/><path d="M31 303l-1 17c6.149 1.817 19.025-2.469 9-8v-2c4.321-2.412 3.547-5.615-1-7 .631 3.843-.026 5.501-3 8v-8h-4z" class="C"/><path d="M35 303v7c4.441-1.568 3.717-4.932 0-7z" class="D"/><path d="M41 303l1 1-1-1z" class="B"/><path d="M45 321l7.036-5.534L62 321l-6-18c-6.443 2.016-8.979 12.064-11 18z" class="C"/><path d="M67 303l1 1-1-1z" class="B"/><path d="M65 318c1.576 5.389 9.895 4.331 11.287-1.023 1.667-6.413-8.702-6.602-6.287-13.977-10.187 3.9.802 8.87 2.388 13.763 1.566 4.832-5.845 2.002-7.388 1.237m8-15l3 2-3-2z" class="C"/><path d="M75 303l1 1-1-1z" class="B"/><path d="M80 303v18h4v-7l10 7c-3.409-8.106-5.99-9.831-1-18l-9 7v-7h-4z" class="C"/><path d="M93 303l1 1-1-1z" class="B"/><path d="M98 303v18h11v-1h-7c.154-4.725 1.077-7.215 6-8v-1h-6c.335-4.394 1.556-6.291 6-7l-10-1z" class="C"/><path d="M108 303l1 1-1-1z" class="B"/><path d="M111 303v1h5v17h4l1-17 4 1-14-2z" class="C"/><path d="M124 303l1 1-1-1m3 0v16h1l-1-16z" class="B"/><path d="M128 303l-1 18c8.37 2.469 15.892-1.817 9-10 5.253-3.461 2.016-6.975-3-8v1c3.138 3.203 2.12 5.153-1 8v-9h-4z" class="C"/><path d="M129 303l1 1-1-1m3 0l1 1-1-1m4 0l1 1-1-1m14.667.333l.666.334-.666-.334m13 0l.666.334-.666-.334M42 304l1 1-1-1m14 0l1 1-1-1m36 0l1 1-1-1m13 0v1h3l-3-1m6 0v1h5l-5-1m10.667.333l.666.334-.666-.334z" class="B"/><path d="M132 304v7c3.868-2.16 3.868-4.84 0-7z" class="D"/><path d="M134 304l1 1-1-1m4 0l1 1-1-1z" class="B"/><path d="M142 322c9.041-6.487 6.509-3.025 16 0l-5-18c-6.785 1.167-9.308 12.082-11 18m20-18v18h10v-1h-6v-17h-4z" class="C"/><path d="M175 304v13h1l-1-13z" class="B"/><path d="M176 304l-1 18h10v-1h-6v-17h-3z" class="C"/><path d="M34 305v5h1l-1-5m17 0l1 1-1-1m14 0l1 1-1-1m3 0l1 1-1-1m21 0l1 1-1-1m2 0l1 1-1-1m40 0v6h1l-1-6m4 0l1 1-1-1m13 0l1 1-1-1m-60 1l1 1-1-1m2 0l1 1-1-1m63 0l1 1-1-1m-103 1l1 1-1-1z" class="B"/><path d="M52 307l-2 7h5l-3-7z" class="D"/><path d="M53 307l1 1-1-1m4.333.667l.333.666-.333-.666M68 307l1 1-1-1m19 0l1 1-1-1m-49 1l1 1-1-1m13 0l1 1-1-1m18 0l1 1-1-1m70 0l1 1-1-1z" class="B"/><path d="M149 308l-2 6h5l-3-6z" class="D"/><path d="M65 309l1 1-1-1m5 0l1 1-1-1m65 0l1 1-1-1m13 0l1 1-1-1m2 0l1 1-1-1m4 0l1 1-1-1m-118.333 1.333l.667.334-.667-.334m3.667.334l.333.666-.333-.666M49 310l1 1-1-1m5 0l1 1-1-1m18 0l1 1-1-1m30 0l1 1-1-1m32 0l1 1-1-1m3 0l1 1-1-1m9 0l1 1-1-1m-96 1l1 1-1-1m8 0l1 1-1-1m8 0l1 1-1-1m8 0l1 1-1-1m14 0l1 1-1-1m20 0l1 1-1-1m24 0l1 1-1-1m4 0l1 1-1-1z" class="B"/><path d="M35 312v8c4.197-2.313 4.746-6.09 0-8z" class="D"/><path d="M37 312l1 1-1-1m4 0l1 1-1-1m7 0l1 1-1-1m27 0l1 1-1-1m28 0l1 1-1-1m2 0v1h3l-3-1m40 0l1 1-1-1m6 0l1 1-1-1m4.333.667l.334.666-.334-.666M34 313v6h1l-1-6m8 0l1 1-1-1m17.333.667l.333.666-.333-.666M69 313l1 1-1-1m7 0l1 1-1-1m13 0l1 1-1-1m42 0v7h1l-1-7z" class="B"/><path d="M132 313v8c3.508-2.158 3.82-4.05 3-8h-3z" class="D"/><path d="M138 313l1 1-1-1m-91 1l1 1-1-1m24 0l1 1-1-1m13.667.333l.667.334-.667-.334M135 314l1 1-1-1m4 0l1 1-1-1m8 0l1 1-1-1m4 0l1 1-1-1m-107.667 1.667l.333.666-.333-.666M49 315v1h7l-7-1m95 0l1 1-1-1m12 0l1 1-1-1m-108 1l1 1-1-1m8 0l1 1-1-1m4 0l1 1-1-1m31 0l1 1-1-1m49 0l1 1-1-1m6 0l1 1-1-1m2 0v1h4l-4-1m-75 1l1 1-1-1m3 0l1 1-1-1m11 0l1 1-1-1m5 0l1 1-1-1m51 0l1 1-1-1m2 0l1 1-1-1m-107 1l1 1-1-1m28 0l1 1-1-1m87 0l1 1-1-1m4 0l1 1-1-1m-120 1l1 1-1-1m8 0l1 1-1-1m2 0l1 1-1-1m10 0l1 1-1-1m4 0l1 1-1-1m6 0l1 1-1-1m5 0l1 1-1-1m3 0l1 1-1-1m27 0l1 1-1-1m37 0l1 1-1-1m3 0l1 1-1-1m2 0l1 1-1-1m-114 1l1 1-1-1m10 0l1 1-1-1m29 0l1 1-1-1m5 0l1 1-1-1m15 0l1 1-1-1m5 0l-4 1v1l4-2m39 0l1 1-1-1m5 0l1 1-1-1m28 0l1 1-1-1m13 0l1 1-1-1m-121 1v1h4l-4-1m8.667.333l.667.334-.667-.334m5 0l.667.334-.667-.334M98 321v1h11l-11-1m18 0v1h4l-4-1m11 0l1 1-1-1m9 0l1 1-1-1m18 0l1 1-1-1m4 0l1 1-1-1m14 0l1 1-1-1m13 0l1 1-1-1m-22.333 1.333l.666.334-.666-.334M169 322v1h3l-3-1m7 0v1h9l-9-1m35 1v3h1l-1-3z" class="B"/><path d="M211 326v5h1l-1-5z" class="C"/><path d="M37 330v1l3 1-3-2m10 3l6-2-6 2z" class="B"/><path d="M53 330l3 2-3-2z" class="C"/><path d="M55 330l1 1-1-1m7 0v1h6l-6-1m15 0v1h7l-7-1m21.667.333l.667.334-.667-.334M102 330l2 2v-2h-2m-96.667 1.667l.333.666-.333-.666z" class="B"/><path d="M36 331l-1 4 4 5-5-2h-1l-3 8c7.437-5.24 6.116-2.63 14 0-1.203-5.077-2.64-13.239-8-15m13 0c-2.814 5.598 8.877 15.788-2 13 2.619 3.659 10.309 2.619 9.168-2.975-.716-3.51-5.475-6.591-7.168-10.025z" class="C"/><path d="M60 331l-1 2 1-2z" class="B"/><path d="M59 344c2.49 3.509 9.041 3.313 9.454-2.001.335-4.309-5.255-6.374-5.454-10.999-7.756 4.317 8.267 16.571-4 13m8-13l1 1-1-1m12 16v-1c-4.324-4.127-5.275-9.438-1-14-10.047-2.041-6.39 12.465 1 15z" class="C"/><path d="M79.093 331.851c-5.978 1.886-4.964 15.048 1.863 13.397 6.175-1.493 5.23-15.634-1.863-13.397z" class="D"/><path d="M83 331c2.998 5.972 3.568 10.472-2 15v1c8.146-2.473 11.396-12.621 2-16z" class="C"/><path d="M85 331l1 1-1-1m10 0l-3 4 3-4z" class="B"/><path d="M101 347v-1c-6.341-3.128-7.325-9.3-2-14-9.552-1.925-8.065 13.876 2 15m3-16l1 1-1-1z" class="C"/><path d="M105.333 331.667l.334.666-.334-.666M109 331c0 5.262-2.023 14.001 4 16v-1h-3l-1-15z" class="B"/><path d="M110 331v15h3v-15h-3z" class="C"/><path d="M122 331l1 1-1-1z" class="B"/><path d="M123 331l-2 4 4 5-6-1-3 7 10-4 4 5-5-16h-2z" class="C"/><path d="M130 331l1 1-1-1z" class="B"/><path d="M131 331v1c5.65 3.118 3.046 9.484 3 15h3l2-15-8-1z" class="C"/><path d="M137 331v1l5-1h-5z" class="B"/><path d="M140 331l1 1-1-1z" class="C"/><path d="M144 331v13h1l-1-13z" class="B"/><path d="M145 331l-1 16h4l-1-16h-2z" class="C"/><path d="M147 331l1 1-1-1m9 0v1h7v-1h-7z" class="B"/><path d="M157 331l1 1-1-1z" class="C"/><path d="M172 331l-1 12h1v-12m-137 1l1 1-1-1m20 0l1 1-1-1m18 0l1 1-1-1m3 0l1 1-1-1m21 0l1 1-1-1m16 0l1 1-1-1m12 0l1 1-1-1m8 0l1 1-1-1m21 0l1 1-1-1z" class="B"/><path d="M159 348v-1c-5.739-4.55-5.048-8.934-2-15-9.05 3.255-6.721 14.224 2 16z" class="C"/><path d="M158.224 332.801c-5.782 2.109-4.557 15.637 2.647 13.348 6.39-2.03 4.541-15.97-2.647-13.348z" class="D"/><path d="M162 332v1c4.514 4.819 2.84 10.163-2 14v1c8.864-1.795 11.894-13.138 2-16m10 0l-1 15h2v-10l12 11v-16h-1v10l-12-10z" class="C"/><path d="M174 332l1 1-1-1m11 0v10h1l-1-10m25.333.667l.334.666-.334-.666z" class="B"/><path d="M5.333 333.667l.333.666-.333-.666z" class="C"/><path d="M49 333l1 1-1-1m23 0l1 1-1-1m12 0l1 1-1-1m12 0l1 1-1-1m25 0l1 1-1-1m13 0v7h1l-1-7m29 0l1 1-1-1m3 0l1 1-1-1m9 0l1 1-1-1z" class="B"/><path d="M36 334l-2 5 4 1-2-6z" class="D"/><path d="M40.333 334.667l.333.666-.333-.666M75 334l1 1-1-1m13 0l1 1-1-1m67 0l1 1-1-1m12 0l1 1-1-1z" class="B"/><path d="M210 334l1 1-1-1z" class="C"/><path d="M6.333 335.667l.333.666-.333-.666m28.333-.334l.667.334-.667-.334M37 335l1 1-1-1m13 0l1 1-1-1m35 0v6h1l-1-6m10 0l1 1-1-1m25 0v2h2v-2h-2z" class="B"/><path d="M122 335l-2 5h5l-3-5z" class="D"/><path d="M123.333 335.667l.334.666-.334-.666M126 335l1 1-1-1m25 0l1 1-1-1m13 0l1 1-1-1z" class="B"/><path d="M34 336l1 1-1-1z" class="C"/><path d="M59 336l1 1-1-1m5 0l1 1-1-1m90 0v3h1l-1-3m14.333.667l.334.666-.334-.666M209 336l1 1-1-1z" class="B"/><path d="M6 337l1 1-1-1z" class="C"/><path d="M33.667 337.333l.667.334-.667-.334m7.667.334l.333.666-.333-.666M66 337l1 1-1-1m25 0v4h1l-1-4z" class="B"/><path d="M120 337l1 1-1-1z" class="C"/><path d="M137 337v10h1l-1-10m36.667.333l.666.334-.666-.334z" class="B"/><path d="M209 337l1 1-1-1z" class="C"/><path d="M38.333 338.667l.333.666-.333-.666M55 338l1 1-1-1m6 0l1 1-1-1m28 0l1 1-1-1m30.667.333l.666.334-.666-.334M124 338l1 1-1-1m3 0l1 1-1-1m23 0v3h1l-1-3m25 0l1 1-1-1m4 0l1 1-1-1M7 339l1 1-1-1m27 0l1 1-1-1m16 0l1 1-1-1m6 0l1 1-1-1m12 0l1 1-1-1m112 0l1 1-1-1m28 0l1 1-1-1z" class="B"/><path d="M7.333 340.667l.333.666-.333-.666z" class="C"/><path d="M32 340l1 1-1-1m10 0l1 1-1-1m10 0l1 1-1-1m12 0l1 1-1-1m54 0l1 1-1-1m3 0v1h3l-3-1m47.333.667l.334.666-.334-.666M181 340l1 1-1-1z" class="B"/><path d="M208 340l1 1-1-1z" class="C"/><path d="M33 341v1h6l-6-1m20 0l1 1-1-1m18 0l1 1-1-1m24 0l1 1-1-1m33 0l1 1-1-1m26.333.667l.334.666-.334-.666m28.334-.334l.666.334-.666-.334M8 342l1 1-1-1m23 0l1 1-1-1m35.333.667l.333.666-.333-.666M75 342l1 1-1-1m17 0l1 1-1-1m33 0l1 1-1-1m39 0l1 1-1-1m43 0l1 1-1-1z" class="B"/><path d="M8 343l1 1-1-1z" class="C"/><path d="M32 343l1 1-1-1m11 0l1 1-1-1m13 0l1 1-1-1m16 0l1 1-1-1m12 0l1 1-1-1m3 0l1 1-1-1m9 0l1 1-1-1m22.333.667l.334.666-.334-.666M129 343l1 1-1-1m22 0l1 1-1-1m28 0l1 1-1-1m6 0v4h1l-1-4z" class="B"/><path d="M207 343l1 1-1-1z" class="C"/><path d="M9 344l1 1-1-1m21 0l1 1-1-1m10 0l1 1-1-1m8 0l1 1-1-1m5 0l1 1-1-1m7 0l1 1-1-1m13 0l1 1-1-1m3 0l1 1-1-1m7 0l1 1-1-1m10 0l1 1-1-1m87 0l1 1-1-1m26 0l1 1-1-1z" class="B"/><path d="M9 345l1 1-1-1z" class="C"/><path d="M44 345l1 1-1-1m6.667.333l.667.334-.667-.334M62 345l1 1-1-1m2 0l1 1-1-1m3 0l1 1-1-1m7 0l1 1-1-1m8 0l1 1-1-1m3 0l1 1-1-1m9 0l1 1-1-1m4 0l1 1-1-1m6 0v2l2-2h-2m22 0l1 1-1-1m26 0l1 1-1-1z" class="B"/><path d="M206 345l-1 3 1-3z" class="C"/><path d="M10 346l1 1-1-1m31 0v1h3l-3-1m7 0l1 1-1-1m4.667.333l.667.334-.667-.334M60 346l1 1-1-1m5 0l1 1-1-1m11 0l1 1-1-1m3.667.333l.667.334-.667-.334M83 346l1 1-1-1m13 0l1 1-1-1m5 0l-1 2h2l-1-2z" class="B"/><path d="M102.667 346.333l.666.334-.666-.334z" class="C"/><path d="M116.667 346.333l.666.334-.666-.334M157 346l1 1-1-1m4 0l1 1-1-1m44 0l1 1-1-1z" class="B"/><path d="M10 347l1 1-1-1z" class="C"/><path d="M155 347l1 1-1-1m4 0l1 1-1-1m4 0l1 1-1-1m8.667.333l.666.334-.666-.334M11 348l1 1-1-1m193 0l1 1-1-1z" class="B"/><path d="M11 349l1 1-1-1m193 0l1 1-1-1m-192 1l1 1-1-1z" class="C"/><path d="M203 350l1 1-1-1m-190 1l1 1-1-1m1 1l1 1-1-1z" class="B"/><path d="M202 352l1 1-1-1m-188 1l1 1-1-1m187 0l1 1-1-1m-186 1l1 1-1-1z" class="C"/><path d="M200 354l1 1-1-1z" class="B"/><path d="M16 355l1 1-1-1z" class="C"/><path d="M199 355l1 1-1-1z" class="B"/><path d="M17 356l1 1-1-1z" class="C"/><path d="M198 356l1 1-1-1z" class="B"/><path d="M18 357l1 1-1-1z" class="C"/><path d="M197 357l1 1-1-1z" class="B"/><path d="M19 358l1 1-1-1z" class="C"/><path d="M20 358l1 1-1-1m176 0l1 1-1-1m-175 1l1 1-1-1z" class="B"/><path d="M195 359l1 1-1-1m-173 1l1 1-1-1m172 0l1 1-1-1z" class="C"/><path d="M24 361l1 1-1-1m168 0l1 1-1-1z" class="B"/><path d="M193 361l1 1-1-1m-168 1l1 1-1-1z" class="C"/><path d="M26 362l1 1-1-1z" class="B"/><path d="M191 362l1 1-1-1m-164 1l1 1-1-1z" class="C"/><path d="M28 363l1 1-1-1z" class="B"/><path d="M189.667 363.333l.666.334-.666-.334M29 364l1 1-1-1z" class="C"/><path d="M30 364l1 1-1-1m156 0l1 1-1-1z" class="B"/><path d="M187.667 364.333l.666.334-.666-.334m-156 1l.667.334-.667-.334z" class="C"/><path d="M33.667 365.333l.667.334-.667-.334M184 365l1 1-1-1z" class="B"/><path d="M185.667 365.333l.666.334-.666-.334M34 366v1h3l-3-1z" class="C"/><path d="M37.667 366.333l.667.334-.667-.334M181 366l1 1-1-1z" class="B"/><path d="M182.667 366.333l.666.334-.666-.334M38 367v1h3l-3-1z" class="C"/><path d="M41.667 367.333l.667.334-.667-.334M177 367l1 1-1-1z" class="B"/><path d="M178 367v1h3l-3-1m-135 1v1h3l-3-1z" class="C"/><path d="M46 368v1h3l-3-1m125.667.333l.666.334-.666-.334z" class="B"/><path d="M173 368v1h3l-3-1m-124 1v1h4l-4-1z" class="C"/><path d="M53.667 369.333l.667.334-.667-.334M163 369v1h4l-4-1z" class="B"/><path d="M167 369v1h3l-3-1m-111 1v1h3l-3-1z" class="C"/><path d="M59 370v1h4l-4-1m96 0v1h4l-4-1z" class="B"/><path d="M159 370v1h4l-4-1m-96 1v1h4l-4-1z" class="C"/><path d="M67 371v1h3l-3-1m80 0v1h4l-4-1z" class="B"/><path d="M151 371v1h4l-4-1m-81 1v1h3l-3-1z" class="C"/><path d="M73.667 372.333l.667.334-.667-.334M140 372v1h3l-3-1z" class="B"/><path d="M143 372v1h4l-4-1m-67.333 1.333l.667.334-.667-.334z" class="C"/><path d="M77.667 373.333l.667.334-.667-.334M136 373l1 1-1-1z" class="B"/><path d="M137 373v1h3l-3-1m-58 1v1h3l-3-1z" class="C"/><path d="M82 374l1 1-1-1m50 0l1 1-1-1z" class="B"/><path d="M133 374v1h3l-3-1m-49.333 1.333l.667.334-.667-.334m47 0l.666.334-.666-.334m-45 1l.667.334-.667-.334z" class="C"/><path d="M127 376l1 1-1-1z" class="B"/><path d="M128 376l1 1-1-1m-41 1l1 1-1-1z" class="C"/><path d="M88 377l1 1-1-1m37 0l1 1-1-1z" class="B"/><path d="M126 377l1 1-1-1m-37 1l1 1-1-1z" class="C"/><path d="M90 378l1 1-1-1m33 0l1 1-1-1z" class="B"/><path d="M124 378l1 1-1-1m-33 1l1 1-1-1z" class="C"/><path d="M121 379l1 1-1-1z" class="B"/><path d="M122 379l1 1-1-1m-30 1l2 2-2-2z" class="C"/><path d="M93 380l1 1-1-1z" class="B"/><path d="M120.667 380.333l.666.334-.666-.334z" class="C"/><path d="M94 381l1 1-1-1m24 0l-1 2 1-2z" class="B"/><path d="M119 381l1 1-1-1z" class="C"/><path d="M95 382l1 1-1-1z" class="B"/><path d="M118 382l1 1-1-1z" class="C"/><path d="M96 383l1 1-1-1m20 0l1 1-1-1m-19 1l1 1-1-1m18 0l1 1-1-1z" class="B"/><path d="M98 385l1 1-1-1z" class="C"/><path d="M114 385l1 1-1-1m-15 1l1 1-1-1m14 0l1 1-1-1m-13 1l1 1-1-1m12 0l1 1-1-1z" class="B"/><path d="M100 388l1 1-1-1m12 0l1 1-1-1m-11 1l1 1-1-1m10 0l1 1-1-1z" class="C"/><path d="M102 390l1 1-1-1m8 0l1 1-1-1z" class="B"/><path d="M102 391l1 1-1-1m8 0l1 1-1-1z" class="C"/><path d="M103 392l1 1-1-1m6 0l1 1-1-1z" class="B"/><path d="M103 393l1 1-1-1m6.333.667l.334.666-.334-.666z" class="C"/><path d="M104 394l1 1-1-1z" class="B"/><path d="M104 395l1 5h1l-2-5z" class="C"/><path d="M108 395l1 1-1-1m-3 1l1 1-1-1z" class="B"/><path d="M108 396l1 1-1-1z" class="C"/><path d="M107 397l1 1-1-1z" class="B"/><path d="M107.333 398.667l.334.666-.334-.666z" class="C"/><path d="M106 399l1 1-1-1z" class="B"/></svg>