<svg xmlns="http://www.w3.org/2000/svg" width="420" height="358" xmlns:v="https://vecta.io/nano"><style><![CDATA[.B{fill:#a3a2a2}.C{fill:#565354}.D{fill:#716f6f}.E{fill:#f2f2f2}.F{fill:#151314}]]></style><path d="M0 0v358h420V0H0z" class="F"/><path d="M212 13v1h3l-3-1z" class="C"/><path d="M215 13v1h11l-11-1z" class="D"/><path d="M226 13v1h4l-4-1m-24.333 1.333l.666.333-.666-.333z" class="C"/><path d="M203 14l1 1-1-1z" class="D"/><path d="M204 14v1h3l-3-1z" class="B"/><path d="M109 65c13.611-9.586 24.917-21.008 40-28.741C197.191 11.553 246.213 16.072 295 35c-10.589-10.702-31.606-15.674-46-18.389C200.562 7.476 138.751 22.765 109 65z" class="E"/><path d="M234 14v1h3l-3-1z" class="B"/><path d="M237 14l1 1-1-1z" class="D"/><path d="M238.667 14.333l.666.333-.666-.333M195 15l1 1-1-1z" class="C"/><path d="M196 15l1 1-1-1z" class="D"/><path d="M197.667 15.333l.666.333-.666-.333m45 0l.666.333-.666-.333z" class="B"/><path d="M244 15l1 1-1-1z" class="D"/><path d="M245 15l1 1-1-1m-56 1l1 1-1-1z" class="C"/><path d="M190 16l1 1-1-1z" class="D"/><path d="M191.667 16.333l.666.333-.666-.333m57 0l.666.333-.666-.333z" class="B"/><path d="M250 16l1 1-1-1m-65 1l1 1-1-1z" class="C"/><path d="M186.667 17.333l.666.333-.666-.333M253 17l1 1-1-1z" class="B"/><path d="M254 17l1 1-1-1z" class="D"/><path d="M255 17l1 1-1-1m-74 1l1 1-1-1z" class="C"/><path d="M182 18l1 1-1-1z" class="D"/><path d="M183 18l1 1-1-1m34 0v1h13l-13-1m40 0l1 1-1-1z" class="B"/><path d="M258 18l1 1-1-1z" class="D"/><path d="M259 18l1 1-1-1z" class="C"/><path d="M178 19l1 1-1-1z" class="D"/><path d="M179 19l1 1-1-1m25 0v1h3l-3-1z" class="B"/><path d="M207 19v1h3l-3-1z" class="D"/><path d="M144 39v2c33.717 22.728 76.733 28.195 115 14.305 13.106-4.757 23.478-14.011 36-19.305-9.923-7.51-25.03-10.785-37-13.424-37.463-8.26-80.588-3.073-114 16.424z" class="C"/><path d="M238.667 19.333l.666.333-.666-.333z" class="D"/><path d="M240 19v1h3l-3-1m21 0l1 1-1-1z" class="B"/><path d="M262 19l1 1-1-1m-88 1l1 1-1-1z" class="C"/><path d="M175 20l1 1-1-1z" class="D"/><path d="M176 20l1 1-1-1m21.667.333l.666.333-.666-.333z" class="B"/><path d="M199.667 20.333l.666.333-.666-.333M246 20l1 1-1-1z" class="D"/><path d="M247 20v1h3l-3-1m17 0l1 1-1-1z" class="B"/><path d="M265 20l1 1-1-1z" class="D"/><path d="M171 21l1 1-1-1z" class="C"/><path d="M172 21l1 1-1-1z" class="D"/><path d="M191.667 21.333l.666.333-.666-.333z" class="B"/><path d="M193 21l1 1-1-1z" class="D"/><path d="M253.667 21.333l.666.333-.666-.333M267 21l1 1-1-1z" class="B"/><path d="M268 21l1 1-1-1z" class="C"/><path d="M169 22l1 1-1-1z" class="D"/><path d="M170 22l1 1-1-1m17 0l1 1-1-1z" class="B"/><path d="M188 22l1 1-1-1m69 0l1 1-1-1z" class="D"/><path d="M258.667 22.333l.666.333-.666-.333M270 22l1 1-1-1z" class="B"/><path d="M271 22l1 1-1-1m-105 1l1 1-1-1z" class="C"/><path d="M167 23l1 1-1-1m16 0l1 1-1-1z" class="B"/><path d="M184 23l1 1-1-1m78 0l1 1-1-1z" class="D"/><path d="M263 23l1 1-1-1z" class="B"/><path d="M273 23l1 1-1-1z" class="D"/><path d="M164 24l1 1-1-1m15 0l1 1-1-1z" class="B"/><path d="M180 24l1 1-1-1z" class="D"/><path d="M266.667 24.333l.666.333-.666-.333M275 24l1 1-1-1z" class="B"/><path d="M276 24l1 1-1-1m-115 1l1 1-1-1z" class="C"/><path d="M162 25l1 1-1-1m13.667.333l.666.333-.666-.333z" class="B"/><path d="M269 25l1 1-1-1z" class="D"/><path d="M270 25l1 1-1-1z" class="B"/><path d="M278 25l1 1-1-1z" class="D"/><path d="M159 26l1 1-1-1z" class="C"/><path d="M160 26l1 1-1-1m12 0l1 1-1-1z" class="B"/><path d="M173 26l1 1-1-1z" class="D"/><path d="M273 26l1 1-1-1m7 0l1 1-1-1z" class="B"/><path d="M157 27l1 1-1-1z" class="D"/><path d="M169 27l1 1-1-1z" class="B"/><path d="M170 27l1 1-1-1m105 0l1 1-1-1z" class="D"/><path d="M276 27l1 1-1-1m6 0l1 1-1-1z" class="B"/><path d="M283 27l1 1-1-1z" class="C"/><path d="M155 28l1 1-1-1z" class="D"/><path d="M166 28l1 1-1-1z" class="B"/><path d="M167 28l1 1-1-1m111 0l1 1-1-1z" class="D"/><path d="M279 28l1 1-1-1m5 0l1 1-1-1z" class="B"/><path d="M285 28l1 1-1-1z" class="C"/><path d="M153 29l1 1-1-1z" class="D"/><path d="M164 29l1 1-1-1m117 0l1 1-1-1m5 0l1 1-1-1z" class="B"/><path d="M287 29l1 1-1-1z" class="C"/><path d="M151 30l1 1-1-1z" class="D"/><path d="M161 30l1 1-1-1z" class="B"/><path d="M162 30l1 1-1-1z" class="D"/><path d="M284 30l1 1-1-1m4 0l1 1-1-1z" class="B"/><path d="M289 30l1 1-1-1m-140 1l1 1-1-1z" class="C"/><path d="M159 31l1 1-1-1m127 0l1 1-1-1m4 0l1 1-1-1z" class="B"/><path d="M147 32l1 1-1-1z" class="C"/><path d="M148 32l1 1-1-1z" class="B"/><path d="M157 32l1 1-1-1m131 0l1 1-1-1m4 0l1 1-1-1z" class="D"/><path d="M146 33l1 1-1-1m8 0l1 1-1-1z" class="B"/><path d="M155 33l1 1-1-1m135 0l1 1-1-1z" class="D"/><path d="M291 33l1 1-1-1z" class="B"/><path d="M294 33l1 1-1-1z" class="C"/><path d="M144 34l1 1-1-1z" class="D"/><path d="M152 34l1 1-1-1m141 0l1 1-1-1m2.333.667l.334.667-.334-.667z" class="B"/><path d="M296 34l1 1-1-1m-154 1l1 1-1-1z" class="C"/><path d="M150 35l1 1-1-1z" class="B"/><path d="M296 35l1 1-1-1z" class="E"/><path d="M297.333 35.667l.334.667-.334-.667M141 36l1 1-1-1m7 0l1 1-1-1z" class="B"/><path d="M296 36l1 1-1-1z" class="C"/><path d="M298 36l2 2-2-2z" class="E"/><path d="M299 36l1 1-1-1z" class="C"/><path d="M139 37l1 1-1-1z" class="D"/><path d="M146 37l1 1-1-1z" class="B"/><path d="M298 37l1 1-1-1z" class="C"/><path d="M300 37l5 4v-1l-5-3m-162 1l1 1-1-1m6 0l1 1-1-1z" class="B"/><path d="M300 38l1 1-1-1z" class="D"/><path d="M302 38l1 1-1-1m-166 1l1 1-1-1z" class="C"/><path d="M143 39l1 1-1-1z" class="D"/><path d="M301 39l1 1-1-1z" class="C"/><path d="M135 40l1 1-1-1z" class="B"/><path d="M141 40l1 1-1-1z" class="D"/><path d="M142 40l1 1-1-1m161 0l1 1-1-1m2 0l3 3v-1l-3-2m-172 1l1 1-1-1z" class="C"/><path d="M139 41l1 1-1-1z" class="B"/><path d="M140 41l1 1-1-1z" class="C"/><path d="M306 41l1 1-1-1m-174 1l1 1-1-1z" class="D"/><path d="M138 42l1 1-1-1z" class="C"/><path d="M131 43l1 1-1-1m5 0l1 1-1-1z" class="B"/><path d="M137 43l1 1-1-1m171 0l1 1-1-1m-179 1l1 1-1-1z" class="C"/><path d="M134 44l1 1-1-1z" class="B"/><path d="M135 44l1 1-1-1z" class="C"/><path d="M128 45l1 1-1-1m5 0l1 1-1-1z" class="D"/><path d="M127 46l1 1-1-1m4 0l1 1-1-1z" class="B"/><path d="M132 46l1 1-1-1z" class="C"/><path d="M126 47l1 1-1-1m4 0l1 1-1-1z" class="B"/><path d="M129 48l1 1-1-1m-6 1l1 1-1-1z" class="C"/><path d="M127 49l1 1-1-1z" class="B"/><path d="M122 50l1 1-1-1z" class="C"/><path d="M126 50l1 1-1-1m-5 1l1 1-1-1z" class="D"/><path d="M125 51l1 1-1-1z" class="C"/><path d="M120 52l1 1-1-1z" class="D"/><path d="M123 52l1 1-1-1m-4 1l1 1-1-1z" class="B"/><path d="M122 53l1 1-1-1z" class="D"/><path d="M118 54l1 1-1-1z" class="B"/><path d="M121 54l1 1-1-1m283 0l1 1-1-1z" class="C"/><path d="M373 124c1.726 4.005 2.494 8.645 6.109 11.486 5.433 4.271 18.804 1.485 22.903-3.985 4.071-5.435 4.46-18.82 4.988-25.501-8.902 1.837-8.449-5.348-7.196-12 2.498-13.262 5.495-26.615 7.196-40-21.178 5.792-55.629 16.125-69.471 34.001-7.446 9.617-9.462 22.322-11.448 33.999-1.539 9.049-6.406 23.798.433 31.772 4.627 5.394 13.043 3.034 18.486.443 12.672-6.03 22.615-17.348 28-30.215z" class="E"/><path d="M117 55l1 1-1-1z" class="B"/><path d="M120 55l1 1-1-1z" class="C"/><path d="M402 55l1 1-1-1m-286 1l1 1-1-1m2 0l1 1-1-1z" class="B"/><path d="M399 56l1 1-1-1z" class="D"/><path d="M115 57l1 1-1-1m2 0l1 1-1-1z" class="B"/><path d="M396 57l1 1-1-1z" class="C"/><path d="M397 57l1 1-1-1m9 0l1 1-1-1m-292 1l1 1-1-1z" class="B"/><path d="M116 58l1 1-1-1m278 0l1 1-1-1m12 0l1 1-1-1z" class="D"/><path d="M113 59l1 1-1-1z" class="B"/><path d="M115 59l1 1-1-1z" class="D"/><path d="M391 59l1 1-1-1z" class="C"/><path d="M392 59l1 1-1-1z" class="B"/><path d="M112 60l1 1-1-1z" class="D"/><path d="M114 60l1 1-1-1z" class="C"/><path d="M389 60l1 1-1-1z" class="B"/><path d="M111 61l1 1-1-1z" class="D"/><path d="M113 61l1 1-1-1z" class="C"/><path d="M386 61l1 1-1-1m-276 1l1 1-1-1z" class="D"/><path d="M112 62l1 1-1-1m271 0l1 1-1-1z" class="C"/><path d="M384 62l1 1-1-1z" class="B"/><path d="M109 63l1 1-1-1m2 0l1 1-1-1z" class="C"/><path d="M381 63l1 1-1-1z" class="D"/><path d="M405 63l1 1-1-1z" class="B"/><path d="M108 64l-4 7c2.682-1.966 5.22-3.631 4-7m2 0l1 1-1-1z" class="C"/><path d="M378 64l1 1-1-1z" class="D"/><path d="M405 64l1 1-1-1z" class="C"/><path d="M108 65l1 1-1-1z" class="B"/><path d="M375 65l1 1-1-1z" class="C"/><path d="M376 65l1 1-1-1m-269 1l1 1-1-1z" class="B"/><path d="M373 66l1 1-1-1m-267 1l1 1-1-1z" class="D"/><path d="M370 67l1 1-1-1z" class="C"/><path d="M371 67l1 1-1-1z" class="B"/><path d="M368 68l1 1-1-1z" class="D"/><path d="M404 68l1 1-1-1z" class="B"/><path d="M365 69l1 1-1-1z" class="C"/><path d="M366 69l1 1-1-1z" class="B"/><path d="M404 69l1 1-1-1m-41 1l1 1-1-1z" class="D"/><path d="M361 71l1 1-1-1z" class="B"/><path d="M358 72l1 1-1-1z" class="C"/><path d="M359 72l1 1-1-1z" class="B"/><path d="M356 73l1 1-1-1z" class="C"/><path d="M357 73l1 1-1-1m46.333.667l.334.667-.334-.667z" class="B"/><path d="M354 74l1 1-1-1z" class="C"/><path d="M353 75l1 1-1-1z" class="B"/><path d="M403 75l1 1-1-1z" class="C"/><path d="M351 76l1 1-1-1z" class="B"/><path d="M349 77l1 1-1-1z" class="C"/><path d="M348 78l1 1-1-1z" class="B"/><path d="M346 79l1 1-1-1z" class="C"/><path d="M402 79l1 1-1-1m-57 1l1 1-1-1z" class="B"/><path d="M402 80l1 1-1-1z" class="D"/><path d="M342 82l1 1-1-1z" class="C"/><path d="M377 82l1 1-1-1z" class="D"/><path d="M378 82c-14.863 6.953-24.134 11.742-27.389 29-.639 3.387-3.611 12.454.823 14.353 4.426 1.896 10.701-3.72 13.526-6.446C372.383 111.741 382.122 92.559 378 82z" class="F"/><path d="M379 82l1 1-1-1z" class="B"/><path d="M95 83l1 1-1-1z" class="D"/><path d="M96.667 83.333l.667.333-.667-.333z" class="B"/><path d="M58 97l-5 31c4.526-1.048 17.599-8.668 21.393-5.303 4.346 3.854-2.031 22.103-2.968 27.303l-10.813 58c-1.654 8.826-1.77 20.238-6.606 27.999-5.727 9.193-16.997 7.486-23.148 14.65C26.313 255.942 26.314 269.223 25 276c11.465-1.717 23.201-8.006 34-12.189 26.692-10.339 65.687-18.163 75-49.811h1c1.251 12.209 11.107 17.096 22 12.204 12.778-5.737 25.968-18.502 30-32.204h1c7.94 33.411 46.883-2.271 52-20h1c4.189 30.932 39.95 2.729 46-13h1c-1.722 9.139-2.428 19.42-8.39 26.999-5.81 7.385-14.224 9.847-22.61 13.201L215 218 78 272.6l-39 15.6c-4.879 1.952-12.747 3.538-16.411 7.449-2.77 2.956-2.667 8.57-3.392 12.351-1.843 9.617-3.963 19.286-5.197 29 23.247-7.916 45.67-20.467 68-30.691l131-60 52-24c11.405-5.237 24.341-10.123 32.32-20.313 10.087-12.88 12.1-30.351 14.761-45.996L325 86c-7.608 1.139-14.844 4.853-22 7.576-16.761 6.376-39.031 11.891-49.779 27.425-7.274 10.511-6.743 22.715-11.558 33.999-2.419 5.667-14.848 26.609-23.345 21.184-3.943-2.518-1.85-9.548-1.237-13.184 2.178-12.926 5.879-25.928 6.919-39-6.858 1.876-21.45 5.183-26.143 10.649-2.796 3.257-2.712 9.311-3.468 13.351-1.928 10.309-2.863 21.538-7.662 31-2.297 4.528-17.978 25.922-23.509 15.848-3.456-6.296 2.465-22.043 3.782-28.848 1.41-7.284 3.05-14.647 4-22-6.836 2.313-22.531 5.542-26.836 11.499-4.6 6.367-4.335 19.867-5.775 27.501-3.576 18.961-13.359 30.717-31.389 37.576-4.309 1.639-12.189 6.317-16.852 4.727-3.921-1.337-3.3-7.066-2.978-10.303 1.066-10.708 3.944-21.39 5.748-32l13.328-73c1.178-7.052 5.119-21.383-3.355-25.552C91.56 78.874 69.148 93.957 58 97z" class="E"/><path d="M100.667 83.333l.666.333-.666-.333z" class="B"/><path d="M341 83l1 1-1-1z" class="C"/><path d="M374 83l1 1-1-1z" class="B"/><path d="M91 84l1 1-1-1z" class="C"/><path d="M92 84l1 1-1-1z" class="B"/><path d="M340 84l1 1-1-1m32 0l1 1-1-1z" class="C"/><path d="M401 84l1 1-1-1z" class="B"/><path d="M88 85l1 1-1-1z" class="C"/><path d="M89 85l1 1-1-1z" class="B"/><path d="M105 85l1 1-1-1m218 0l1 1-1-1z" class="C"/><path d="M324 85l1 1-1-1z" class="B"/><path d="M339 85l1 1-1-1z" class="C"/><path d="M369 85l1 1-1-1z" class="B"/><path d="M401 85l1 1-1-1z" class="D"/><path d="M85 86l1 1-1-1z" class="C"/><path d="M86 86l1 1-1-1m235 0l1 1-1-1z" class="B"/><path d="M338 86l1 1-1-1m29 0l1 1-1-1m34 0l1 1-1-1z" class="C"/><path d="M83 87l1 1-1-1z" class="D"/><path d="M106 87l1 1-1-1z" class="B"/><path d="M318 87l1 1-1-1z" class="D"/><path d="M365 87l1 1-1-1z" class="C"/><path d="M378 87l1 1-1-1z" class="D"/><path d="M80 88l1 1-1-1z" class="C"/><path d="M81 88l1 1-1-1z" class="B"/><path d="M315 88l1 1-1-1z" class="C"/><path d="M316 88l1 1-1-1m8 0l1 1-1-1z" class="B"/><path d="M363 88l1 1-1-1z" class="D"/><path d="M378 88l1 1-1-1M78 89l1 1-1-1z" class="B"/><path d="M107 89l1 1-1-1z" class="D"/><path d="M313 89l1 1-1-1z" class="B"/><path d="M324 89l1 1-1-1z" class="D"/><path d="M336 89l1 1-1-1m25 0l1 1-1-1z" class="B"/><path d="M75 90l1 1-1-1z" class="D"/><path d="M107 90l1 1-1-1z" class="B"/><path d="M228 90l1 1-1-1z" class="C"/><path d="M229 90l-25.062 11.418L199 123c14.425-4.702 38.469-12.235 30-33z" class="E"/><path d="M230.333 90.667l.334.667-.334-.667z" class="B"/><path d="M310 90l1 1-1-1m25 0l1 1-1-1z" class="C"/><path d="M360 90l1 1-1-1z" class="D"/><path d="M400 90l1 1-1-1z" class="B"/><path d="M72 91l1 1-1-1z" class="C"/><path d="M73 91l1 1-1-1z" class="B"/><path d="M225 91l1 1-1-1z" class="C"/><path d="M226 91l1 1-1-1z" class="B"/><path d="M307 91l1 1-1-1z" class="C"/><path d="M308 91l1 1-1-1z" class="B"/><path d="M359 91l1 1-1-1m41 0l1 1-1-1z" class="C"/><path d="M70 92l1 1-1-1z" class="B"/><path d="M223 92l1 1-1-1z" class="D"/><path d="M230 92l1 1-1-1z" class="C"/><path d="M305 92l1 1-1-1z" class="D"/><path d="M334 92l1 1-1-1z" class="B"/><path d="M358 92l1 1-1-1z" class="C"/><path d="M377 92l1 1-1-1z" class="D"/><path d="M67 93l1 1-1-1z" class="C"/><path d="M68 93l1 1-1-1z" class="B"/><path d="M220 93l1 1-1-1z" class="C"/><path d="M221 93l1 1-1-1z" class="B"/><path d="M302 93l1 1-1-1z" class="C"/><path d="M303 93l1 1-1-1m20 0l1 1-1-1z" class="B"/><path d="M357 93l1 1-1-1z" class="C"/><path d="M377 93l1 1-1-1z" class="B"/><path d="M64 94l1 1-1-1z" class="C"/><path d="M65 94l1 1-1-1m153 0l1 1-1-1m82 0l1 1-1-1z" class="B"/><path d="M323 94l1 1-1-1z" class="D"/><path d="M333 94l1 1-1-1z" class="B"/><path d="M356 94l1 1-1-1M62 95l1 1-1-1m153 0l1 1-1-1m82 0l1 1-1-1z" class="D"/><path d="M323 95l1 1-1-1z" class="C"/><path d="M355 95l1 1-1-1m44 0l1 1-1-1z" class="B"/><path d="M59 96l1 1-1-1z" class="C"/><path d="M60 96l1 1-1-1z" class="B"/><path d="M212 96l1 1-1-1z" class="C"/><path d="M213 96l1 1-1-1m16 0l1 1-1-1z" class="B"/><path d="M294 96l1 1-1-1z" class="C"/><path d="M295 96l1 1-1-1m37 0l1 1-1-1z" class="B"/><path d="M399 96l1 1-1-1m-189 1l1 1-1-1m19 0l1 1-1-1m63 0l1 1-1-1m62 0l1 1-1-1m22 0l1 1-1-1z" class="D"/><path d="M207 98l1 1-1-1z" class="C"/><path d="M208 98l1 1-1-1z" class="B"/><path d="M289 98l1 1-1-1z" class="C"/><path d="M290 98l1 1-1-1z" class="B"/><path d="M331 98l1 1-1-1z" class="D"/><path d="M376 98l1 1-1-1z" class="B"/><path d="M57 99l1 1-1-1m147 0l1 1-1-1z" class="C"/><path d="M205 99l1 1-1-1m82 0l1 1-1-1m35 0l1 1-1-1m31 0l1 1-1-1m-296 1l1 1-1-1m146 0l1 1-1-1z" class="B"/><path d="M284 100l1 1-1-1z" class="D"/><path d="M322 100l1 1-1-1z" class="C"/><path d="M228 101l1 1-1-1m54 0l1 1-1-1m48 0l1 1-1-1z" class="B"/><path d="M375 101l1 1-1-1z" class="D"/><path d="M107.333 102.667l.334.666-.334-.666z" class="B"/><path d="M202 102l1 1-1-1z" class="C"/><path d="M228 102l1 1-1-1z" class="D"/><path d="M279 102l1 1-1-1m73 0l1 1-1-1z" class="C"/><path d="M398 102l1 1-1-1m-195.667 1.667l.334.666-.334-.666z" class="B"/><path d="M228 103l1 1-1-1z" class="C"/><path d="M277 103l1 1-1-1z" class="D"/><path d="M56 104l1 1-1-1m51 0l1 1-1-1z" class="C"/><path d="M275 104l1 1-1-1m46 0l1 1-1-1z" class="B"/><path d="M329 104l1 1-1-1z" class="D"/><path d="M374 104l1 1-1-1z" class="B"/><path d="M56 105l1 1-1-1z" class="D"/><path d="M273 105l1 1-1-1z" class="B"/><path d="M321 105l1 1-1-1z" class="D"/><path d="M329 105l1 1-1-1m22 0l1 1-1-1z" class="B"/><path d="M399 105l1 1-1-1z" class="C"/><path d="M56 106l1 1-1-1m171.333.667l.334.666-.334-.666M271 106l1 1-1-1z" class="B"/><path d="M321 106l1 1-1-1z" class="C"/><path d="M351 106l1 1-1-1z" class="D"/><path d="M373 106l1 1-1-1z" class="C"/><path d="M405 106l1 1-1-1z" class="B"/><path d="M407 106l1 1-1-1m-206 1l1 1-1-1z" class="C"/><path d="M269 107l1 1-1-1m-162.667 1.667l.334.666-.334-.666z" class="B"/><path d="M201 108l1 1-1-1z" class="D"/><path d="M227 108l1 1-1-1z" class="C"/><path d="M267 108l1 1-1-1m61 0l1 1-1-1z" class="D"/><path d="M372 108l1 1-1-1z" class="C"/><path d="M201 109l1 1-1-1z" class="B"/><path d="M265 109l1 1-1-1z" class="C"/><path d="M320.333 109.667l.334.666-.334-.666M328 109l1 1-1-1z" class="B"/><path d="M55 110l1 1-1-1z" class="D"/><path d="M106 110l1 1-1-1z" class="C"/><path d="M176 110l1 1-1-1z" class="D"/><path d="M177 110l1 1-1-1z" class="C"/><path d="M264 110l1 1-1-1m86 0l1 1-1-1z" class="B"/><path d="M371 110l1 1-1-1z" class="D"/><path d="M406.333 110.667l.334.666-.334-.666M55 111l1 1-1-1z" class="B"/><path d="M173 111l1 1-1-1z" class="C"/><path d="M174 111l1 1-1-1z" class="B"/><path d="M146 143c6.831-1.619 21.534-5.031 26.143-10.51 3.947-4.692 4.105-15.572 4.857-21.49-7.078 1.638-21.405 4.842-26.258 10.499-3.774 4.399-4.292 15.845-4.742 21.501z" class="E"/><path d="M262 111l1 1-1-1m58 0l1 1-1-1z" class="C"/><path d="M350 111l1 1-1-1z" class="D"/><path d="M171 112l1 1-1-1m55 0l1 1-1-1z" class="B"/><path d="M261 112l1 1-1-1z" class="D"/><path d="M370 112l1 1-1-1z" class="B"/><path d="M406 112l1 1-1-1z" class="C"/><path d="M168 113l1 1-1-1m32 0l1 1-1-1z" class="D"/><path d="M224 113l1 1-1-1m36 0l1 1-1-1z" class="B"/><path d="M296.333 113.667l.334.666-.334-.666M327 113l1 1-1-1m42 0l1 1-1-1z" class="D"/><path d="M105 114l1 1-1-1z" class="B"/><path d="M165 114l1 1-1-1z" class="C"/><path d="M166 114l1 1-1-1m10.333.667l.334.666-.334-.666M200 114l1 1-1-1m21 0l1 1-1-1z" class="B"/><path d="M222 114l1 1-1-1z" class="C"/><path d="M293 114l1 1-1-1z" class="B"/><path d="M296 114c-16.146 4.416-25.318 12.271-28.25 29-.652 3.721-3.554 11.343.684 13.929 4.228 2.58 10.734-3.465 13.476-6.103 9.638-9.273 13.531-23.805 14.09-36.826z" class="F"/><path d="M327 114l1 1-1-1z" class="B"/><path d="M54 115l1 1-1-1z" class="C"/><path d="M105 115l1 1-1-1z" class="D"/><path d="M163 115l1 1-1-1z" class="B"/><path d="M219 115l1 1-1-1z" class="D"/><path d="M290 115l1 1-1-1z" class="B"/><path d="M291 115l1 1-1-1z" class="C"/><path d="M296 115l1 1-1-1m23 0l1 1-1-1m30.333.667l.334.666-.334-.666m-295 1l.333.666-.333-.666z" class="B"/><path d="M160 116l1 1-1-1m16 0l1 1-1-1z" class="C"/><path d="M216 116l1 1-1-1z" class="B"/><path d="M288 116l1 1-1-1m31 0l1 1-1-1z" class="D"/><path d="M405 116l1 1-1-1z" class="B"/><path d="M157 117l1 1-1-1z" class="C"/><path d="M158 117l1 1-1-1m55 0l1 1-1-1z" class="B"/><path d="M214 117l1 1-1-1z" class="C"/><path d="M285 117l1 1-1-1z" class="B"/><path d="M286 117l1 1-1-1m63 0l1 1-1-1z" class="C"/><path d="M366 117l1 1-1-1z" class="B"/><path d="M405 117l1 1-1-1m-250 1l1 1-1-1z" class="D"/><path d="M199 118l1 1-1-1z" class="C"/><path d="M211 118l1 1-1-1z" class="D"/><path d="M283 118l1 1-1-1z" class="B"/><path d="M326 118l1 1-1-1z" class="C"/><path d="M365 118l1 1-1-1m-260.667 1.667l.334.666-.334-.666z" class="B"/><path d="M152 119l1 1-1-1z" class="C"/><path d="M153 119l1 1-1-1m46.333.667l.334.666-.334-.666M208 119l1 1-1-1z" class="B"/><path d="M209 119l1 1-1-1z" class="C"/><path d="M254 119l1 1-1-1m27 0l1 1-1-1z" class="B"/><path d="M295 119l1 1-1-1z" class="C"/><path d="M326 119l1 1-1-1m38 0l1 1-1-1m-214 1l1 1-1-1m25 0l1 1-1-1z" class="B"/><path d="M206 120l1 1-1-1z" class="D"/><path d="M253 120l1 1-1-1m42.333.667l.334.666-.334-.666m23 0l.334.666-.334-.666M363 120l1 1-1-1z" class="B"/><path d="M53 121l1 1-1-1z" class="D"/><path d="M71 121l1 1-1-1z" class="B"/><path d="M72 121l1 1-1-1m2 0l1 1-1-1m30 0l1 1-1-1z" class="C"/><path d="M149 121l1 1-1-1m26 0l1 1-1-1z" class="D"/><path d="M203 121l1 1-1-1z" class="B"/><path d="M252 121l1 1-1-1z" class="C"/><path d="M278 121l1 1-1-1z" class="D"/><path d="M404.333 121.667l.334.666-.334-.666M53 122l1 1-1-1m15 0l1 1-1-1z" class="B"/><path d="M69 122l1 1-1-1z" class="C"/><path d="M75 122l1 1-1-1z" class="D"/><path d="M149 122l1 1-1-1m51 0l1 1-1-1z" class="B"/><path d="M201 122l1 1-1-1m76 0l1 1-1-1m41 0l1 1-1-1m42 0l1 1-1-1z" class="C"/><path d="M66 123l1 1-1-1z" class="D"/><path d="M224 123l1 1-1-1z" class="C"/><path d="M251 123l1 1-1-1z" class="B"/><path d="M325 123l1 1-1-1z" class="C"/><path d="M359 123l1 1-1-1z" class="B"/><path d="M404 123l1 1-1-1z" class="C"/><path d="M63 124l1 1-1-1z" class="B"/><path d="M64 124l1 1-1-1m157 0l1 1-1-1z" class="C"/><path d="M224 124l1 1-1-1z" class="D"/><path d="M325.333 124.667l.334.666-.334-.666z" class="B"/><path d="M349 124l1 1-1-1m8 0l1 1-1-1z" class="D"/><path d="M373 124l1 1-1-1m-312 1l1 1-1-1z" class="C"/><path d="M103 125l1 1-1-1m71 0l1 1-1-1z" class="B"/><path d="M218 125l1 1-1-1z" class="C"/><path d="M219 125l1 1-1-1m31 0l1 1-1-1z" class="B"/><path d="M294 125l1 1-1-1z" class="D"/><path d="M355 125l1 1-1-1z" class="C"/><path d="M372 125l1 1-1-1z" class="B"/><path d="M52 126l1 1-1-1z" class="C"/><path d="M58 126l1 1-1-1z" class="B"/><path d="M75 126l1 1-1-1z" class="C"/><path d="M103 126l1 1-1-1z" class="D"/><path d="M148 126l1 1-1-1z" class="C"/><path d="M174 126l1 1-1-1m42 0l1 1-1-1z" class="D"/><path d="M249 126l1 1-1-1m24 0l1 1-1-1z" class="C"/><path d="M294 126l1 1-1-1m23 0l1 1-1-1m34 0v1h3l-3-1m-299 1l1 1-1-1m3 0l1 1-1-1z" class="B"/><path d="M56 127l1 1-1-1z" class="C"/><path d="M75.333 127.667l.333.666-.333-.666m73 0l.334.666-.334-.666z" class="B"/><path d="M174 127l1 1-1-1m39 0l1 1-1-1z" class="C"/><path d="M214 127l1 1-1-1m35 0l1 1-1-1m23 0l1 1-1-1z" class="B"/><path d="M317 127l1 1-1-1z" class="D"/><path d="M371 127l1 1-1-1m3 0l1 1-1-1m29 0l1 1-1-1z" class="B"/><path d="M52.667 128.333l.667.334-.667-.334z" class="D"/><path d="M211 128l1 1-1-1m12 0l1 1-1-1z" class="B"/><path d="M374 128l1 1-1-1m29 0l1 1-1-1z" class="C"/><path d="M208 129l1 1-1-1m15 0l1 1-1-1z" class="D"/><path d="M248 129l1 1-1-1z" class="B"/><path d="M271 129l1 1-1-1z" class="D"/><path d="M293 129l1 1-1-1z" class="C"/><path d="M324 129l1 1-1-1m46 0l1 1-1-1z" class="D"/><path d="M102 130l1 1-1-1m71.333.667l.334.666-.334-.666z" class="B"/><path d="M205 130l1 1-1-1z" class="C"/><path d="M206 130l1 1-1-1z" class="B"/><path d="M223 130l1 1-1-1z" class="C"/><path d="M293 130l1 1-1-1m31 0l1 1-1-1z" class="B"/><path d="M74 131l1 1-1-1z" class="C"/><path d="M102 131l1 1-1-1z" class="D"/><path d="M147 131l1 1-1-1z" class="C"/><path d="M203 131l1 1-1-1z" class="B"/><path d="M247 131l1 1-1-1z" class="C"/><path d="M270 131l1 1-1-1m46.333.667l.334.666-.334-.666z" class="B"/><path d="M369 131l1 1-1-1m6 0l1 1-1-1z" class="C"/><path d="M74 132l1 1-1-1z" class="D"/><path d="M102 132l1 1-1-1z" class="C"/><path d="M147 132l1 1-1-1z" class="D"/><path d="M173 132l1 1-1-1m27 0l1 1-1-1z" class="C"/><path d="M247 132l1 1-1-1m121 0l1 1-1-1z" class="B"/><path d="M402 132l1 1-1-1z" class="D"/><path d="M74 133l1 1-1-1m73 0l1 1-1-1z" class="B"/><path d="M172 133l1 1-1-1z" class="D"/><path d="M198 133l1 1-1-1m24.333.667l.334.666-.334-.666z" class="B"/><path d="M292 133l1 1-1-1m24 0l1 1-1-1z" class="C"/><path d="M399 133l1 1-1-1z" class="B"/><path d="M400 133l1 1-1-1z" class="C"/><path d="M169 134l1 1-1-1z" class="B"/><path d="M196 134l1 1-1-1m50 0l1 1-1-1z" class="C"/><path d="M269 134l1 1-1-1z" class="D"/><path d="M292 134l1 1-1-1z" class="B"/><path d="M367 134l1 1-1-1m10 0l1 1-1-1z" class="C"/><path d="M397 134l1 1-1-1z" class="D"/><path d="M166 135l1 1-1-1z" class="B"/><path d="M167 135l1 1-1-1z" class="C"/><path d="M196 135l1 1-1-1z" class="D"/><path d="M222 135l1 1-1-1z" class="C"/><path d="M246 135l1 1-1-1z" class="B"/><path d="M323 135l1 1-1-1z" class="C"/><path d="M366 135l1 1-1-1z" class="B"/><path d="M378 135l1 1-1-1z" class="D"/><path d="M394 135l1 1-1-1m-293 1l1 1-1-1z" class="B"/><path d="M164 136l1 1-1-1z" class="D"/><path d="M196 136l1 1-1-1z" class="B"/><path d="M291 136l1 1-1-1z" class="D"/><path d="M323 136v3h1l-1-3z" class="B"/><path d="M379 136l1 1-1-1m13 0l1 1-1-1z" class="C"/><path d="M73 137l1 1-1-1z" class="D"/><path d="M101 137l1 1-1-1z" class="C"/><path d="M146 137l1 1-1-1z" class="D"/><path d="M161 137l1 1-1-1m107 0l1 1-1-1m47 0l1 1-1-1z" class="B"/><path d="M381 137l1 1-1-1z" class="C"/><path d="M382 137l1 1-1-1m6 0l1 1-1-1z" class="B"/><path d="M389 137l1 1-1-1z" class="C"/><path d="M73 138l1 1-1-1m73 0l1 1-1-1z" class="B"/><path d="M159 138l1 1-1-1m86 0l1 1-1-1z" class="C"/><path d="M268 138l1 1-1-1z" class="D"/><path d="M290 138l1 1-1-1z" class="C"/><path d="M315 138l1 1-1-1z" class="D"/><path d="M364 138l1 1-1-1z" class="C"/><path d="M156 139l1 1-1-1m65 0l1 1-1-1m24 0l1 1-1-1z" class="B"/><path d="M363 139l1 1-1-1z" class="D"/><path d="M153 140l1 1-1-1z" class="B"/><path d="M154 140l1 1-1-1z" class="C"/><path d="M195 140l1 1-1-1m26 0l1 1-1-1z" class="D"/><path d="M289 140l1 1-1-1z" class="C"/><path d="M362 140l1 1-1-1m-262 1l1 1-1-1z" class="B"/><path d="M151 141l1 1-1-1z" class="D"/><path d="M195 141l1 1-1-1m166 0l1 1-1-1z" class="B"/><path d="M72 142l1 1-1-1z" class="C"/><path d="M100 142l1 1-1-1z" class="D"/><path d="M145 142v2h2l-2-2z" class="C"/><path d="M148 142l1 1-1-1m119 0l1 1-1-1z" class="B"/><path d="M288 142l1 1-1-1z" class="D"/><path d="M314 142l1 1-1-1m-241.667 1.667l.333.666-.333-.666z" class="B"/><path d="M100 143l1 1-1-1z" class="C"/><path d="M244 143l1 1-1-1m23 0l1 1-1-1m47 0l1 1-1-1z" class="D"/><path d="M169 144l1 1-1-1m51.333.667l.334.666-.334-.666M244 144l1 1-1-1z" class="B"/><path d="M267 144l1 1-1-1m-101 1l1 1-1-1m28 0l1 1-1-1z" class="C"/><path d="M286 145l1 1-1-1z" class="D"/><path d="M323.333 145.667l.334.666-.334-.666m-224 1l.333.666-.333-.666M164 146l1 1-1-1m30.333.667l.334.666-.334-.666z" class="B"/><path d="M220 146l1 1-1-1m65 0l1 1-1-1z" class="C"/><path d="M356 146l1 1-1-1z" class="B"/><path d="M161 147l1 1-1-1z" class="D"/><path d="M170 147l1 1-1-1z" class="B"/><path d="M323 147l1 1-1-1z" class="C"/><path d="M355 147l1 1-1-1z" class="B"/><path d="M71 148l1 1-1-1z" class="D"/><path d="M99 148l1 1-1-1m59 0l1 1-1-1z" class="C"/><path d="M159 148l1 1-1-1z" class="B"/><path d="M170 148l1 1-1-1z" class="C"/><path d="M243 148l1 1-1-1z" class="D"/><path d="M266 148l1 1-1-1m47 0l1 1-1-1z" class="B"/><path d="M354 148l1 1-1-1z" class="C"/><path d="M71 149l1 1-1-1m85 0l1 1-1-1m87 0l1 1-1-1z" class="B"/><path d="M266 149l1 1-1-1m47 0l1 1-1-1z" class="C"/><path d="M153 150l1 1-1-1z" class="D"/><path d="M219 150l1 1-1-1m63 0l1 1-1-1m42 0l1 1-1-1m27 0l1 1-1-1z" class="B"/><path d="M150 151l1 1-1-1z" class="C"/><path d="M151 151l1 1-1-1z" class="B"/><path d="M193 151l1 1-1-1m26 0l1 1-1-1z" class="D"/><path d="M324 151l1 1-1-1m26 0l1 1-1-1z" class="C"/><path d="M98 152l1 1-1-1m50 0l1 1-1-1m21 0l1 1-1-1m24 0l1 1-1-1z" class="B"/><path d="M242 152l1 1-1-1m106 0l1 1-1-1z" class="D"/><path d="M70 153l1 1-1-1z" class="C"/><path d="M98 153l1 1-1-1z" class="D"/><path d="M145 153l1 1-1-1z" class="C"/><path d="M146 153l1 1-1-1z" class="B"/><path d="M169 153l1 1-1-1z" class="D"/><path d="M242 153l1 1-1-1z" class="B"/><path d="M278 153l1 1-1-1z" class="C"/><path d="M312 153l1 1-1-1m34 0l1 1-1-1m-275.667 1.667l.333.666-.333-.666z" class="B"/><path d="M143 154l1 1-1-1z" class="D"/><path d="M169 154l1 1-1-1z" class="C"/><path d="M277 154l1 1-1-1m35 0l1 1-1-1m14 0l1 1-1-1z" class="D"/><path d="M344 154l1 1-1-1m-201 1l1 1-1-1m75 0l1 1-1-1z" class="B"/><path d="M241 155l1 1-1-1z" class="D"/><path d="M266 155l1 1-1-1z" class="C"/><path d="M327 155l1 1-1-1m15 0l1 1-1-1z" class="D"/><path d="M192 156l1 1-1-1z" class="C"/><path d="M218 156l1 1-1-1z" class="D"/><path d="M266 156l1 1-1-1m8 0l1 1-1-1m55 0l1 1-1-1m10 0l1 1-1-1m-241.667 1.667l.333.666-.333-.666m71 0l.334.666-.334-.666m24 0l.334.666-.334-.666z" class="B"/><path d="M218 157l1 1-1-1m22 0l1 1-1-1z" class="C"/><path d="M267 157l1 1-1-1z" class="D"/><path d="M272 157l1 1-1-1z" class="B"/><path d="M331 157l1 1-1-1z" class="C"/><path d="M332 157l1 1-1-1z" class="D"/><path d="M333 157l1 1-1-1z" class="B"/><path d="M334.667 157.333l.666.334-.666-.334z" class="D"/><path d="M69 158l1 1-1-1m73 0l1 1-1-1z" class="C"/><path d="M69 159l1 1-1-1z" class="D"/><path d="M97 159l1 1-1-1z" class="C"/><path d="M142 159l1 1-1-1z" class="D"/><path d="M168 159l1 1-1-1m71 0l1 1-1-1z" class="C"/><path d="M311 159l1 1-1-1m-242 1l1 1-1-1m73 0l1 1-1-1m75.333.667l.334.666-.334-.666z" class="B"/><path d="M311 160l1 1-1-1m-120 1l1 1-1-1z" class="C"/><path d="M238 161l1 1-1-1m49 0l1 1-1-1m-96 1l1 1-1-1z" class="D"/><path d="M217 162l1 1-1-1m70 0l-1 2 1-2z" class="C"/><path d="M96 163l1 1-1-1m71 0l1 1-1-1m24 0l1 1-1-1m46 0l1 1-1-1m50 0l1 1-1-1z" class="B"/><path d="M68 164l1 1-1-1m28 0l1 1-1-1z" class="D"/><path d="M141 164l1 1-1-1z" class="C"/><path d="M167 164l1 1-1-1m69 0l1 1-1-1z" class="D"/><path d="M285 164l1 1-1-1m25 0l1 1-1-1m-242 1l1 1-1-1m73 0l1 1-1-1z" class="B"/><path d="M235 165l1 1-1-1z" class="C"/><path d="M310 165l1 1-1-1z" class="D"/><path d="M216 166l1 1-1-1z" class="B"/><path d="M284 166l1 1-1-1z" class="C"/><path d="M190 167l1 1-1-1m26 0l1 1-1-1z" class="D"/><path d="M234 167l1 1-1-1z" class="B"/><path d="M283 167l1 1-1-1z" class="D"/><path d="M95.333 168.667l.333.666-.333-.666m71 0l.334.666-.334-.666M190 168l1 1-1-1m43 0l1 1-1-1m49 0l1 1-1-1z" class="B"/><path d="M286 168l1 1-1-1z" class="D"/><path d="M67 169l1 1-1-1m73 0l1 1-1-1z" class="C"/><path d="M232 169l1 1-1-1m54 0l1 1-1-1m23 0l1 1-1-1m-241.667 1.667l.333.666-.333-.666z" class="B"/><path d="M95 170l1 1-1-1z" class="C"/><path d="M140 170l1 1-1-1z" class="D"/><path d="M166 170l1 1-1-1z" class="C"/><path d="M231 170l1 1-1-1z" class="B"/><path d="M281 170l1 1-1-1z" class="C"/><path d="M309 170l1 1-1-1z" class="D"/><path d="M140 171l1 1-1-1z" class="B"/><path d="M189 171l1 1-1-1z" class="C"/><path d="M230 171l1 1-1-1z" class="B"/><path d="M280 171l1 1-1-1z" class="D"/><path d="M189 172l1 1-1-1m90 0l1 1-1-1z" class="B"/><path d="M227 173l1 1-1-1z" class="C"/><path d="M278 173l1 1-1-1z" class="B"/><path d="M285 173l1 1-1-1z" class="D"/><path d="M94 174l1 1-1-1m71 0l1 1-1-1z" class="B"/><path d="M188 174l1 1-1-1z" class="C"/><path d="M226 174l1 1-1-1m14 0l1 1-1-1m37 0l1 1-1-1m8 0l1 1-1-1z" class="B"/><path d="M66 175l1 1-1-1m28 0l1 1-1-1z" class="D"/><path d="M139 175l1 1-1-1z" class="C"/><path d="M165 175l1 1-1-1z" class="D"/><path d="M188 175l1 1-1-1z" class="B"/><path d="M216 175l1 1-1-1z" class="C"/><path d="M224 175l1 1-1-1z" class="D"/><path d="M308 175l1 1-1-1m-242 1l1 1-1-1m73 0l1 1-1-1z" class="B"/><path d="M222 176l1 1-1-1z" class="C"/><path d="M239 176l1 1-1-1m36 0l1 1-1-1z" class="B"/><path d="M308 176l1 1-1-1z" class="C"/><path d="M187 177l1 1-1-1z" class="D"/><path d="M218 177v1h3l-3-1m23 0l1 1-1-1m33 0l1 1-1-1z" class="B"/><path d="M284 177l1 1-1-1z" class="C"/><path d="M238 178l1 1-1-1z" class="B"/><path d="M241 178l1 1-1-1z" class="D"/><path d="M273 178l1 1-1-1m11 0l1 1-1-1m-190.667 1.667l.333.666-.333-.666M164 179l1 1-1-1z" class="B"/><path d="M186 179l1 1-1-1m86 0l1 1-1-1z" class="D"/><path d="M307 179l1 1-1-1z" class="B"/><path d="M65 180l1 1-1-1m73 0l1 1-1-1z" class="C"/><path d="M164 180l1 1-1-1z" class="D"/><path d="M237 180l1 1-1-1m34 0l1 1-1-1z" class="C"/><path d="M307 180l1 1-1-1z" class="D"/><path d="M65.333 181.667l.333.666-.333-.666z" class="B"/><path d="M93 181l1 1-1-1z" class="C"/><path d="M138 181l1 1-1-1z" class="D"/><path d="M164 181l1 1-1-1z" class="C"/><path d="M185 181l1 1-1-1z" class="D"/><path d="M242 181l1 1-1-1z" class="C"/><path d="M269 181l1 1-1-1m14 0l1 1-1-1m-145 1l1 1-1-1z" class="B"/><path d="M268 182l1 1-1-1z" class="D"/><path d="M184 183l1 1-1-1z" class="B"/><path d="M235 183l1 1-1-1z" class="D"/><path d="M243 183l1 1-1-1m39 0l1 1-1-1z" class="C"/><path d="M306 183l1 1-1-1m-142.667 1.667l.334.666-.334-.666z" class="B"/><path d="M183 184l1 1-1-1z" class="D"/><path d="M244 184l1 1-1-1z" class="B"/><path d="M265 184l1 1-1-1m41 0l1 1-1-1m-242 1l1 1-1-1z" class="C"/><path d="M92 185l1 1-1-1z" class="B"/><path d="M182 185l1 1-1-1z" class="C"/><path d="M263 185l1 1-1-1z" class="D"/><path d="M281 185l1 1-1-1z" class="C"/><path d="M64 186l1 1-1-1m28 0l1 1-1-1m45 0l1 1-1-1z" class="D"/><path d="M163 186l1 1-1-1m70 0l1 1-1-1z" class="C"/><path d="M246 186l1 1-1-1z" class="B"/><path d="M261 186l1 1-1-1z" class="C"/><path d="M305 186l1 1-1-1m-241 1l1 1-1-1m73 0l1 1-1-1m44 0l1 1-1-1m51 0l1 1-1-1z" class="B"/><path d="M247 187l1 1-1-1z" class="C"/><path d="M258 187l1 1-1-1z" class="B"/><path d="M259 187l1 1-1-1z" class="C"/><path d="M280 187l1 1-1-1z" class="D"/><path d="M305 187l1 1-1-1z" class="C"/><path d="M180 188l1 1-1-1m70.667.333l.666.334-.666-.334m3 0l.666.334-.666-.334z" class="B"/><path d="M255 188l1 1-1-1z" class="D"/><path d="M279 188l1 1-1-1z" class="C"/><path d="M179 189l1 1-1-1m125 0l1 1-1-1m-212.667 1.667l.333.666-.333-.666M162 190v5h1l-1-5z" class="B"/><path d="M178 190l1 1-1-1z" class="D"/><path d="M230 190l1 1-1-1z" class="C"/><path d="M63 191l1 1-1-1m73 0l1 1-1-1z" class="D"/><path d="M177 191l1 1-1-1z" class="B"/><path d="M229 191l1 1-1-1z" class="C"/><path d="M303 191l1 1-1-1m-240 1l1 1-1-1z" class="B"/><path d="M91 192l1 1-1-1z" class="C"/><path d="M176 192l1 1-1-1z" class="B"/><path d="M228 192l1 1-1-1z" class="D"/><path d="M227 193l1 1-1-1z" class="B"/><path d="M274 193l1 1-1-1z" class="C"/><path d="M135 194l1 1-1-1m38 0l1 1-1-1m14 0l1 1-1-1z" class="D"/><path d="M226 194l1 1-1-1m47 0l1 1-1-1z" class="B"/><path d="M302 194l1 1-1-1z" class="C"/><path d="M172 195l1 1-1-1m53 0l1 1-1-1m46 0l1 1-1-1m30 0l1 1-1-1z" class="B"/><path d="M62 196l1 1-1-1z" class="C"/><path d="M90 196l1 1-1-1z" class="B"/><path d="M163 196l1 1-1-1z" class="C"/><path d="M170 196l1 1-1-1z" class="B"/><path d="M186 196l1 1-1-1z" class="D"/><path d="M188 196l1 1-1-1z" class="B"/><path d="M224 196l1 1-1-1z" class="D"/><path d="M268 196l1 1-1-1z" class="C"/><path d="M62.333 197.667l.333.666-.333-.666z" class="B"/><path d="M90 197l1 1-1-1z" class="D"/><path d="M134 197l1 1-1-1z" class="B"/><path d="M164 197l1 1-1-1m3 0l1 1-1-1z" class="C"/><path d="M168 197l1 1-1-1z" class="B"/><path d="M188 197l1 1-1-1z" class="C"/><path d="M223 197l1 1-1-1z" class="D"/><path d="M266 197l1 1-1-1z" class="B"/><path d="M300 197l1 1-1-1m-115 1l1 1-1-1z" class="D"/><path d="M222 198l1 1-1-1m41 0l1 1-1-1z" class="C"/><path d="M133 199l1 1-1-1m56 0l1 1-1-1m72 0l1 1-1-1z" class="B"/><path d="M184 200l1 1-1-1z" class="C"/><path d="M219 200l1 1-1-1z" class="B"/><path d="M258 200l1 1-1-1z" class="C"/><path d="M298 200l1 1-1-1z" class="D"/><path d="M89.333 201.667l.333.666-.333-.666M132 201l1 1-1-1m51 0l1 1-1-1m7 0l1 1-1-1z" class="B"/><path d="M218 201l1 1-1-1z" class="C"/><path d="M256 201l1 1-1-1m41 0l1 1-1-1z" class="B"/><path d="M61 202l1 1-1-1z" class="D"/><path d="M131 202l1 1-1-1z" class="C"/><path d="M216 202l1 1-1-1z" class="B"/><path d="M253 202l1 1-1-1z" class="C"/><path d="M61 203l1 1-1-1z" class="B"/><path d="M89 203l1 1-1-1m93 0l1 1-1-1m9 0l1 1-1-1m24 0l1 1-1-1z" class="C"/><path d="M251 203l1 1-1-1m-121 1l1 1-1-1m51 0l1 1-1-1z" class="B"/><path d="M192 204l1 1-1-1m21 0l1 1-1-1z" class="D"/><path d="M248 204l1 1-1-1m-119 1l1 1-1-1z" class="C"/><path d="M193 205l1 1-1-1m18 0l1 1-1-1z" class="D"/><path d="M246 205l1 1-1-1z" class="B"/><path d="M180 206l1 1-1-1m14 0l1 1-1-1m15 0l1 1-1-1m34 0l1 1-1-1m-183 1l1 1-1-1z" class="C"/><path d="M88 207l1 1-1-1m91 0l1 1-1-1z" class="B"/><path d="M196 207l1 1-1-1z" class="C"/><path d="M206 207l1 1-1-1z" class="D"/><path d="M241 207l1 1-1-1m-181 1l1 1-1-1z" class="B"/><path d="M88 208l1 1-1-1z" class="D"/><path d="M127 208l1 1-1-1m51 0l1 1-1-1z" class="B"/><path d="M200 208v1h3l-3-1m38 0l1 1-1-1z" class="C"/><path d="M290 208l1 1-1-1m-164 1l1 1-1-1m110 0l1 1-1-1z" class="B"/><path d="M289 209l1 1-1-1z" class="C"/><path d="M125 210l1 1-1-1z" class="B"/><path d="M233 210l1 1-1-1z" class="C"/><path d="M124 211l1 1-1-1z" class="B"/><path d="M176 211l1 1-1-1z" class="C"/><path d="M231 211l1 1-1-1z" class="B"/><path d="M286 211l1 1-1-1z" class="D"/><path d="M59 212l1 1-1-1z" class="C"/><path d="M87.333 212.667l.333.666-.333-.666z" class="B"/><path d="M175 212l1 1-1-1z" class="D"/><path d="M228 212l1 1-1-1z" class="C"/><path d="M284 212l1 1-1-1z" class="B"/><path d="M59 213l1 1-1-1z" class="D"/><path d="M121 213l1 1-1-1z" class="C"/><path d="M174 213l1 1-1-1m52 0l1 1-1-1z" class="B"/><path d="M283 213l1 1-1-1z" class="C"/><path d="M59 214l1 1-1-1z" class="B"/><path d="M87 214l1 1-1-1z" class="C"/><path d="M120 214l1 1-1-1m14 0l1 1-1-1m39 0l1 1-1-1z" class="B"/><path d="M223 214l1 1-1-1m58 0l1 1-1-1m-163 1l1 1-1-1m16 0l1 1-1-1z" class="C"/><path d="M172 215l1 1-1-1m49 0l1 1-1-1z" class="B"/><path d="M279 215l1 1-1-1m-163 1l1 1-1-1z" class="C"/><path d="M117 216l1 1-1-1z" class="B"/><path d="M133 216l1 1-1-1m38 0l1 1-1-1m47 0l1 1-1-1z" class="D"/><path d="M277 216l1 1-1-1z" class="C"/><path d="M114 217l1 1-1-1m56 0l1 1-1-1z" class="D"/><path d="M216 217l1 1-1-1z" class="B"/><path d="M275 217l1 1-1-1z" class="C"/><path d="M58 218l1 1-1-1z" class="D"/><path d="M111 218l1 1-1-1z" class="C"/><path d="M112 218l1 1-1-1z" class="B"/><path d="M132 218l1 1-1-1m3 0l1 1-1-1z" class="D"/><path d="M169 218l1 1-1-1z" class="C"/><path d="M213 218l1 1-1-1z" class="D"/><path d="M273 218l1 1-1-1z" class="C"/><path d="M58 219l1 1-1-1z" class="B"/><path d="M109 219l1 1-1-1z" class="D"/><path d="M168 219l1 1-1-1z" class="C"/><path d="M211 219l1 1-1-1z" class="B"/><path d="M271 219l1 1-1-1m-165 1l1 1-1-1z" class="C"/><path d="M107 220l1 1-1-1z" class="B"/><path d="M131 220l1 1-1-1z" class="C"/><path d="M136 220l1 1-1-1m30 0l1 1-1-1z" class="B"/><path d="M208 220l1 1-1-1z" class="D"/><path d="M269 220l1 1-1-1z" class="C"/><path d="M104 221l1 1-1-1m26 0l1 1-1-1z" class="B"/><path d="M165 221l1 1-1-1z" class="D"/><path d="M206 221l1 1-1-1m60 0l1 1-1-1z" class="B"/><path d="M101 222l1 1-1-1z" class="D"/><path d="M137 222l1 1-1-1z" class="B"/><path d="M203 222l1 1-1-1z" class="D"/><path d="M264 222l1 1-1-1z" class="B"/><path d="M57 223l1 1-1-1m30 0l1 1-1-1m11 0l1 1-1-1z" class="C"/><path d="M99 223l1 1-1-1z" class="B"/><path d="M129 223l1 1-1-1m33 0l1 1-1-1z" class="D"/><path d="M201 223l1 1-1-1z" class="B"/><path d="M262 223l1 1-1-1z" class="D"/><path d="M57.333 224.667l.333.666-.333-.666M87 224l1 1-1-1m9 0l1 1-1-1m32 0l1 1-1-1z" class="B"/><path d="M138 224l1 1-1-1z" class="C"/><path d="M160 224l1 1-1-1z" class="B"/><path d="M198 224l1 1-1-1m62 0l1 1-1-1z" class="D"/><path d="M88 225l1 1-1-1z" class="B"/><path d="M93 225l1 1-1-1z" class="D"/><path d="M139 225l1 1-1-1z" class="C"/><path d="M158 225l1 1-1-1z" class="B"/><path d="M195 225l1 1-1-1z" class="C"/><path d="M196 225l1 1-1-1z" class="B"/><path d="M258 225l1 1-1-1m-131 1l1 1-1-1z" class="C"/><path d="M156 226l1 1-1-1z" class="B"/><path d="M193 226l1 1-1-1z" class="D"/><path d="M256 226l1 1-1-1z" class="C"/><path d="M126 227l1 1-1-1z" class="B"/><path d="M142 227l1 1-1-1m12 0l1 1-1-1z" class="D"/><path d="M190 227l1 1-1-1z" class="C"/><path d="M191 227l1 1-1-1m62 0l1 1-1-1z" class="B"/><path d="M56 228l1 1-1-1m88 0l1 1-1-1z" class="C"/><path d="M145.667 228.333l.666.334-.666-.334m4 0l.666.334-.666-.334z" class="B"/><path d="M151 228l1 1-1-1z" class="C"/><path d="M188 228l1 1-1-1z" class="D"/><path d="M251 228l1 1-1-1m-194.667 1.667l.333.666-.333-.666z" class="B"/><path d="M185 229l1 1-1-1z" class="C"/><path d="M186 229l1 1-1-1m63 0l1 1-1-1z" class="B"/><path d="M124 230l1 1-1-1z" class="C"/><path d="M183 230l1 1-1-1m64 0l1 1-1-1z" class="D"/><path d="M123 231l1 1-1-1m57 0l1 1-1-1z" class="C"/><path d="M181 231l1 1-1-1z" class="B"/><path d="M245 231l1 1-1-1m-190 1l1 1-1-1z" class="C"/><path d="M122 232l1 1-1-1z" class="B"/><path d="M178 232l1 1-1-1z" class="D"/><path d="M243 232l1 1-1-1z" class="C"/><path d="M55 233l1 1-1-1m66 0l1 1-1-1z" class="B"/><path d="M175 233l1 1-1-1z" class="C"/><path d="M176 233l1 1-1-1m64 0l1 1-1-1m-120 1l1 1-1-1z" class="B"/><path d="M173 234l1 1-1-1z" class="D"/><path d="M238 234l1 1-1-1z" class="B"/><path d="M54 235l1 1-1-1z" class="C"/><path d="M119 235l1 1-1-1z" class="B"/><path d="M170 235l1 1-1-1z" class="C"/><path d="M171 235l1 1-1-1m65 0l1 1-1-1m-118 1l1 1-1-1m50 0l1 1-1-1z" class="B"/><path d="M234 236l1 1-1-1m-181 1l1 1-1-1z" class="D"/><path d="M117 237l1 1-1-1z" class="B"/><path d="M165 237l1 1-1-1m67 0l1 1-1-1z" class="C"/><path d="M116 238l1 1-1-1z" class="D"/><path d="M163 238l1 1-1-1z" class="B"/><path d="M230 238l1 1-1-1m-115 1l1 1-1-1m45 0l1 1-1-1z" class="C"/><path d="M227 239l1 1-1-1m-69 1l1 1-1-1m67 0l1 1-1-1z" class="B"/><path d="M344 240c-32.128 39.587-83.788 66.799-136 61.83-13.926-1.325-27.631-3.605-41-7.859-6.573-2.091-14.048-7.329-21-5.971v1c50.069 29.224 115.318 26.052 162-8.63 10.634-7.9 19.926-17.033 28.192-27.37 2.936-3.672 7.245-8.249 7.808-13z" class="C"/><path d="M112 241l1 1-1-1z" class="B"/><path d="M155 241l1 1-1-1z" class="C"/><path d="M223 241l1 1-1-1z" class="B"/><path d="M48 242l1 1-1-1z" class="D"/><path d="M111 242l1 1-1-1z" class="C"/><path d="M153 242l1 1-1-1z" class="B"/><path d="M221 242l1 1-1-1m-175 1l1 1-1-1z" class="D"/><path d="M109 243l1 1-1-1z" class="B"/><path d="M150 243l1 1-1-1m69 0l1 1-1-1z" class="C"/><path d="M44 244l1 1-1-1z" class="B"/><path d="M108 244l1 1-1-1z" class="C"/><path d="M148 244l1 1-1-1z" class="B"/><path d="M217 244l1 1-1-1z" class="C"/><path d="M41 245l1 1-1-1z" class="D"/><path d="M106 245l1 1-1-1m39 0l1 1-1-1z" class="C"/><path d="M214 245l1 1-1-1z" class="B"/><path d="M38 246l1 1-1-1z" class="C"/><path d="M39 246l1 1-1-1z" class="B"/><path d="M104 246l1 1-1-1z" class="C"/><path d="M143 246l1 1-1-1m69 0l1 1-1-1m-176 1l1 1-1-1m65 0l1 1-1-1z" class="B"/><path d="M102 247l1 1-1-1m38 0l1 1-1-1z" class="C"/><path d="M210 247l1 1-1-1m-177 1l1 1-1-1m66 0l1 1-1-1z" class="D"/><path d="M138 248l1 1-1-1z" class="B"/><path d="M208 248l1 1-1-1z" class="D"/><path d="M30 249l1 1-1-1z" class="C"/><path d="M31 249l1 1-1-1m65 0l1 1-1-1z" class="B"/><path d="M135 249l1 1-1-1m71 0l1 1-1-1m-177 1l1 1-1-1z" class="C"/><path d="M93 250l1 1-1-1z" class="B"/><path d="M94 250l1 1-1-1z" class="C"/><path d="M133 250l1 1-1-1m70 0l1 1-1-1m-173.667 1.667l.333.666-.333-.666M91 251l1 1-1-1z" class="B"/><path d="M130 251l1 1-1-1z" class="C"/><path d="M201 251l1 1-1-1m-113 1l1 1-1-1z" class="B"/><path d="M89 252l1 1-1-1z" class="C"/><path d="M128 252l1 1-1-1z" class="D"/><path d="M199 252l1 1-1-1z" class="B"/><path d="M86 253l1 1-1-1z" class="D"/><path d="M125 253l1 1-1-1z" class="C"/><path d="M126 253l1 1-1-1z" class="B"/><path d="M197 253l1 1-1-1z" class="D"/><path d="M83 254l1 1-1-1z" class="B"/><path d="M123 254l1 1-1-1z" class="D"/><path d="M195 254l1 1-1-1z" class="C"/><path d="M80 255l1 1-1-1z" class="B"/><path d="M81 255l1 1-1-1m39 0l1 1-1-1z" class="C"/><path d="M121 255l1 1-1-1z" class="B"/><path d="M193 255l1 1-1-1z" class="C"/><path d="M28 256l1 1-1-1m50 0l1 1-1-1m40 0l1 1-1-1z" class="D"/><path d="M190 256l1 1-1-1m-162 1l1 1-1-1m47 0l1 1-1-1z" class="B"/><path d="M115 257l1 1-1-1z" class="C"/><path d="M116 257l1 1-1-1m72 0l1 1-1-1z" class="B"/><path d="M73 258l1 1-1-1z" class="C"/><path d="M113 258l1 1-1-1m73 0l1 1-1-1z" class="D"/><path d="M70 259l1 1-1-1z" class="B"/><path d="M110 259l1 1-1-1z" class="C"/><path d="M111 259l1 1-1-1z" class="B"/><path d="M184 259l1 1-1-1z" class="D"/><path d="M67 260l1 1-1-1z" class="B"/><path d="M68 260l1 1-1-1z" class="C"/><path d="M108 260l1 1-1-1z" class="D"/><path d="M182 260l1 1-1-1m-155 1l1 1-1-1z" class="C"/><path d="M65 261l1 1-1-1z" class="D"/><path d="M105 261l1 1-1-1z" class="C"/><path d="M106 261l1 1-1-1z" class="B"/><path d="M180 261l1 1-1-1z" class="C"/><path d="M27.333 262.667l.333.666-.333-.666M62 262l1 1-1-1z" class="B"/><path d="M103 262l1 1-1-1z" class="D"/><path d="M177 262l1 1-1-1m-118 1l1 1-1-1z" class="B"/><path d="M60 263l1 1-1-1m40 0l1 1-1-1z" class="C"/><path d="M101 263l1 1-1-1m74 0l1 1-1-1z" class="B"/><path d="M57 264l1 1-1-1m41 0l1 1-1-1m75 0l1 1-1-1z" class="D"/><path d="M54 265l1 1-1-1z" class="B"/><path d="M95 265l1 1-1-1z" class="C"/><path d="M96 265l1 1-1-1z" class="B"/><path d="M171 265l1 1-1-1m-145 1l1 1-1-1m26 0l1 1-1-1z" class="C"/><path d="M93 266l1 1-1-1z" class="D"/><path d="M169 266l1 1-1-1z" class="C"/><path d="M26 267l1 1-1-1z" class="D"/><path d="M49 267l1 1-1-1z" class="B"/><path d="M90 267l1 1-1-1z" class="C"/><path d="M91 267l1 1-1-1m75 0l1 1-1-1m-140 1l1 1-1-1m20 0l1 1-1-1z" class="B"/><path d="M47 268l1 1-1-1z" class="C"/><path d="M88 268l1 1-1-1m76 0l1 1-1-1z" class="B"/><path d="M44 269l1 1-1-1z" class="D"/><path d="M85 269l1 1-1-1z" class="C"/><path d="M162 269l1 1-1-1z" class="D"/><path d="M41 270l1 1-1-1m42 0l1 1-1-1z" class="B"/><path d="M160 270l1 1-1-1z" class="C"/><path d="M38 271l1 1-1-1z" class="B"/><path d="M39 271l1 1-1-1m41 0l1 1-1-1m78 0l1 1-1-1z" class="C"/><path d="M25 272l1 1-1-1m11 0l1 1-1-1z" class="D"/><path d="M78 272l1 1-1-1z" class="B"/><path d="M156 272l1 1-1-1z" class="C"/><path d="M25 273l1 1-1-1m8 0l1 1-1-1z" class="B"/><path d="M75 273l1 1-1-1z" class="C"/><path d="M153 273l1 1-1-1z" class="B"/><path d="M31 274l1 1-1-1z" class="C"/><path d="M73 274l1 1-1-1m78 0l1 1-1-1m-123 1l1 1-1-1z" class="B"/><path d="M70 275l1 1-1-1z" class="C"/><path d="M149 275l1 1-1-1z" class="D"/><path d="M25 276l1 1-1-1z" class="B"/><path d="M26 276l1 1-1-1z" class="C"/><path d="M68 276l1 1-1-1z" class="B"/><path d="M147 276l1 1-1-1m-82 1l1 1-1-1m80 0l1 1-1-1z" class="C"/><path d="M63 278l1 1-1-1m79 0l1 1-1-1z" class="B"/><path d="M60 279l1 1-1-1z" class="C"/><path d="M140 279l1 1-1-1m-82 1l1 1-1-1z" class="B"/><path d="M138 280l1 1-1-1z" class="D"/><path d="M55 281l1 1-1-1m81 0l1 1-1-1z" class="C"/><path d="M53 282l1 1-1-1z" class="B"/><path d="M134 282l1 1-1-1m-84 1l1 1-1-1z" class="C"/><path d="M131 283l1 1-1-1m-83 1l1 1-1-1m81 0l1 1-1-1z" class="B"/><path d="M45 285l1 1-1-1z" class="C"/><path d="M127 285l1 1-1-1m-84 1l1 1-1-1z" class="B"/><path d="M125 286l1 1-1-1z" class="D"/><path d="M40 287l1 1-1-1m83 0l1 1-1-1z" class="C"/><path d="M38 288l1 1-1-1z" class="B"/><path d="M121 288l1 1-1-1z" class="C"/><path d="M35 289l1 1-1-1z" class="D"/><path d="M118 289l1 1-1-1m-85 1l1 1-1-1m83 0l1 1-1-1z" class="B"/><path d="M30 291l1 1-1-1m84 0l1 1-1-1z" class="D"/><path d="M28 292l1 1-1-1z" class="B"/><path d="M112 292l1 1-1-1z" class="C"/><path d="M25 293l1 1-1-1z" class="D"/><path d="M110 293l1 1-1-1z" class="C"/><path d="M23 294l1 1-1-1m84 0l1 1-1-1m-86 1l1 1-1-1m84 0l1 1-1-1z" class="B"/><path d="M103 296l1 1-1-1z" class="D"/><path d="M101 297l1 1-1-1m-2 1l1 1-1-1z" class="C"/><path d="M20 299l1 1-1-1z" class="D"/><path d="M96 299l1 1-1-1m-76 1l1 1-1-1m74 0l1 1-1-1m-2 1l1 1-1-1z" class="B"/><path d="M90 302l1 1-1-1z" class="D"/><path d="M88 303l1 1-1-1m-69 1l1 1-1-1m67 0l1 1-1-1z" class="C"/><path d="M19.333 305.667l.333.666-.333-.666M83 305l1 1-1-1m-2 1l1 1-1-1z" class="B"/><path d="M79 307l1 1-1-1z" class="D"/><path d="M77 308l1 1-1-1m-2 1l1 1-1-1z" class="C"/><path d="M18 310l1 1-1-1z" class="D"/><path d="M72 310l1 1-1-1m-54 1l1 1-1-1m52 0l1 1-1-1z" class="B"/><path d="M68 312l1 1-1-1z" class="D"/><path d="M66 313l1 1-1-1m-2 1l1 1-1-1m-47 1l1 1-1-1z" class="C"/><path d="M61 315l1 1-1-1m-43.667 1.667l.333.666-.333-.666M59 316l1 1-1-1m-2 1l1 1-1-1z" class="B"/><path d="M55 318l1 1-1-1z" class="D"/><path d="M53 319l1 1-1-1m-37 1l1 1-1-1m35 0l1 1-1-1z" class="C"/><path d="M16 321l1 1-1-1z" class="D"/><path d="M48 321l1 1-1-1m-32 1l1 1-1-1m30 0l1 1-1-1z" class="B"/><path d="M44 323l1 1-1-1z" class="D"/><path d="M42 324l1 1-1-1m-2 1l1 1-1-1z" class="C"/><path d="M15 326l1 1-1-1z" class="D"/><path d="M37 326l1 1-1-1m-22 1l1 1-1-1m20 0l1 1-1-1z" class="B"/><path d="M33 328l1 1-1-1z" class="D"/><path d="M31 329l1 1-1-1m-2 1l1 1-1-1m-15 1l1 1-1-1z" class="C"/><path d="M26 331l1 1-1-1m-11.667 1.667l.333.666-.333-.666M24 332l1 1-1-1z" class="B"/><path d="M22 333l1 1-1-1z" class="D"/><path d="M20 334l1 1-1-1m-2 1l1 1-1-1z" class="C"/><path d="M15 336l1 1-1-1z" class="B"/></svg>