<svg xmlns="http://www.w3.org/2000/svg" xmlns:xlink="http://www.w3.org/1999/xlink" width="2880" height="1557" xmlns:v="https://vecta.io/nano"><style><![CDATA[.G{fill:#929dac}.H{fill:#2e4562}.I{fill:#051e40}]]></style><path d="M0 0v216h1c.062-22.517 7.491-46.287 15.8-67C42.599 84.691 96.267 34.244 162 12.333 179.443 6.519 198.474 1.051 217 1l-20-1h-44H0z" class="I"/><path d="M217 .424C117.684 13.503 30.521 78.14 6.654 179-3.316 221.134 0 264.997 0 308v202 655c0 102.82-16.049 213.92 54.25 299 11.606 14.05 25.065 27.03 39.75 37.85 29.261 21.55 62.331 36.57 98 43.7 48.372 9.67 100.867 4.45 150 4.45h424 1299 408 123c30.86 0 61.7 1.29 92-5.65 94.32-21.61 171.65-101.38 184.72-198.35 5.3-39.33 2.28-80.35 2.28-120v-208-638-110c0-29.325.94-58.246-5.88-87-9.61-40.458-29.56-75.902-56.84-107-13.49-15.384-29.91-28.754-47.28-39.575C2690.04-10.263 2603.42 0 2519 0h-454H823 417 285c-22.18 0-46.015-2.471-68 .424z" fill="#fff"/><path d="M2659 0v1c27.79.23 57.41 10.462 82 22.753 69.78 34.885 120.29 101.603 131.73 179.247 5.29 35.936 2.27 73.724 2.27 110v192 593 152c0 31.54 1.93 63.7-2.28 95-5.22 38.76-21.81 76.82-45.2 108-40.06 53.42-100.37 87.78-166.52 95.71-40.82 4.9-83.89 1.29-125 1.29h-300H578 324c-52.576 0-107.213 4.88-158-11.34-68.566-21.91-125.244-75.39-150.808-142.66-7.336-19.31-14.02-41.17-14.192-62H0v223h2880V0h-221z" class="I"/><path d="M225 84v1h6l-6-1z" class="G"/><path d="M231 84v1h1506c-10.27-4.308-27.84-1-39-1h-89-309H231z" class="H"/><path d="M1737 84l2 2-2-2z" class="G"/><path d="M1966 84c24.72 46.447 54.17 90.855 81.2 136l152.6 255 99.8 167c15.83 26.382 29.85 56.522 48.64 80.853 8.03 10.393 28.93 1.402 38.67 10.295 6.61 6.034 19 20.012 20.81 28.852 1.3 6.348-2.81 19.074 1.31 24.262 4.07 5.126 16.18 3.224 21.8 6.171 8.09 4.251 18.61 21.46 22.75 29.567 3.71 7.261-2.46 20.145 2.45 26.258 3.86 4.805 16.45 3.042 21.96 5.445 7.95 3.473 22.11 19.554 25.98 27.297 8.6 17.196-6.57 43.821 2.06 60.999 4.5 8.966 18.09 16.915 25.97 22.871 25.87 19.554 55.37 31.502 82 49.23 22.75 15.15 29.87 48.06 39.6 71.9 7.88 19.28 21.03 36.47 34.69 52 10.34 11.77 29.83 26.83 30.25 44 .19 7.81-3.95 16.78-6.59 24-6.57 17.97-14.77 35.3-24.09 52-20.92 37.5-50.23 81.12-90.86 99.14-25.14 11.14-58.05 5.86-85 5.86h-174v102h247c59.15 0 117.97-.39 161.91-47 44.06-46.74 44.09-101.84 44.09-162v-131-709-124c0-60.446-.49-114.896-44.17-161.985C2690.01 68.75 2595.97 84 2521 84h-555z" fill="#bf0d3f"/><path d="M2643 84v1h7l-7-1M216 85v1h4l-4-1z" class="G"/><path d="M220.667 85.333l.666.333-.666-.333z" class="H"/><path d="M1211 1465c-11.79-25.26-28.47-48.78-42.28-73-3.72-6.52-10.1-23.29-17.05-26.4-8.38-3.74-24.5-.6-33.67-.6h-81c0-124.13 14.6-261.09 81.42-369 21.51-34.723 49.22-67.732 84.58-89 9.86-5.93 20.22-11.505 31-15.575 5.96-2.248 14.94-3.3 19.61-7.844 4.03-3.938 4.7-11.249 5.22-16.581 2.07-21.426-2.39-44.758-9.16-65-2.04-6.098-5.18-17.753-11.76-20.397-4.72-1.894-11.89-.603-16.91-.603h-36c-6.65 0-16.75 2.054-19.35-6.015-3.7-11.497 7.05-26.033 11.49-35.985 10.02-22.495 20.89-44.619 31.17-67 3.85-8.395 12.26-19.636 12.49-29 .14-5.415-3.15-26.86-8.23-29.397-4.19-2.092-11.97-.603-16.57-.603h-40-143c9.57-11.577 26.73-19.747 39-28.424l88-61.551c11.11-7.696 27.69-15.461 36.4-25.785 3.84-4.554 2.39-16.502 2.64-22.24.66-15.04 3.46-30.221 6.22-45 7.59-40.663 24.81-81.796 51-114 94.52-116.21 265.83-112.958 391.74-55.309 37.45 17.146 73.66 38.97 101.91 69.309 51.81 55.64 73.06 139.505 73.09 214 .01 17.688-.89 35.386-1 53-.03 5.507.85 17.528-3.32 21.566-5.65 5.478-20.65 2.322-27.68 1.434-.5 24.427-4.58 47.431-1.13 72 1.68 11.982 5.54 25.576 15.14 33.671 11.15 9.4 29.44 6.329 42.99 6.329h104c47.1 0 97.84-5.756 144 4.424 31.24 6.89 60.49 18.47 89 32.824 11.28 5.682 21.59 13.419 33 18.752 7.24-16.826 10.29-36.367 15.29-54 1.7-5.987 6.35-15.817 4.81-22-2.8-11.21-17.32-23.801-24.23-33l-62.22-81-214.23-279-129.77-169-35.28-46c-3.91-5.206-9.39-15.854-15.54-18.397-8.76-3.617-24.37-.603-33.83-.603h-81-279-804-229c-42.541 0-88.627-5.567-129 10.45-13.227 5.247-25.566 12.246-37 20.705C87.912 157.648 84 220.393 84 284v93 760 121c0 27.83-2.07 56.57 3.449 84 6.71 33.35 24.902 63.52 50.551 85.71 43.864 37.96 95.48 37.29 150 37.29h153 770z" class="I"/><path d="M2656 85v1h3l-3-1M210 86v1h3l-3-1z" class="G"/><path d="M213.667 86.333l.666.333-.666-.333z" class="H"/><path d="M1967 86l1 1-1-1m696.67.333l.66.333-.66-.333M205 87v1h3l-3-1z" class="G"/><path d="M208 87l1 1-1-1m1531 0l1 1-1-1z" class="H"/><path d="M2668.67 87.333l.66.333-.66-.333m-2467.003 1l.666.333-.666-.333z" class="G"/><path d="M203 88l1 1-1-1z" class="H"/><path d="M1740 88l1 1-1-1m228 0l1 1-1-1m704.67.333l.66.333-.66-.333m-2475.003 1l.666.333-.666-.333z" class="G"/><path d="M199 89l1 1-1-1z" class="H"/><path d="M1741 89l1 1-1-1m935.67.333l.66.333-.66-.333M194 90l1 1-1-1z" class="G"/><path d="M195 90l1 1-1-1z" class="H"/><path d="M2680 90l1 1-1-1M191 91l1 1-1-1z" class="G"/><path d="M192 91l1 1-1-1m1550 0l1 1-1-1z" class="H"/><path d="M1970 91l1 1-1-1m713.67.333l.66.333-.66-.333m-2496.003 1l.666.333-.666-.333z" class="G"/><path d="M189 92l1 1-1-1m1554 0l1 1-1-1z" class="H"/><path d="M2686.67 92.333l.66.333-.66-.333M185 93l1 1-1-1z" class="G"/><path d="M186 93l1 1-1-1z" class="H"/><path d="M1744 93l1 1-1-1m227 0l1 1-1-1m718 0l1 1-1-1M182 94l1 1-1-1z" class="G"/><path d="M183 94l1 1-1-1z" class="H"/><path d="M1745 94l1 1-1-1m947 0l1 1-1-1M179.667 95.333l.666.333-.666-.333z" class="G"/><path d="M1745 95l1 1-1-1z" class="H"/><path d="M2694 95l1 1-1-1M177 96l1 1-1-1z" class="G"/><path d="M178 96l1 1-1-1m1568 0l1 1-1-1z" class="H"/><path d="M1973 96l1 1-1-1m724 0l1 1-1-1M175 97l1 1-1-1z" class="G"/><path d="M176 97l1 1-1-1z" class="H"/><path d="M1747 97l1 1-1-1m952 0l1 1-1-1z" class="G"/><path d="M173 98l1 1-1-1z" class="H"/><path d="M1748 98l1 1-1-1m226 0l1 1-1-1m727 0l1 1-1-1z" class="G"/><path d="M171 99l1 1-1-1z" class="H"/><path d="M2703 99l1 1-1-1m-2535 1l1 1-1-1z" class="G"/><path d="M169 100l1 1-1-1m1580 0l1 1-1-1z" class="H"/><path d="M1975 100l1 1-1-1m730 0l1 1-1-1m-2539 1l1 1-1-1z" class="G"/><path d="M167 101l1 1-1-1z" class="H"/><path d="M1750 101l1 1-1-1m957 0l1 1-1-1z" class="G"/><path d="M165 102l1 1-1-1z" class="H"/><path d="M1751 102l1 1-1-1m958 0l1 1-1-1m-2546 1l1 1-1-1m1814 0l1 1-1-1m734 0l1 1-1-1m-2550 1l1 1-1-1z" class="G"/><path d="M1752 104l1 1-1-1z" class="H"/><path d="M2713 104l1 1-1-1m-2554 1l1 1-1-1z" class="G"/><path d="M160 105l1 1-1-1m1593 0l1 1-1-1z" class="H"/><path d="M1978 105l1 1-1-1z" class="G"/><path d="M158 106l1 1-1-1z" class="H"/><path d="M1754 106l1 1-1-1m962 0l1 1-1-1m-2560 1l1 1-1-1m2562 0l1 1-1-1m-2564 1l1 1-1-1z" class="G"/><path d="M155 108l1 1-1-1m1600 0l1 1-1-1z" class="H"/><path d="M1980 108l1 1-1-1z" class="G"/><path d="M153 109l1 1-1-1m1603 0l1 1-1-1z" class="H"/><path d="M2721 109l1 1-1-1m-2570 1l1 1-1-1m1606 0l1 1-1-1m224 0l1 1-1-1z" class="G"/><path d="M150 111l1 1-1-1z" class="H"/><path d="M1758 111l1 1-1-1m966 0l1 1-1-1m-2576 1l1 1-1-1z" class="G"/><path d="M149 112l1 1-1-1m1609 0l1 1-1-1z" class="H"/><path d="M2725 112l1 1-1-1m-2578 1l1 1-1-1z" class="G"/><path d="M1759 113l1 1-1-1z" class="H"/><path d="M1983 113l1 1-1-1z" class="G"/><path d="M146 114l1 1-1-1z" class="H"/><path d="M1760 114l1 1-1-1m968 0l1 1-1-1m-2584 1l1 1-1-1m1617 0l1 1-1-1m223 0l1 1-1-1m-1841 1l1 1-1-1z" class="G"/><path d="M142 117l1 1-1-1m1620 0l1 1-1-1z" class="H"/><path d="M2732 117l1 1-1-1m-2592 1l1 1-1-1m1623 0l1 1-1-1m223 0l1 1-1-1m747 0l1 1-1-1m-2594 1l1 1-1-1m1625 0l1 1-1-1m-1626 1l1 1-1-1m1849 0l1 1-1-1z" class="G"/><path d="M137 121l1 1-1-1m1628 0l1 1-1-1z" class="H"/><path d="M2737 121l1 1-1-1z" class="G"/><path d="M136 122l1 1-1-1m1630 0l1 1-1-1z" class="H"/><path d="M2738 122l1 1-1-1m-2604 1l1 1-1-1m1633 0l1 1-1-1m222 0l1 1-1-1m750 0l1 1-1-1m-2606 1l1 1-1-1m1635 0l1 1-1-1m972 0l1 1-1-1m-2608 1l1 1-1-1z" class="G"/><path d="M1768 125l1 1-1-1z" class="H"/><path d="M1990 125l1 1-1-1m-1859 1l1 1-1-1z" class="G"/><path d="M1769 126l1 1-1-1z" class="H"/><path d="M130 127l1 1-1-1m1640 0l1 1-1-1m-1641 1l1 1-1-1m1642 0l1 1-1-1m221 0l1 1-1-1m-1864 1l1 1-1-1m-1 1l1 1-1-1z" class="G"/><path d="M1772 130l1 1-1-1z" class="H"/><path d="M1993 130l1 1-1-1m-1867 1l1 1-1-1m1647 0l1 1-1-1m-1648 1l1 1-1-1m1649 0l1 1-1-1m-1650 1l1 1-1-1m1871 0l1 1-1-1m754 0l1 1-1-1m-2626 1l1 1-1-1z" class="G"/><path d="M1775 134l1 1-1-1z" class="H"/><path d="M2750 134l1 1-1-1z" class="G"/><path d="M1776 135l1 1-1-1z" class="H"/><path d="M1996 135l1 1-1-1m755 0l1 1-1-1z" class="G"/><path d="M122 136l1 1-1-1z" class="H"/><path d="M1777 136l1 1-1-1m975 0l1 1-1-1z" class="G"/><path d="M121 137l1 1-1-1z" class="H"/><path d="M1778 137l1 1-1-1z" class="G"/><path d="M120 138l1 1-1-1m1658 0l1 1-1-1z" class="H"/><path d="M1998 138l1 1-1-1m-1879 1l1 1-1-1z" class="G"/><path d="M1779 139l1 1-1-1z" class="H"/><path d="M118 140l1 1-1-1m1662 0l1 1-1-1m219 0l1 1-1-1m-1882 1l1 1-1-1m1664 0l1 1-1-1m975 0l1 1-1-1z" class="G"/><path d="M117 142l1 1-1-1z" class="H"/><path d="M2757 142l1 1-1-1z" class="G"/><path d="M116 143l1 1-1-1m1666 0l1 1-1-1z" class="H"/><path d="M2001 143l1 1-1-1m-1886 1l1 1-1-1m1668 0l1 1-1-1m-1669 1l1 1-1-1m1670 0l1 1-1-1m218 0l1 1-1-1m758 1l1 1-1-1z" class="G"/><path d="M113 147l1 1-1-1m1672 0l1 1-1-1z" class="H"/><path d="M112 148l1 1-1-1z" class="G"/><path d="M1786 148l1 1-1-1z" class="H"/><path d="M2004 148l1 1-1-1m-217 1l1 1-1-1m975 0l1 1-1-1z" class="G"/><path d="M111 150l1 1-1-1z" class="H"/><path d="M1788 150l1 1-1-1m217 0l1 1-1-1m758 0l1 1-1-1m-2653 1l1 1-1-1z" class="G"/><path d="M1788 151l1 1-1-1z" class="H"/><path d="M109 152l1 1-1-1z" class="G"/><path d="M1789 152l1 1-1-1m-1680 1l1 1-1-1z" class="H"/><path d="M1790 153l1 1-1-1m217 0l1 1-1-1m758 0l1 1-1-1m-2657 1l1 1-1-1m1683 0l1 1-1-1m217 1l1 1-1-1m758 0l1 1-1-1z" class="G"/><path d="M107 156l1 1-1-1m1685 0l1 1-1-1z" class="H"/><path d="M106 157l1 1-1-1m1687 0l1 1-1-1z" class="G"/><path d="M106 158l1 1-1-1z" class="H"/><path d="M1794 158l1 1-1-1m216 0l1 1-1-1m758 0l1 1-1-1m-2663 1l1 1-1-1z" class="G"/><path d="M1795 160l1 1-1-1z" class="H"/><path d="M2011 160l1 1-1-1z" class="G"/><path d="M104 161l1 1-1-1m1692 0l1 1-1-1z" class="H"/><path d="M103 162l1 1-1-1m1694 0l1 1-1-1z" class="G"/><path d="M103 163l1 1-1-1z" class="H"/><path d="M2013 163l1 1-1-1m758 0l1 1-1-1m-2669 1l1 1-1-1z" class="G"/><path d="M1798 164l1 1-1-1m-1696 1l1 1-1-1m1697 0l1 1-1-1z" class="H"/><path d="M2014 165l1 1-1-1m758 0l1 1-1-1m-2671 1l1 1-1-1m1699 0l1 1-1-1m1 1l1 1-1-1m972 0l1 1-1-1m-2673 1l1 1-1-1z" class="G"/><path d="M1801 168l1 1-1-1z" class="H"/><path d="M2016 168l1 1-1-1z" class="G"/><path d="M100 169l1 1-1-1m1702 0l1 1-1-1z" class="H"/><path d="M2774 169l1 1-1-1M99 170l1 1-1-1m1704 0l1 1-1-1m214 0l1 1-1-1z" class="G"/><path d="M99 171l1 1-1-1z" class="H"/><path d="M1804 171l1 1-1-1m971 0l1 1-1-1M98 172l1 1-1-1z" class="G"/><path d="M98 173l1 1-1-1m1707 0l1 1-1-1z" class="H"/><path d="M2019 173l1 1-1-1m757 0l1 1-1-1M97 174l1 1-1-1z" class="G"/><path d="M1806 174l1 1-1-1M97 175l1 1-1-1z" class="H"/><path d="M1807 175l1 1-1-1m213 0l1 1-1-1m757 0l1 1-1-1z" class="G"/><path d="M96 177l1 1-1-1m1712 0l1 1-1-1m1 1l1 1-1-1z" class="H"/><path d="M2022 178l1 1-1-1M95 179l1 1-1-1m1715 0l1 1-1-1z" class="G"/><path d="M95 180l1 1-1-1z" class="H"/><path d="M1811 180l1 1-1-1m212 0l1 1-1-1m756 0l1 1-1-1M94 181l1 1-1-1z" class="G"/><path d="M1811 181l1 1-1-1M94 182l1 1-1-1m1718 0l1 1-1-1z" class="H"/><path d="M2780.33 182.667l.34.666-.34-.666M1813 183l1 1-1-1m212 0l1 1-1-1M93 184l1 1-1-1m1721 0l1 1-1-1z" class="G"/><path d="M93 185l1 1-1-1z" class="H"/><path d="M2026 185l1 1-1-1m755 0l1 1-1-1z" class="G"/><path d="M1815 186l1 1-1-1z" class="H"/><path d="M92 187l1 1-1-1m1724 0l1 1-1-1z" class="G"/><path d="M92 188l1 1-1-1z" class="H"/><path d="M1817 188l1 1-1-1m211 0l1 1-1-1m754 0l1 1-1-1M91 190l1 1-1-1z" class="G"/><path d="M1818 190l1 1-1-1z" class="H"/><path d="M2029 190l1 1-1-1z" class="G"/><path d="M91 191l1 1-1-1m1728 0l1 1-1-1z" class="H"/><path d="M2783 191l1 1-1-1m-963 1l1 1-1-1M90 193l1 1-1-1m1731 0l1 1-1-1m210 0l1 1-1-1z" class="G"/><path d="M90 194l1 1-1-1m1731 0l1 1-1-1z" class="H"/><use xlink:href="#A" class="G"/><path d="M1822 195l1 1-1-1z" class="H"/><path d="M2032 195l1 1-1-1M89.333 196.667l.333.666-.333-.666M1823 196l1 1-1-1m1 1l1 1-1-1z" class="G"/><path d="M89 198l1 1-1-1z" class="H"/><path d="M2034 198l1 1-1-1m751 0l1 1-1-1z" class="G"/><path d="M1825 199l1 1-1-1z" class="H"/><path d="M88 200l1 1-1-1m1738 0l1 1-1-1m209 0l1 1-1-1z" class="G"/><path d="M88.333 201.667l.333.666-.333-.666z" class="H"/><path d="M1827 201l1 1-1-1m959.33.667l.34.666-.34-.666z" class="G"/><path d="M1828 203l1 1-1-1z" class="H"/><path d="M2037 203l1 1-1-1M87.333 204.667l.333.666-.333-.666z" class="G"/><path d="M1829 204l1 1-1-1z" class="H"/><path d="M1830 205l1 1-1-1m208 0l1 1-1-1z" class="G"/><path d="M87 206l1 1-1-1z" class="H"/><path d="M1831 206l1 1-1-1m956.33.667l.34.666-.34-.666z" class="G"/><path d="M1831 207l1 1-1-1m1 1l1 1-1-1z" class="H"/><path d="M2040 208l1 1-1-1M86.333 209.667l.333.666-.333-.666M1833 209l1 1-1-1m1 1l1 1-1-1m207 0l1 1-1-1z" class="G"/><path d="M86.333 211.667l.333.666-.333-.666z" class="H"/><path d="M2788 211v3h1l-1-3z" class="G"/><path d="M1835 212l1 1-1-1z" class="H"/><path d="M1836 213l1 1-1-1m207 0l1 1-1-1m-206 1l1 1-1-1M85.333 215.667l.333.666-.333-.666M2044 215l1 1-1-1z" class="G"/><path d="M1838 216l1 1-1-1M85 217v3h1l-1-3m1754 0l1 1-1-1z" class="H"/><path d="M2789 217v4h1l-1-4m-949 1l1 1-1-1m206 0l1 1-1-1z" class="G"/><path d="M1841 220l1 1-1-1z" class="H"/><path d="M2047 220l1 1-1-1z" class="G"/><path d="M1444 221v1h18l-18-1m398 0l1 1-1-1z" class="H"/><path d="M84 222v5h1l-1-5z" class="G"/><path d="M1425 222v1h4l-4-1z" class="H"/><path d="M1429 222v1h6l-6-1m42 0v1h8l-8-1z" class="G"/><path d="M1479 222v1h3l-3-1z" class="H"/><path d="M1843 222l1 1-1-1z" class="G"/><path d="M1414 223v1h3l-3-1z" class="H"/><path d="M1417 223v1h4l-4-1m69 0v1h5l-5-1z" class="G"/><use xlink:href="#B" class="H"/><path d="M1844 223l1 1-1-1m205 0l1 1-1-1z" class="G"/><use xlink:href="#B" x="-85" y="1" class="H"/><path d="M1408 224v1h4l-4-1m88 0v1h4l-4-1z" class="G"/><path d="M1500.67 224.333l.66.334-.66-.334M1844 224l1 1-1-1m-444.33 1.333l.66.334-.66-.334z" class="H"/><path d="M1401 225v1h3l-3-1m104 0v1h3l-3-1z" class="G"/><path d="M1508.67 225.333l.66.334-.66-.334M1845 225l1 1-1-1z" class="H"/><path d="M2050 225l1 1-1-1z" class="G"/><use xlink:href="#B" x="-98" y="3" class="H"/><path d="M1395.67 226.333l.66.334-.66-.334m117 0l.66.334-.66-.334z" class="G"/><use xlink:href="#B" x="23" y="3" class="H"/><path d="M1846 226l1 1-1-1z" class="G"/><path d="M84 227v5h1l-1-5m1304 0l1 1-1-1z" class="H"/><path d="M1389 227v1h3l-3-1m129 0v1h3l-3-1z" class="G"/><path d="M1521 227l1 1-1-1z" class="H"/><path d="M1847 227l1 1-1-1z" class="G"/><path d="M1383 228l1 1-1-1z" class="H"/><path d="M1384.67 228.333l.66.334-.66-.334m140 0l.66.334-.66-.334z" class="G"/><use xlink:href="#B" x="35" y="5" class="H"/><path d="M2790 228v11h1l-1-11z" class="G"/><use xlink:href="#B" x="-113" y="6" class="H"/><path d="M1380 229l1 1-1-1m149.67.333l.66.334-.66-.334z" class="G"/><path d="M1531.67 229.333l.66.334-.66-.334M1848 229l1 1-1-1m-474 1l1 1-1-1z" class="H"/><path d="M1375.67 230.333l.66.334-.66-.334m159 0l.66.334-.66-.334z" class="G"/><use xlink:href="#B" x="45" y="7" class="H"/><path d="M1849 230l1 1-1-1m204 0l1 1-1-1z" class="G"/><path d="M1370 231l1 1-1-1z" class="H"/><path d="M1371.67 231.333l.66.334-.66-.334m168 0l.66.334-.66-.334z" class="G"/><path d="M1541 231l1 1-1-1z" class="H"/><path d="M1850 231l1 1-1-1z" class="G"/><path d="M1366 232l1 1-1-1z" class="H"/><path d="M1367.67 232.333l.66.334-.66-.334m176 0l.66.334-.66-.334z" class="G"/><path d="M1545 232l1 1-1-1m-182 1l1 1-1-1z" class="H"/><path d="M1364 233l1 1-1-1m184.67.333l.66.334-.66-.334z" class="G"/><path d="M1550 233l1 1-1-1m301 0l1 1-1-1m-492 1l1 1-1-1z" class="H"/><path d="M1360.67 234.333l.66.334-.66-.334m192 0l.66.334-.66-.334z" class="G"/><path d="M1554 234l1 1-1-1m298 0l1 1-1-1m-496 1l1 1-1-1z" class="H"/><path d="M1357 235l1 1-1-1m199 0l1 1-1-1z" class="G"/><path d="M1557 235l1 1-1-1z" class="H"/><path d="M1853 235l1 1-1-1m203 0l1 1-1-1z" class="G"/><path d="M1353 236l1 1-1-1z" class="H"/><path d="M1354 236l1 1-1-1m206 0l1 1-1-1z" class="G"/><path d="M1561 236l1 1-1-1z" class="H"/><path d="M1854 236l1 1-1-1z" class="G"/><path d="M1350 237l1 1-1-1z" class="H"/><path d="M1351 237l1 1-1-1m212.67.333l.66.334-.66-.334z" class="G"/><path d="M1565 237l1 1-1-1m289 0l1 1-1-1z" class="H"/><path d="M2057 237l1 1-1-1z" class="G"/><path d="M1347 238l1 1-1-1z" class="H"/><path d="M1348 238l1 1-1-1m219 0l1 1-1-1z" class="G"/><path d="M1568 238l1 1-1-1m287 0l1 1-1-1m-511 1l1 1-1-1z" class="H"/><path d="M1345 239l1 1-1-1m225.67.333l.66.334-.66-.334z" class="G"/><path d="M1572 239l1 1-1-1z" class="H"/><path d="M1856 239l1 1-1-1z" class="G"/><path d="M1341 240l1 1-1-1z" class="H"/><path d="M1342 240l1 1-1-1m232 0l1 1-1-1z" class="G"/><path d="M1575 240l1 1-1-1z" class="H"/><path d="M1857 240l1 1-1-1m202 0l1 1-1-1m-719.33 1.333l.66.334-.66-.334M1577 241l1 1-1-1z" class="G"/><path d="M1578 241l1 1-1-1m-242 1l1 1-1-1z" class="H"/><path d="M1337 242l1 1-1-1m243 0l1 1-1-1z" class="G"/><path d="M1581 242l1 1-1-1m277 0l1 1-1-1z" class="H"/><path d="M2060 242l1 1-1-1m-726 1l1 1-1-1m249 0l1 1-1-1z" class="G"/><path d="M1584 243l1 1-1-1z" class="H"/><path d="M1859 243l1 1-1-1z" class="G"/><path d="M1331 244l1 1-1-1z" class="H"/><path d="M1332 244l1 1-1-1m254 0l1 1-1-1z" class="G"/><path d="M1587 244l1 1-1-1z" class="H"/><path d="M1860 244l1 1-1-1z" class="G"/><path d="M1329 245l1 1-1-1z" class="H"/><path d="M1330 245l1 1-1-1m259 0l1 1-1-1z" class="G"/><path d="M1590 245l1 1-1-1z" class="H"/><path d="M2062 245l1 1-1-1z" class="G"/><path d="M1326 246l1 1-1-1z" class="H"/><path d="M1327 246l1 1-1-1m265 0l1 1-1-1z" class="G"/><path d="M1593 246l1 1-1-1m268 0l1 1-1-1m-537 1l1 1-1-1z" class="H"/><path d="M1325 247l1 1-1-1m270 0l1 1-1-1z" class="G"/><path d="M1596 247l1 1-1-1m266 0l1 1-1-1z" class="H"/><path d="M2063 247l1 1-1-1z" class="G"/><path d="M1322 248l1 1-1-1z" class="H"/><path d="M1323 248l1 1-1-1m274.67.333l.66.334-.66-.334M1863 248l1 1-1-1z" class="G"/><path d="M1320 249l1 1-1-1z" class="H"/><path d="M1321 249l1 1-1-1m279 0l1 1-1-1z" class="G"/><path d="M1601 249l1 1-1-1z" class="H"/><path d="M1864 249l1 1-1-1m-546 1l1 1-1-1m285 0l1 1-1-1z" class="G"/><path d="M1604 250l1 1-1-1m260 0l1 1-1-1z" class="H"/><path d="M2065 250l1 1-1-1z" class="G"/><path d="M1316 251l1 1-1-1z" class="H"/><path d="M1605 251l1 1-1-1z" class="G"/><path d="M1606 251l1 1-1-1m259 0l1 1-1-1m-551 1l1 1-1-1z" class="H"/><path d="M1608 252l1 1-1-1z" class="G"/><path d="M1609 252l1 1-1-1z" class="H"/><path d="M1866 252l1 1-1-1m200 0l1 1-1-1z" class="G"/><path d="M1312 253l1 1-1-1z" class="H"/><path d="M1610 253l1 1-1-1z" class="G"/><path d="M1611 253l1 1-1-1z" class="H"/><path d="M1867 253l1 1-1-1z" class="G"/><path d="M1310 254l1 1-1-1z" class="H"/><path d="M1613 254l1 1-1-1z" class="G"/><path d="M1308 255l1 1-1-1z" class="H"/><path d="M1309 255l1 1-1-1m306 0l1 1-1-1z" class="G"/><path d="M1616 255l1 1-1-1m252 0l1 1-1-1z" class="H"/><path d="M2068 255l1 1-1-1z" class="G"/><path d="M1306 256l1 1-1-1z" class="H"/><path d="M1307 256l1 1-1-1m311 0l1 1-1-1m251 0l1 1-1-1m-564 1l1 1-1-1m315 0l1 1-1-1z" class="G"/><path d="M1621 257l1 1-1-1z" class="H"/><path d="M1870 257l1 1-1-1m199 0l1 1-1-1m-766 1l1 1-1-1m319 0l1 1-1-1z" class="G"/><path d="M1623 258l1 1-1-1m-322 1l1 1-1-1z" class="H"/><path d="M1624 259l1 1-1-1z" class="G"/><path d="M1625 259l1 1-1-1m246 0l1 1-1-1m-572 1l1 1-1-1z" class="H"/><path d="M1300 260l1 1-1-1m327 0l1 1-1-1z" class="G"/><path d="M1872 260l1 1-1-1z" class="H"/><path d="M2071 260l1 1-1-1m-773 1l1 1-1-1m331 0l1 1-1-1m244 0l1 1-1-1z" class="G"/><path d="M1296 262l1 1-1-1z" class="H"/><path d="M1631 262l1 1-1-1z" class="G"/><path d="M1632 262l1 1-1-1z" class="H"/><path d="M2072 262l1 1-1-1z" class="G"/><path d="M1294 263l1 1-1-1z" class="H"/><path d="M1295 263l1 1-1-1m338 0l1 1-1-1z" class="G"/><path d="M1634 263l1 1-1-1m240 0l1 1-1-1z" class="H"/><path d="M1293 264l1 1-1-1m342 0l1 1-1-1z" class="G"/><path d="M1636 264l1 1-1-1m239 0l1 1-1-1m-584 1l1 1-1-1z" class="H"/><path d="M1292 265l1 1-1-1m345 0l1 1-1-1z" class="G"/><path d="M1638 265l1 1-1-1z" class="H"/><path d="M1876 265l1 1-1-1m198 0l1 1-1-1m-784 1l1 1-1-1m349 0l1 1-1-1z" class="G"/><path d="M1640 266l1 1-1-1z" class="H"/><path d="M1877 266l1 1-1-1z" class="G"/><path d="M1288 267l1 1-1-1z" class="H"/><path d="M1289 267l1 1-1-1m352 0l1 1-1-1z" class="G"/><path d="M1642 267l1 1-1-1z" class="H"/><path d="M2075 267l1 1-1-1m-788 1l1 1-1-1m356 0l1 1-1-1z" class="G"/><path d="M1644 268l1 1-1-1m234 0l1 1-1-1m-593 1l1 1-1-1z" class="H"/><path d="M1286 269l1 1-1-1m359 0l1 1-1-1z" class="G"/><path d="M1646 269l1 1-1-1z" class="H"/><path d="M1879 269l1 1-1-1m-595 1l1 1-1-1m363 0l1 1-1-1z" class="G"/><path d="M1648 270l1 1-1-1z" class="H"/><path d="M1880 270l1 1-1-1m197 0l1 1-1-1m-794 1l1 1-1-1m366 0l1 1-1-1z" class="G"/><path d="M1650 271l1 1-1-1m-369 1l1 1-1-1z" class="H"/><path d="M1651 272l1 1-1-1z" class="G"/><path d="M1881 272l1 1-1-1z" class="H"/><path d="M2078 272l1 1-1-1m-798 1l1 1-1-1m373 0l1 1-1-1z" class="G"/><path d="M1882 273l1 1-1-1m-604 1l1 1-1-1z" class="H"/><path d="M1279 274l1 1-1-1m376 0l1 1-1-1m228 0l1 1-1-1z" class="G"/><path d="M1277 275l1 1-1-1m380 0l1 1-1-1z" class="H"/><path d="M2080 275l1 1-1-1m-804 1l1 1-1-1m382 0l1 1-1-1z" class="G"/><path d="M1659 276l1 1-1-1m225 0l1 1-1-1z" class="H"/><path d="M1275 277l1 1-1-1m385 0l1 1-1-1z" class="G"/><path d="M1661 277l1 1-1-1m224 0l1 1-1-1z" class="H"/><path d="M2081 277l1 1-1-1z" class="G"/><path d="M1273 278l1 1-1-1z" class="H"/><path d="M1662 278l1 1-1-1m224 0l1 1-1-1z" class="G"/><path d="M1272 279l1 1-1-1z" class="H"/><path d="M1664 279l1 1-1-1m223 0l1 1-1-1m-616 1l1 1-1-1m394 0l1 1-1-1z" class="G"/><path d="M1666 280l1 1-1-1m221 0l1 1-1-1z" class="H"/><path d="M2083 280l1 1-1-1m-813 1l1 1-1-1m397 0l1 1-1-1z" class="G"/><path d="M1888 281l1 1-1-1m-620 1l1 1-1-1z" class="H"/><path d="M1669 282l1 1-1-1m220 0l1 1-1-1m195 0l1 1-1-1z" class="G"/><path d="M1267 283l1 1-1-1m404 0l1 1-1-1z" class="H"/><path d="M1890 283l1 1-1-1z" class="G"/><path d="M1266 284l1 1-1-1z" class="H"/><path d="M1672 284l1 1-1-1m-407 1l1 1-1-1m409 0l1 1-1-1z" class="G"/><path d="M1891 285l1 1-1-1z" class="H"/><path d="M2086 285l1 1-1-1m-822 1l1 1-1-1m411 0l1 1-1-1z" class="G"/><path d="M1676 286l1 1-1-1m216 0l1 1-1-1z" class="H"/><path d="M1263 287l1 1-1-1m414 0l1 1-1-1m216 0l1 1-1-1m194 0l1 1-1-1z" class="G"/><path d="M1261 288l1 1-1-1m418 0l1 1-1-1m-419 1l1 1-1-1z" class="H"/><path d="M1680 289l1 1-1-1z" class="G"/><path d="M1894 289l1 1-1-1m-635 1l1 1-1-1m423 0l1 1-1-1m213 0l1 1-1-1z" class="H"/><path d="M2089 290l1 1-1-1z" class="G"/><path d="M1258 291l1 1-1-1z" class="H"/><path d="M1683 291l1 1-1-1m213 0l1 1-1-1z" class="G"/><path d="M1257 292l1 1-1-1m428 0l1 1-1-1z" class="H"/><path d="M1897 292l1 1-1-1m193 0l1 1-1-1z" class="G"/><path d="M1256 293l1 1-1-1z" class="H"/><path d="M1686 293l1 1-1-1z" class="G"/><path d="M1897 293l1 1-1-1m-642 1l1 1-1-1m433 0l1 1-1-1m210 0l1 1-1-1m-644 1l1 1-1-1z" class="H"/><path d="M1689 295l1 1-1-1m210 0l1 1-1-1m193 0l1 1-1-1z" class="G"/><path d="M1253 296l1 1-1-1m438 0l1 1-1-1z" class="H"/><path d="M1900 296l1 1-1-1z" class="G"/><path d="M1252 297l1 1-1-1z" class="H"/><path d="M1692 297l1 1-1-1m401 0l1 1-1-1z" class="G"/><path d="M1251 298l1 1-1-1m443 0l1 1-1-1m207 0l1 1-1-1m-651 1l1 1-1-1z" class="H"/><path d="M1695 299l1 1-1-1m207 0l1 1-1-1z" class="G"/><path d="M1249 300l1 1-1-1z" class="H"/><path d="M1696 300l1 1-1-1z" class="G"/><path d="M1697 300l1 1-1-1z" class="H"/><path d="M1903 300l1 1-1-1m192 0l1 1-1-1z" class="G"/><path d="M1248 301l1 1-1-1m450 0l1 1-1-1m-451 1l1 1-1-1z" class="H"/><path d="M1699 302l1 1-1-1z" class="G"/><path d="M1904 302l1 1-1-1z" class="H"/><path d="M2096 302l1 1-1-1z" class="G"/><path d="M1246 303l1 1-1-1z" class="H"/><path d="M1700 303l1 1-1-1z" class="G"/><path d="M1701 303l1 1-1-1m204 0l1 1-1-1m-203 1l1 1-1-1z" class="H"/><path d="M1906 304l1 1-1-1m-661 1l1 1-1-1m458 0l1 1-1-1m204 0l1 1-1-1m191 0l1 1-1-1m-854 1l1 1-1-1m460 0l1 1-1-1z" class="G"/><path d="M1907 306l1 1-1-1z" class="H"/><path d="M1243 307l1 1-1-1z" class="G"/><path d="M1706 307l1 1-1-1m202 0l1 1-1-1z" class="H"/><path d="M2099 307l1 1-1-1m-857 1l1 1-1-1z" class="G"/><path d="M1707 308l1 1-1-1z" class="H"/><path d="M1909 308l1 1-1-1z" class="G"/><path d="M1241 309l1 1-1-1z" class="H"/><path d="M1708 309l1 1-1-1m202 0l1 1-1-1z" class="G"/><path d="M1240 310l1 1-1-1z" class="H"/><path d="M1709 310l1 1-1-1m392 0l1 1-1-1m-391 1l1 1-1-1z" class="G"/><path d="M1911 311l1 1-1-1z" class="H"/><path d="M1239 312l1 1-1-1z" class="G"/><path d="M1712 312l1 1-1-1z" class="H"/><path d="M1912 312l1 1-1-1m190 0l1 1-1-1m-864 1l1 1-1-1z" class="G"/><path d="M1713 313l1 1-1-1z" class="H"/><path d="M1913 313l1 1-1-1m-676 1l1 1-1-1z" class="G"/><path d="M1714 314l1 1-1-1m-478 1l1 1-1-1m479 0l1 1-1-1m199 0l1 1-1-1z" class="H"/><path d="M2104 315l1 1-1-1z" class="G"/><path d="M1235 316l1 1-1-1m481 0l1 1-1-1m199 0l1 1-1-1z" class="H"/><path d="M1235 317l1 1-1-1m482 0l1 1-1-1m199 0l1 1-1-1m189 0l1 1-1-1m-871 1l1 1-1-1m484 0l1 1-1-1z" class="G"/><path d="M1233 319l1 1-1-1z" class="H"/><path d="M1719 319l1 1-1-1z" class="G"/><path d="M1917 319l1 1-1-1m-685 1l1 1-1-1z" class="H"/><path d="M1720 320l1 1-1-1z" class="G"/><path d="M1918 320l1 1-1-1z" class="H"/><path d="M2107 320l1 1-1-1m-875 1l1 1-1-1m489 0l1 1-1-1m198 0l1 1-1-1m-688 1l1 1-1-1m491 0l1 1-1-1m198 0l1 1-1-1m188 0l1 1-1-1z" class="G"/><path d="M1230 323l1 1-1-1z" class="H"/><path d="M1723 323l1 1-1-1z" class="G"/><path d="M1229 324l1 1-1-1z" class="H"/><path d="M1724 324l1 1-1-1z" class="G"/><path d="M1921 324l1 1-1-1z" class="H"/><path d="M1229 325l1 1-1-1m496 0l1 1-1-1m197 0l1 1-1-1m188 0l1 1-1-1m-882 1l1 1-1-1m498 0l1 1-1-1m197 0l1 1-1-1z" class="G"/><path d="M1227 327l1 1-1-1z" class="H"/><path d="M1727 327l1 1-1-1m384 0l1 1-1-1m-383 1l1 1-1-1z" class="G"/><path d="M1924 328l1 1-1-1z" class="H"/><path d="M1226 329l1 1-1-1z" class="G"/><path d="M1729 329l1 1-1-1m196 0l1 1-1-1m-700 1l1 1-1-1m505 0l1 1-1-1z" class="H"/><path d="M1926 330l1 1-1-1m187 0l1 1-1-1z" class="G"/><path d="M1731 331l1 1-1-1z" class="H"/><path d="M1927 331l1 1-1-1m-703 1l1 1-1-1z" class="G"/><path d="M1732 332l1 1-1-1m195 0l1 1-1-1z" class="H"/><path d="M2114 332l1 1-1-1z" class="G"/><path d="M1223 333l1 1-1-1m705 0l1 1-1-1z" class="H"/><path d="M1733 334l1 1-1-1m196 0l1 1-1-1m-707 1l1 1-1-1m512 0l1 1-1-1m196 0l1 1-1-1m186 0l1 1-1-1z" class="G"/><path d="M1221 336l1 1-1-1z" class="H"/><path d="M1735 336l1 1-1-1z" class="G"/><path d="M1930 336l1 1-1-1z" class="H"/><path d="M1221 337l1 1-1-1z" class="G"/><path d="M1736 337l1 1-1-1m195 0l1 1-1-1z" class="H"/><path d="M2117 337l1 1-1-1z" class="G"/><path d="M1220 338l1 1-1-1m517 0l1 1-1-1z" class="H"/><path d="M1932 338l1 1-1-1m1 1l1 1-1-1m-714 1l1 1-1-1m519 0l1 1-1-1m381 0l1 1-1-1z" class="G"/><path d="M1218 341l1 1-1-1z" class="H"/><path d="M1739 341l1 1-1-1z" class="G"/><path d="M1934 341l1 1-1-1z" class="H"/><path d="M1218 342l1 1-1-1m522 0l1 1-1-1z" class="G"/><path d="M1935 342l1 1-1-1z" class="H"/><path d="M2120 342l1 1-1-1m-903 1l1 1-1-1z" class="G"/><path d="M1741 343l1 1-1-1z" class="H"/><path d="M1936 343l1 1-1-1m-720 2l1 1-1-1m526 0l1 1-1-1z" class="G"/><path d="M1937 345l1 1-1-1z" class="H"/><path d="M2122 345l1 1-1-1z" class="G"/><path d="M1215 346l1 1-1-1z" class="H"/><path d="M1743 346l1 1-1-1z" class="G"/><path d="M1938 346l1 1-1-1z" class="H"/><path d="M1215 347l1 1-1-1z" class="G"/><path d="M1744 347l1 1-1-1z" class="H"/><path d="M1939 347l1 1-1-1m184 0l1 1-1-1z" class="G"/><path d="M1214 348l1 1-1-1z" class="H"/><path d="M1940 348l1 1-1-1m-726 1l1 1-1-1m531 0l1 1-1-1z" class="G"/><path d="M1940 349l1 1-1-1m-727 1l1 1-1-1z" class="H"/><path d="M1746 350l1 1-1-1z" class="G"/><path d="M1941 350l1 1-1-1z" class="H"/><path d="M2125 350l1 1-1-1z" class="G"/><path d="M1747 351l1 1-1-1z" class="H"/><path d="M1942 351l1 1-1-1m-730 1l1 1-1-1m731 0l1 1-1-1m183 0l1 1-1-1m-378 1l1 1-1-1m-537 1l1 1-1-1z" class="G"/><path d="M1749 354l1 1-1-1m195 0l1 1-1-1z" class="H"/><path d="M1945 355l1 1-1-1m183 0l1 1-1-1m-918 1l1 1-1-1m540 0l1 1-1-1m196 0l1 1-1-1z" class="G"/><path d="M1751 357l1 1-1-1z" class="H"/><path d="M2129 357l1 1-1-1m-920 1l1 1-1-1z" class="G"/><path d="M1947 358l1 1-1-1z" class="H"/><path d="M1752 359l1 1-1-1z" class="G"/><path d="M1948 359l1 1-1-1z" class="H"/><path d="M1208 360l1 1-1-1z" class="G"/><path d="M1753 360l1 1-1-1z" class="H"/><path d="M1949 360l1 1-1-1m1 1l1 1-1-1m-743 1l1 1-1-1m547 0l1 1-1-1z" class="G"/><path d="M1950 362l1 1-1-1z" class="H"/><path d="M2132 362l1 1-1-1z" class="G"/><path d="M1755 363l1 1-1-1m196 0l1 1-1-1m-745 1l1 1-1-1z" class="H"/><path d="M1755 364l1 1-1-1m197 0l1 1-1-1m181 0l1 1-1-1m-927 1l1 1-1-1z" class="G"/><path d="M1756 365l1 1-1-1z" class="H"/><path d="M1953 365l1 1-1-1z" class="G"/><path d="M1205 366l1 1-1-1z" class="H"/><path d="M1205 367l1 1-1-1m552 0l1 1-1-1z" class="G"/><path d="M1954 367l1 1-1-1z" class="H"/><path d="M2135 367l1 1-1-1z" class="G"/><path d="M1204 368l1 1-1-1m554 0l1 1-1-1z" class="H"/><path d="M1955 368l1 1-1-1m-751 1l1 1-1-1m554 0l1 1-1-1m198 0l1 1-1-1m180 0l1 1-1-1z" class="G"/><path d="M1759 370l1 1-1-1z" class="H"/><path d="M1203 371l1 1-1-1z" class="G"/><path d="M1957 371l1 1-1-1z" class="H"/><path d="M1760 372l1 1-1-1z" class="G"/><path d="M1958 372l1 1-1-1z" class="H"/><path d="M2138 372l1 1-1-1z" class="G"/><path d="M1202 373l1 1-1-1m559 0l1 1-1-1z" class="H"/><path d="M1959 373l1 1-1-1m-757 1l1 1-1-1m559 0l1 1-1-1m199 0l1 1-1-1m179 0l1 1-1-1z" class="G"/><path d="M1201 375l1 1-1-1m561 0l1 1-1-1m198 0l1 1-1-1z" class="H"/><path d="M1201 376l1 1-1-1m561 0l1 1-1-1z" class="G"/><path d="M1961 376l1 1-1-1m-198 1l1 1-1-1z" class="H"/><path d="M1962 377l1 1-1-1m179 0l1 1-1-1z" class="G"/><path d="M1200 378l1 1-1-1z" class="H"/><path d="M1963 378l1 1-1-1m-763 1l1 1-1-1z" class="G"/><path d="M1764 379l1 1-1-1z" class="H"/><path d="M2142 379l1 1-1-1z" class="G"/><path d="M1199 380l1 1-1-1m765 0l1 1-1-1z" class="H"/><path d="M1199 381l1 1-1-1m566 0l1 1-1-1m200 0l1 1-1-1m1 1l1 1-1-1m178 0l1 1-1-1z" class="G"/><path d="M1198 383l1 1-1-1z" class="H"/><path d="M1766 383l1 1-1-1m-568 1l1 1-1-1z" class="G"/><path d="M1967 384l1 1-1-1z" class="H"/><path d="M2145 384l1 1-1-1m-378 1l1 1-1-1z" class="G"/><path d="M1968 385l1 1-1-1m-771 1l1 1-1-1z" class="H"/><path d="M1969 386l1 1-1-1m-772 1l1 1-1-1z" class="G"/><path d="M1768 387l1 1-1-1z" class="H"/><path d="M1970 387l1 1-1-1m177 0l1 1-1-1z" class="G"/><path d="M1970 388l1 1-1-1z" class="H"/><use xlink:href="#A" x="-1588" y="195" class="G"/><path d="M1769 389l1 1-1-1m202 0l1 1-1-1z" class="H"/><path d="M2148 389l1 1-1-1m-176 1l1 1-1-1z" class="G"/><path d="M1195 391l1 1-1-1m575 0l1 1-1-1z" class="H"/><path d="M1973 391l1 1-1-1m-778 1l1 1-1-1m575 0l1 1-1-1z" class="G"/><path d="M1973 392l1 1-1-1z" class="H"/><path d="M2150 392l1 1-1-1z" class="G"/><path d="M1771 393l1 1-1-1m203 0l1 1-1-1m-780 1l1 1-1-1z" class="H"/><path d="M1771 394l1 1-1-1m204 0l1 1-1-1m176 0l1 1-1-1m-956.67 1.667l.34.666-.34-.666z" class="G"/><path d="M1772 395l1 1-1-1z" class="H"/><path d="M1976 395l1 1-1-1m-204 1l1 1-1-1z" class="G"/><path d="M1977 397l1 1-1-1z" class="H"/><path d="M2153 397l1 1-1-1z" class="G"/><path d="M1193 398l1 1-1-1z" class="H"/><path d="M1773 398l1 1-1-1z" class="G"/><path d="M1978 398l1 1-1-1z" class="H"/><path d="M1193 399l1 1-1-1m786 0l1 1-1-1m175 0l1 1-1-1z" class="G"/><path d="M1774 400l1 1-1-1m-582 1l1 1-1-1z" class="H"/><path d="M1774 401l1 1-1-1z" class="G"/><path d="M1980 401l1 1-1-1z" class="H"/><path d="M1192 402l1 1-1-1z" class="G"/><path d="M1775 402l1 1-1-1m206 0l1 1-1-1z" class="H"/><path d="M2156 402l1 1-1-1m-381 1l1 1-1-1m207 0l1 1-1-1z" class="G"/><path d="M1191 404l1 1-1-1z" class="H"/><path d="M1983 404l1 1-1-1m174 0l1 1-1-1m-965.67 1.667l.34.666-.34-.666z" class="G"/><path d="M1776 405l1 1-1-1m207 0l1 1-1-1z" class="H"/><path d="M1776 406l1 1-1-1z" class="G"/><path d="M1984 406l1 1-1-1m-207 1l1 1-1-1z" class="H"/><path d="M1985 407l1 1-1-1m174 0l1 1-1-1z" class="G"/><path d="M1190 408l1 1-1-1z" class="H"/><path d="M1777 408l1 1-1-1m209 0l1 1-1-1m-796 1l1 1-1-1m970 0l1 1-1-1z" class="G"/><path d="M1778 410l1 1-1-1m209 0l1 1-1-1m-797.67 1.667l.34.666-.34-.666z" class="H"/><path d="M1778 411l1 1-1-1m210 0l1 1-1-1z" class="G"/><path d="M1779 412l1 1-1-1z" class="H"/><path d="M1989 412l1 1-1-1m173 0l1 1-1-1m-973 1l1 1-1-1m590 0l1 1-1-1z" class="G"/><path d="M1990 414l1 1-1-1z" class="H"/><path d="M2163 414l1 1-1-1z" class="G"/><path d="M1188 415l1 1-1-1m592 0l1 1-1-1m211 0l1 1-1-1z" class="H"/><path d="M1188.33 416.667l.34.666-.34-.666M1780 416l1 1-1-1m212 0l1 1-1-1m1 1l1 1-1-1m172 0l1 1-1-1z" class="G"/><path d="M1781 418l1 1-1-1m212 0l1 1-1-1m-805.67 1.667l.34.666-.34-.666z" class="H"/><path d="M1781 419l1 1-1-1z" class="G"/><path d="M1994 419l1 1-1-1z" class="H"/><path d="M2166 419l1 1-1-1m-171 1l1 1-1-1m-807.67 1.667l.34.666-.34-.666z" class="G"/><path d="M1782 421l1 1-1-1z" class="H"/><path d="M1996 421l1 1-1-1m-214 1l1 1-1-1m386 0l1 1-1-1z" class="G"/><path d="M1997 423l1 1-1-1m-811 1l1 1-1-1m597 0l1 1-1-1z" class="H"/><path d="M1998 424l1 1-1-1m171 0l1 1-1-1m-982.67 1.667l.34.666-.34-.666M1783 425l1 1-1-1m216 0l1 1-1-1z" class="G"/><path d="M1784 427l1 1-1-1m216 0l1 1-1-1z" class="H"/><path d="M2171 427l1 1-1-1z" class="G"/><use xlink:href="#A" x="-1599" y="234" class="H"/><path d="M1784 428l1 1-1-1z" class="G"/><path d="M2001 428l1 1-1-1z" class="H"/><path d="M2002 429l1 1-1-1m170 0l1 1-1-1m-986.67 1.667l.34.666-.34-.666z" class="G"/><path d="M1785 430l1 1-1-1z" class="H"/><path d="M2003 430l1 1-1-1m-217.67 1.667l.34.666-.34-.666z" class="G"/><path d="M2003 431l1 1-1-1m1 1l1 1-1-1z" class="H"/><path d="M2174 432l1 1-1-1z" class="G"/><path d="M1786 433l1 1-1-1z" class="H"/><path d="M2005 433l1 1-1-1z" class="G"/><path d="M1184 434l1 1-1-1z" class="H"/><path d="M1786.33 434.667l.34.666-.34-.666M2006 434l1 1-1-1m169 0l1 1-1-1m-990.67 1.667l.34.666-.34-.666z" class="G"/><path d="M2007 436l1 1-1-1m-220 1l1 1-1-1z" class="H"/><path d="M2008 437l1 1-1-1m169 0l1 1-1-1m-389.67 1.667l.34.666-.34-.666M2009 438l1 1-1-1z" class="G"/><use xlink:href="#A" x="-1601" y="245" class="H"/><path d="M2178 439l1 1-1-1z" class="G"/><path d="M2010 440l1 1-1-1z" class="H"/><use xlink:href="#A" x="-1601" y="247" class="G"/><path d="M1788 441l1 1-1-1m223 0l1 1-1-1z" class="H"/><path d="M1788 442l1 1-1-1m224 0l1 1-1-1m168 0l1 1-1-1m-167 1l1 1-1-1z" class="G"/><path d="M1789 444l1 1-1-1m224 0l1 1-1-1z" class="H"/><path d="M2181 444l1 1-1-1z" class="G"/><use xlink:href="#A" x="-1602" y="251" class="H"/><use xlink:href="#A" x="-995" y="251" class="G"/><path d="M2014 445l1 1-1-1z" class="H"/><path d="M2015 446l1 1-1-1m-833 1v3h1l-1-3m834 0l1 1-1-1m167 0l1 1-1-1z" class="G"/><path d="M1790 448l1 1-1-1m226 0l1 1-1-1z" class="H"/><use xlink:href="#A" x="-994" y="255" class="G"/><path d="M2017 449l1 1-1-1z" class="H"/><path d="M2184 449l1 1-1-1m-166 1l1 1-1-1m1 1l1 1-1-1z" class="G"/><path d="M1181.33 452.667l.34.666-.34-.666m610 0l.34.666-.34-.666z" class="H"/><path d="M2186 452l1 1-1-1z" class="G"/><path d="M2020 453l1 1-1-1z" class="H"/><path d="M1181 454v4h1l-1-4m610 0l1 1-1-1z" class="G"/><path d="M2021 454l1 1-1-1z" class="H"/><path d="M2187 454l1 1-1-1m-165 1l1 1-1-1z" class="G"/><path d="M1792 457l1 1-1-1m231 0l1 1-1-1z" class="H"/><path d="M2189 457l1 1-1-1m-396.67 1.667l.34.666-.34-.666z" class="G"/><path d="M2024 458l1 1-1-1z" class="H"/><path d="M2025 459l1 1-1-1m165 0l1 1-1-1z" class="G"/><path d="M1180 460v3h1l-1-3z" class="H"/><path d="M2026 460l1 1-1-1z" class="G"/><path d="M1793.33 461.667l.34.666-.34-.666M2026 461l1 1-1-1m1 1l1 1-1-1z" class="H"/><path d="M2192 462l1 1-1-1m-1012 1v4h1l-1-4m613.33.667l.34.666-.34-.666M2028 463l1 1-1-1m1 1l1 1-1-1m164 0l1 1-1-1z" class="G"/><path d="M1794 466l1 1-1-1m236 0l1 1-1-1z" class="H"/><path d="M1794 467v3h1l-1-3m237 0l1 1-1-1m164 0l1 1-1-1m-163 1l1 1-1-1m164 1l1 1-1-1z" class="G"/><path d="M1179 470v4h1l-1-4m854 0l1 1-1-1m-237.67 1.667l.34.666-.34-.666M2034 471l1 1-1-1z" class="H"/><path d="M2035 472l1 1-1-1m163 0l1 1-1-1m-402.67 1.667l.34.666-.34-.666M2036 473l1 1-1-1m-857 1v5h1l-1-5z" class="G"/><path d="M2036 474l1 1-1-1z" class="H"/><path d="M2199 474l1 1-1-1z" class="G"/><path d="M2037 475l1 1-1-1z" class="H"/><path d="M2038 476l1 1-1-1z" class="G"/><use xlink:href="#A" x="-988" y="283" class="H"/><path d="M2039 477l1 1-1-1m162 0l1 1-1-1m-404.67 2.667l.34.666-.34-.666z" class="G"/><path d="M2040 479l1 1-1-1z" class="H"/><path d="M2202 479l1 1-1-1m-161 1l1 1-1-1m1 1l1 1-1-1m162 1l1 1-1-1z" class="G"/><path d="M1797.33 483.667l.34.666-.34-.666M2043 483l1 1-1-1m1 1l1 1-1-1z" class="H"/><path d="M2205 484l1 1-1-1z" class="G"/><path d="M1178 485v6h1l-1-6z" class="H"/><path d="M1797 485v3h1l-1-3m248 0l1 1-1-1m1 1l1 1-1-1z" class="G"/><path d="M2046 487l1 1-1-1z" class="H"/><path d="M2207 487l1 1-1-1z" class="G"/><path d="M2047 488l1 1-1-1z" class="H"/><path d="M2048 489l1 1-1-1m160 0l1 1-1-1z" class="G"/><use xlink:href="#A" x="-986" y="296" class="H"/><path d="M2049 490l1 1-1-1m-871 1v6h1l-1-6m620 1v3h1l-1-3z" class="G"/><path d="M2050 492l1 1-1-1z" class="H"/><path d="M2051 493l1 1-1-1m1 1l1 1-1-1m159 0l1 1-1-1z" class="G"/><path d="M2053 496l1 1-1-1z" class="H"/><path d="M2212 496l1 1-1-1z" class="G"/><path d="M1176 497l1 1-1-1m878 0l1 1-1-1z" class="H"/><path d="M1175 498l1 1-1-1z" class="G"/><use xlink:href="#A" x="-985" y="304" class="H"/><path d="M2055 498l1 1-1-1z" class="G"/><path d="M1173 499l1 1-1-1z" class="H"/><path d="M2056 499l1 1-1-1m158 0l1 1-1-1m-1042 1l1 1-1-1m627 0v4h1l-1-4z" class="G"/><path d="M2056 500l1 1-1-1m-886 1l1 1-1-1m887 0l1 1-1-1z" class="H"/><path d="M2215 501l1 1-1-1m-1046 1l1 1-1-1m889 0l1 1-1-1m-890 1l1 1-1-1m891 0l1 1-1-1z" class="G"/><path d="M1166 504l1 1-1-1m893 0l1 1-1-1z" class="H"/><path d="M2217 504l1 1-1-1m-1052 1l1 1-1-1z" class="G"/><path d="M2060 505l1 1-1-1m-897 1l1 1-1-1z" class="H"/><path d="M2061 506l1 1-1-1m157 0l1 1-1-1m-1056 1l1 1-1-1z" class="G"/><path d="M1800 507v3h1l-1-3z" class="H"/><path d="M2062 507l1 1-1-1z" class="G"/><path d="M1160 508l1 1-1-1z" class="H"/><path d="M1161 508l1 1-1-1m-2 1l1 1-1-1z" class="G"/><path d="M2063 509l1 1-1-1z" class="H"/><path d="M2220 509l1 1-1-1z" class="G"/><path d="M1157 510l1 1-1-1z" class="H"/><path d="M1158 510l1 1-1-1m642 0v4h1l-1-4z" class="G"/><path d="M2064 510l1 1-1-1m-908 1l1 1-1-1z" class="H"/><path d="M2065 511l1 1-1-1m156 0l1 1-1-1m-1066 1l1 1-1-1z" class="G"/><path d="M1153 513l1 1-1-1m913 0l1 1-1-1z" class="H"/><path d="M1152 514l1 1-1-1z" class="G"/><path d="M2067 514l1 1-1-1z" class="H"/><path d="M2223 514l1 1-1-1z" class="G"/><path d="M1150 515l1 1-1-1z" class="H"/><path d="M2068 515l1 1-1-1m-919 1l1 1-1-1m920 0l1 1-1-1m155 0l1 1-1-1z" class="G"/><path d="M1147 517l1 1-1-1z" class="H"/><path d="M1148 517l1 1-1-1z" class="G"/><path d="M2069 517l1 1-1-1m-923 1l1 1-1-1m655 0v4h1l-1-4m269 0l1 1-1-1z" class="H"/><path d="M1145 519l1 1-1-1m926 0l1 1-1-1m155 0l1 1-1-1z" class="G"/><path d="M1143 520l1 1-1-1z" class="H"/><path d="M2072 520l1 1-1-1m-930 1l1 1-1-1m1085 0l1 1-1-1z" class="G"/><path d="M1140 522l1 1-1-1z" class="H"/><path d="M1801 522v6h1l-1-6z" class="G"/><path d="M2073 522l1 1-1-1z" class="H"/><path d="M1139 523l1 1-1-1m935 0l1 1-1-1z" class="G"/><path d="M1137 524l1 1-1-1z" class="H"/><path d="M1138 524l1 1-1-1m937 0l1 1-1-1m154 0l1 1-1-1z" class="G"/><path d="M1136 525l1 1-1-1z" class="H"/><path d="M1135 526l1 1-1-1z" class="G"/><path d="M2076 526l1 1-1-1z" class="H"/><path d="M2230 526l1 1-1-1z" class="G"/><path d="M1133 527l1 1-1-1m944 0l1 1-1-1z" class="H"/><path d="M1132 528l1 1-1-1m946 0l1 1-1-1z" class="G"/><path d="M1130 529l1 1-1-1z" class="H"/><path d="M2079 529l1 1-1-1m153 0l1 1-1-1m-1103 1l1 1-1-1z" class="G"/><path d="M2079 530l1 1-1-1m-952 1l1 1-1-1z" class="H"/><path d="M1128 531l1 1-1-1z" class="G"/><path d="M2080 531l1 1-1-1z" class="H"/><path d="M2233 531l1 1-1-1z" class="G"/><path d="M1126 532l1 1-1-1z" class="H"/><path d="M2081 532l1 1-1-1m-956 1l1 1-1-1m957 0l1 1-1-1z" class="G"/><path d="M1123 534l1 1-1-1m679 0v7h1l-1-7z" class="H"/><path d="M2235 534l1 1-1-1m-1113 1l1 1-1-1z" class="G"/><path d="M2083 535l1 1-1-1m-963 1l1 1-1-1z" class="H"/><path d="M2084 536l1 1-1-1m152 0l1 1-1-1m-1117 1l1 1-1-1m966 0l1 1-1-1z" class="G"/><path d="M1117 538l1 1-1-1z" class="H"/><path d="M1118 538l1 1-1-1z" class="G"/><path d="M1116 539l1 1-1-1m970 0l1 1-1-1z" class="H"/><path d="M2238 539l1 1-1-1m-1123 1l1 1-1-1z" class="G"/><path d="M2087 540l1 1-1-1m-974 1l1 1-1-1z" class="H"/><path d="M1802 541v41h1c0-11.696 3.51-30.25-1-41m286 0l1 1-1-1m151 0l1 1-1-1m-1127 1l1 1-1-1m977 0l1 1-1-1z" class="G"/><path d="M1110 543l1 1-1-1m979 0l1 1-1-1z" class="H"/><path d="M1109 544l1 1-1-1z" class="G"/><path d="M2090 544l1 1-1-1z" class="H"/><path d="M2241 544l1 1-1-1z" class="G"/><path d="M1107 545l1 1-1-1z" class="H"/><path d="M1108 545l1 1-1-1m983 0l1 1-1-1z" class="G"/><path d="M1106 546l1 1-1-1z" class="H"/><path d="M2092 546l1 1-1-1m150 0l1 1-1-1m-1137 1l1 1-1-1z" class="G"/><path d="M1103 548l1 1-1-1m990 0l1 1-1-1z" class="H"/><path d="M1102 549l1 1-1-1m992 0l1 1-1-1m150 0l1 1-1-1z" class="G"/><path d="M1100 550l1 1-1-1z" class="H"/><path d="M2095 550l1 1-1-1m-996 1l1 1-1-1m1146 0l1 1-1-1z" class="G"/><path d="M1097 552l1 1-1-1z" class="H"/><path d="M1098 552l1 1-1-1z" class="G"/><path d="M2096 552l1 1-1-1m-1000 1l1 1-1-1m1001 0l1 1-1-1z" class="H"/><path d="M1095 554l1 1-1-1m1003 0l1 1-1-1m149 0l1 1-1-1z" class="G"/><path d="M1093 555l1 1-1-1z" class="H"/><path d="M2099 555l1 1-1-1m-1007 1l1 1-1-1z" class="G"/><path d="M2099 556l1 1-1-1z" class="H"/><path d="M2248 556l1 1-1-1z" class="G"/><path d="M1090 557l1 1-1-1m1010 0l1 1-1-1z" class="H"/><path d="M1089 558l1 1-1-1m1012 0l1 1-1-1z" class="G"/><path d="M1087 559l1 1-1-1z" class="H"/><path d="M1088 559l1 1-1-1m1014 0l1 1-1-1m148 0l1 1-1-1z" class="G"/><path d="M1086 560l1 1-1-1m1016 0l1 1-1-1z" class="H"/><path d="M1085 561l1 1-1-1z" class="G"/><path d="M2103 561l1 1-1-1z" class="H"/><path d="M2251 561l1 1-1-1z" class="G"/><path d="M1083 562l1 1-1-1z" class="H"/><path d="M2104 562l1 1-1-1m-1022 1l1 1-1-1m1023 0l1 1-1-1z" class="G"/><path d="M1080 564l1 1-1-1z" class="H"/><path d="M2253 564l1 1-1-1m-1174 1l1 1-1-1z" class="G"/><path d="M2106 565l1 1-1-1m-1029 1l1 1-1-1z" class="H"/><path d="M1078 566l1 1-1-1z" class="G"/><path d="M2107 566l1 1-1-1z" class="H"/><path d="M2254 566l1 1-1-1m-1178 1l1 1-1-1m1032 0l1 1-1-1m-1033 1l1 1-1-1z" class="G"/><path d="M1073 569l1 1-1-1m1036 0l1 1-1-1z" class="H"/><path d="M2256 569l1 1-1-1m-1184 1l1 1-1-1z" class="G"/><path d="M2110 570l1 1-1-1m-1040 1l1 1-1-1z" class="H"/><path d="M2111 571l1 1-1-1m146 0l1 1-1-1m-1188 1l1 1-1-1m1043 0l1 1-1-1z" class="G"/><path d="M1067 573l1 1-1-1z" class="H"/><path d="M1068 573l1 1-1-1z" class="G"/><path d="M2112 573l1 1-1-1z" class="H"/><path d="M1066 574l1 1-1-1z" class="G"/><path d="M2113 574l1 1-1-1z" class="H"/><path d="M2259 574l1 1-1-1m-1194 1l1 1-1-1m1049 0l1 1-1-1z" class="G"/><path d="M1063 576l1 1-1-1z" class="H"/><path d="M2115 576l1 1-1-1m145 0l1 1-1-1m-1198 1l1 1-1-1z" class="G"/><path d="M1060 578l1 1-1-1m1056 0l1 1-1-1z" class="H"/><path d="M1059 579l1 1-1-1m1058 0l1 1-1-1m145 0l1 1-1-1z" class="G"/><path d="M1057 580l1 1-1-1z" class="H"/><path d="M1058 580l1 1-1-1m1060 0l1 1-1-1m-1062 1l1 1-1-1m1207 0l1 1-1-1z" class="G"/><path d="M1054 582l1 1-1-1z" class="H"/><path d="M1055 582l1 1-1-1z" class="G"/><path d="M1802 582v8h1l-1-8m317 0l1 1-1-1m-1066 1l1 1-1-1m1067 0l1 1-1-1z" class="H"/><path d="M1052 584l1 1-1-1m1069 0l1 1-1-1m144 0l1 1-1-1z" class="G"/><path d="M1050 585l1 1-1-1z" class="H"/><path d="M2122 585l1 1-1-1m-1073 1l1 1-1-1z" class="G"/><path d="M2122 586l1 1-1-1z" class="H"/><path d="M2266 586l1 1-1-1z" class="G"/><path d="M1047 587l1 1-1-1m1076 0l1 1-1-1z" class="H"/><path d="M1046 588l1 1-1-1m1078 0l1 1-1-1z" class="G"/><path d="M1044 589l1 1-1-1z" class="H"/><path d="M1045 589l1 1-1-1m1080 0l1 1-1-1m143 0l1 1-1-1z" class="G"/><path d="M1043 590l1 1-1-1z" class="H"/><path d="M1042 591l1 1-1-1z" class="G"/><path d="M2126 591l1 1-1-1z" class="H"/><path d="M2269 591l1 1-1-1z" class="G"/><path d="M1040 592l1 1-1-1z" class="H"/><path d="M2127 592l1 1-1-1m-1088 1l1 1-1-1m1089 0l1 1-1-1z" class="G"/><path d="M1037 594l1 1-1-1z" class="H"/><path d="M2271 594l1 1-1-1m-1235 1l1 1-1-1z" class="G"/><path d="M2129 595l1 1-1-1m-1095 1l1 1-1-1z" class="H"/><path d="M1035 596l1 1-1-1m766 0v6h1l-1-6z" class="G"/><path d="M2130 596l1 1-1-1z" class="H"/><path d="M2272 596l1 1-1-1z" class="G"/><path d="M1033 597l1 1-1-1z" class="H"/><path d="M2131 597l1 1-1-1m-1099 1l1 1-1-1m1100 0l1 1-1-1z" class="G"/><path d="M1030 599l1 1-1-1m1102 0l1 1-1-1z" class="H"/><path d="M2274 599l1 1-1-1m-1245 1l1 1-1-1z" class="G"/><path d="M2133 600l1 1-1-1m-1106 1l1 1-1-1z" class="H"/><path d="M2134 601l1 1-1-1m141 0l1 1-1-1m-1249 1l1 1-1-1z" class="G"/><path d="M1801 602v4h1l-1-4z" class="H"/><path d="M2135 602l1 1-1-1z" class="G"/><path d="M1024 603l1 1-1-1z" class="H"/><path d="M1025 603l1 1-1-1z" class="G"/><path d="M1023 604l1 1-1-1m1113 0l1 1-1-1z" class="H"/><path d="M2277 604l1 1-1-1m-1255 1l1 1-1-1m1115 0l1 1-1-1z" class="G"/><path d="M1020 606l1 1-1-1z" class="H"/><path d="M2138 606l1 1-1-1m140 0l1 1-1-1m-1259 1l1 1-1-1z" class="G"/><path d="M1017 608l1 1-1-1m1122 0l1 1-1-1z" class="H"/><path d="M1016 609l1 1-1-1z" class="G"/><path d="M2140 609l1 1-1-1z" class="H"/><path d="M2280 609l1 1-1-1z" class="G"/><path d="M1014 610l1 1-1-1z" class="H"/><path d="M1015 610l1 1-1-1m1126 0l1 1-1-1z" class="G"/><path d="M1013 611c2.85 3.259 8.93 2 13 2h34 112c10.35 0 33.71-4.28 42 2h1c-2.85-4.402-9.26-3-14-3h-37-100c-16.17 0-35.25 2.75-51-1z" class="H"/><path d="M1800 611v6h1l-1-6m342 0l1 1-1-1m139 0l1 1-1-1m-1067 1l1 1-1-1z" class="G"/><path d="M2142 612l1 1-1-1m1 1l1 1-1-1z" class="H"/><path d="M2144 614l1 1-1-1m139 0l1 1-1-1m-138 1l1 1-1-1m-929.67 1.667l.34.666-.34-.666z" class="G"/><path d="M2145 616l1 1-1-1z" class="H"/><path d="M2284 616l1 1-1-1z" class="G"/><path d="M1800 617l1 1-1-1m346 0l1 1-1-1m-931 1l1 1-1-1z" class="H"/><path d="M1799 618l1 1-1-1m348 0l1 1-1-1m-349 1l1 1-1-1m350 0l1 1-1-1m138 0l1 1-1-1m-1069.67 1.667l.34.666-.34-.666z" class="G"/><use xlink:href="#B" x="283" y="397" class="H"/><path d="M1776 620v1h4l-4-1m18.67.333l.66.334-.66-.334z" class="G"/><path d="M1796 620l1 1-1-1m353 1l1 1-1-1z" class="H"/><path d="M2287 621l1 1-1-1z" class="G"/><path d="M1216 622l1 1-1-1z" class="H"/><path d="M1770 622v3h1l-1-3z" class="G"/><path d="M2150 622l1 1-1-1z" class="H"/><path d="M2151 623l1 1-1-1m-933.67 1.667l.34.666-.34-.666z" class="G"/><path d="M1770.33 625.667l.34.666-.34-.666M2152 625l1 1-1-1m-935 1l1 1-1-1m936 0l1 1-1-1z" class="H"/><path d="M2290 626l1 1-1-1m-136 1l1 1-1-1m1 1l1 1-1-1m136 0l1 1-1-1m-1072.67 1.667l.34.666-.34-.666M1769 629v4h1l-1-4z" class="G"/><path d="M2155 629l1 1-1-1m1 1l1 1-1-1m-938 1l1 1-1-1z" class="H"/><path d="M2157 631l1 1-1-1m136 0l1 1-1-1m-135 1l1 1-1-1m-938.67 1.667l.34.666-.34-.666z" class="G"/><path d="M1769 633v3h1l-1-3z" class="H"/><path d="M2294 633l1 1-1-1z" class="G"/><path d="M2159 634l1 1-1-1m-940 1l1 1-1-1z" class="H"/><path d="M2160 635l1 1-1-1m1 1l1 1-1-1m135 0l1 1-1-1m-1075.67 1.667l.34.666-.34-.666z" class="G"/><path d="M2162 638l1 1-1-1z" class="H"/><path d="M2297 638l1 1-1-1z" class="G"/><path d="M1220 639l1 1-1-1z" class="H"/><path d="M1768 639v5h1l-1-5z" class="G"/><path d="M2163 639l1 1-1-1z" class="H"/><path d="M2164 640l1 1-1-1m1 1l1 1-1-1m134 0l1 1-1-1m-1078 1v3h1l-1-3z" class="G"/><path d="M2165 642l1 1-1-1m1 1l1 1-1-1z" class="H"/><path d="M2300 643l1 1-1-1z" class="G"/><path d="M1768 644v4h1l-1-4z" class="H"/><path d="M2167 644l1 1-1-1m1 1l1 1-1-1m-948 1l1 1-1-1m1082 0l1 1-1-1z" class="G"/><path d="M2169 647l1 1-1-1m-950 1l1 1-1-1z" class="H"/><path d="M2170 648l1 1-1-1m133 0l1 1-1-1m-132 1l1 1-1-1z" class="G"/><path d="M1218 650l1 1-1-1z" class="H"/><path d="M1218 651l1 1-1-1z" class="G"/><path d="M2172 651l1 1-1-1z" class="H"/><path d="M2305 651l1 1-1-1z" class="G"/><path d="M1217 652l1 1-1-1m956 0l1 1-1-1z" class="H"/><path d="M1217 653l1 1-1-1m957 0l1 1-1-1m132 0l1 1-1-1z" class="G"/><path d="M1216 654l1 1-1-1z" class="H"/><path d="M1767 654v20h1l-1-20m408 0l1 1-1-1m-959 1l1 1-1-1z" class="G"/><path d="M2175 655l1 1-1-1m-960 1l1 1-1-1m961 0l1 1-1-1z" class="H"/><path d="M2308 656l1 1-1-1m-1093 1l1 1-1-1m962 0l1 1-1-1m1 1l1 1-1-1m131 0l1 1-1-1m-1095 1l1 1-1-1z" class="G"/><path d="M2179 660l1 1-1-1z" class="H"/><path d="M1213 661l1 1-1-1m967 0l1 1-1-1m131 0l1 1-1-1m-130 1l1 1-1-1m-969 1l1 1-1-1m1100 0l1 1-1-1z" class="G"/><path d="M2182 664l1 1-1-1m-971 1l1 1-1-1m972 0l1 1-1-1z" class="H"/><path d="M1211 666l1 1-1-1m973 0l1 1-1-1m130 0l1 1-1-1z" class="G"/><path d="M1210 667l1 1-1-1z" class="H"/><path d="M2185 667l1 1-1-1m-975 1l1 1-1-1z" class="G"/><path d="M2185 668l1 1-1-1z" class="H"/><path d="M2315 668l1 1-1-1z" class="G"/><path d="M1209 669l1 1-1-1m977 0l1 1-1-1z" class="H"/><path d="M1209 670l1 1-1-1m978 0l1 1-1-1z" class="G"/><path d="M1208 671l1 1-1-1z" class="H"/><path d="M2188 671l1 1-1-1m129 0l1 1-1-1m-1109 1l1 1-1-1z" class="G"/><path d="M1207 673l1 1-1-1m982 0l1 1-1-1z" class="H"/><path d="M2318 673l1 1-1-1m-1111 1l1 1-1-1m983 0l1 1-1-1m1 1l1 1-1-1m-985 1l1 1-1-1m1114 0l1 1-1-1z" class="G"/><path d="M2192 677l1 1-1-1z" class="H"/><path d="M1205 678l1 1-1-1z" class="G"/><path d="M2193 678l1 1-1-1z" class="H"/><path d="M2321 678l1 1-1-1m-127 1l1 1-1-1z" class="G"/><path d="M1204 680l1 1-1-1m564 0v3h1l-1-3m427 1l1 1-1-1z" class="H"/><path d="M2323 681l1 1-1-1z" class="G"/><path d="M1203 682l1 1-1-1m993 0l1 1-1-1z" class="H"/><path d="M1203 683l1 1-1-1m565 0v4h1l-1-4m429 0l1 1-1-1m127 0l1 1-1-1z" class="G"/><path d="M1202 684l1 1-1-1z" class="H"/><path d="M2198 684l1 1-1-1m-996 1l1 1-1-1z" class="G"/><path d="M2198 685l1 1-1-1m-997 1l1 1-1-1m998 0l1 1-1-1z" class="H"/><path d="M2326 686l1 1-1-1m-1125 1l1 1-1-1m999 0l1 1-1-1z" class="G"/><path d="M1200 688l1 1-1-1z" class="H"/><path d="M2201 688l1 1-1-1m126 0l1 1-1-1m-1127 1l1 1-1-1z" class="G"/><path d="M1769.33 689.667l.34.666-.34-.666M2202 690l1 1-1-1z" class="H"/><path d="M1199 691l1 1-1-1m570 0v3h1l-1-3m434 0l1 1-1-1m126 0l1 1-1-1m-125 1l1 1-1-1m-1006 1l1 1-1-1m1132 0l1 1-1-1z" class="G"/><path d="M2205 694l1 1-1-1z" class="H"/><path d="M1197 695l1 1-1-1z" class="G"/><path d="M2206 695l1 1-1-1m-436 1l1 1-1-1z" class="H"/><path d="M2207 696l1 1-1-1m125 0l1 1-1-1z" class="G"/><path d="M1196 697l1 1-1-1z" class="H"/><path d="M1770.33 697.667l.34.666-.34-.666M2208 697l1 1-1-1m-1012 1l1 1-1-1z" class="G"/><path d="M2208 698l1 1-1-1z" class="H"/><path d="M2333 698l1 1-1-1z" class="G"/><path d="M1195 699l1 1-1-1m1014 0l1 1-1-1z" class="H"/><path d="M1195 700l1 1-1-1z" class="G"/><path d="M1771 700l1 1-1-1z" class="H"/><path d="M2210 700l1 1-1-1z" class="G"/><path d="M1194 701l1 1-1-1z" class="H"/><path d="M1771.33 701.667l.34.666-.34-.666M2211 701l1 1-1-1m124 0l1 1-1-1m-1141 1l1 1-1-1z" class="G"/><path d="M1193 703l1 1-1-1m1019 0l1 1-1-1z" class="H"/><path d="M2336 703l1 1-1-1m-1143 1l1 1-1-1z" class="G"/><path d="M1772 704l1 1-1-1z" class="H"/><path d="M2213 704l1 1-1-1z" class="G"/><path d="M1192 705l1 1-1-1z" class="H"/><path d="M1772 705l1 1-1-1m442 0l1 1-1-1m-1022 1l1 1-1-1m1146 0l1 1-1-1z" class="G"/><path d="M1773 707l1 1-1-1m442 0l1 1-1-1z" class="H"/><path d="M1191 708l1 1-1-1m582 0l1 1-1-1z" class="G"/><path d="M2216 708l1 1-1-1z" class="H"/><path d="M2339 708l1 1-1-1m-122 1l1 1-1-1m-1027 1l1 1-1-1z" class="G"/><path d="M1774 710l1 1-1-1z" class="H"/><path d="M2218 710l1 1-1-1m-444 1l1 1-1-1z" class="G"/><path d="M2218 711l1 1-1-1z" class="H"/><path d="M2341 711l1 1-1-1z" class="G"/><path d="M1189 712l1 1-1-1m586 0l1 1-1-1z" class="H"/><path d="M2219 712l1 1-1-1m-444 1l1 1-1-1m567 0l1 1-1-1z" class="G"/><path d="M1188 714l1 1-1-1m588 0l1 1-1-1m442 0l1 1-1-1z" class="H"/><path d="M1188 715l1 1-1-1m588 0l1 1-1-1m442.33.667l.34.666-.34-.666z" class="G"/><path d="M1187 716l1 1-1-1m590 0l1 1-1-1z" class="H"/><path d="M2344 716l1 1-1-1m-1157 1l1 1-1-1m590 0l1 1-1-1z" class="G"/><path d="M1186 718l1 1-1-1m592 0l1 1-1-1m439 0l1 1-1-1z" class="H"/><path d="M2345 718l1 1-1-1m-1159 1l1 1-1-1z" class="G"/><path d="M1779 719l1 1-1-1z" class="H"/><use xlink:href="#A" x="-567" y="525" class="G"/><path d="M1185 720l1 1-1-1z" class="H"/><path d="M1779 720l1 1-1-1m-594 1l1 1-1-1m595 0l1 1-1-1m567 0l1 1-1-1m-566 1l1 1-1-1z" class="G"/><path d="M2216 722l1 1-1-1z" class="H"/><path d="M1184 723l1 1-1-1z" class="G"/><path d="M1782 723l1 1-1-1z" class="H"/><path d="M2216 723l1 1-1-1m132 0l1 1-1-1z" class="G"/><path d="M1783 724l1 1-1-1z" class="H"/><path d="M1183 725l1 1-1-1z" class="G"/><path d="M1784 725l1 1-1-1m431 0l1 1-1-1z" class="H"/><path d="M1785 726l1 1-1-1m430.33.667l.34.666-.34-.666M2351 726v1h4l-4-1z" class="G"/><path d="M1182 727l1 1-1-1z" class="H"/><path d="M1786 727l1 1-1-1z" class="G"/><path d="M1787 727l1 1-1-1z" class="H"/><path d="M2360 727v1h3l-3-1m-572 1l1 1-1-1m580 0v1h3l-3-1z" class="G"/><path d="M1181 729l1 1-1-1z" class="H"/><path d="M1790 729l1 1-1-1z" class="G"/><path d="M2214 729l1 1-1-1z" class="H"/><path d="M2375 729v1h4l-4-1m-1194 1l1 1-1-1m611 0l1 1-1-1z" class="G"/><path d="M1793 730l1 1-1-1z" class="H"/><path d="M2214.33 730.667l.34.666-.34-.666m169.34-.334l.66.334-.66-.334z" class="G"/><path d="M1180 731l1 1-1-1z" class="H"/><path d="M1795 731v1h3l-3-1z" class="G"/><path d="M1798.67 731.333l.66.334-.66-.334M2025 731v1h10l-10-1z" class="H"/><path d="M1180 732l1 1-1-1m862 0v1h6l-6-1z" class="G"/><path d="M2048 732v1h3l-3-1m-869 1l1 1-1-1z" class="H"/><path d="M2054 733v1h3l-3-1z" class="G"/><path d="M2057.67 733.333l.66.334-.66-.334M2213 733l1 1-1-1z" class="H"/><path d="M1179 734l1 1-1-1m882 0v1h3l-3-1z" class="G"/><use xlink:href="#B" x="573" y="511" class="H"/><path d="M2213 734l1 1-1-1m175 0l1 1-1-1z" class="G"/><path d="M1178 735l1 1-1-1z" class="H"/><use xlink:href="#B" x="577" y="512" class="G"/><use xlink:href="#B" x="579" y="512" class="H"/><path d="M2389 735l1 1-1-1m-1211 1l1 1-1-1m895 0v1h3l-3-1z" class="G"/><path d="M2076 736l1 1-1-1m136 0l1 1-1-1z" class="H"/><use xlink:href="#B" x="587" y="514" class="G"/><path d="M2080 737l1 1-1-1z" class="H"/><path d="M2212.33 737.667l.34.666-.34-.666M1177 738l1 1-1-1m906 0l1 1-1-1z" class="G"/><path d="M2084 738l1 1-1-1z" class="H"/><path d="M2391 738l1 1-1-1m-304 1l1 1-1-1z" class="G"/><path d="M2088 739l1 1-1-1z" class="H"/><path d="M2392 739l1 1-1-1m-1216 1l1 1-1-1m915 0l1 1-1-1z" class="G"/><path d="M2092 740l1 1-1-1m119 0l1 1-1-1z" class="H"/><use xlink:href="#B" x="603" y="518" class="G"/><path d="M2096 741l1 1-1-1z" class="H"/><path d="M2211 741l1 1-1-1m-1036 1l1 1-1-1m923 0l1 1-1-1z" class="G"/><path d="M2099 742l1 1-1-1z" class="H"/><path d="M2394 742l1 1-1-1m-292.33 1.333l.66.334-.66-.334z" class="G"/><path d="M2103 743l1 1-1-1z" class="H"/><path d="M2395 743l1 1-1-1z" class="G"/><path d="M1174 744l1 1-1-1z" class="H"/><path d="M2105 744l1 1-1-1z" class="G"/><path d="M2106 744l1 1-1-1m104 0l1 1-1-1z" class="H"/><path d="M1174 745l1 1-1-1m934 0l1 1-1-1z" class="G"/><path d="M2109 745l1 1-1-1z" class="H"/><path d="M2210 745l1 1-1-1z" class="G"/><path d="M1173 746l1 1-1-1z" class="H"/><path d="M2111 746l1 1-1-1z" class="G"/><path d="M2112 746l1 1-1-1z" class="H"/><path d="M1173 747l1 1-1-1m941 0l1 1-1-1z" class="G"/><path d="M2115 747l1 1-1-1m94 0l1 1-1-1z" class="H"/><path d="M2398 747l1 1-1-1z" class="G"/><path d="M1172 748l1 1-1-1z" class="H"/><path d="M2117 748l1 1-1-1z" class="G"/><path d="M2118 748l1 1-1-1z" class="H"/><path d="M2209.33 748.667l.34.666-.34-.666M1172 749l1 1-1-1m947.67.333l.66.334-.66-.334z" class="G"/><path d="M1171 750l1 1-1-1z" class="H"/><path d="M2122 750l1 1-1-1z" class="G"/><path d="M2123 750l1 1-1-1z" class="H"/><path d="M1171 751l1 1-1-1m954 0l1 1-1-1z" class="G"/><path d="M2208 751l1 1-1-1z" class="H"/><path d="M2401 751l1 1-1-1z" class="G"/><path d="M1170 752l1 1-1-1z" class="H"/><path d="M2127 752l1 1-1-1z" class="G"/><path d="M2128 752l1 1-1-1z" class="H"/><path d="M2208 752l1 1-1-1m194 0l1 1-1-1m-1232 1l1 1-1-1m960 0l1 1-1-1z" class="G"/><path d="M2131 753l1 1-1-1z" class="H"/><path d="M2132 754l1 1-1-1z" class="G"/><path d="M2133 754l1 1-1-1z" class="H"/><path d="M1169 755l1 1-1-1m966 0l1 1-1-1z" class="G"/><path d="M2207 755l1 1-1-1z" class="H"/><path d="M2404 755l1 1-1-1m-267 1l1 1-1-1z" class="G"/><path d="M2138 756l1 1-1-1z" class="H"/><path d="M2207 756l1 1-1-1m198 0l1 1-1-1m-1237 1l1 1-1-1m971 0l1 1-1-1z" class="G"/><path d="M2140 757l1 1-1-1z" class="H"/><path d="M2142 758l1 1-1-1z" class="G"/><path d="M2206 758l1 1-1-1m-1039 1l1 1-1-1z" class="H"/><path d="M2144 759l1 1-1-1m62.33.667l.34.666-.34-.666M2407 759l1 1-1-1m-1240 1l1 1-1-1m979 0l1 1-1-1z" class="G"/><path d="M2147 760l1 1-1-1z" class="H"/><path d="M2148 761l1 1-1-1z" class="G"/><path d="M2149 761l1 1-1-1m-983 1l1 1-1-1z" class="H"/><path d="M2150 762l1 1-1-1z" class="G"/><path d="M2151 762l1 1-1-1m54 0l1 1-1-1z" class="H"/><path d="M1166.33 763.667l.34.666-.34-.666M2152 763l1 1-1-1z" class="G"/><path d="M2153 763l1 1-1-1z" class="H"/><path d="M2205 763l1 1-1-1z" class="G"/><path d="M2155 764l1 1-1-1z" class="H"/><path d="M2157 765l1 1-1-1z" class="G"/><path d="M2204.33 765.667l.34.666-.34-.666m-1039 1l.34.666-.34-.666M2159 766l1 1-1-1m2 1l1 1-1-1z" class="H"/><path d="M2204 767l1 1-1-1m-1039 1v7h1l-1-7z" class="G"/><path d="M2163 768l1 1-1-1m2 1l1 1-1-1m38 0l1 1-1-1z" class="H"/><path d="M2166 770l1 1-1-1z" class="G"/><path d="M2167 770l1 1-1-1z" class="H"/><path d="M2203.33 770.667l.34.666-.34-.666M2168 771l1 1-1-1z" class="G"/><path d="M2169 771l1 1-1-1z" class="H"/><path d="M2170 772l1 1-1-1z" class="G"/><path d="M2171 772l1 1-1-1z" class="H"/><path d="M2172 773l1 1-1-1z" class="G"/><path d="M2202 773l1 1-1-1z" class="H"/><path d="M2174 774l1 1-1-1m28 0l1 1-1-1z" class="G"/><path d="M1165 775l1 1-1-1m1011 0l1 1-1-1z" class="H"/><path d="M2177 776l1 1-1-1z" class="G"/><path d="M2178 776l1 1-1-1m23 0l1 1-1-1z" class="H"/><path d="M1166 777l1 1-1-1m1013 0l1 1-1-1m22.33.667l.34.666-.34-.666M2181 778l1 1-1-1z" class="G"/><path d="M1167 779l1 1-1-1m1016 0l1 1-1-1m-1014 1l1 1-1-1z" class="H"/><path d="M1170 780v1h69l-22-1h-47m1014 0l1 1-1-1z" class="G"/><path d="M2185 780l1 1-1-1m15 0l1 1-1-1m-961 1l1 1-1-1z" class="H"/><path d="M2186 781l1 1-1-1m14.33.667l.34.666-.34-.666M1240 782l1 1-1-1z" class="G"/><path d="M2188 782l1 1-1-1z" class="H"/><path d="M2189 783l1 1-1-1z" class="G"/><path d="M1241 784l1 1-1-1z" class="H"/><path d="M2191 784l1 1-1-1z" class="G"/><path d="M2199 784l1 1-1-1z" class="H"/><path d="M1242 785l1 1-1-1m950 0l1 1-1-1z" class="G"/><path d="M2193 785l1 1-1-1z" class="H"/><path d="M2199 785l1 1-1-1m-5 1l1 1-1-1z" class="G"/><path d="M1243 787l1 1-1-1z" class="H"/><path d="M2195 787l1 1-1-1z" class="G"/><path d="M2196 787l1 1-1-1m2 0l1 1-1-1z" class="H"/><path d="M2408.67 787.333l.66.334-.66-.334M1244 788l1 1-1-1m953.67.333l.66.334-.66-.334m216 0l.66.334-.66-.334z" class="G"/><path d="M1244 789l1 1-1-1z" class="H"/><path d="M2417.67 789.333l.66.334-.66-.334M1245 790l1 1-1-1m1177.67.333l.66.334-.66-.334z" class="G"/><path d="M1245 791l1 1-1-1z" class="H"/><path d="M2427.67 791.333l.66.334-.66-.334M1246 792l1 1-1-1m1186 0l1 1-1-1z" class="G"/><path d="M1246 793l1 1-1-1z" class="H"/><path d="M1247 795l1 1-1-1m1187 0l1 1-1-1m1 1l1 1-1-1m-1187 1l1 1-1-1z" class="G"/><path d="M1248 798l1 1-1-1z" class="H"/><path d="M2437 799l1 1-1-1m-1188 1l1 1-1-1z" class="G"/><path d="M1249 801l1 1-1-1z" class="H"/><path d="M1250 803l1 1-1-1m1190 0l1 1-1-1z" class="G"/><path d="M1250 804l1 1-1-1z" class="H"/><path d="M1251 806l1 1-1-1m1191 0l1 1-1-1z" class="G"/><path d="M1251 807l1 1-1-1z" class="H"/><path d="M2443 807l1 1-1-1m-1191 2l1 1-1-1z" class="G"/><path d="M1252 810l1 1-1-1z" class="H"/><path d="M2445 810l1 1-1-1m1 1l1 1-1-1m-1193 2l1 1-1-1z" class="G"/><path d="M1253 814l1 1-1-1z" class="H"/><path d="M2448 814l1 1-1-1m1 1l1 1-1-1m-1194.67 1.667l.34.666-.34-.666z" class="G"/><use xlink:href="#A" x="-1530" y="624" class="H"/><path d="M2451 818l1 1-1-1m-1195.67 3.667l.34.666-.34-.666M2453 821l1 1-1-1m1 1v27h1l-1-27z" class="G"/><path d="M1255 823l1 1-1-1z" class="H"/><use xlink:href="#A" x="-1528" y="632" class="G"/><use xlink:href="#A" x="-1528" y="634" class="H"/><use xlink:href="#A" x="-1527" y="638" class="G"/><path d="M1257 834v3h1l-1-3z" class="H"/><path d="M1258 839v4h1l-1-4z" class="G"/><path d="M1258 843v3h1l-1-3z" class="H"/><path d="M2455.67 849.333l.66.334-.66-.334M1259 850v16h1l-1-16m1201 0v1h3l-3-1m6.67 1.333l.66.334-.66-.334m4.33.667v1h3l-3-1m6.67 1.333l.66.334-.66-.334m2.33.667l1 1-1-1m1 1l1 1-1-1m1 1l1 1-1-1m7 8l1 1-1-1m1 1l1 1-1-1m1 1l1 1-1-1m1 1l1 1-1-1m1 1l1 1-1-1z" class="G"/><path d="M1258 869v3h1l-1-3z" class="H"/><use xlink:href="#A" x="-1526" y="678" class="G"/><use xlink:href="#A" x="-1527" y="681" class="H"/><path d="M2500 876l1 1-1-1m-1243 1l1 1-1-1m1244 0l1 1-1-1m1 1l1 1-1-1z" class="G"/><path d="M1256 879l1 1-1-1z" class="H"/><path d="M2503 879l1 1-1-1m-1247 1l1 1-1-1m1248 0l1 1-1-1z" class="G"/><path d="M1255 881l1 1-1-1z" class="H"/><path d="M1255 882l1 1-1-1z" class="G"/><path d="M1254 883l1 1-1-1m-1 1l1 1-1-1m-2 1l1 1-1-1z" class="H"/><path d="M1252 885l1 1-1-1z" class="G"/><path d="M1248 886l1 1-1-1z" class="H"/><use xlink:href="#B" x="-242" y="663" class="G"/><path d="M1245 887l1 1-1-1z" class="H"/><path d="M1246 887l1 1-1-1z" class="G"/><path d="M1242 888l1 1-1-1z" class="H"/><path d="M1243 888l1 1-1-1z" class="G"/><path d="M1239 889l1 1-1-1z" class="H"/><path d="M1240 889l1 1-1-1z" class="G"/><path d="M1236 890l1 1-1-1z" class="H"/><path d="M1237 890l1 1-1-1z" class="G"/><path d="M1233 891l1 1-1-1z" class="H"/><path d="M1234 891l1 1-1-1z" class="G"/><path d="M1231 892l1 1-1-1z" class="H"/><path d="M1232 892l1 1-1-1z" class="G"/><path d="M1228 893l1 1-1-1z" class="H"/><path d="M1229 893l1 1-1-1z" class="G"/><path d="M1226 894l1 1-1-1z" class="H"/><path d="M1227 894l1 1-1-1z" class="G"/><path d="M1224 895l1 1-1-1z" class="H"/><path d="M1222 896l1 1-1-1m-2 1l1 1-1-1m-2 1l1 1-1-1m-2 1l1 1-1-1m-2 1l1 1-1-1m-2 1l1 1-1-1z" class="G"/><path d="M1210 902l1 1-1-1m-2 1l1 1-1-1z" class="H"/><path d="M1209 903l1 1-1-1m-2 1l1 1-1-1m-2 1l1 1-1-1z" class="G"/><path d="M1203 906l1 1-1-1z" class="H"/><path d="M1204 906l1 1-1-1m-2 1l1 1-1-1z" class="G"/><path d="M1200 908l1 1-1-1m-2 1l1 1-1-1z" class="H"/><path d="M1199 909l1 1-1-1m-2 1l1 1-1-1z" class="G"/><path d="M1195 911l1 1-1-1z" class="H"/><path d="M1196 911l1 1-1-1z" class="G"/><path d="M1194 912l1 1-1-1z" class="H"/><path d="M1193 913l1 1-1-1z" class="G"/><path d="M1191 914l1 1-1-1z" class="H"/><path d="M1190 915l1 1-1-1z" class="G"/><path d="M1188 916l1 1-1-1z" class="H"/><path d="M1189 916l1 1-1-1z" class="G"/><path d="M1187 917l1 1-1-1z" class="H"/><path d="M1186 918l1 1-1-1m-1 1l1 1-1-1z" class="G"/><path d="M1183 920l1 1-1-1z" class="H"/><path d="M1182 921l1 1-1-1m-1 1l1 1-1-1m-1 1l1 1-1-1z" class="G"/><path d="M1178 924l1 1-1-1m-1 1l1 1-1-1z" class="H"/><path d="M1176 926l1 1-1-1m-1 1l1 1-1-1m-1 1l1 1-1-1z" class="G"/><path d="M1172 929l1 1-1-1m-1 1l1 1-1-1m-1 1l1 1-1-1m-1 1l1 1-1-1m-1 1l1 1-1-1m-1 1l1 1-1-1z" class="H"/><path d="M1166 935l1 1-1-1m-1 1l1 1-1-1m-1 1l1 1-1-1m-1 1l1 1-1-1m-1 1l1 1-1-1m-1 1l1 1-1-1m-1 1l1 1-1-1m-1 1l1 1-1-1m1346 0l1 1-1-1m-1347 1l1 1-1-1m1348 0l1 1-1-1m-1349 1l1 1-1-1m1350 0l1 1-1-1z" class="G"/><path d="M1156 945l1 1-1-1z" class="H"/><path d="M2508 945l1 1-1-1z" class="G"/><path d="M1155 946l1 1-1-1m-1 1l1 1-1-1m-1 1l1 1-1-1m-1 1l1 1-1-1z" class="H"/><path d="M2513 949l1 1-1-1m1 1l1 1-1-1m-1363 1l1 1-1-1m1364 0l1 1-1-1m-1365 1l1 1-1-1m-1 1l1 1-1-1m-1 1l1 1-1-1m1371 0l1 1-1-1z" class="G"/><path d="M1147 955l1 1-1-1z" class="H"/><path d="M2520 955l1 1-1-1z" class="G"/><path d="M1146 956l1 1-1-1z" class="H"/><path d="M2521 956l1 1-1-1m-1376 2l1 1-1-1m-1 1l1 1-1-1m1381 0l1 1-1-1m-1382 1l1 1-1-1m1383 0l1 1-1-1z" class="G"/><path d="M1142 961l1 1-1-1m-1 1l1 1-1-1z" class="H"/><path d="M2530 963l1 1-1-1m-1390 1l1 1-1-1z" class="G"/><path d="M1139 965l1 1-1-1m-1 1l1 1-1-1z" class="H"/><path d="M2534 966l1 1-1-1m-1397 2l1 1-1-1m-1 1l1 1-1-1m1402 0l1 1-1-1z" class="G"/><path d="M1135 970l1 1-1-1z" class="H"/><path d="M2541 971l1 1-1-1m-1407 1l1 1-1-1m1408 0l1 1-1-1m-1409 1l1 1-1-1z" class="G"/><path d="M1132 974l1 1-1-1z" class="H"/><path d="M2545 974l1 1-1-1m-1414 2l1 1-1-1m1417 0l1 1-1-1z" class="G"/><path d="M1130 977l1 1-1-1z" class="H"/><path d="M2551 978l1 1-1-1m-1422 1l1 1-1-1m1423 0l1 1-1-1z" class="G"/><path d="M1128 980l1 1-1-1z" class="H"/><path d="M2554 980l1 1-1-1z" class="G"/><path d="M1127 981l1 1-1-1z" class="H"/><path d="M1127 982l1 1-1-1m1430 0l1 1-1-1m-1431 1l1 1-1-1z" class="G"/><path d="M1125 984l1 1-1-1z" class="H"/><path d="M2560 984l1 1-1-1m-1435 1l1 1-1-1m-1 1l1 1-1-1m1439 0l1 1-1-1z" class="G"/><path d="M1123 987l1 1-1-1z" class="H"/><path d="M2565 987l1 1-1-1m-1442 1l1 1-1-1z" class="G"/><path d="M1122 989l1 1-1-1z" class="H"/><path d="M2568 989l1 1-1-1m2 1l1 1-1-1m-1449 1l1 1-1-1z" class="G"/><path d="M1120 992l1 1-1-1z" class="H"/><path d="M2573 992l1 1-1-1m2 1l1 1-1-1m-1456 1l1 1-1-1z" class="G"/><path d="M1118 995l1 1-1-1z" class="H"/><path d="M2578 995l1 1-1-1m-1460 1l1 1-1-1m1462 0l1 1-1-1z" class="G"/><path d="M1117 997l1 1-1-1z" class="H"/><path d="M2582 997l1 1-1-1m2 1l1 1-1-1m-1468 1l1 1-1-1m1470 0l1 1-1-1z" class="G"/><path d="M1115 1000l1 1-1-1z" class="H"/><path d="M1115 1001l1 1-1-1m1474 0l1 1-1-1z" class="G"/><path d="M1114 1002l1 1-1-1z" class="H"/><path d="M2591 1002l1 1-1-1m2 1l1 1-1-1m-1480 1l1 1-1-1m1482 0l1 1-1-1m2 1l1 1-1-1m-1485 1l1 1-1-1m1487 0l1 1-1-1z" class="G"/><path d="M1111 1007l1 1-1-1z" class="H"/><path d="M2601 1007l1 1-1-1m-1490 1l1 1-1-1m1492 0l1 1-1-1z" class="G"/><path d="M1110 1009l1 1-1-1z" class="H"/><path d="M2605 1009l1 1-1-1m2 1l1 1-1-1z" class="G"/><path d="M1109 1011l1 1-1-1z" class="H"/><path d="M2611 1012l1 1-1-1m-1503 1l1 1-1-1m1505 0l1 1-1-1m-1506 2l1 1-1-1m1509 0l1 1-1-1z" class="G"/><path d="M1106 1016l1 1-1-1z" class="H"/><path d="M2617 1016l1 1-1-1m-1511 1l1 1-1-1z" class="G"/><path d="M1105 1018l1 1-1-1z" class="H"/><path d="M1105 1019l1 1-1-1z" class="G"/><path d="M1104 1020l1 1-1-1z" class="H"/><path d="M1104 1021l1 1-1-1z" class="G"/><path d="M1103 1022l1 1-1-1z" class="H"/><path d="M2623 1022l1 1-1-1m-1520 1l1 1-1-1m1521 0l1 1-1-1z" class="G"/><path d="M1102 1024l1 1-1-1z" class="H"/><path d="M2625 1024l1 1-1-1m-1523 1l1 1-1-1z" class="G"/><path d="M1101 1026l1 1-1-1z" class="H"/><path d="M1101 1027l1 1-1-1m1526 0l1 1-1-1z" class="G"/><path d="M1100 1028l1 1-1-1z" class="H"/><path d="M1100 1029l1 1-1-1z" class="G"/><path d="M1099 1030l1 1-1-1z" class="H"/><path d="M2629 1030l1 1-1-1z" class="G"/><path d="M395 1031v1h3l-3-1z" class="H"/><path d="M398 1031v1h16l-16-1z" class="G"/><path d="M414 1031v1h4l-4-1z" class="H"/><path d="M1099 1031l1 1-1-1z" class="G"/><path d="M388 1032l1 1-1-1z" class="H"/><path d="M389 1032v1h3l-3-1z" class="G"/><path d="M392 1032.43c-15.326 2.19-29.922 7.3-43 15.62-11.897 7.58-22.304 17.27-30.254 28.95-38.298 56.26-14.397 138.33 51.254 160.92 16.776 5.77 34.505 7.19 52 4.65 14.563-2.11 28.526-7.21 41-15 11.363-7.09 21.471-16.77 29.36-27.57 53.657-73.48-9.838-180.53-100.36-167.57z" fill="#fff"/><path d="M420 1032v1h3l-3-1z" class="G"/><path d="M423.667 1032.33l.666.34-.666-.34M1098 1032l1 1-1-1m-715 1l1 1-1-1z" class="H"/><path d="M384.667 1033.33l.666.34-.666-.34m42 0l.666.34-.666-.34z" class="G"/><path d="M428.667 1033.33l.666.34-.666-.34z" class="H"/><path d="M1098 1033l1 1-1-1m1533 0l1 1-1-1z" class="G"/><path d="M379 1034l1 1-1-1z" class="H"/><path d="M380 1034l1 1-1-1m51.667.33l.666.34-.666-.34z" class="G"/><path d="M433 1034l1 1-1-1m664 0l1 1-1-1m-722 1l1 1-1-1z" class="H"/><path d="M376.667 1035.33l.666.34-.666-.34M435 1035l1 1-1-1z" class="G"/><path d="M436 1035l1 1-1-1z" class="H"/><path d="M1097 1035l1 1-1-1m1535 0l1 1-1-1z" class="G"/><path d="M372 1036l1 1-1-1z" class="H"/><path d="M373 1036l1 1-1-1m65.667.33l.666.34-.666-.34z" class="G"/><path d="M369 1037l1 1-1-1z" class="H"/><path d="M370 1037l1 1-1-1m71 0l1 1-1-1z" class="G"/><path d="M442 1037l1 1-1-1z" class="H"/><path d="M1096 1037l1 1-1-1m1537 0l1 1-1-1m-2266 1l1 1-1-1m77 0l1 1-1-1z" class="G"/><path d="M445 1038l1 1-1-1m-81 1l1 1-1-1z" class="H"/><path d="M365 1039l1 1-1-1m82 0l1 1-1-1m648 0l1 1-1-1m1539 0l1 1-1-1z" class="G"/><path d="M362 1040l1 1-1-1z" class="H"/><path d="M363 1040l1 1-1-1m86 0l1 1-1-1z" class="G"/><path d="M450 1040l1 1-1-1z" class="H"/><path d="M360 1041l1 1-1-1m91 0l1 1-1-1z" class="G"/><path d="M452 1041l1 1-1-1m642 0l1 1-1-1z" class="H"/><path d="M2635 1041l1 1-1-1m-2277 1l1 1-1-1m95 0l1 1-1-1z" class="G"/><path d="M454 1042l1 1-1-1z" class="H"/><path d="M1094 1042l1 1-1-1z" class="G"/><path d="M356 1043l1 1-1-1z" class="H"/><path d="M455 1043l1 1-1-1z" class="G"/><path d="M456 1043l1 1-1-1m637 0l1 1-1-1z" class="H"/><path d="M2636 1043l1 1-1-1z" class="G"/><path d="M354 1044l1 1-1-1z" class="H"/><path d="M457 1044l1 1-1-1m636 0l1 1-1-1z" class="G"/><path d="M352 1045l1 1-1-1z" class="H"/><path d="M353 1045l1 1-1-1m106 0l1 1-1-1z" class="G"/><path d="M1092 1045l1 1-1-1z" class="H"/><path d="M2637 1045l1 1-1-1m-2286 1l1 1-1-1z" class="G"/><path d="M461 1046l1 1-1-1z" class="H"/><path d="M1092 1046l1 1-1-1z" class="G"/><path d="M349 1047l1 1-1-1z" class="H"/><path d="M462 1047l1 1-1-1m2176 0l1 1-1-1z" class="G"/><path d="M347 1048l1 1-1-1z" class="H"/><path d="M348 1048l1 1-1-1z" class="G"/><path d="M464 1048l1 1-1-1z" class="H"/><path d="M1091 1048l1 1-1-1m-745 1l1 1-1-1m119 0l1 1-1-1m-120 1l1 1-1-1z" class="G"/><path d="M467 1050l1 1-1-1m623 0l1 1-1-1z" class="H"/><path d="M2639 1050l1 1-1-1z" class="G"/><path d="M343 1051l1 1-1-1z" class="H"/><path d="M468 1051l1 1-1-1m622 0l1 1-1-1m-748 1l1 1-1-1z" class="G"/><path d="M470 1052l1 1-1-1m619 0l1 1-1-1z" class="H"/><path d="M2640 1052l1 1-1-1m-2299 1l1 1-1-1z" class="G"/><path d="M471 1053l1 1-1-1z" class="H"/><path d="M1089 1053l1 1-1-1z" class="G"/><path d="M339 1054l1 1-1-1z" class="H"/><path d="M472 1054l1 1-1-1m-134 1l1 1-1-1m135 0l1 1-1-1z" class="G"/><path d="M1088 1055l1 1-1-1z" class="H"/><path d="M2641 1055l1 1-1-1m-2304 1l1 1-1-1z" class="G"/><path d="M475 1056l1 1-1-1z" class="H"/><path d="M1088 1056l1 1-1-1m-752 1l1 1-1-1z" class="G"/><path d="M476 1057l1 1-1-1m611 0l1 1-1-1z" class="H"/><path d="M2642 1057l1 1-1-1m-2307 1l1 1-1-1z" class="G"/><path d="M477 1058l1 1-1-1z" class="H"/><path d="M1087 1058l1 1-1-1z" class="G"/><path d="M333 1059l1 1-1-1z" class="H"/><path d="M478 1059l1 1-1-1z" class="G"/><path d="M332 1060l1 1-1-1z" class="H"/><path d="M479 1060l1 1-1-1m607.33.67l.34.66-.34-.66M2643 1060l1 1-1-1z" class="G"/><path d="M331 1061l1 1-1-1z" class="H"/><path d="M480 1061l1 1-1-1z" class="G"/><path d="M330 1062l1 1-1-1z" class="H"/><path d="M481 1062l1 1-1-1z" class="G"/><path d="M1085 1062l1 1-1-1z" class="H"/><path d="M2644 1062l1 1-1-1z" class="G"/><path d="M329 1063l1 1-1-1z" class="H"/><path d="M482 1063l1 1-1-1m603 0l1 1-1-1z" class="G"/><path d="M328 1064l1 1-1-1z" class="H"/><path d="M483 1064l1 1-1-1z" class="G"/><path d="M484 1065l1 1-1-1m600 0l1 1-1-1z" class="H"/><path d="M2645 1065l1 1-1-1z" class="G"/><path d="M485 1066l1 1-1-1z" class="H"/><path d="M1084 1066l1 1-1-1m-758 1l1 1-1-1z" class="G"/><path d="M486 1067l1 1-1-1m597 0l1 1-1-1z" class="H"/><path d="M2646 1067l1 1-1-1m-2321 1l1 1-1-1z" class="G"/><path d="M487 1068l1 1-1-1z" class="H"/><path d="M1083 1068l1 1-1-1m-759 1l1 1-1-1z" class="G"/><path d="M323 1070l1 1-1-1z" class="H"/><path d="M488 1070l1 1-1-1z" class="G"/><path d="M1082 1070l1 1-1-1z" class="H"/><path d="M2647 1070l1 1-1-1z" class="G"/><path d="M322 1071l1 1-1-1z" class="H"/><path d="M489 1071l1 1-1-1m593 0l1 1-1-1z" class="G"/><path d="M490 1072l1 1-1-1z" class="H"/><path d="M321 1073l1 1-1-1z" class="G"/><path d="M491 1073l1 1-1-1m590 0l1 1-1-1z" class="H"/><path d="M2648 1073l1 1-1-1m-2328 1l1 1-1-1m761 0l1 1-1-1z" class="G"/><path d="M319 1075l1 1-1-1z" class="H"/><path d="M492 1075l1 1-1-1z" class="G"/><path d="M1080 1075l1 1-1-1z" class="H"/><path d="M2649 1075l1 1-1-1z" class="G"/><path d="M493 1076l1 1-1-1z" class="H"/><path d="M1080 1076l1 1-1-1m-762 1l1 1-1-1z" class="G"/><path d="M317 1078l1 1-1-1z" class="H"/><path d="M494 1078l1 1-1-1z" class="G"/><path d="M1079 1078l1 1-1-1z" class="H"/><path d="M2650 1078l1 1-1-1z" class="G"/><path d="M495 1079l1 1-1-1z" class="H"/><path d="M1079 1079l1 1-1-1m-763 1l1 1-1-1m2335 0l1 1-1-1z" class="G"/><path d="M315 1081l1 1-1-1z" class="H"/><path d="M496 1081l1 1-1-1z" class="G"/><path d="M1078 1081l1 1-1-1z" class="H"/><path d="M315 1082l1 1-1-1z" class="G"/><path d="M497 1082l1 1-1-1z" class="H"/><path d="M1078 1082l1 1-1-1z" class="G"/><path d="M314 1083l1 1-1-1z" class="H"/><path d="M497 1083l1 1-1-1m2155 0l1 1-1-1z" class="G"/><path d="M498 1084l1 1-1-1m579 0l1 1-1-1z" class="H"/><path d="M313 1085l1 1-1-1m764 0l1 1-1-1m1576 0l1 1-1-1z" class="G"/><path d="M312 1086l1 1-1-1z" class="H"/><path d="M499 1086l1 1-1-1m-187 1l1 1-1-1z" class="G"/><path d="M1076 1087l1 1-1-1m-765 1l1 1-1-1z" class="H"/><path d="M500 1088l1 1-1-1m576 0l1 1-1-1m-765 1l1 1-1-1z" class="G"/><path d="M501 1089l1 1-1-1m-191 1l1 1-1-1z" class="H"/><path d="M501 1090l1 1-1-1z" class="G"/><path d="M1075 1090l1 1-1-1z" class="H"/><path d="M2655 1090l1 1-1-1m-2345 1l1 1-1-1z" class="G"/><path d="M502 1091l1 1-1-1z" class="H"/><path d="M1075 1091l1 1-1-1z" class="G"/><path d="M309 1092l1 1-1-1z" class="H"/><path d="M502 1092l1 1-1-1m2154 0l1 1-1-1m-2347 1l1 1-1-1z" class="G"/><path d="M1074 1093l1 1-1-1z" class="H"/><path d="M503 1094l1 1-1-1m571 0l1 1-1-1m1583 0l1 1-1-1m-2349 1l1 1-1-1z" class="G"/><path d="M504 1096l1 1-1-1m569 0l1 1-1-1z" class="H"/><path d="M2658 1096l1 1-1-1z" class="G"/><path d="M307 1097l1 1-1-1z" class="H"/><path d="M504 1097l1 1-1-1m569 0l1 1-1-1m-766 1l1 1-1-1z" class="G"/><path d="M505 1098l1 1-1-1z" class="H"/><path d="M2659 1098l1 1-1-1z" class="G"/><path d="M306 1099l1 1-1-1z" class="H"/><path d="M505 1099l1 1-1-1z" class="G"/><path d="M1072 1099l1 1-1-1z" class="H"/><path d="M306 1100l1 1-1-1m766 0l1 1-1-1z" class="G"/><path d="M506 1101l1 1-1-1z" class="H"/><path d="M2661 1101l1 1-1-1z" class="G"/><path d="M305 1102l1 1-1-1z" class="H"/><path d="M506 1102l1 1-1-1z" class="G"/><path d="M1071 1102l1 1-1-1z" class="H"/><path d="M305 1103l1 1-1-1m766 0l1 1-1-1m1591 0l1 1-1-1z" class="G"/><path d="M507 1104l1 1-1-1z" class="H"/><path d="M2663 1104l1 1-1-1z" class="G"/><path d="M304 1105l1 1-1-1z" class="H"/><path d="M507 1105l1 1-1-1z" class="G"/><path d="M1070 1105l1 1-1-1z" class="H"/><path d="M304 1106l1 1-1-1m766.33.67l.34.66-.34-.66M2664 1106l1 1-1-1z" class="G"/><path d="M508 1107l1 1-1-1m-205 1l1 1-1-1z" class="H"/><path d="M508 1108l1 1-1-1m-204.667 1.67l.334.66-.334-.66z" class="G"/><path d="M1069 1109l1 1-1-1z" class="H"/><path d="M2666 1109l1 1-1-1m-1597 1l1 1-1-1z" class="G"/><path d="M509 1111l1 1-1-1m-207 1l1 1-1-1z" class="H"/><path d="M509 1112l1 1-1-1z" class="G"/><path d="M1068 1112l1 1-1-1z" class="H"/><path d="M2668 1112l1 1-1-1m-2365.667 1.67l.334.66-.334-.66m765.997 0l.34.66-.34-.66z" class="G"/><path d="M510 1115l1 1-1-1z" class="H"/><path d="M2670 1115l1 1-1-1m-2159.667 1.67l.334.66-.334-.66z" class="G"/><path d="M1067 1116l1 1-1-1m-766 1l1 1-1-1z" class="H"/><path d="M1067 1117l1 1-1-1m-766 1v3h1l-1-3m2371 0l1 1-1-1z" class="G"/><path d="M1066 1119l1 1-1-1z" class="H"/><path d="M2673 1119l1 1-1-1z" class="G"/><path d="M511.333 1120.67l.334.66-.334-.66z" class="H"/><path d="M1066.33 1120.67l.34.66-.34-.66M511 1122v3h1l-1-3m2164 0l1 1-1-1z" class="G"/><path d="M300.333 1123.67l.334.66-.334-.66M1065 1123l1 1-1-1z" class="H"/><path d="M2676 1123l1 1-1-1m-1611 1l1 1-1-1m-765 1v4h1l-1-4z" class="G"/><path d="M512 1127v4h1l-1-4m552 0l1 1-1-1z" class="H"/><path d="M2679 1127l1 1-1-1m-1615 1l1 1-1-1m1616 0l1 1-1-1z" class="G"/><path d="M1063 1130l1 1-1-1z" class="H"/><path d="M512 1131v13h1l-1-13m551.33.67l.34.66-.34-.66M2683 1132l1 1-1-1m1 1l1 1-1-1z" class="G"/><path d="M299 1134v8h1l-1-8m763 0l1 1-1-1z" class="H"/><path d="M2685 1134l1 1-1-1m-1622.67 1.67l.34.66-.34-.66M2686 1135l1 1-1-1z" class="G"/><path d="M1061 1138l1 1-1-1z" class="H"/><path d="M1061.33 1139.67l.34.66-.34-.66M2691 1141l1 1-1-1z" class="G"/><path d="M1060 1142l1 1-1-1z" class="H"/><path d="M2692 1142l1 1-1-1m-1631.67 1.67l.34.66-.34-.66M2693 1143l1 1-1-1z" class="G"/><path d="M512 1144v4h1l-1-4z" class="H"/><path d="M2694 1144l1 1-1-1m1 1l1 1-1-1z" class="G"/><path d="M1059 1147l1 1-1-1z" class="H"/><path d="M300 1148v4h1l-1-4m759.33.67l.34.66-.34-.66M511 1151v3h1l-1-3z" class="G"/><path d="M1058 1151l1 1-1-1m-757.667 1.67l.334.66-.334-.66z" class="H"/><path d="M1058.33 1152.67l.34.66-.34-.66M2701 1152l1 1-1-1m1 1l1 1-1-1z" class="G"/><path d="M511 1154l1 1-1-1z" class="H"/><path d="M2703 1154l1 1-1-1z" class="G"/><use xlink:href="#C" class="H"/><path d="M2704 1155l1 1-1-1m-2402.667 1.67l.334.66-.334-.66m209 1l.334.66-.334-.66m546.997 0l.34.66-.34-.66z" class="G"/><path d="M301.333 1158.67l.334.66-.334-.66m209 1l.334.66-.334-.66M1056 1160l1 1-1-1z" class="H"/><path d="M2708 1160l1 1-1-1m-2405.667 1.67l.334.66-.334-.66m753.997 0l.34.66-.34-.66M2709 1161l1 1-1-1m-2199.667 1.67l.334.66-.334-.66z" class="G"/><path d="M302 1163l1 1-1-1m207 1l1 1-1-1z" class="H"/><path d="M2711 1164l1 1-1-1m-2407.667 1.67l.334.66-.334-.66z" class="G"/><path d="M1055 1165l1 1-1-1z" class="H"/><path d="M508 1166l1 1-1-1m547.33.67l.34.66-.34-.66z" class="G"/><path d="M303 1167l1 1-1-1m205 0l1 1-1-1z" class="H"/><path d="M2713 1167l1 1-1-1m-2409 2l1 1-1-1m203.333.67l.334.66-.334-.66M2714 1169l1 1-1-1z" class="G"/><path d="M304 1170l1 1-1-1m750 0l1 1-1-1z" class="H"/><path d="M1054.33 1171.67l.34.66-.34-.66M305 1172l1 1-1-1m201 0l1 1-1-1z" class="G"/><path d="M305 1173l1 1-1-1m201 0l1 1-1-1z" class="H"/><path d="M2716 1173l1 1-1-1m-2410 2l1 1-1-1m199 0l1 1-1-1z" class="G"/><path d="M1053 1175l1 1-1-1z" class="H"/><use xlink:href="#C" x="1660" y="20" class="G"/><path d="M306 1176l1 1-1-1m199 0l1 1-1-1z" class="H"/><path d="M1053 1176v3h1l-1-3m-746 2l1 1-1-1m197 0l1 1-1-1m-196 2l1 1-1-1m195 0l1 1-1-1z" class="G"/><use xlink:href="#C" x="-5" y="25" class="H"/><path d="M2718 1180v5h1l-1-5z" class="G"/><path d="M308 1181l1 1-1-1m195 0l1 1-1-1z" class="H"/><path d="M309 1182l1 1-1-1m193 0l1 1-1-1m550.33.67l.34.66-.34-.66z" class="G"/><path d="M309 1183l1 1-1-1m193 0l1 1-1-1z" class="H"/><path d="M310 1184l1 1-1-1m191 0l1 1-1-1z" class="G"/><path d="M310 1185l1 1-1-1m191 0l1 1-1-1z" class="H"/><path d="M311 1186l1 1-1-1m189 0l1 1-1-1z" class="G"/><path d="M1051 1186l1 1-1-1m-740 1l1 1-1-1m189 0l1 1-1-1z" class="H"/><path d="M1051 1187v3h1l-1-3m-739 1l1 1-1-1m187 0l1 1-1-1m2218 0l1 1-1-1z" class="G"/><path d="M312 1189l1 1-1-1m187 0l1 1-1-1z" class="H"/><path d="M313 1190l1 1-1-1m185 0l1 1-1-1z" class="G"/><use xlink:href="#C" x="-7" y="36" class="H"/><path d="M2716.33 1191.67l.34.66-.34-.66M314 1192l1 1-1-1z" class="G"/><path d="M497 1192l1 1-1-1z" class="H"/><path d="M496 1193l1 1-1-1m554.33.67l.34.66-.34-.66z" class="G"/><path d="M315 1194l1 1-1-1m181 0l1 1-1-1z" class="H"/><path d="M316 1195l1 1-1-1m179 0l1 1-1-1m2220 0l1 1-1-1z" class="G"/><path d="M317 1197l1 1-1-1m177 0l1 1-1-1m555.33.67l.34.66-.34-.66z" class="H"/><path d="M318 1198l1 1-1-1m175 0l1 1-1-1m2221 0l1 1-1-1m-2222 1l1 1-1-1m557 0v3h1l-1-3z" class="G"/><path d="M319 1200l1 1-1-1m173 0l1 1-1-1z" class="H"/><path d="M320 1201l1 1-1-1z" class="G"/><path d="M491 1201l1 1-1-1z" class="H"/><path d="M2713 1201l1 1-1-1m-2392 1l1 1-1-1m169 0l1 1-1-1m-1 1l1 1-1-1z" class="G"/><path d="M322 1204l1 1-1-1m726.33.67l.34.66-.34-.66z" class="H"/><path d="M2712 1204l1 1-1-1z" class="G"/><path d="M323 1205l1 1-1-1m165 0l1 1-1-1z" class="H"/><path d="M324 1206l1 1-1-1z" class="G"/><path d="M487 1206l1 1-1-1z" class="H"/><path d="M1048.33 1206.67l.34.66-.34-.66M325 1207l1 1-1-1m161 0l1 1-1-1m2225 0l1 1-1-1m-2385 1l1 1-1-1m159 0l1 1-1-1m-1 1l1 1-1-1m2226 0l1 1-1-1m-2227 1l1 1-1-1z" class="G"/><path d="M1047.33 1210.67l.34.66-.34-.66M328 1211l1 1-1-1z" class="H"/><path d="M482 1211l1 1-1-1z" class="G"/><path d="M329 1212l1 1-1-1z" class="H"/><path d="M481 1212l1 1-1-1m566 0v3h1l-1-3m1662 0l1 1-1-1z" class="G"/><path d="M330 1213l1 1-1-1z" class="H"/><path d="M480 1213l1 1-1-1z" class="G"/><path d="M331 1214l1 1-1-1z" class="H"/><path d="M479 1214l1 1-1-1z" class="G"/><path d="M332 1215l1 1-1-1z" class="H"/><path d="M478 1215l1 1-1-1m2230 0l1 1-1-1m-2231 1l1 1-1-1m-142 1l1 1-1-1m141 0l1 1-1-1z" class="G"/><use xlink:href="#C" x="-11" y="62" class="H"/><path d="M2707 1217l1 1-1-1m-2371 1l1 1-1-1z" class="G"/><path d="M475 1218l1 1-1-1z" class="H"/><path d="M337 1219l1 1-1-1z" class="G"/><path d="M474 1219l1 1-1-1z" class="H"/><path d="M1046 1219v3h1l-1-3z" class="G"/><path d="M338 1220l1 1-1-1z" class="H"/><path d="M472 1220l1 1-1-1z" class="G"/><path d="M473 1220l1 1-1-1z" class="H"/><path d="M2706 1220l1 1-1-1z" class="G"/><path d="M339 1221l1 1-1-1z" class="H"/><path d="M471 1221l1 1-1-1m-130 1l1 1-1-1m129 0l1 1-1-1m2235 0l1 1-1-1m-2363 1l1 1-1-1z" class="G"/><path d="M469 1223l1 1-1-1m-126 1l1 1-1-1z" class="H"/><path d="M344 1224l1 1-1-1m123 0l1 1-1-1m2237 0l1 1-1-1m-2359 1l1 1-1-1z" class="G"/><path d="M466 1225l1 1-1-1m579.33.67l.34.66-.34-.66M346 1226l1 1-1-1z" class="H"/><path d="M464 1226l1 1-1-1m-116 1l1 1-1-1z" class="G"/><path d="M463 1227l1 1-1-1z" class="H"/><path d="M1045 1227v3h1l-1-3z" class="G"/><path d="M349 1228l1 1-1-1z" class="H"/><path d="M350 1228l1 1-1-1m111 0l1 1-1-1z" class="G"/><path d="M351 1229l1 1-1-1z" class="H"/><path d="M459 1229l1 1-1-1z" class="G"/><path d="M460 1229l1 1-1-1z" class="H"/><path d="M2702 1229l1 1-1-1m-2349 1l1 1-1-1z" class="G"/><path d="M458 1230l1 1-1-1m-104 1l1 1-1-1z" class="H"/><path d="M355 1231l1 1-1-1m101 0l1 1-1-1m2245 0l1 1-1-1z" class="G"/><path d="M356 1232l1 1-1-1z" class="H"/><path d="M357 1232l1 1-1-1m97 0l1 1-1-1z" class="G"/><path d="M358 1233l1 1-1-1z" class="H"/><path d="M359 1233l1 1-1-1m93 0l1 1-1-1z" class="G"/><use xlink:href="#C" x="-13" y="78" class="H"/><path d="M2700 1233l1 1-1-1z" class="G"/><path d="M360 1234l1 1-1-1z" class="H"/><path d="M361 1234l1 1-1-1m89 0l1 1-1-1m-87 1l1 1-1-1m84 0l1 1-1-1z" class="G"/><path d="M448 1235l1 1-1-1z" class="H"/><path d="M1044 1235v3h1l-1-3m1655 0l1 1-1-1z" class="G"/><path d="M365 1236l1 1-1-1z" class="H"/><path d="M366 1236l1 1-1-1m79 0l1 1-1-1z" class="G"/><path d="M446 1236l1 1-1-1m-79 1l1 1-1-1z" class="H"/><path d="M368 1237l1 1-1-1m74 0l1 1-1-1z" class="G"/><path d="M443 1237l1 1-1-1z" class="H"/><path d="M2698 1237l1 1-1-1z" class="G"/><path d="M370 1238l1 1-1-1z" class="H"/><path d="M371 1238l1 1-1-1m68.667.33l.666.34-.666-.34z" class="G"/><path d="M373 1239l1 1-1-1z" class="H"/><path d="M374.667 1239.33l.666.34-.666-.34M436 1239l1 1-1-1z" class="G"/><path d="M437 1239l1 1-1-1z" class="H"/><path d="M2697 1239l1 1-1-1z" class="G"/><path d="M377 1240l1 1-1-1z" class="H"/><path d="M378 1240l1 1-1-1m54.667.33l.666.34-.666-.34z" class="G"/><path d="M434 1240l1 1-1-1m-53.333 1.33l.666.34-.666-.34z" class="H"/><path d="M382 1241l1 1-1-1m46.667.33l.666.34-.666-.34z" class="G"/><path d="M430 1241l1 1-1-1m613.33.67l.34.66-.34-.66z" class="H"/><path d="M2696 1241l1 1-1-1z" class="G"/><path d="M385.667 1242.33l.666.34-.666-.34z" class="H"/><path d="M387.667 1242.33l.666.34-.666-.34M422 1242v1h3l-3-1z" class="G"/><path d="M425 1242l1 1-1-1m-33.333 1.33l.666.34-.666-.34z" class="H"/><path d="M393 1243v1h5l-5-1m20 0v1h5l-5-1z" class="G"/><path d="M418.667 1243.33l.666.34-.666-.34z" class="H"/><path d="M1043 1243v5h1l-1-5m1652 0l1 1-1-1m-1 2l1 1-1-1m-1 2l1 1-1-1m-1 2l1 1-1-1z" class="G"/><use xlink:href="#C" x="-15" y="96" class="H"/><path d="M2691 1251l1 1-1-1m-1649 2v4h1l-1-4m1648 0l1 1-1-1m-1 2l1 1-1-1z" class="G"/><path d="M1041 1260v3h1l-1-3z" class="H"/><path d="M2686 1260l1 1-1-1m-1 2l1 1-1-1m-1644 1v5h1l-1-5m1643 1l1 1-1-1m-2 3l1 1-1-1m-1 2l1 1-1-1z" class="G"/><path d="M1040 1272v4h1l-1-4z" class="H"/><path d="M2679 1272l1 1-1-1m-2 3l1 1-1-1m-1637 1v5h1l-1-5m1636 1l1 1-1-1m-2 3l1 1-1-1m-2 3l1 1-1-1z" class="G"/><path d="M1039 1285v4h1l-1-4z" class="H"/><path d="M2670 1286l1 1-1-1m-1631 3v8h1l-1-8m1629 0l1 1-1-1m-2 3l1 1-1-1m-1 1l1 1-1-1m-2 3l1 1-1-1m-3 4l1 1-1-1z" class="G"/><path d="M1038 1303v5h1l-1-5z" class="H"/><path d="M2657 1304l1 1-1-1m-1 1l1 1-1-1m-1618 3v9h1l-1-9m1615 1l1 1-1-1m-1 1l1 1-1-1m-4 5l1 1-1-1m-1 1l1 1-1-1m-1 1l1 1-1-1m144 0v6h1l-1-6z" class="G"/><path d="M84 1318v4h1l-1-4z" class="H"/><path d="M84 1322v5h1l-1-5m2555 3l1 1-1-1m-1 1l1 1-1-1z" class="G"/><path d="M1037 1327v8h1l-1-8z" class="H"/><path d="M2637 1327l1 1-1-1m-1 1l1 1-1-1m153 0v3h1l-1-3z" class="G"/><path d="M85 1329v3h1l-1-3z" class="H"/><path d="M2635 1329l1 1-1-1m-1 1l1 1-1-1m-1 1l1 1-1-1m-2548 1v3h1l-1-3m2547 0l1 1-1-1m-1595 3v30h116v-1h-115l-1-29m1751.33.67l.34.66-.34-.66z" class="G"/><path d="M86.333 1336.67l.333.66-.333-.66z" class="H"/><path d="M86.333 1338.67l.333.66-.333-.66M2625 1338l1 1-1-1m-1 1l1 1-1-1m163 2l1 1-1-1z" class="G"/><path d="M87 1342l1 1-1-1z" class="H"/><path d="M2620 1342l1 1-1-1m-2532.667 1.67l.333.66-.333-.66M2619 1343l1 1-1-1m-3 2l1 1-1-1m170.33.67l.34.66-.34-.66z" class="G"/><path d="M88.333 1346.67l.333.66-.333-.66z" class="H"/><path d="M2615 1346l1 1-1-1m-2527 2l1 1-1-1m2524 0l1 1-1-1m173 1l1 1-1-1z" class="G"/><path d="M89 1350l1 1-1-1z" class="H"/><path d="M2609 1350l1 1-1-1m-2519.667 1.67l.333.66-.333-.66M2607 1351l1 1-1-1m-3 2l1 1-1-1m180 0l1 1-1-1z" class="G"/><path d="M90 1354l1 1-1-1z" class="H"/><path d="M2602 1354l1 1-1-1m-2512 1l1 1-1-1m2510 0l1 1-1-1m-2 1l1 1-1-1m185 0l1 1-1-1z" class="G"/><path d="M91 1357l1 1-1-1z" class="H"/><path d="M2596 1357l1 1-1-1m-2505 1l1 1-1-1m2502 0l1 1-1-1m-2 1l1 1-1-1m191 0l1 1-1-1z" class="G"/><path d="M92 1360l1 1-1-1z" class="H"/><path d="M2587.67 1360.33l.66.34-.66-.34M92 1361l1 1-1-1m2491.67.33l.66.34-.66-.34m-6.67.67v1h3l-3-1m204 0l1 1-1-1z" class="G"/><path d="M93 1363l1 1-1-1z" class="H"/><path d="M93 1364l1 1-1-1m2687 1l1 1-1-1z" class="G"/><path d="M94 1366l1 1-1-1m1059 0l1 1-1-1z" class="H"/><path d="M94 1367l1 1-1-1m1060 0l1 1-1-1m1625 0l1 1-1-1z" class="G"/><path d="M95 1368l1 1-1-1z" class="H"/><path d="M95 1369l1 1-1-1m1060 0l1 1-1-1m-1059 2l1 1-1-1z" class="G"/><path d="M1156 1371l1 1-1-1z" class="H"/><path d="M1157 1372l1 1-1-1m1620 0l1 1-1-1z" class="G"/><path d="M97 1373l1 1-1-1m1060 0l1 1-1-1z" class="H"/><path d="M97 1374l1 1-1-1m1061 0l1 1-1-1m1618 0l1 1-1-1z" class="G"/><path d="M98 1375l1 1-1-1z" class="H"/><path d="M98 1376l1 1-1-1z" class="G"/><path d="M1159 1376l1 1-1-1z" class="H"/><path d="M2775 1376l1 1-1-1z" class="G"/><path d="M99 1377l1 1-1-1z" class="H"/><path d="M1160 1377l1 1-1-1m-1061 1l1 1-1-1z" class="G"/><path d="M1160 1378l1 1-1-1z" class="H"/><path d="M2774 1378l1 1-1-1z" class="G"/><path d="M100 1379l1 1-1-1z" class="H"/><path d="M1161 1379l1 1-1-1m-1061 1l1 1-1-1m2673 0l1 1-1-1z" class="G"/><use xlink:href="#D" class="H"/><path d="M101 1382l1 1-1-1m1062 0l1 1-1-1m1609 0l1 1-1-1z" class="G"/><use xlink:href="#D" x="1" y="2" class="H"/><path d="M102 1384l1 1-1-1m1062 0l1 1-1-1m1607 0l1 1-1-1z" class="G"/><path d="M103 1385l1 1-1-1z" class="H"/><path d="M1165 1386l1 1-1-1m-1061 1l1 1-1-1m2665 0l1 1-1-1z" class="G"/><path d="M1166 1388l1 1-1-1z" class="H"/><path d="M105 1389l1 1-1-1m1062 0l1 1-1-1m1601 0l1 1-1-1z" class="G"/><path d="M106 1390l1 1-1-1z" class="H"/><path d="M1168 1391l1 1-1-1m-1061 1l1 1-1-1m2659 0l1 1-1-1z" class="G"/><use xlink:href="#D" x="7" y="12" class="H"/><path d="M108 1394l1 1-1-1m1062 0l1 1-1-1m1595 0l1 1-1-1z" class="G"/><use xlink:href="#D" x="8" y="14" class="H"/><path d="M1171 1396l1 1-1-1m-1061 1l1 1-1-1m2653 0l1 1-1-1z" class="G"/><use xlink:href="#D" x="10" y="17" class="H"/><path d="M2762 1398l1 1-1-1z" class="G"/><path d="M112 1399l1 1-1-1z" class="H"/><path d="M1173 1399l1 1-1-1m-1061 1l1 1-1-1z" class="G"/><path d="M1173 1400l1 1-1-1z" class="H"/><path d="M113 1401l1 1-1-1m1061 0l1 1-1-1m1586 0l1 1-1-1z" class="G"/><path d="M114 1402l1 1-1-1m1061 1l1 1-1-1z" class="H"/><path d="M115 1404l1 1-1-1m1061 0l1 1-1-1m-1060 1l1 1-1-1z" class="G"/><path d="M1176 1405l1 1-1-1z" class="H"/><path d="M2757 1405l1 1-1-1z" class="G"/><path d="M117 1406l1 1-1-1z" class="H"/><path d="M1177 1406l1 1-1-1m1579 0l1 1-1-1z" class="G"/><path d="M118 1407l1 1-1-1z" class="H"/><path d="M1178 1408l1 1-1-1m-1059 1l1 1-1-1m1 1l1 1-1-1z" class="G"/><path d="M1179 1410l1 1-1-1z" class="H"/><path d="M2753 1410l1 1-1-1m-2632 1l1 1-1-1m1059 0l1 1-1-1m1572 0l1 1-1-1z" class="G"/><path d="M122 1412l1 1-1-1m1058 0l1 1-1-1z" class="H"/><path d="M2751 1412l1 1-1-1z" class="G"/><path d="M123 1413l1 1-1-1z" class="H"/><path d="M1181 1413l1 1-1-1m1569 0l1 1-1-1z" class="G"/><path d="M124 1414l1 1-1-1m1 1l1 1-1-1m1057 0l1 1-1-1m-1056 1l1 1-1-1z" class="H"/><path d="M1183 1416l1 1-1-1z" class="G"/><path d="M127 1417l1 1-1-1m1056 0l1 1-1-1z" class="H"/><path d="M1184 1418l1 1-1-1m1 2l1 1-1-1z" class="G"/><path d="M131 1421l1 1-1-1m1 1l1 1-1-1m1054 0l1 1-1-1m-1053 1l1 1-1-1z" class="H"/><path d="M1187 1423l1 1-1-1z" class="G"/><path d="M134 1424l1 1-1-1m1053 0l1 1-1-1z" class="H"/><path d="M2739 1424l1 1-1-1z" class="G"/><path d="M135 1425l1 1-1-1z" class="H"/><path d="M1188 1425l1 1-1-1m1550 0l1 1-1-1m-2602 1l1 1-1-1m2601 0l1 1-1-1m-2600 1l1 1-1-1z" class="G"/><path d="M1189 1427l1 1-1-1z" class="H"/><path d="M2736 1427l1 1-1-1m-2598 1l1 1-1-1m1052 0l1 1-1-1m-1051 1l1 1-1-1z" class="G"/><path d="M140 1429l1 1-1-1m1050 0l1 1-1-1m-1049 1l1 1-1-1z" class="H"/><path d="M1191 1430l1 1-1-1m1541 0l1 1-1-1m-2590 1l1 1-1-1m2589 0l1 1-1-1m-2588 1l1 1-1-1m1049 0l1 1-1-1z" class="G"/><path d="M145 1433l1 1-1-1m1 1l1 1-1-1m1047 0l1 1-1-1z" class="H"/><path d="M2727 1434l1 1-1-1m-2580 1l1 1-1-1m1047 0l1 1-1-1z" class="G"/><path d="M149 1436l1 1-1-1m1045 0l1 1-1-1z" class="H"/><path d="M2724 1436l1 1-1-1m-2574 1l1 1-1-1m1045 0l1 1-1-1m1528 0l1 1-1-1z" class="G"/><path d="M152 1438l1 1-1-1z" class="H"/><path d="M153 1439l1 1-1-1z" class="G"/><path d="M1196 1439l1 1-1-1z" class="H"/><path d="M2720 1439l1 1-1-1z" class="G"/><path d="M155 1440l1 1-1-1z" class="H"/><path d="M1197 1440l1 1-1-1m1521 0l1 1-1-1m-2562 1l1 1-1-1z" class="G"/><path d="M1197 1441l1 1-1-1m-1039 1l1 1-1-1z" class="H"/><path d="M1198 1442l1 1-1-1m1517 0l1 1-1-1m-2556 1l1 1-1-1z" class="G"/><path d="M160 1443l1 1-1-1z" class="H"/><path d="M2713 1443l1 1-1-1m-2552 1l1 1-1-1m1038 0l1 1-1-1m-1036 1l1 1-1-1m2547 0l1 1-1-1z" class="G"/><path d="M165 1446l1 1-1-1m1035 0l1 1-1-1z" class="H"/><path d="M2708 1446l1 1-1-1m-2542 1l1 1-1-1z" class="G"/><path d="M167 1447l1 1-1-1z" class="H"/><path d="M1201 1447l1 1-1-1m1505 0l1 1-1-1m-2538 1l1 1-1-1z" class="G"/><path d="M169 1448l1 1-1-1m1032 0l1 1-1-1z" class="H"/><path d="M2704 1448l1 1-1-1m-2534 1l1 1-1-1z" class="G"/><path d="M171 1449l1 1-1-1z" class="H"/><path d="M1202 1449l1 1-1-1m1500 0l1 1-1-1m-2530 1l1 1-1-1z" class="G"/><path d="M173 1450l1 1-1-1z" class="H"/><path d="M2700 1450l1 1-1-1m-2525 1l1 1-1-1z" class="G"/><path d="M1203 1451l1 1-1-1z" class="H"/><path d="M2698 1451l1 1-1-1m-2521 1l1 1-1-1m1027 0l1 1-1-1m1491 0l1 1-1-1m-2516 1l1 1-1-1z" class="G"/><path d="M180 1453l1 1-1-1m1024 0l1 1-1-1z" class="H"/><path d="M2693 1453l1 1-1-1m-2511 1l1 1-1-1m1023 0l1 1-1-1m1485 0l1 1-1-1m-2506 1l1 1-1-1z" class="G"/><path d="M185 1455l1 1-1-1z" class="H"/><path d="M2688 1455l1 1-1-1m-2501 1l1 1-1-1z" class="G"/><path d="M188 1456l1 1-1-1z" class="H"/><path d="M1206 1456l1 1-1-1m1479 0l1 1-1-1m-2495 1l1 1-1-1z" class="G"/><path d="M191 1457l1 1-1-1z" class="H"/><path d="M1207 1457l1 1-1-1m1475 0l1 1-1-1m-2489 1l1 1-1-1z" class="G"/><path d="M194 1458l1 1-1-1m1013 0l1 1-1-1z" class="H"/><path d="M2678.67 1458.33l.66.34-.66-.34m-2482.003 1l.666.34-.666-.34z" class="G"/><path d="M198 1459l1 1-1-1z" class="H"/><path d="M1208 1459l1 1-1-1m1467 0l1 1-1-1m-2475 1l1 1-1-1z" class="G"/><path d="M201 1460l1 1-1-1m1007 0l1 1-1-1z" class="H"/><path d="M2671.67 1460.33l.66.34-.66-.34m-2467.003 1l.666.34-.666-.34z" class="G"/><path d="M206 1461l1 1-1-1z" class="H"/><path d="M1209 1461l1 1-1-1m1457.67.33l.66.34-.66-.34m-2458.003 1l.666.34-.666-.34z" class="G"/><path d="M210.667 1462.33l.666.34-.666-.34z" class="H"/><path d="M2661.67 1462.33l.66.34-.66-.34m-2447.003 1l.666.34-.666-.34z" class="G"/><path d="M216.667 1463.33l.666.34-.666-.34M1210 1463l1 1-1-1z" class="H"/><path d="M2654 1463v1h3l-3-1m-2434 1v1h4l-4-1z" class="G"/><path d="M224 1464v1h3l-3-1z" class="H"/><path d="M1211 1464l-32 1h-63-207-678v1h748 177 42l13-2m1429 0v1h8l-8-1z" class="G"/><defs><path id="A" d="M2784.33 194.667l.34.666-.34-.666z"/><path id="B" d="M1491.67 223.333l.66.334-.66-.334z"/><path id="C" d="M1057.33 1155.67l.34.66-.34-.66z"/><path id="D" d="M101 1381l1 1-1-1m1061 0l1 1-1-1z"/></defs></svg>