<?xml version="1.0" standalone="yes"?>
<svg xmlns="http://www.w3.org/2000/svg" width="1280" height="549">
<path style="fill:#010101; stroke:none;" d="M0 0L0 549L1280 549L1280 0L0 0z"/>
<path style="fill:#1f7db7; stroke:none;" d="M116 90L927 90L1103 90L1148 90L1165.26 88.9722L1169 77L1176 43L1090 43C1082.75 43 1064.45 39.6765 1058.56 44.0278C1055.93 45.9771 1055.63 51.0461 1055 54C1053.23 62.2558 1050.67 70.5685 1050 79L1023 79L1030 43L947 43C938.245 43 921.263 39.6917 913.43 43.6034C904.447 48.0888 910.165 70.4782 903.262 77.3966C899.651 81.0149 888.749 79 884 79L831 79L838 43L752 43C744.876 43 726.314 39.6651 720.589 44.0278C718.093 45.9293 717.824 51.153 717.21 54C715.42 62.2926 713.087 70.5822 712 79L639 79C629.399 79 615.043 81.6879 606 78.3974C594.829 74.3324 584.709 62.1998 574 56.3056C548.254 42.1346 520.322 34.0975 491 32.0895C462.705 30.1518 433.614 35.2114 407 44.6921C395.817 48.6756 384.342 57.0597 373 59.6065C348.561 65.0938 320 58.1853 295 60.0548C287.466 60.6182 283.323 68.0757 276 68.8912C254.268 71.3114 231.677 66.2929 210 69.1335C203.513 69.9836 200.744 76.2811 195 78.3966C187.789 81.0524 176.644 79 169 79C151.274 79 126.574 73.0957 116 90z"/>
<path style="fill:#0101ff; stroke:none;" d="M504 33L505 34L504 33M511 34L512 35L511 34M431 37L432 38L431 37z"/>
<path style="fill:#086fb7; stroke:none;" d="M427 38L428 39L427 38z"/>
<path style="fill:#0101ff; stroke:none;" d="M410 43L411 44L410 43M1030 43L1031 44L1030 43z"/>
<path style="fill:#086fb7; stroke:none;" d="M1057 43L1058 44L1057 43M402 46L403 47L402 46z"/>
<path style="fill:#018181; stroke:none;" d="M397 48L398 49L397 48M560 49L561 50L560 49z"/>
<path style="fill:#086fb7; stroke:none;" d="M562 50L563 51L562 50M836 52L837 53L836 52M568 53L569 54L568 53z"/>
<path style="fill:#018181; stroke:none;" d="M378 57L379 58L378 57z"/>
<path style="fill:#0101ff; stroke:none;" d="M289 61L290 62L289 61z"/>
<path style="fill:#086fb7; stroke:none;" d="M834 61L835 62L834 61z"/>
<path style="fill:#018181; stroke:none;" d="M589 66L590 67L589 66z"/>
<path style="fill:#086fb7; stroke:none;" d="M281 67L282 68L281 67M906 67L907 68L906 67z"/>
<path style="fill:#0101ff; stroke:none;" d="M206 69L207 70L206 69z"/>
<path style="fill:#086fb7; stroke:none;" d="M593 69L594 70L593 69M205 70L206 71L205 70M832 70L833 71L832 70M904 76L905 77L904 76M118 86L119 87L118 86z"/>
<path style="fill:#0101ff; stroke:none;" d="M117 87L118 88L117 87z"/>
<path style="fill:#1f7db7; stroke:none;" d="M77 146L1154 146L1164 100L1083 100C1072.4 100 1057.35 97.2215 1047.23 100.318C1043.76 101.381 1043.57 106.005 1042.88 109C1041.33 115.716 1041.1 127.065 1037.01 132.682C1033.2 137.922 1015.95 135 1010 135L1018 100L899 100L892 135L818 135L826 100L707 100C705.35 107.998 704.441 127.784 698.436 133.397C695.555 136.09 689.61 135 686 135C675.681 135 657.672 138.512 648.213 134.397C636.757 129.413 636.726 105.703 623.91 100.603C615.222 97.1465 600.33 100 591 100L514 100L386 100C366.121 100 343.626 97.0212 324.015 100.148C315.441 101.515 313.295 113.592 304.999 115.682C282.661 121.31 256.792 112.441 234.039 116.148C228.18 117.103 226.707 124.233 220.996 125.682C202.183 130.456 179.362 124.35 160.004 126.059C153.798 126.606 153.302 133.209 147.907 134.682C139.404 137.004 127.809 135 119 135C104.724 135 81.8692 129.13 77 146z"/>
<path style="fill:#086fb7; stroke:none;" d="M318 103L319 104L318 103z"/>
<path style="fill:#018181; stroke:none;" d="M627 103L628 104L627 103z"/>
<path style="fill:#086fb7; stroke:none;" d="M898 103L899 104L898 103z"/>
<path style="fill:#0101ff; stroke:none;" d="M317 104L318 105L317 104z"/>
<path style="fill:#086fb7; stroke:none;" d="M1043 106L1044 107L1043 106z"/>
<path style="fill:#018181; stroke:none;" d="M632 110L633 111L632 110M311 111L312 112L311 111z"/>
<path style="fill:#086fb7; stroke:none;" d="M896 112L897 113L896 112M634 113L635 114L634 113M1041 115L1042 116L1041 115z"/>
<path style="fill:#0101ff; stroke:none;" d="M1014 116L1015 117L1014 116M1159 119L1160 120L1159 119z"/>
<path style="fill:#086fb7; stroke:none;" d="M894 121L895 122L894 121z"/>
<path style="fill:#018181; stroke:none;" d="M1039 124L1040 125L1039 124z"/>
<path style="fill:#0101ff; stroke:none;" d="M1012 125L1013 126L1012 125M1157 128L1158 129L1157 128z"/>
<path style="fill:#018181; stroke:none;" d="M892 130L893 131L892 130z"/>
<path style="fill:#086fb7; stroke:none;" d="M152 131L153 132L152 131z"/>
<path style="fill:#018181; stroke:none;" d="M1037 133L1038 134L1037 133z"/>
<path style="fill:#0101ff; stroke:none;" d="M150 134L151 135L150 134M1010 134L1011 135L1010 134M81 136L82 137L81 136M1155 137L1156 138L1155 137z"/>
<path style="fill:#1f7db7; stroke:none;" d="M127 182L125 191L79 191L59.2785 191.603L55 202L894 202L1076 202L1123 202L1140.27 200.972L1144.12 189L1151 156L1032 156L1025 191L998 191L1006 156L925 156C914.395 156 899.36 153.23 889.228 156.318C881.435 158.693 887.076 174.11 879.772 177.397C874.383 179.822 864.849 178 859 178L809 178L813 156L727 156C719.761 156 701.444 152.676 695.564 157.028C693.099 158.852 692.97 163.26 692.349 166C690.48 174.259 688.13 182.61 687 191C681.651 191 666.5 193.613 663.178 188.682C658.392 181.578 662.436 157.123 650.956 156.059C626.759 153.815 601.312 156 577 156L428 156L331 156C316.041 156 298.832 153.608 284.105 156.148C276.397 157.478 278.509 169.673 270.957 171.682C249.893 177.286 223.786 170.05 202.043 172.059C195.561 172.658 196.395 180.823 189.985 181.852C170.071 185.048 147.19 182 127 182z"/>
<path style="fill:#018181; stroke:none;" d="M886 157L887 158L886 157M1031 160L1032 161L1031 160z"/>
<path style="fill:#0101ff; stroke:none;" d="M1004 161L1005 162L1004 161M1149 164L1150 165L1149 164z"/>
<path style="fill:#018181; stroke:none;" d="M884 166L885 167L884 166M1029 169L1030 170L1029 169M1002 170L1003 171L1002 170z"/>
<path style="fill:#0101ff; stroke:none;" d="M197 173L198 174L197 173M1147 173L1148 174L1147 173z"/>
<path style="fill:#018181; stroke:none;" d="M882 175L883 176L882 175M1027 178L1028 179L1027 178M1000 179L1001 180L1000 179z"/>
<path style="fill:#0101ff; stroke:none;" d="M1145 182L1146 183L1145 182M1025 187L1026 188L1025 187z"/>
<path style="fill:#086fb7; stroke:none;" d="M662 188L663 189L662 188z"/>
<path style="fill:#018181; stroke:none;" d="M998 188L999 189L998 188M1143 191L1144 192L1143 191M1141 200L1142 201L1141 200z"/>
<path style="fill:#1f7db7; stroke:none;" d="M262 212L260 228L183 228L182 238L136 238L117.434 238.603L115 248L48 248L49 258L1129 258L1139 212L1020 212L1014.42 237L1010.57 246.972L985 248L993 212L682 212L676.651 237L672.697 246.972L662 248L665 212L262 212z"/>
<path style="fill:#086fb7; stroke:none;" d="M261 214L262 215L261 214z"/>
<path style="fill:#0101ff; stroke:none;" d="M1019 214L1020 215L1019 214z"/>
<path style="fill:#086fb7; stroke:none;" d="M992 215L993 216L992 215z"/>
<path style="fill:#018181; stroke:none;" d="M1137 218L1138 219L1137 218z"/>
<path style="fill:#0101ff; stroke:none;" d="M1017 223L1018 224L1017 223z"/>
<path style="fill:#086fb7; stroke:none;" d="M679 224L680 225L679 224M990 224L991 225L990 224M259 227L260 228L259 227M1135 227L1136 228L1135 227z"/>
<path style="fill:#0101ff; stroke:none;" d="M1015 232L1016 233L1015 232M182 233L183 234L182 233z"/>
<path style="fill:#086fb7; stroke:none;" d="M677 233L678 234L677 233M988 233L989 234L988 233M1133 236L1134 237L1133 236z"/>
<path style="fill:#0101ff; stroke:none;" d="M1013 241L1014 242L1013 241z"/>
<path style="fill:#086fb7; stroke:none;" d="M675 242L676 243L675 242M986 242L987 243L986 242M1131 245L1132 246L1131 245M48.3333 254.667L48.6667 255.333L48.3333 254.667M1129 254L1130 255L1129 254z"/>
<path style="fill:#018181; stroke:none;" d="M48 256L49 257L48 256z"/>
<path style="fill:#0101ff; stroke:none;" d="M48 257L49 258L48 257z"/>
<path style="fill:#1f7db7; stroke:none;" d="M258 268L260 285L184 285L186 294L120 294L122 304L55 304L58.5131 313.972L72 315L106 315L270 315L971 315L1160 315L1199 315L1214.41 313.972L1217 304L1119 304L1126 268L1040 268C1032.76 268 1014.44 264.676 1008.56 269.028C1006.1 270.852 1005.97 275.26 1005.35 278C1003.42 286.517 1000.71 295.292 1000 304L973 304L981 268L759 268L697 268L671.43 268.603L667.576 278L662 304L646 304L658 268L258 268z"/>
<path style="fill:#018181; stroke:none;" d="M669 269L670 270L669 269z"/>
<path style="fill:#086fb7; stroke:none;" d="M1125 272L1126 273L1125 272M656 274L657 275L656 274z"/>
<path style="fill:#018181; stroke:none;" d="M667 278L668 279L667 278z"/>
<path style="fill:#086fb7; stroke:none;" d="M1123 281L1124 282L1123 281z"/>
<path style="fill:#018181; stroke:none;" d="M665 287L666 288L665 287z"/>
<path style="fill:#086fb7; stroke:none;" d="M1121 290L1122 291L1121 290M650 292L651 293L650 292z"/>
<path style="fill:#010101; stroke:none;" d="M783 292L781 304L834 304L853.262 302.972L857 292L783 292z"/>
<path style="fill:#0101ff; stroke:none;" d="M119 294L120 295L119 294M663 296L664 297L663 296z"/>
<path style="fill:#018181; stroke:none;" d="M781 300L782 301L781 300z"/>
<path style="fill:#086fb7; stroke:none;" d="M121 303L122 304L121 303M1217 304L1218 305L1217 304z"/>
<path style="fill:#018181; stroke:none;" d="M55 307L56 308L55 307M1216 309L1217 310L1216 309z"/>
<path style="fill:#086fb7; stroke:none;" d="M57 314L58 315L57 314z"/>
<path style="fill:#0101ff; stroke:none;" d="M271.333 324.667L271.667 325.333L271.333 324.667z"/>
<path style="fill:#1f7db7; stroke:none;" d="M272 324L279 341L204 341L209 351L141 351L146 360L78 360L84.3789 370.397L102 371L142 371L344 371L1203 371L1213 325L1068 325C1045.77 325 1019.97 321.321 998.109 325.148C989.158 326.715 991.69 351.255 987.012 357.682C983.27 362.822 966.815 360 961 360L968 325L849 325L842 360L768 360L776 325L657 325L650 360L610 360C619.62 349.947 629.031 337.621 635 325L272 324z"/>
<path style="fill:#086fb7; stroke:none;" d="M775 327L776 328L775 327z"/>
<path style="fill:#018181; stroke:none;" d="M1212 327L1213 328L1212 327z"/>
<path style="fill:#086fb7; stroke:none;" d="M630 332L631 333L630 332z"/>
<path style="fill:#0101ff; stroke:none;" d="M655 332L656 333L655 332M275 334L276 335L275 334M276 336L277 337L276 336z"/>
<path style="fill:#086fb7; stroke:none;" d="M773 336L774 337L773 336z"/>
<path style="fill:#018181; stroke:none;" d="M1210 336L1211 337L1210 336z"/>
<path style="fill:#0101ff; stroke:none;" d="M277 338L278 339L277 338M278 340L279 341L278 340M203 341L204 342L203 341z"/>
<path style="fill:#018181; stroke:none;" d="M624 341L625 342L624 341z"/>
<path style="fill:#0101ff; stroke:none;" d="M653 341L654 342L653 341z"/>
<path style="fill:#018181; stroke:none;" d="M204 343L205 344L204 343z"/>
<path style="fill:#086fb7; stroke:none;" d="M771 345L772 346L771 345z"/>
<path style="fill:#018181; stroke:none;" d="M1208 345L1209 346L1208 345z"/>
<path style="fill:#086fb7; stroke:none;" d="M208 350L209 351L208 350z"/>
<path style="fill:#0101ff; stroke:none;" d="M651 350L652 351L651 350z"/>
<path style="fill:#018181; stroke:none;" d="M615 353L616 354L615 353z"/>
<path style="fill:#086fb7; stroke:none;" d="M769 354L770 355L769 354z"/>
<path style="fill:#018181; stroke:none;" d="M1206 354L1207 355L1206 354z"/>
<path style="fill:#0101ff; stroke:none;" d="M145 359L146 360L145 359z"/>
<path style="fill:#018181; stroke:none;" d="M610 359L611 360L610 359z"/>
<path style="fill:#0101ff; stroke:none;" d="M649 359L650 360L649 359M78 362L79 363L78 362z"/>
<path style="fill:#086fb7; stroke:none;" d="M1204 363L1205 364L1204 363z"/>
<path style="fill:#0101ff; stroke:none;" d="M307 381L308 382L307 381z"/>
<path style="fill:#1f7db7; stroke:none;" d="M308 381C310.856 387.073 317.954 393.181 324 396L324 397L247 397L257 406L257 407L185 407L193 416L122 416C130.491 434.208 165.077 427 182 427L362 427L1003 427L1140 427L1176 427C1179.65 427 1186.34 428.263 1189.44 425.972C1192.39 423.783 1192.6 417.332 1193.35 414C1195.77 403.316 1199.52 391.953 1200 381L982 381L975 416L948 416L956 381L875 381C864.404 381 849.348 378.221 839.228 381.318C829.415 384.321 836.023 409.496 827.686 414.972C823.214 417.909 813.186 416 808 416L756 416L763 381L683 381C672.296 381 657.403 378.29 647.147 381.318C637.198 384.255 643.746 409.38 635.567 414.972C630.073 418.728 615.533 416 609 416L539 416L539 415C555.677 409.723 578.06 394.558 589 381L308 381z"/>
<path style="fill:#0101ff; stroke:none;" d="M763 381L764 382L763 381M585 384L586 385L585 384z"/>
<path style="fill:#086fb7; stroke:none;" d="M835 387L836 388L835 387M314 388L315 389L314 388z"/>
<path style="fill:#0101ff; stroke:none;" d="M315 389L316 390L315 389M579 389L580 390L579 389z"/>
<path style="fill:#086fb7; stroke:none;" d="M761 390L762 391L761 390M1198 390L1199 391L1198 390M323 396L324 397L323 396M833 396L834 397L833 396M248 399L249 400L248 399M1196 399L1197 400L1196 399z"/>
<path style="fill:#0101ff; stroke:none;" d="M249 400L250 401L249 400z"/>
<path style="fill:#018181; stroke:none;" d="M564 400L565 401L564 400z"/>
<path style="fill:#0101ff; stroke:none;" d="M561 402L562 403L561 402z"/>
<path style="fill:#086fb7; stroke:none;" d="M831 405L832 406L831 405M256 406L257 407L256 406z"/>
<path style="fill:#0101ff; stroke:none;" d="M184 407L185 408L184 407z"/>
<path style="fill:#086fb7; stroke:none;" d="M976 408L977 409L976 408M1194 408L1195 409L1194 408M186 409L187 410L186 409z"/>
<path style="fill:#0101ff; stroke:none;" d="M187 410L188 411L187 410z"/>
<path style="fill:#018181; stroke:none;" d="M544 412L545 413L544 412z"/>
<path style="fill:#086fb7; stroke:none;" d="M829 414L830 415L829 414z"/>
<path style="fill:#0101ff; stroke:none;" d="M121 416L122 417L121 416z"/>
<path style="fill:#086fb7; stroke:none;" d="M1192 417L1193 418L1192 417M1190 426L1191 427L1190 426z"/>
<path style="fill:#1f7db7; stroke:none;" d="M174 448.44C140.497 453.554 135.74 511.498 175 505.699C207.145 500.951 211.204 442.761 174 448.44z"/>
<path style="fill:#018181; stroke:none;" d="M181 448L182 449L181 448M462 448L463 449L462 448z"/>
<path style="fill:#1f7db7; stroke:none;" d="M463 448.44C429.26 453.59 424.355 511.555 464 505.699C495.891 500.989 500.031 442.787 463 448.44M599 448.439C566.145 453.56 561.185 511.296 600 505.7C632.644 500.994 636.815 442.545 599 448.439z"/>
<path style="fill:#0101ff; stroke:none;" d="M658 448L659 449L658 448z"/>
<path style="fill:#1f7db7; stroke:none;" d="M680 486L668 484C666.886 486.531 665.721 488.858 663.786 490.894C657.958 497.024 649.108 496.402 645.732 488.003C641.7 477.975 648.651 460.921 660 459.383C666.851 458.456 667.893 463.979 672.495 466.969C675.34 468.818 679.858 467.248 683 467C682.145 448.335 660.981 444.236 647 452.363C636.649 458.381 633.221 469.798 632.514 481C630.575 511.703 674.917 514.498 680 486M1071 475C1059.44 475 1045.84 470.773 1044 485L1058 485C1055.19 497.84 1034.92 499.997 1031.53 486C1027.22 468.184 1051.64 446.417 1062 468L1073 467C1072.09 449.505 1051.94 444.879 1038 450.478C1026.05 455.278 1019.3 468.56 1019.01 481C1018.48 504.075 1047.04 515.681 1064.7 500.301C1069.89 495.782 1070.72 481.536 1071 475z"/>
<path style="fill:#086fb7; stroke:none;" d="M214 449L215 450L214 449z"/>
<path style="fill:#1f7db7; stroke:none;" d="M203 505L215 505L221 471L236.649 503.972L248 505L259 449L248.589 450.028L245.576 459L241 484C235.569 475.46 233.427 455.796 225.351 450.028C221.668 447.397 215.165 448.79 213.709 453.059C208.31 468.887 205.232 488.426 203 505M266 449L264 459L280 459L271 505C274.151 505 279.633 506.026 282.272 503.972C285.027 501.828 285.169 496.156 285.8 493C287.365 485.179 287.764 466.21 293.589 460.603C296.837 457.477 304.832 459 309 459L310 449L266 449M296 505L308.471 503.397L316.213 493.603L336 493L337 505L349 505C347.92 491.33 344.855 477.527 342.586 464C341.993 460.462 342.224 452.421 339.258 450.028C335.692 447.15 327.203 448.664 324.735 452.148C314.43 466.696 300.929 487.891 296 505M366 449L355 505L366.411 503.972L372 482C388.273 482.711 382.916 496.715 392.699 503.972C395.607 506.13 401.563 505 405 505L394 481C407.359 479.825 417.229 460.653 403.956 451.738C394.783 445.577 376.573 449 366 449M421 449L410 505L421.411 503.972L425.424 490L434 449L421 449M524 449L513 505C516.198 505 521.718 506.025 524.411 503.972C528.606 500.774 529.586 486.067 530 481L551 481L546 505L558 505L569 449L557 449L553 470L533 470L537 449L524 449z"/>
<path style="fill:#018181; stroke:none;" d="M653 449L654 450L653 449M670 449L671 450L670 449z"/>
<path style="fill:#1f7db7; stroke:none;" d="M695 449L684 505L696 505C698.347 492.897 701.237 487.691 710 479C711.749 485.07 717.437 501.596 723.39 504.397C726.812 506.006 732.289 505 736 505L724.742 482L720.677 472.001L743 449C724.355 449 716.066 458.204 703 471L707 449L695 449M739 505L770 505L782.262 503.972L785 495L753 495L756 481C768.038 481 785.067 485.958 787 471L759 471L761 459L791 459L792 449L763 449L751.738 450.028L747.4 465L739 505M796 449L810.451 484L807 505L818.836 503.397L824.415 484L849 449L835.326 449.603L818 471C815.457 456.689 810.334 449 796 449z"/>
<path style="fill:#086fb7; stroke:none;" d="M873 449L874 450L873 449z"/>
<path style="fill:#1f7db7; stroke:none;" d="M862 505L890 505L901.411 503.972L904 495L876 495L886 449L874.564 450.028L870.2 465L862 505M920 449L909 505L953 505L954 495L923 495C923.699 491.394 923.814 485.274 926.589 482.603C931.396 477.976 948.574 481 955 481L956 471L928 471L930 459C942.15 459 960.046 464.116 962 449L920 449M956 505L968.39 503.972L977.105 493.603L996 493C997.288 503.182 998.663 505 1009 505L1001 449L987.39 450.028L977.85 465L956 505M1087 449C1084.51 461.835 1076.46 480.04 1079.53 493C1083.51 509.774 1109.75 509.583 1119.79 498.895C1130.29 487.715 1131.18 463.534 1134 449L1121 449C1120.09 460.407 1117.99 480.483 1111.3 489.956C1107.24 495.692 1095.95 498.756 1092.07 490.942C1090.22 487.232 1092.5 481.755 1093.35 478C1095.49 468.549 1098.58 458.702 1099 449L1087 449M1142 449L1131 505L1175 505L1177 495L1145 495C1145.72 491.304 1145.91 485.376 1148.73 482.603C1153.43 477.984 1170.65 481 1177 481L1178 471L1150 471L1152 459C1164.15 459 1182.05 464.116 1184 449L1142 449z"/>
<path style="fill:#0101ff; stroke:none;" d="M750 450L751 451L750 450z"/>
<path style="fill:#018181; stroke:none;" d="M452 451L453 452L452 451z"/>
<path style="fill:#086fb7; stroke:none;" d="M479 451L480 452L479 451z"/>
<path style="fill:#0101ff; stroke:none;" d="M724 451L725 452L724 451z"/>
<path style="fill:#018181; stroke:none;" d="M741 451L742 452L741 451z"/>
<path style="fill:#0101ff; stroke:none;" d="M265 452L266 453L265 452M556 452L557 453L556 452z"/>
<path style="fill:#086fb7; stroke:none;" d="M723 452L724 453L723 452z"/>
<path style="fill:#018181; stroke:none;" d="M1065 452L1066 453L1065 452z"/>
<path style="fill:#0101ff; stroke:none;" d="M193 453L194 454L193 453M246 454L247 455L246 454z"/>
<path style="fill:#018181; stroke:none;" d="M568 454L569 455L568 454z"/>
<path style="fill:#0101ff; stroke:none;" d="M584 454L585 455L584 454z"/>
<path style="fill:#086fb7; stroke:none;" d="M791 454L792 455L791 454M811 454L812 455L811 454z"/>
<path style="fill:#0101ff; stroke:none;" d="M1001 454L1002 455L1001 454M195 455L196 456L195 455z"/>
<path style="fill:#086fb7; stroke:none;" d="M749 455L750 456L749 455M983 455L984 456L983 455z"/>
<path style="fill:#0101ff; stroke:none;" d="M829 456L830 457L829 456z"/>
<path style="fill:#086fb7; stroke:none;" d="M1069 456L1070 457L1069 456z"/>
<path style="fill:#0101ff; stroke:none;" d="M257 457L258 458L257 457M264 457L265 458L264 457z"/>
<path style="fill:#018181; stroke:none;" d="M341 457L342 458L341 457z"/>
<path style="fill:#086fb7; stroke:none;" d="M555 457L556 458L555 457z"/>
<path style="fill:#0101ff; stroke:none;" d="M799 457L800 458L799 457z"/>
<path style="fill:#018181; stroke:none;" d="M918 457L919 458L918 457z"/>
<path style="fill:#086fb7; stroke:none;" d="M580 458L581 459L580 458z"/>
<path style="fill:#018181; stroke:none;" d="M733 458L734 459L733 458M842 458L843 459L842 458z"/>
<path style="fill:#010101; stroke:none;" d="M172 459.653C156.139 464.628 153.404 501.307 174 495.193C191.601 489.968 194.577 452.572 172 459.653z"/>
<path style="fill:#086fb7; stroke:none;" d="M245 459L246 460L245 459z"/>
<path style="fill:#010101; stroke:none;" d="M374 473C377.989 473 382.016 473.162 386 472.96C387.69 472.874 389.403 472.727 390.995 472.106C407.53 465.669 384.13 452.22 377.164 460.603C374.786 463.466 374.692 469.434 374 473M461 459.653C444.83 464.725 442.055 501.501 463 495.192C480.24 489.999 483.563 452.576 461 459.653M598 459.573C581.947 464.152 578.023 500.71 599 495.196C616.712 490.54 620.416 453.178 598 459.573z"/>
<path style="fill:#018181; stroke:none;" d="M606 459L607 460L606 459z"/>
<path style="fill:#0101ff; stroke:none;" d="M1026 459L1027 460L1026 459M1044 459L1045 460L1044 459z"/>
<path style="fill:#086fb7; stroke:none;" d="M1055 459L1056 460L1055 459z"/>
<path style="fill:#0101ff; stroke:none;" d="M1152 459L1153 460L1152 459M230 460L231 461L230 460z"/>
<path style="fill:#018181; stroke:none;" d="M608 460L609 461L608 460M638 460L639 461L638 460z"/>
<path style="fill:#086fb7; stroke:none;" d="M655 460L656 461L655 460M1058 461L1059 462L1058 461z"/>
<path style="fill:#0101ff; stroke:none;" d="M488 462L489 463L488 462z"/>
<path style="fill:#086fb7; stroke:none;" d="M652 462L653 463L652 462z"/>
<path style="fill:#018181; stroke:none;" d="M669 462L670 463L669 462z"/>
<path style="fill:#0101ff; stroke:none;" d="M979 462L980 463L979 462z"/>
<path style="fill:#018181; stroke:none;" d="M1024 462L1025 463L1024 462z"/>
<path style="fill:#0101ff; stroke:none;" d="M1139 462L1140 463L1139 462M151 463L152 464L151 463z"/>
<path style="fill:#086fb7; stroke:none;" d="M318 463L319 464L318 463z"/>
<path style="fill:#0101ff; stroke:none;" d="M418 463L419 464L418 463z"/>
<path style="fill:#086fb7; stroke:none;" d="M591 463L592 464L591 463z"/>
<path style="fill:#0101ff; stroke:none;" d="M711 463L712 464L711 463z"/>
<path style="fill:#018181; stroke:none;" d="M815 463L816 464L815 463z"/>
<path style="fill:#010101; stroke:none;" d="M991 463L981 483L994 483L991 463z"/>
<path style="fill:#0101ff; stroke:none;" d="M1118 463L1119 464L1118 463z"/>
<path style="fill:#010101; stroke:none;" d="M330 464L321 483L334 483L330 464z"/>
<path style="fill:#018181; stroke:none;" d="M576 464L577 465L576 464z"/>
<path style="fill:#086fb7; stroke:none;" d="M650 464L651 465L650 464M710 464L711 465L710 464M150 465L151 466L150 465z"/>
<path style="fill:#0101ff; stroke:none;" d="M232 465L233 466L232 465z"/>
<path style="fill:#086fb7; stroke:none;" d="M331 465L332 466L331 465z"/>
<path style="fill:#018181; stroke:none;" d="M430 465L431 466L430 465z"/>
<path style="fill:#086fb7; stroke:none;" d="M533 465L534 466L533 465z"/>
<path style="fill:#018181; stroke:none;" d="M725 465L726 466L725 465M1073 465L1074 466L1073 465z"/>
<path style="fill:#086fb7; stroke:none;" d="M1130 465L1131 466L1130 465z"/>
<path style="fill:#018181; stroke:none;" d="M452 466L453 467L452 466z"/>
<path style="fill:#086fb7; stroke:none;" d="M489 466L490 467L489 466z"/>
<path style="fill:#018181; stroke:none;" d="M759 466L760 467L759 466M1035 466L1036 467L1035 466z"/>
<path style="fill:#086fb7; stroke:none;" d="M1073 466L1074 467L1073 466z"/>
<path style="fill:#018181; stroke:none;" d="M438 467L439 468L438 467M588 467L589 468L588 467z"/>
<path style="fill:#0101ff; stroke:none;" d="M210 468L211 469L210 468M362 468L363 469L362 468z"/>
<path style="fill:#086fb7; stroke:none;" d="M417 468L418 469L417 468z"/>
<path style="fill:#018181; stroke:none;" d="M520 468L521 469L520 468z"/>
<path style="fill:#086fb7; stroke:none;" d="M804 468L805 469L804 468z"/>
<path style="fill:#018181; stroke:none;" d="M928 468L929 469L928 468z"/>
<path style="fill:#086fb7; stroke:none;" d="M1117 468L1118 469L1117 468z"/>
<path style="fill:#018181; stroke:none;" d="M626 469L627 470L626 469z"/>
<path style="fill:#0101ff; stroke:none;" d="M834 469L835 470L834 469z"/>
<path style="fill:#018181; stroke:none;" d="M234 470L235 471L234 470z"/>
<path style="fill:#0101ff; stroke:none;" d="M314 470L315 471L314 470M374 470L375 471L374 470z"/>
<path style="fill:#086fb7; stroke:none;" d="M881 470L882 471L881 470z"/>
<path style="fill:#018181; stroke:none;" d="M987 470L988 471L987 470z"/>
<path style="fill:#0101ff; stroke:none;" d="M1129 470L1130 471L1129 470z"/>
<path style="fill:#086fb7; stroke:none;" d="M221 471L222 472L221 471z"/>
<path style="fill:#0101ff; stroke:none;" d="M326 471L327 472L326 471M690 471L691 472L690 471M160 472L161 473L160 472z"/>
<path style="fill:#018181; stroke:none;" d="M1094 472L1095 473L1094 472z"/>
<path style="fill:#086fb7; stroke:none;" d="M209 473L210 474L209 473M223 473L224 474L223 473M361 473L362 474L361 473z"/>
<path style="fill:#0101ff; stroke:none;" d="M407 473L408 474L407 473z"/>
<path style="fill:#086fb7; stroke:none;" d="M626 473L627 474L626 473z"/>
<path style="fill:#018181; stroke:none;" d="M868 473L869 474L868 473z"/>
<path style="fill:#086fb7; stroke:none;" d="M289 474L290 475L289 474z"/>
<path style="fill:#018181; stroke:none;" d="M477 474L478 475L477 474z"/>
<path style="fill:#0101ff; stroke:none;" d="M745 474L746 475L745 474z"/>
<path style="fill:#086fb7; stroke:none;" d="M159 475L160 476L159 475M236 475L237 476L236 475z"/>
<path style="fill:#0101ff; stroke:none;" d="M880 475L881 476L880 475z"/>
<path style="fill:#086fb7; stroke:none;" d="M1071 475L1072 476L1071 475M689 476L690 477L689 476z"/>
<path style="fill:#018181; stroke:none;" d="M721 476L722 477L721 476z"/>
<path style="fill:#0101ff; stroke:none;" d="M1177 476L1178 477L1177 476z"/>
<path style="fill:#018181; stroke:none;" d="M276 477L277 478L276 477z"/>
<path style="fill:#086fb7; stroke:none;" d="M489 477L490 478L489 477M225 478L226 479L225 478z"/>
<path style="fill:#0101ff; stroke:none;" d="M241 478L242 479L241 478z"/>
<path style="fill:#018181; stroke:none;" d="M563 478L564 479L563 478z"/>
<path style="fill:#086fb7; stroke:none;" d="M970 478L971 479L970 478z"/>
<path style="fill:#0101ff; stroke:none;" d="M288 479L289 480L288 479z"/>
<path style="fill:#086fb7; stroke:none;" d="M709 479L710 480L709 479M744 479L745 480L744 479M1005 479L1006 480L1005 479z"/>
<path style="fill:#0101ff; stroke:none;" d="M1080 479L1081 480L1080 479z"/>
<path style="fill:#086fb7; stroke:none;" d="M447 480L448 481L447 480M632 480L633 481L632 480z"/>
<path style="fill:#0101ff; stroke:none;" d="M826 480L827 481L826 480z"/>
<path style="fill:#086fb7; stroke:none;" d="M1070 480L1071 481L1070 480z"/>
<path style="fill:#018181; stroke:none;" d="M252 481L253 482L252 481z"/>
<path style="fill:#0101ff; stroke:none;" d="M394 481L395 482L394 481z"/>
<path style="fill:#086fb7; stroke:none;" d="M550 481L551 482L550 481z"/>
<path style="fill:#018181; stroke:none;" d="M913 481L914 482L913 481z"/>
<path style="fill:#0101ff; stroke:none;" d="M981 481L982 482L981 481z"/>
<path style="fill:#086fb7; stroke:none;" d="M1092 481L1093 482L1092 481M186 482L187 483L186 482z"/>
<path style="fill:#0101ff; stroke:none;" d="M320 482L321 483L320 482M925 482L926 483L925 482z"/>
<path style="fill:#086fb7; stroke:none;" d="M227 483L228 484L227 483M240 483L241 484L240 483M381 483L382 484L381 483M474 484L475 485L474 484z"/>
<path style="fill:#018181; stroke:none;" d="M632 484L633 485L632 484z"/>
<path style="fill:#086fb7; stroke:none;" d="M823 484L824 485L823 484z"/>
<path style="fill:#018181; stroke:none;" d="M383 485L384 486L383 485M396 485L397 486L396 485z"/>
<path style="fill:#0101ff; stroke:none;" d="M966 485L967 486L966 485M1006 485L1007 486L1006 485M1069 485L1070 486L1069 485z"/>
<path style="fill:#018181; stroke:none;" d="M305 486L306 487L305 486M701 486L702 487L701 486z"/>
<path style="fill:#0101ff; stroke:none;" d="M1134 486L1135 487L1134 486M413 487L414 488L413 487z"/>
<path style="fill:#018181; stroke:none;" d="M1057 487L1058 488L1057 487z"/>
<path style="fill:#086fb7; stroke:none;" d="M229 488L230 489L229 488z"/>
<path style="fill:#018181; stroke:none;" d="M346 488L347 489L346 488M572 488L573 489L572 488M645 488L646 489L645 488z"/>
<path style="fill:#0101ff; stroke:none;" d="M1112 488L1113 489L1112 488z"/>
<path style="fill:#086fb7; stroke:none;" d="M182 489L183 490L182 489M425 489L426 490L425 489M528 489L529 490L528 489z"/>
<path style="fill:#0101ff; stroke:none;" d="M679 489L680 490L679 489z"/>
<path style="fill:#086fb7; stroke:none;" d="M728 489L729 490L728 489M147 490L148 491L147 490M470 490L471 491L470 490z"/>
<path style="fill:#018181; stroke:none;" d="M1111 490L1112 491L1111 490z"/>
<path style="fill:#0101ff; stroke:none;" d="M180 491L181 492L180 491M450 491L451 492L450 491M484 491L485 492L484 491z"/>
<path style="fill:#086fb7; stroke:none;" d="M678 491L679 492L678 491z"/>
<path style="fill:#0101ff; stroke:none;" d="M809 491L810 492L809 491z"/>
<path style="fill:#086fb7; stroke:none;" d="M1133 491L1134 492L1133 491M162 492L163 493L162 492z"/>
<path style="fill:#0101ff; stroke:none;" d="M357 492L358 493L357 492z"/>
<path style="fill:#086fb7; stroke:none;" d="M412 492L413 493L412 492z"/>
<path style="fill:#018181; stroke:none;" d="M515 492L516 493L515 492z"/>
<path style="fill:#086fb7; stroke:none;" d="M620 492L621 493L620 492z"/>
<path style="fill:#0101ff; stroke:none;" d="M148 493L149 494L148 493z"/>
<path style="fill:#018181; stroke:none;" d="M231 493L232 494L231 493z"/>
<path style="fill:#0101ff; stroke:none;" d="M301 493L302 494L301 493z"/>
<path style="fill:#086fb7; stroke:none;" d="M452 493L453 494L452 493M821 493L822 494L821 493z"/>
<path style="fill:#018181; stroke:none;" d="M369 494L370 495L369 494z"/>
<path style="fill:#0101ff; stroke:none;" d="M482 494L483 495L482 494M527 494L528 495L527 494z"/>
<path style="fill:#086fb7; stroke:none;" d="M574 494L575 495L574 494M601 494L602 495L601 494z"/>
<path style="fill:#018181; stroke:none;" d="M650 494L651 495L650 494z"/>
<path style="fill:#086fb7; stroke:none;" d="M876 494L877 495L876 494M1094 494L1095 495L1094 494M149 495L150 496L149 495z"/>
<path style="fill:#018181; stroke:none;" d="M216 495L217 496L216 495z"/>
<path style="fill:#0101ff; stroke:none;" d="M685 495L686 496L685 495M954 495L955 496L954 495z"/>
<path style="fill:#086fb7; stroke:none;" d="M1103 495L1104 496L1103 495z"/>
<path style="fill:#0101ff; stroke:none;" d="M575 496L576 497L575 496z"/>
<path style="fill:#018181; stroke:none;" d="M617 496L618 497L617 496z"/>
<path style="fill:#086fb7; stroke:none;" d="M808 496L809 497L808 496z"/>
<path style="fill:#018181; stroke:none;" d="M204 497L205 498L204 497z"/>
<path style="fill:#086fb7; stroke:none;" d="M356 497L357 498L356 497z"/>
<path style="fill:#018181; stroke:none;" d="M402 497L403 498L402 497M616 497L617 498L616 497z"/>
<path style="fill:#0101ff; stroke:none;" d="M674 497L675 498L674 497z"/>
<path style="fill:#086fb7; stroke:none;" d="M697 497L698 498L697 497z"/>
<path style="fill:#018181; stroke:none;" d="M863 497L864 498L863 497z"/>
<path style="fill:#086fb7; stroke:none;" d="M151 498L152 499L151 498z"/>
<path style="fill:#018181; stroke:none;" d="M233 498L234 499L233 498z"/>
<path style="fill:#0101ff; stroke:none;" d="M615 498L616 499L615 498z"/>
<path style="fill:#086fb7; stroke:none;" d="M784 498L785 499L784 498z"/>
<path style="fill:#0101ff; stroke:none;" d="M820 498L821 499L820 498z"/>
<path style="fill:#018181; stroke:none;" d="M672 499L673 500L672 499M903 499L904 500L903 499z"/>
<path style="fill:#0101ff; stroke:none;" d="M1066 499L1067 500L1066 499M1082 499L1083 500L1082 499z"/>
<path style="fill:#018181; stroke:none;" d="M187 500L188 501L187 500z"/>
<path style="fill:#0101ff; stroke:none;" d="M546 500L547 501L546 500z"/>
<path style="fill:#086fb7; stroke:none;" d="M684 500L685 501L684 500M953 500L954 501L953 500z"/>
<path style="fill:#0101ff; stroke:none;" d="M271 501L272 502L271 501z"/>
<path style="fill:#018181; stroke:none;" d="M443 501L444 502L443 501M957 501L958 502L957 501M970 501L971 502L970 501z"/>
<path style="fill:#086fb7; stroke:none;" d="M1084 501L1085 502L1084 501z"/>
<path style="fill:#018181; stroke:none;" d="M184 502L185 503L184 502z"/>
<path style="fill:#086fb7; stroke:none;" d="M296 502L297 503L296 502z"/>
<path style="fill:#0101ff; stroke:none;" d="M309 502L310 503L309 502z"/>
<path style="fill:#086fb7; stroke:none;" d="M558 502L559 503L558 502M581 502L582 503L581 502z"/>
<path style="fill:#018181; stroke:none;" d="M668 502L669 503L668 502z"/>
<path style="fill:#086fb7; stroke:none;" d="M735 502L736 503L735 502M1060 502L1061 503L1060 502z"/>
<path style="fill:#018181; stroke:none;" d="M182 503L183 504L182 503M235 503L236 504L235 503M283 503L284 504L283 503z"/>
<path style="fill:#0101ff; stroke:none;" d="M446 503L447 504L446 503z"/>
<path style="fill:#018181; stroke:none;" d="M739 503L740 504L739 503z"/>
<path style="fill:#0101ff; stroke:none;" d="M1113 503L1114 504L1113 503z"/>
<path style="fill:#086fb7; stroke:none;" d="M295 504L296 505L295 504M605 504L606 505L605 504z"/>
<path style="fill:#0101ff; stroke:none;" d="M902 504L903 505L902 504z"/>
<path style="fill:#018181; stroke:none;" d="M1009 504L1010 505L1009 504z"/>
<path style="fill:#0101ff; stroke:none;" d="M1089 504L1090 505L1089 504z"/>
<path style="fill:#086fb7; stroke:none;" d="M601 505L602 506L601 505z"/>
<path style="fill:#0101ff; stroke:none;" d="M1107 505L1108 506L1107 505z"/>
</svg>
